<svg width="430" height="60" viewBox="0 0 430 60" fill="none" xmlns="http://www.w3.org/2000/svg">
<path d="M28.2567 51.4248H0V59.2442H28.2567V51.4248Z" fill="#C5168C"/>
<path d="M43.8169 0H35.4648V59.2441H60.8766V51.4247H43.8169V0Z" fill="white"/>
<path d="M77.0676 0L63.7754 59.2441H72.3293L74.8282 47.1236H87.2361L89.6485 59.2441H98.2024L85.0064 0H77.0676ZM85.6695 39.3041H76.4044L81.037 16.4037L85.6695 39.3041Z" fill="white"/>
<path d="M95.5742 7.90073H106.031V59.2444H114.383V7.90073H124.917V0.0812988H95.5742V7.90073Z" fill="white"/>
<path d="M137.153 0H128.801V59.2441H137.153V0Z" fill="white"/>
<path d="M141.119 7.90073H151.576V59.2444H159.928V7.90073H170.462V0.0812988H141.119V7.90073Z" fill="white"/>
<path d="M194.891 45.8458C194.891 48.0324 194.401 49.6521 193.421 50.6689C192.46 51.6677 190.884 52.1806 188.75 52.1806C186.616 52.1806 185.021 51.6677 184.031 50.6689C183.031 49.6521 182.522 48.0324 182.522 45.8548V0H174.17V45.8458C174.17 50.4979 175.65 54.1332 178.581 56.6437C181.148 58.8752 184.569 60 188.75 60C190.749 60 192.633 59.7121 194.373 59.1452C196.112 58.5783 197.611 57.7325 198.832 56.6437C201.754 54.1332 203.244 50.4979 203.244 45.8458V0H194.891V45.8458Z" fill="white"/>
<path d="M224.033 0H209.453V59.2441H224.033C228.156 59.2441 231.549 58.2003 234.115 56.1398C237.037 53.6293 238.527 50.021 238.527 45.4229V14.1542C238.527 9.55608 237.047 5.92081 234.115 3.35633C231.549 1.12477 228.156 0 224.033 0ZM230.175 14.1542V45.4319C230.175 47.7084 229.617 49.3371 228.512 50.2729C227.637 51.0378 226.128 51.4337 224.033 51.4337H217.805V7.81943H224.033C226.176 7.81943 227.743 8.33233 228.704 9.33113C229.675 10.3479 230.175 11.9676 230.175 14.1542Z" fill="white"/>
<path d="M244.373 59.2441H269.785V51.4247H252.725V32.8254H264.604V25.006H252.725V7.81943H269.785V0H244.373V59.2441Z" fill="white"/>
<path d="M303.435 42.8854L286.73 0H284.299V59.2441H288.364V14.2621L302.185 50.048H304.598L318.418 14.2621V59.2441H322.484V0H320.052L303.435 42.8854Z" fill="white"/>
<path d="M328.863 59.2441H352.045V55.4379H332.929V30.8188H346.423V27.0126H332.929V3.80624H352.045V0H328.863V59.2441Z" fill="white"/>
<path d="M370.511 0H357.363V59.2441H370.511C374.337 59.2441 377.431 58.3173 379.7 56.4727C382.333 54.2411 383.669 50.9388 383.669 46.6736V12.9034C383.669 8.58428 382.362 5.26395 379.796 3.02339C377.47 1.0168 374.346 0 370.511 0ZM379.594 12.9034V46.6826C379.594 52.5765 376.624 55.4379 370.511 55.4379H361.429V3.80624H370.511C373.26 3.80624 375.461 4.4811 377.037 5.80384C378.738 7.28854 379.594 9.67306 379.594 12.9034Z" fill="white"/>
<path d="M393.276 0H389.211V59.2441H393.276V0Z" fill="white"/>
<path d="M415.957 0.278944L415.89 0H411.978L397.869 59.2441H402.05L405.625 43.8572H422.253L425.828 59.2441H429.999L415.957 0.278944ZM421.282 40.051H406.596L413.977 8.4673L421.282 40.051Z" fill="white"/>
<path d="M28.2567 51.4248H0V59.2442H28.2567V51.4248Z" fill="#C5168C"/>
</svg>
