<svg width="64" height="64" viewBox="0 0 64 64" fill="none" xmlns="http://www.w3.org/2000/svg">
<path d="M55.08 12.104C55.08 10.344 53.656 8.92004 51.896 8.92004H38.368C34.848 8.92004 32 11.768 32 15.288V55.088L34.64 52.448C37.032 50.056 40.264 48.72 43.648 48.72H51.904C53.664 48.72 55.088 47.296 55.088 45.536V12.104H55.08Z" stroke="#00B48D" stroke-width="4" stroke-linecap="round" stroke-linejoin="round"/>
<path d="M8.92011 12.104C8.92011 10.344 10.3441 8.92004 12.1041 8.92004H25.6321C29.1521 8.92004 32.0001 11.768 32.0001 15.288V55.088L29.3601 52.448C26.9681 50.056 23.7361 48.72 20.3521 48.72H12.0961C10.3361 48.72 8.91211 47.296 8.91211 45.536V12.104H8.92011Z" stroke="#00B48D" stroke-width="4" stroke-linecap="round" stroke-linejoin="round"/>
</svg>
