<svg width="80" height="80" viewBox="0 0 80 80" fill="none" xmlns="http://www.w3.org/2000/svg">
<path d="M70.5906 39.14C70.1306 22.46 56.6906 9.39001 40.0006 9.39001C23.3106 9.39001 9.39062 23.12 9.39062 40C9.39062 56.88 23.1206 70.61 40.0006 70.61C44.4306 70.61 48.7106 69.68 52.7106 67.85C54.0206 67.25 54.6006 65.7 54.0006 64.39C53.4006 63.08 51.8506 62.51 50.5406 63.11C47.2206 64.62 43.6806 65.39 40.0006 65.39C26.0006 65.39 14.6106 54 14.6106 40C14.6106 26 26.0006 14.62 40.0006 14.62C54.0006 14.62 65.3806 26 65.3806 40V43.66C65.1506 47.13 62.8906 49.84 60.2206 49.84C57.3706 49.84 55.0506 46.82 55.0506 43.11V39.34C54.6906 31.27 48.0906 24.95 40.0006 24.95C31.9106 24.95 24.9406 31.7 24.9406 40C24.9406 48.3 31.7006 55.06 40.0006 55.06C44.2006 55.06 48.2406 53.28 51.0906 50.18L51.5306 49.7L51.8806 50.25C53.8506 53.3 56.8906 55.06 60.2206 55.06C65.9506 55.06 70.6106 49.7 70.6106 43.11L70.5906 39.14ZM40.0006 49.84C34.5706 49.84 30.1606 45.42 30.1606 40C30.1606 34.58 34.5706 30.17 40.0006 30.17C45.4306 30.17 49.8306 34.58 49.8306 40C49.8306 45.42 45.4206 49.84 40.0006 49.84Z" fill="#C6168D"/>
</svg>
