<svg width="32" height="32" viewBox="0 0 32 32" fill="none" xmlns="http://www.w3.org/2000/svg">
<g clip-path="url(#clip0_55_11721)">
<path d="M25.3912 14.0231C20.2484 10.9952 11.766 10.7168 6.85662 12.194C6.06836 12.4314 5.2348 11.99 4.99589 11.2083C4.75695 10.4264 5.20145 9.60033 5.9904 9.36269C11.6258 7.66622 20.9941 7.99393 26.9142 11.4784C27.6236 11.8958 27.8561 12.8039 27.4357 13.5058C27.0151 14.2091 26.0983 14.4405 25.3912 14.0231ZM23.5116 18.9143C19.2247 16.3012 12.6868 15.5444 7.61433 17.0708C6.95665 17.2677 6.26196 16.9001 6.06215 16.2493C5.86418 15.597 6.23484 14.9098 6.89182 14.7115C12.6861 12.9677 19.8895 13.8125 24.8134 16.8126C25.3984 17.1698 25.5825 17.9291 25.2227 18.5081C24.8619 19.0886 24.0966 19.2706 23.5116 18.9143ZM21.9033 23.1434C18.1568 20.8733 13.4417 20.3606 7.88796 21.6184C7.35287 21.7399 6.81982 21.4073 6.69775 20.877C6.57495 20.3464 6.90905 19.8175 7.44531 19.6965C13.5229 18.319 18.7356 18.9118 22.9409 21.4595C23.4095 21.7433 23.5574 22.3507 23.2707 22.8157C22.9841 23.2815 22.372 23.4277 21.9033 23.1434ZM0 15.818C0 24.5547 7.14316 31.6364 15.9539 31.6364C24.7653 31.6364 31.9078 24.5547 31.9078 15.818C31.9078 7.08211 24.7653 0 15.9539 0C7.14316 0 0 7.08211 0 15.818Z" fill="#1DB954"/>
</g>
<defs>
<clipPath id="clip0_55_11721">
<rect width="32" height="32" fill="white"/>
</clipPath>
</defs>
</svg>
