<svg width="24" height="24" viewBox="0 0 24 24" fill="none" xmlns="http://www.w3.org/2000/svg">
<g clip-path="url(#clip0_46_3208)">
<path d="M16 7C16 6.44771 16.4478 6 17 6C17.5523 6 18 6.44771 18 7C18 7.55228 17.5523 8 17 8C16.4478 8 16 7.55228 16 7Z" fill="black"/>
<path fill-rule="evenodd" clip-rule="evenodd" d="M12 7.25C9.37665 7.25 7.25 9.37664 7.25 11.9999C7.25 14.6234 9.37665 16.75 12 16.75C14.6234 16.75 16.75 14.6234 16.75 11.9999C16.75 9.37664 14.6234 7.25 12 7.25ZM8.75 11.9999C8.75 10.2051 10.2051 8.75 12 8.75C13.795 8.75 15.25 10.2051 15.25 11.9999C15.25 13.795 13.795 15.2499 12 15.2499C10.2051 15.2499 8.75 13.795 8.75 11.9999Z" fill="black"/>
<path fill-rule="evenodd" clip-rule="evenodd" d="M17.2589 2.83306C13.7923 2.44562 10.209 2.44562 6.74244 2.83306C4.73038 3.05794 3.10605 4.64295 2.8695 6.66548C2.45496 10.2098 2.45496 13.7903 2.8695 17.3346C3.10605 19.3571 4.73038 20.9422 6.74244 21.167C10.209 21.5545 13.7923 21.5545 17.2589 21.167C19.2709 20.9422 20.8953 19.3571 21.1318 17.3346C21.5464 13.7903 21.5464 10.2098 21.1318 6.66548C20.8953 4.64295 19.271 3.05794 17.2589 2.83306ZM6.90905 4.32378C10.2649 3.94871 13.7364 3.94871 17.0923 4.32378C18.4224 4.47244 19.4879 5.52205 19.642 6.83973C20.043 10.2683 20.043 13.7318 19.642 17.1604C19.4879 18.478 18.4224 19.5277 17.0923 19.6763C13.7364 20.0514 10.2649 20.0514 6.90905 19.6763C5.57894 19.5277 4.51345 18.478 4.35934 17.1604C3.95834 13.7318 3.95834 10.2683 4.35934 6.83973C4.51345 5.52205 5.57894 4.47244 6.90905 4.32378Z" fill="black"/>
</g>
<defs>
<clipPath id="clip0_46_3208">
<rect width="20" height="20" fill="white" transform="translate(2 2)"/>
</clipPath>
</defs>
</svg>
