<svg width="64" height="64" viewBox="0 0 64 64" fill="none" xmlns="http://www.w3.org/2000/svg">
<path fill-rule="evenodd" clip-rule="evenodd" d="M44.4397 42.36H19.0237C12.5677 42.648 7.51172 47.928 7.51172 54.4C7.51172 55.552 8.44772 56.488 9.59972 56.488C10.7517 56.488 11.6877 55.552 11.6877 54.4C11.6877 50.064 15.2157 46.536 19.5517 46.536H44.8957C48.8877 46.776 52.0637 49.96 52.2957 53.936L52.3277 54.672C52.4477 55.696 53.3357 56.488 54.3997 56.488C55.5517 56.488 56.4877 55.552 56.4877 54.4C56.4877 47.76 51.0797 42.36 44.4397 42.36ZM31.9997 7.51202C23.9837 7.51202 17.4637 14.032 17.4637 22.048C17.4637 30.064 23.9837 36.576 31.9997 36.576C40.0157 36.576 46.5277 30.064 46.5277 22.048C46.5277 14.032 40.0077 7.51202 31.9997 7.51202ZM31.9997 32.4C26.2877 32.4 21.6397 27.76 21.6397 22.048C21.6397 16.336 26.2877 11.696 31.9997 11.696C37.7117 11.696 42.3517 16.336 42.3517 22.048C42.3517 27.76 37.7117 32.4 31.9997 32.4Z" fill="#00B48D"/>
</svg>
