<svg width="226" height="88" viewBox="0 0 226 88" fill="none" xmlns="http://www.w3.org/2000/svg">
<g clip-path="url(#clip0_3_3730)">
<path d="M23.672 46.3765H0V53.432H23.672V46.3765Z" fill="#0095DA"/>
<path d="M36.7042 0H29.7168V53.4319H50.9977V46.3764H36.7042V0Z" fill="#0F1E42"/>
<path d="M64.5597 0L53.4277 53.4319H60.5878L62.6866 42.4938H73.088L75.1072 53.4319H82.2805L71.215 0H64.5597ZM71.7729 35.4383H64.015L67.894 14.7805L71.7729 35.4383Z" fill="#0F1E42"/>
<path d="M80.0605 7.12246H88.8147V53.4319H95.8153V7.12246H104.649V0.0803223H80.0605V7.12246Z" fill="#0F1E42"/>
<path d="M114.893 0H107.893V53.4319H114.893V0Z" fill="#0F1E42"/>
<path d="M118.229 7.12246H126.983V53.4319H133.97V7.12246H142.804V0.0803223H118.229V7.12246Z" fill="#0F1E42"/>
<path d="M163.261 41.3425C163.261 43.3105 162.849 44.7698 162.038 45.6936C161.228 46.604 159.913 47.0592 158.12 47.0592C156.326 47.0592 154.998 46.604 154.161 45.6936C153.324 44.7832 152.899 43.3239 152.899 41.3425V0H145.898V41.3425C145.898 45.5463 147.147 48.813 149.591 51.0756C151.743 53.0838 154.599 54.1013 158.12 54.1013C159.793 54.1013 161.374 53.847 162.822 53.3248C164.283 52.8161 165.532 52.0529 166.555 51.0756C169.013 48.813 170.248 45.5329 170.248 41.3425V0H163.247V41.3425H163.261Z" fill="#0F1E42"/>
<path d="M187.675 0H175.467V53.4319H187.675C191.129 53.4319 193.971 52.4948 196.123 50.6338C198.581 48.3712 199.816 45.1179 199.816 40.9676V12.7589C199.816 8.60855 198.568 5.34185 196.123 3.02571C193.971 1.0175 191.142 0 187.675 0ZM192.816 12.7589V40.9676C192.816 43.0294 192.351 44.4887 191.421 45.3321C190.69 46.0283 189.428 46.3764 187.675 46.3764H182.454V7.05553H187.675C189.468 7.05553 190.783 7.51073 191.594 8.42112C192.404 9.33151 192.816 10.8042 192.816 12.7723V12.7589Z" fill="#0F1E42"/>
<path d="M204.721 53.4319H226.002V46.3764H211.708V29.6011H221.658V22.5456H211.708V7.05553H226.002V0H204.721V53.4319Z" fill="#0F1E42"/>
<path d="M76.9122 60.4739H74.5078V87.6517H76.9122V60.4739Z" fill="#0095DA"/>
<path d="M90.5176 79.6992L82.4808 60.4739H80.8867V87.6651H83.2911V68.4398L91.3146 87.6651H92.922V60.4739H90.5176V79.6992Z" fill="#0095DA"/>
<path d="M95.6973 62.9105H100.586V87.6651H102.99V62.9105H107.919V60.4739H95.6973V62.9105Z" fill="#0095DA"/>
<path d="M110.482 87.6651H120.817V85.2419H112.887V74.9598H118.479V72.5366H112.887V62.9105H120.817V60.4739H110.482V87.6651Z" fill="#0095DA"/>
<path d="M126.371 60.4739H123.967V87.6651H134.302V85.2419H126.371V60.4739Z" fill="#0095DA"/>
<path d="M139.494 60.4739H137.09V87.6651H147.425V85.2419H139.494V60.4739Z" fill="#0095DA"/>
<path d="M152.791 60.4739H150.387V87.6517H152.791V60.4739Z" fill="#0095DA"/>
<path d="M162.17 60.1394C160.483 60.1394 159.115 60.6214 158.118 61.5853C156.949 62.6564 156.352 64.2362 156.352 66.2712V81.8817C156.352 83.9167 156.949 85.4965 158.105 86.5541C159.115 87.5181 160.483 88.0001 162.17 88.0001C163.857 88.0001 165.252 87.5181 166.261 86.5541C167.43 85.4831 168.028 83.9033 168.028 81.8683V72.8313H161.692V75.2546H165.624V81.8683C165.624 83.1803 165.292 84.1577 164.641 84.7735C164.096 85.2957 163.273 85.5634 162.183 85.5634C161.094 85.5634 160.297 85.2957 159.752 84.7601C159.101 84.1711 158.769 83.1937 158.769 81.8683V66.2578C158.769 64.919 159.101 63.955 159.739 63.3659C160.323 62.8304 161.147 62.5627 162.17 62.5627C163.193 62.5627 164.043 62.8304 164.627 63.3526C165.278 63.9684 165.61 64.9457 165.61 66.2578V69.3504H168.015V66.2578C168.015 64.2228 167.417 62.643 166.261 61.5853C165.252 60.6214 163.87 60.1394 162.157 60.1394H162.17Z" fill="#0095DA"/>
<path d="M171.389 87.6651H181.724V85.2419H173.793V74.9598H179.386V72.5366H173.793V62.9105H181.724V60.4739H171.389V87.6651Z" fill="#0095DA"/>
<path d="M194.689 79.6992L186.666 60.4739H185.059V87.6651H187.463V68.4398L195.5 87.6651H197.107V60.4739H194.689V79.6992Z" fill="#0095DA"/>
<path d="M206.473 60.1394C204.786 60.1394 203.417 60.6214 202.381 61.5853C201.239 62.6564 200.654 64.2228 200.654 66.2578V81.8683C200.654 83.9033 201.239 85.4831 202.381 86.5407C203.417 87.5047 204.786 87.9867 206.473 87.9867C208.16 87.9867 209.528 87.5047 210.564 86.5407C211.707 85.4697 212.291 83.9033 212.291 81.8683V77.5707H209.887V81.8683C209.887 83.2071 209.568 84.1844 208.93 84.7735C208.386 85.2957 207.562 85.5634 206.473 85.5634C205.383 85.5634 204.56 85.2957 204.015 84.7735C203.391 84.1844 203.072 83.2071 203.072 81.8683V66.2578C203.072 64.919 203.391 63.9416 204.028 63.3526C204.573 62.8304 205.397 62.5627 206.486 62.5627C207.575 62.5627 208.399 62.8304 208.943 63.3526C209.568 63.9416 209.887 64.919 209.887 66.2578V69.3504H212.291V66.2578C212.291 64.2228 211.707 62.643 210.564 61.5853C209.528 60.6214 208.16 60.1394 206.473 60.1394Z" fill="#0095DA"/>
<path d="M225.999 62.9105V60.4739H215.664V87.6651H225.999V85.2419H218.068V74.9598H223.661V72.5366H218.068V62.9105H225.999Z" fill="#0095DA"/>
</g>
<defs>
<clipPath id="clip0_3_3730">
<rect width="226" height="88" fill="white"/>
</clipPath>
</defs>
</svg>
