<svg width="180" height="70" viewBox="0 0 180 70" fill="none" xmlns="http://www.w3.org/2000/svg">
<g clip-path="url(#clip0_1_42)">
<path d="M18.8538 36.8904H0V42.5027H18.8538V36.8904Z" fill="#0095DA"/>
<path d="M29.2334 0H23.6683V42.5027H40.6177V36.8903H29.2334V0Z" fill="#0F1E42"/>
<path d="M51.4193 0L42.5532 42.5027H48.2559L49.9275 33.8019H58.2118L59.82 42.5027H65.5332L56.72 0H51.4193ZM57.1643 28.1896H50.9855L54.0749 11.7572L57.1643 28.1896Z" fill="#0F1E42"/>
<path d="M63.7657 5.66567H70.7381V42.5027H76.3138V5.66567H83.3496V0.0639648H63.7657V5.66567Z" fill="#0F1E42"/>
<path d="M91.5078 0H85.9321V42.5027H91.5078V0Z" fill="#0F1E42"/>
<path d="M94.1633 5.66567H101.136V42.5027H106.701V5.66567H113.737V0.0639648H94.1633V5.66567Z" fill="#0F1E42"/>
<path d="M130.03 32.886C130.03 34.4515 129.702 35.6124 129.057 36.3472C128.411 37.0714 127.364 37.4334 125.935 37.4334C124.507 37.4334 123.449 37.0714 122.783 36.3472C122.116 35.623 121.777 34.4622 121.777 32.886V0H116.202V32.886C116.202 36.23 117.196 38.8285 119.143 40.6283C120.857 42.2258 123.132 43.0351 125.935 43.0351C127.269 43.0351 128.528 42.8328 129.681 42.4175C130.845 42.0128 131.839 41.4058 132.654 40.6283C134.611 38.8285 135.595 36.2194 135.595 32.886V0H130.019V32.886H130.03Z" fill="#0F1E42"/>
<path d="M149.476 0H139.753V42.5027H149.476C152.227 42.5027 154.491 41.7572 156.205 40.2769C158.162 38.4771 159.146 35.8892 159.146 32.5879V10.1491C159.146 6.84771 158.152 4.2492 156.205 2.40682C154.491 0.809372 152.238 0 149.476 0ZM153.571 10.1491V32.5879C153.571 34.2279 153.2 35.3887 152.46 36.0596C151.878 36.6134 150.873 36.8903 149.476 36.8903H145.318V5.61235H149.476C150.904 5.61235 151.952 5.97444 152.597 6.69862C153.243 7.42279 153.571 8.59425 153.571 10.1597V10.1491Z" fill="#0F1E42"/>
<path d="M163.051 42.5027H180.001V36.8903H168.616V23.5463H176.541V17.934H168.616V5.61235H180.001V0H163.051V42.5027Z" fill="#0F1E42"/>
<path d="M61.2585 48.1042H59.3435V69.723H61.2585V48.1042Z" fill="#0095DA"/>
<path d="M72.0928 63.3971L65.6919 48.1042H64.4222V69.7336H66.3372V54.4408L72.7277 69.7336H74.0078V48.1042H72.0928V63.3971Z" fill="#0095DA"/>
<path d="M76.2195 50.0425H80.113V69.7336H82.028V50.0425H85.9532V48.1042H76.2195V50.0425Z" fill="#0095DA"/>
<path d="M87.9951 69.7336H96.2264V67.8061H89.9101V59.6271H94.3643V57.6996H89.9101V50.0425H96.2264V48.1042H87.9951V69.7336Z" fill="#0095DA"/>
<path d="M100.649 48.1042H98.7343V69.7336H106.966V67.8061H100.649V48.1042Z" fill="#0095DA"/>
<path d="M111.102 48.1042H109.187V69.7336H117.418V67.8061H111.102V48.1042Z" fill="#0095DA"/>
<path d="M121.693 48.1042H119.778V69.723H121.693V48.1042Z" fill="#0095DA"/>
<path d="M129.163 47.8381C127.819 47.8381 126.729 48.2215 125.936 48.9883C125.005 49.8403 124.529 51.0969 124.529 52.7157V65.1331C124.529 66.7519 125.005 68.0085 125.925 68.8499C126.729 69.6166 127.819 70 129.163 70C130.506 70 131.617 69.6166 132.421 68.8499C133.352 67.9979 133.828 66.7412 133.828 65.1225V57.934H128.782V59.8616H131.913V65.1225C131.913 66.1661 131.649 66.9436 131.131 67.4334C130.697 67.8488 130.041 68.0618 129.173 68.0618C128.306 68.0618 127.671 67.8488 127.237 67.4228C126.719 66.9542 126.454 66.1768 126.454 65.1225V52.705C126.454 51.6401 126.719 50.8733 127.226 50.4047C127.692 49.9787 128.348 49.7657 129.163 49.7657C129.977 49.7657 130.654 49.9787 131.12 50.394C131.638 50.8839 131.903 51.6614 131.903 52.705V55.1651H133.818V52.705C133.818 51.0863 133.342 49.8296 132.421 48.9883C131.617 48.2215 130.517 47.8381 129.152 47.8381H129.163Z" fill="#0095DA"/>
<path d="M136.505 69.7336H144.736V67.8061H138.42V59.6271H142.874V57.6996H138.42V50.0425H144.736V48.1042H136.505V69.7336Z" fill="#0095DA"/>
<path d="M155.062 63.3971L148.672 48.1042H147.392V69.7336H149.307V54.4408L155.708 69.7336H156.988V48.1042H155.062V63.3971Z" fill="#0095DA"/>
<path d="M164.447 47.8381C163.103 47.8381 162.014 48.2215 161.188 48.9883C160.279 49.8403 159.813 51.0863 159.813 52.705V65.1225C159.813 66.7412 160.279 67.9979 161.188 68.8392C162.014 69.606 163.103 69.9894 164.447 69.9894C165.791 69.9894 166.881 69.606 167.706 68.8392C168.616 67.9872 169.081 66.7412 169.081 65.1225V61.7039H167.166V65.1225C167.166 66.1874 166.912 66.9649 166.404 67.4335C165.971 67.8488 165.315 68.0618 164.447 68.0618C163.58 68.0618 162.924 67.8488 162.49 67.4335C161.992 66.9649 161.739 66.1874 161.739 65.1225V52.705C161.739 51.6401 161.992 50.8626 162.5 50.394C162.934 49.9787 163.59 49.7657 164.458 49.7657C165.325 49.7657 165.981 49.9787 166.415 50.394C166.912 50.8626 167.166 51.6401 167.166 52.705V55.1651H169.081V52.705C169.081 51.0863 168.616 49.8296 167.706 48.9883C166.881 48.2215 165.791 47.8381 164.447 47.8381Z" fill="#0095DA"/>
<path d="M180 50.0425V48.1042H171.769V69.7336H180V67.8061H173.684V59.6271H178.138V57.6996H173.684V50.0425H180Z" fill="#0095DA"/>
</g>
<defs>
<clipPath id="clip0_1_42">
<rect width="180" height="70" fill="white"/>
</clipPath>
</defs>
</svg>
