<svg width="430" height="200" viewBox="0 0 430 200" fill="none" xmlns="http://www.w3.org/2000/svg">
<g clip-path="url(#clip0_37_5960)">
<path d="M105.119 102.916H76V111.575H105.119V102.916Z" fill="#0095DA"/>
<path d="M121.15 46H112.555V111.576H138.732V102.916H121.15V46Z" fill="#0F1E42"/>
<path d="M155.414 46L141.721 111.576H150.528L153.11 98.1515H165.905L168.388 111.576H177.212L163.601 46H155.414ZM164.287 89.4925H154.744L159.515 64.1397L164.287 89.4925Z" fill="#0F1E42"/>
<path d="M174.482 54.7413H185.251V111.576H193.862V54.7413H204.729V46.0986H174.482V54.7413Z" fill="#0F1E42"/>
<path d="M217.328 46H208.717V111.576H217.328V46Z" fill="#0F1E42"/>
<path d="M221.43 54.7413H232.198V111.576H240.793V54.7413H251.66V46.0986H221.43V54.7413Z" fill="#0F1E42"/>
<path d="M276.824 96.7385C276.824 99.1538 276.317 100.945 275.32 102.078C274.324 103.196 272.706 103.754 270.5 103.754C268.294 103.754 266.66 103.196 265.631 102.078C264.601 100.961 264.078 99.1702 264.078 96.7385V46H255.467V96.7385C255.467 101.898 257.003 105.907 260.009 108.684C262.657 111.148 266.17 112.397 270.5 112.397C272.559 112.397 274.503 112.085 276.285 111.444C278.082 110.82 279.618 109.883 280.876 108.684C283.899 105.907 285.419 101.881 285.419 96.7385V46H276.807V96.7385H276.824Z" fill="#0F1E42"/>
<path d="M306.857 46H291.84V111.576H306.857C311.105 111.576 314.602 110.425 317.249 108.141C320.272 105.365 321.792 101.372 321.792 96.2784V61.6586C321.792 56.565 320.256 52.5559 317.249 49.7134C314.602 47.2487 311.122 46 306.857 46ZM313.18 61.6586V96.2784C313.18 98.8088 312.609 100.6 311.465 101.635C310.566 102.489 309.014 102.916 306.857 102.916H300.435V54.6591H306.857C309.063 54.6591 310.68 55.2177 311.677 56.335C312.674 57.4523 313.18 59.2597 313.18 61.675V61.6586Z" fill="#0F1E42"/>
<path d="M327.824 111.576H354.002V102.916H336.419V82.3286H348.658V73.6696H336.419V54.6591H354.002V46H327.824V111.576Z" fill="#0F1E42"/>
<path d="M170.61 120.218H167.652V153.573H170.61V120.218Z" fill="#0095DA"/>
<path d="M187.343 143.813L177.457 120.218H175.496V153.589H178.454V129.994L188.323 153.589H190.301V120.218H187.343V143.813Z" fill="#0095DA"/>
<path d="M193.717 123.208H199.73V153.589H202.688V123.208H208.75V120.218H193.717V123.208Z" fill="#0095DA"/>
<path d="M211.904 153.589H224.617V150.615H214.862V137.996H221.741V135.022H214.862V123.208H224.617V120.218H211.904V153.589Z" fill="#0095DA"/>
<path d="M231.448 120.218H228.49V153.589H241.203V150.615H231.448V120.218Z" fill="#0095DA"/>
<path d="M247.59 120.218H244.633V153.589H257.346V150.615H247.59V120.218Z" fill="#0095DA"/>
<path d="M263.948 120.218H260.99V153.573H263.948V120.218Z" fill="#0095DA"/>
<path d="M275.485 119.807C273.41 119.807 271.727 120.399 270.501 121.582C269.063 122.896 268.328 124.835 268.328 127.333V146.491C268.328 148.989 269.063 150.928 270.485 152.226C271.727 153.409 273.41 154 275.485 154C277.56 154 279.276 153.409 280.518 152.226C281.956 150.911 282.691 148.972 282.691 146.475V135.384H274.897V138.358H279.734V146.475C279.734 148.085 279.325 149.284 278.525 150.04C277.855 150.681 276.841 151.01 275.502 151.01C274.162 151.01 273.181 150.681 272.511 150.024C271.711 149.301 271.302 148.101 271.302 146.475V127.316C271.302 125.673 271.711 124.49 272.495 123.767C273.214 123.11 274.227 122.781 275.485 122.781C276.743 122.781 277.789 123.11 278.508 123.751C279.309 124.507 279.717 125.706 279.717 127.316V131.112H282.675V127.316C282.675 124.819 281.94 122.88 280.518 121.582C279.276 120.399 277.577 119.807 275.469 119.807H275.485Z" fill="#0095DA"/>
<path d="M286.824 153.589H299.537V150.615H289.782V137.996H296.661V135.022H289.782V123.208H299.537V120.218H286.824V153.589Z" fill="#0095DA"/>
<path d="M315.485 143.813L305.616 120.218H303.639V153.589H306.596V129.994L316.482 153.589H318.459V120.218H315.485V143.813Z" fill="#0095DA"/>
<path d="M329.979 119.807C327.904 119.807 326.221 120.399 324.947 121.582C323.541 122.896 322.822 124.819 322.822 127.316V146.475C322.822 148.972 323.541 150.911 324.947 152.209C326.221 153.392 327.904 153.984 329.979 153.984C332.055 153.984 333.738 153.392 335.012 152.209C336.418 150.895 337.136 148.972 337.136 146.475V141.2H334.179V146.475C334.179 148.118 333.787 149.317 333.002 150.04C332.332 150.681 331.319 151.01 329.979 151.01C328.639 151.01 327.626 150.681 326.956 150.04C326.188 149.317 325.796 148.118 325.796 146.475V127.316C325.796 125.673 326.188 124.474 326.973 123.751C327.643 123.11 328.656 122.781 329.996 122.781C331.336 122.781 332.349 123.11 333.019 123.751C333.787 124.474 334.179 125.673 334.179 127.316V131.112H337.136V127.316C337.136 124.819 336.418 122.88 335.012 121.582C333.738 120.399 332.055 119.807 329.979 119.807Z" fill="#0095DA"/>
<path d="M354 123.208V120.218H341.287V153.589H354V150.615H344.245V137.996H351.124V135.022H344.245V123.208H354Z" fill="#0095DA"/>
</g>
<defs>
<clipPath id="clip0_37_5960">
<rect width="278" height="108" fill="white" transform="translate(76 46)"/>
</clipPath>
</defs>
</svg>
