<svg width="430" height="200" viewBox="0 0 430 200" fill="none" xmlns="http://www.w3.org/2000/svg">
<g clip-path="url(#clip0_37_5977)">
<path d="M105.119 102.917H76V111.576H105.119V102.917Z" fill="#F99D1C"/>
<path d="M121.15 46H112.555V111.576H138.732V102.916H121.15V46Z" fill="#0F1E42"/>
<path d="M155.414 46L141.721 111.576H150.528L153.11 98.1515H165.905L168.388 111.576H177.212L163.601 46H155.414ZM164.287 89.4925H154.744L159.515 64.1397L164.287 89.4925Z" fill="#0F1E42"/>
<path d="M174.482 54.7413H185.251V111.576H193.862V54.7413H204.729V46.0986H174.482V54.7413Z" fill="#0F1E42"/>
<path d="M217.328 46H208.717V111.576H217.328V46Z" fill="#0F1E42"/>
<path d="M221.43 54.7413H232.198V111.576H240.793V54.7413H251.66V46.0986H221.43V54.7413Z" fill="#0F1E42"/>
<path d="M276.824 96.7385C276.824 99.1538 276.317 100.945 275.32 102.079C274.324 103.196 272.706 103.754 270.5 103.754C268.294 103.754 266.66 103.196 265.631 102.079C264.601 100.961 264.078 99.1703 264.078 96.7385V46H255.467V96.7385C255.467 101.898 257.003 105.907 260.009 108.684C262.657 111.148 266.17 112.397 270.5 112.397C272.559 112.397 274.503 112.085 276.285 111.444C278.082 110.82 279.618 109.883 280.876 108.684C283.899 105.907 285.419 101.881 285.419 96.7385V46H276.807V96.7385H276.824Z" fill="#0F1E42"/>
<path d="M306.857 46H291.84V111.576H306.857C311.105 111.576 314.602 110.425 317.249 108.141C320.272 105.365 321.792 101.372 321.792 96.2784V61.6586C321.792 56.565 320.256 52.5559 317.249 49.7134C314.602 47.2487 311.122 46 306.857 46ZM313.18 61.6586V96.2784C313.18 98.8088 312.609 100.6 311.465 101.635C310.566 102.489 309.014 102.916 306.857 102.916H300.435V54.6591H306.857C309.063 54.6591 310.68 55.2177 311.677 56.335C312.674 57.4523 313.18 59.2597 313.18 61.675V61.6586Z" fill="#0F1E42"/>
<path d="M327.822 111.576H354V102.916H336.417V82.3286H348.656V73.6696H336.417V54.6591H354V46H327.822V111.576Z" fill="#0F1E42"/>
<path d="M249.782 119.807C247.674 119.807 245.974 120.399 244.749 121.582C243.311 122.929 242.592 124.852 242.592 127.316V128.236C242.592 131.128 243.36 133.314 244.896 134.71C246.35 136.041 247.804 136.994 249.226 137.536C250.272 137.963 251.35 138.703 252.445 139.738C253.458 140.707 253.981 142.219 253.981 144.224V146.475C253.981 148.118 253.573 149.301 252.772 150.04C252.069 150.681 251.072 151.01 249.782 151.01C248.491 151.01 247.412 150.681 246.759 150.04C245.958 149.284 245.549 148.085 245.549 146.475V141.167H242.592V146.475C242.592 148.939 243.311 150.878 244.749 152.209C245.991 153.392 247.69 153.984 249.798 153.984C251.906 153.984 253.556 153.392 254.831 152.209C256.236 150.895 256.955 148.972 256.955 146.475V144.224C256.955 139.869 254.749 136.698 250.403 134.792C249.7 134.497 249.014 134.152 248.344 133.741C247.723 133.363 247.102 132.706 246.464 131.769C245.86 130.865 245.549 129.682 245.549 128.236V127.316C245.549 125.706 245.958 124.507 246.775 123.751C247.445 123.11 248.458 122.781 249.798 122.781C251.138 122.781 252.135 123.11 252.788 123.767C253.589 124.49 253.997 125.69 253.997 127.316V131.079H256.955V127.316C256.955 124.819 256.236 122.896 254.831 121.582C253.556 120.399 251.873 119.807 249.798 119.807H249.782Z" fill="#F99D1C"/>
<path d="M259.209 123.208H265.222V153.589H268.18V123.208H274.242V120.218H259.209V123.208Z" fill="#F99D1C"/>
<path d="M288.425 146.491C288.425 148.102 288.033 149.301 287.265 150.041C286.546 150.698 285.516 151.026 284.225 151.026C282.935 151.026 281.872 150.698 281.202 150.057C280.418 149.301 280.026 148.102 280.026 146.491V120.235H277.068V146.491C277.068 148.989 277.787 150.911 279.193 152.226C280.467 153.409 282.15 154 284.225 154C286.301 154 287.984 153.409 289.258 152.226C290.664 150.911 291.383 148.989 291.383 146.491V120.235H288.425V146.491Z" fill="#F99D1C"/>
<path d="M302.643 120.218H295.486V153.573H302.643C304.702 153.573 306.385 153.03 307.627 151.946C309.065 150.632 309.801 148.709 309.801 146.244V127.727C309.801 125.229 309.082 123.307 307.676 121.993C306.402 120.81 304.702 120.218 302.643 120.218ZM302.643 150.599H298.444V123.192H302.643C303.934 123.192 304.947 123.521 305.666 124.161C306.434 124.884 306.827 126.084 306.827 127.727V146.244C306.827 149.251 305.536 150.599 302.627 150.599H302.643Z" fill="#F99D1C"/>
<path d="M317.217 120.218H314.26V153.573H317.217V120.218Z" fill="#F99D1C"/>
<path d="M328.755 119.807C326.68 119.807 324.996 120.399 323.771 121.582C322.333 122.896 321.598 124.819 321.598 127.333V146.491C321.598 148.989 322.333 150.927 323.755 152.225C324.996 153.408 326.68 154 328.755 154C330.83 154 332.546 153.408 333.788 152.225C335.226 150.878 335.945 148.956 335.945 146.491V127.333C335.945 124.868 335.226 122.946 333.788 121.598C332.546 120.415 330.846 119.824 328.738 119.824L328.755 119.807ZM332.987 127.316V146.475C332.987 148.085 332.578 149.284 331.761 150.04C331.091 150.681 330.078 151.01 328.738 151.01C327.399 151.01 326.418 150.681 325.748 150.024C324.947 149.301 324.539 148.101 324.539 146.475V127.316C324.539 125.673 324.947 124.49 325.732 123.767C326.451 123.11 327.464 122.781 328.722 122.781C329.98 122.781 331.026 123.11 331.745 123.751C332.546 124.507 332.954 125.706 332.954 127.316H332.987Z" fill="#F99D1C"/>
<path d="M353.999 131.079V127.316C353.999 124.819 353.28 122.896 351.875 121.582C350.6 120.399 348.917 119.807 346.842 119.807C344.767 119.807 343.035 120.399 341.809 121.582C340.371 122.929 339.652 124.852 339.652 127.316V128.236C339.652 131.128 340.42 133.314 341.956 134.71C343.411 136.041 344.865 136.994 346.287 137.536C347.332 137.963 348.411 138.703 349.506 139.738C350.519 140.707 351.042 142.219 351.042 144.224V146.475C351.042 148.118 350.633 149.301 349.832 150.04C349.13 150.681 348.133 151.01 346.842 151.01C345.551 151.01 344.473 150.681 343.819 150.04C343.018 149.284 342.61 148.085 342.61 146.475V141.167H339.652V146.475C339.652 148.939 340.371 150.878 341.809 152.209C343.051 153.392 344.751 153.984 346.858 153.984C348.966 153.984 350.617 153.392 351.891 152.209C353.297 150.895 354.016 148.972 354.016 146.475V144.224C354.016 139.869 351.81 136.698 347.463 134.792C346.777 134.497 346.074 134.152 345.404 133.741C344.783 133.363 344.162 132.706 343.525 131.769C342.92 130.865 342.61 129.682 342.61 128.236V127.316C342.61 125.706 343.018 124.507 343.835 123.751C344.505 123.11 345.519 122.781 346.858 122.781C348.198 122.781 349.195 123.11 349.849 123.767C350.649 124.49 351.058 125.69 351.058 127.316V131.079H354.016H353.999Z" fill="#F99D1C"/>
</g>
<defs>
<clipPath id="clip0_37_5977">
<rect width="278" height="108" fill="white" transform="translate(76 46)"/>
</clipPath>
</defs>
</svg>
