<svg width="180" height="70" viewBox="0 0 180 70" fill="none" xmlns="http://www.w3.org/2000/svg">
<g clip-path="url(#clip0_1_64)">
<path d="M18.8538 36.8904H0V42.5027H18.8538V36.8904Z" fill="#F99D1C"/>
<path d="M29.2331 0H23.6679V42.5027H40.6173V36.8903H29.2331V0Z" fill="#0F1E42"/>
<path d="M51.4192 0L42.553 42.5027H48.2557L49.9274 33.8019H58.2117L59.8198 42.5027H65.5331L56.7199 0H51.4192ZM57.1642 28.1896H50.9854L54.0748 11.7572L57.1642 28.1896Z" fill="#0F1E42"/>
<path d="M63.766 5.66567H70.7383V42.5027H76.3141V5.66567H83.3499V0.0639648H63.766V5.66567Z" fill="#0F1E42"/>
<path d="M91.5074 0H85.9316V42.5027H91.5074V0Z" fill="#0F1E42"/>
<path d="M94.1633 5.66567H101.136V42.5027H106.701V5.66567H113.737V0.0639648H94.1633V5.66567Z" fill="#0F1E42"/>
<path d="M130.03 32.886C130.03 34.4515 129.702 35.6124 129.057 36.3472C128.411 37.0714 127.364 37.4334 125.936 37.4334C124.507 37.4334 123.449 37.0714 122.783 36.3472C122.116 35.623 121.778 34.4622 121.778 32.886V0H116.202V32.886C116.202 36.23 117.196 38.8285 119.143 40.6283C120.857 42.2258 123.132 43.0351 125.936 43.0351C127.269 43.0351 128.528 42.8328 129.681 42.4175C130.845 42.0128 131.839 41.4058 132.654 40.6283C134.611 38.8285 135.595 36.2194 135.595 32.886V0H130.019V32.886H130.03Z" fill="#0F1E42"/>
<path d="M149.476 0H139.753V42.5027H149.476C152.227 42.5027 154.491 41.7572 156.205 40.2769C158.162 38.4771 159.146 35.8892 159.146 32.5879V10.1491C159.146 6.84771 158.152 4.2492 156.205 2.40682C154.491 0.809372 152.238 0 149.476 0ZM153.571 10.1491V32.5879C153.571 34.2279 153.2 35.3887 152.46 36.0596C151.878 36.6134 150.873 36.8903 149.476 36.8903H145.318V5.61235H149.476C150.904 5.61235 151.952 5.97444 152.597 6.69862C153.243 7.42279 153.571 8.59425 153.571 10.1597V10.1491Z" fill="#0F1E42"/>
<path d="M163.051 42.5027H180V36.8903H168.616V23.5463H176.541V17.934H168.616V5.61235H180V0H163.051V42.5027Z" fill="#0F1E42"/>
<path d="M112.52 47.8381C111.155 47.8381 110.055 48.2215 109.261 48.9883C108.33 49.8616 107.865 51.1076 107.865 52.705V53.3014C107.865 55.1757 108.362 56.5921 109.357 57.4973C110.298 58.36 111.24 58.9776 112.16 59.3291C112.837 59.606 113.536 60.0852 114.245 60.7561C114.901 61.3845 115.239 62.3642 115.239 63.6635V65.1225C115.239 66.1874 114.975 66.9542 114.456 67.4334C114.001 67.8488 113.356 68.0618 112.52 68.0618C111.684 68.0618 110.986 67.8488 110.563 67.4334C110.044 66.9436 109.78 66.1661 109.78 65.1225V61.6826H107.865V65.1225C107.865 66.7199 108.33 67.9766 109.261 68.8392C110.065 69.606 111.166 69.9894 112.531 69.9894C113.895 69.9894 114.964 69.606 115.789 68.8392C116.699 67.9872 117.165 66.7412 117.165 65.1225V63.6635C117.165 60.8413 115.736 58.786 112.922 57.5506C112.467 57.3589 112.023 57.1353 111.589 56.869C111.187 56.6241 110.785 56.1981 110.372 55.5911C109.981 55.0053 109.78 54.2386 109.78 53.3014V52.705C109.78 51.6614 110.044 50.8839 110.573 50.394C111.007 49.9787 111.663 49.7657 112.531 49.7657C113.398 49.7657 114.044 49.9787 114.467 50.4047C114.985 50.8733 115.25 51.6507 115.25 52.705V55.1438H117.165V52.705C117.165 51.0863 116.699 49.8403 115.789 48.9883C114.964 48.2215 113.874 47.8381 112.531 47.8381H112.52Z" fill="#F99D1C"/>
<path d="M118.625 50.0425H122.518V69.7336H124.433V50.0425H128.358V48.1042H118.625V50.0425Z" fill="#F99D1C"/>
<path d="M137.542 65.1333C137.542 66.177 137.288 66.9544 136.79 67.4337C136.325 67.8596 135.658 68.0726 134.823 68.0726C133.987 68.0726 133.299 67.8596 132.865 67.4443C132.357 66.9544 132.103 66.177 132.103 65.1333V48.1152H130.188V65.1333C130.188 66.7521 130.654 67.9981 131.564 68.8501C132.389 69.6168 133.479 70.0002 134.823 70.0002C136.166 70.0002 137.256 69.6168 138.081 68.8501C138.991 67.9981 139.457 66.7521 139.457 65.1333V48.1152H137.542V65.1333Z" fill="#F99D1C"/>
<path d="M146.747 48.1042H142.113V69.723H146.747C148.08 69.723 149.17 69.3716 149.974 68.6687C150.905 67.8167 151.381 66.5707 151.381 64.9733V52.9711C151.381 51.3524 150.915 50.1064 150.006 49.2544C149.18 48.4876 148.08 48.1042 146.747 48.1042ZM146.747 67.7954H144.028V50.0318H146.747C147.583 50.0318 148.239 50.2448 148.704 50.6602C149.202 51.1287 149.455 51.9062 149.455 52.9711V64.9733C149.455 66.9221 148.62 67.7954 146.736 67.7954H146.747Z" fill="#F99D1C"/>
<path d="M156.184 48.1042H154.269V69.723H156.184V48.1042Z" fill="#F99D1C"/>
<path d="M163.653 47.8381C162.31 47.8381 161.22 48.2215 160.427 48.9883C159.495 49.8403 159.019 51.0863 159.019 52.7157V65.1331C159.019 66.7519 159.495 68.0085 160.416 68.8499C161.22 69.6166 162.31 70 163.653 70C164.997 70 166.108 69.6166 166.912 68.8499C167.843 67.9766 168.309 66.7306 168.309 65.1331V52.7157C168.309 51.1182 167.843 49.8722 166.912 48.9989C166.108 48.2322 165.008 47.8488 163.643 47.8488L163.653 47.8381ZM166.394 52.705V65.1225C166.394 66.1661 166.129 66.9436 165.6 67.4335C165.166 67.8488 164.51 68.0618 163.643 68.0618C162.775 68.0618 162.14 67.8488 161.707 67.4228C161.188 66.9542 160.924 66.1768 160.924 65.1225V52.705C160.924 51.6401 161.188 50.8733 161.696 50.4047C162.162 49.9787 162.818 49.7657 163.632 49.7657C164.447 49.7657 165.124 49.9787 165.59 50.394C166.108 50.8839 166.373 51.6614 166.373 52.705H166.394Z" fill="#F99D1C"/>
<path d="M180 55.1438V52.705C180 51.0863 179.534 49.8403 178.624 48.9883C177.799 48.2215 176.709 47.8381 175.365 47.8381C174.022 47.8381 172.9 48.2215 172.107 48.9883C171.176 49.8616 170.71 51.1076 170.71 52.705V53.3014C170.71 55.1757 171.207 56.5921 172.202 57.4973C173.144 58.36 174.085 58.9776 175.006 59.3291C175.683 59.606 176.381 60.0852 177.09 60.7561C177.746 61.3845 178.085 62.3642 178.085 63.6635V65.1225C178.085 66.1874 177.82 66.9542 177.302 67.4334C176.847 67.8488 176.201 68.0618 175.365 68.0618C174.53 68.0618 173.831 67.8488 173.408 67.4334C172.89 66.9436 172.625 66.1661 172.625 65.1225V61.6826H170.71V65.1225C170.71 66.7199 171.176 67.9766 172.107 68.8392C172.911 69.606 174.011 69.9894 175.376 69.9894C176.741 69.9894 177.809 69.606 178.635 68.8392C179.545 67.9872 180.01 66.7412 180.01 65.1225V63.6635C180.01 60.8413 178.582 58.786 175.768 57.5506C175.323 57.3589 174.868 57.1353 174.434 56.869C174.032 56.6241 173.63 56.1981 173.218 55.5911C172.826 55.0053 172.625 54.2386 172.625 53.3014V52.705C172.625 51.6614 172.89 50.8839 173.419 50.394C173.853 49.9787 174.508 49.7657 175.376 49.7657C176.244 49.7657 176.889 49.9787 177.312 50.4047C177.831 50.8733 178.095 51.6507 178.095 52.705V55.1438H180.01H180Z" fill="#F99D1C"/>
</g>
<defs>
<clipPath id="clip0_1_64">
<rect width="180" height="70" fill="white"/>
</clipPath>
</defs>
</svg>
