<svg width="230" height="90" viewBox="0 0 230 90" fill="none" xmlns="http://www.w3.org/2000/svg">
<g clip-path="url(#clip0_22_6024)">
<path d="M24.091 47.4304H0V54.6463H24.091V47.4304Z" fill="#F99D1C"/>
<path d="M37.3532 0H30.2422V54.6463H51.8997V47.4304H37.3532V0Z" fill="white"/>
<path d="M65.702 0L54.373 54.6463H61.6598L63.7958 43.4596H74.3813L76.4362 54.6463H83.7365L72.4751 0H65.702ZM73.0429 36.2437H65.1477L69.0953 15.1164L73.0429 36.2437Z" fill="white"/>
<path d="M81.4785 7.28447H90.3876V54.6464H97.5121V7.28447H106.502V0.0822754H81.4785V7.28447Z" fill="white"/>
<path d="M116.925 0H109.801V54.6463H116.925V0Z" fill="white"/>
<path d="M120.32 7.28447H129.229V54.6464H136.34V7.28447H145.331V0.0822754H120.32V7.28447Z" fill="white"/>
<path d="M166.15 42.2821C166.15 44.2948 165.731 45.7873 164.906 46.7321C164.081 47.6632 162.743 48.1287 160.918 48.1287C159.093 48.1287 157.741 47.6632 156.889 46.7321C156.038 45.801 155.605 44.3085 155.605 42.2821V0H148.48V42.2821C148.48 46.5815 149.751 49.9224 152.239 52.2364C154.429 54.2903 157.335 55.3309 160.918 55.3309C162.621 55.3309 164.23 55.0708 165.704 54.5367C167.191 54.0164 168.462 53.236 169.503 52.2364C172.004 49.9224 173.261 46.5678 173.261 42.2821V0H166.136V42.2821H166.15Z" fill="white"/>
<path d="M190.996 0H178.572V54.6463H190.996C194.511 54.6463 197.404 53.6878 199.594 51.7846C202.095 49.4706 203.353 46.1433 203.353 41.8987V13.0488C203.353 8.8042 202.082 5.46326 199.594 3.09448C197.404 1.04062 194.525 0 190.996 0ZM196.228 13.0488V41.8987C196.228 44.0073 195.755 45.4998 194.809 46.3624C194.065 47.0744 192.781 47.4304 190.996 47.4304H185.683V7.21588H190.996C192.821 7.21588 194.16 7.68142 194.984 8.61251C195.809 9.54359 196.228 11.0497 196.228 13.0625V13.0488Z" fill="white"/>
<path d="M208.342 54.6463H229.999V47.4304H215.453V30.2739H225.579V23.058H215.453V7.21588H229.999V0H208.342V54.6463Z" fill="white"/>
<path d="M143.777 61.5061C142.033 61.5061 140.627 61.999 139.613 62.9849C138.423 64.1077 137.828 65.7097 137.828 67.7635V68.5303C137.828 70.9402 138.464 72.7612 139.734 73.9251C140.938 75.0342 142.141 75.8283 143.317 76.2802C144.182 76.6362 145.074 77.2523 145.98 78.115C146.818 78.9228 147.251 80.1825 147.251 81.853V83.7288C147.251 85.0981 146.913 86.0839 146.251 86.7001C145.669 87.2341 144.845 87.5079 143.777 87.5079C142.709 87.5079 141.816 87.2341 141.275 86.7001C140.613 86.0702 140.275 85.0707 140.275 83.7288V79.3062H137.828V83.7288C137.828 85.7827 138.423 87.3984 139.613 88.5075C140.64 89.4933 142.046 89.9863 143.79 89.9863C145.534 89.9863 146.899 89.4933 147.954 88.5075C149.117 87.4121 149.711 85.8101 149.711 83.7288V81.853C149.711 78.2245 147.886 75.5819 144.29 73.9936C143.709 73.7471 143.141 73.4596 142.587 73.1172C142.073 72.8023 141.559 72.2546 141.032 71.4742C140.532 70.7211 140.275 69.7352 140.275 68.5303V67.7635C140.275 66.4217 140.613 65.4221 141.289 64.7923C141.843 64.2583 142.681 63.9844 143.79 63.9844C144.899 63.9844 145.723 64.2583 146.264 64.806C146.926 65.4084 147.264 66.408 147.264 67.7635V70.8991H149.711V67.7635C149.711 65.6823 149.117 64.0803 147.954 62.9849C146.899 61.999 145.507 61.5061 143.79 61.5061H143.777Z" fill="#F99D1C"/>
<path d="M151.576 64.3404H156.551V89.6576H158.998V64.3404H164.014V61.8484H151.576V64.3404Z" fill="#F99D1C"/>
<path d="M175.747 83.743C175.747 85.0848 175.423 86.0844 174.787 86.7005C174.193 87.2482 173.341 87.5221 172.273 87.5221C171.205 87.5221 170.326 87.2482 169.772 86.7142C169.123 86.0844 168.799 85.0848 168.799 83.743V61.8625H166.352V83.743C166.352 85.8242 166.946 87.4262 168.109 88.5216C169.164 89.5075 170.556 90.0004 172.273 90.0004C173.99 90.0004 175.382 89.5075 176.437 88.5216C177.599 87.4262 178.194 85.8242 178.194 83.743V61.8625H175.747V83.743Z" fill="#F99D1C"/>
<path d="M187.511 61.8484H181.59V89.6439H187.511C189.215 89.6439 190.607 89.1921 191.635 88.2884C192.824 87.193 193.433 85.591 193.433 83.5371V68.1058C193.433 66.0246 192.838 64.4226 191.675 63.3272C190.621 62.3413 189.215 61.8484 187.511 61.8484ZM187.511 87.1656H184.037V64.3267H187.511C188.579 64.3267 189.417 64.6006 190.012 65.1346C190.648 65.737 190.972 66.7366 190.972 68.1058V83.5371C190.972 86.0428 189.904 87.1656 187.498 87.1656H187.511Z" fill="#F99D1C"/>
<path d="M199.568 61.8484H197.121V89.6439H199.568V61.8484Z" fill="#F99D1C"/>
<path d="M209.113 61.5061C207.396 61.5061 206.003 61.999 204.989 62.9849C203.8 64.0803 203.191 65.6823 203.191 67.7772V83.7425C203.191 85.8238 203.8 87.4395 204.976 88.5212C206.003 89.507 207.396 90 209.113 90C210.83 90 212.249 89.507 213.277 88.5212C214.466 87.3984 215.061 85.7964 215.061 83.7425V67.7772C215.061 65.7234 214.466 64.1213 213.277 62.9986C212.249 62.0127 210.843 61.5198 209.099 61.5198L209.113 61.5061ZM212.614 67.7635V83.7288C212.614 85.0707 212.276 86.0702 211.6 86.7001C211.046 87.2341 210.208 87.5079 209.099 87.5079C207.991 87.5079 207.18 87.2341 206.625 86.6864C205.963 86.0839 205.625 85.0844 205.625 83.7288V67.7635C205.625 66.3943 205.963 65.4084 206.612 64.806C207.207 64.2583 208.045 63.9844 209.086 63.9844C210.127 63.9844 210.992 64.2583 211.587 64.7923C212.249 65.4221 212.587 66.4217 212.587 67.7635H212.614Z" fill="#F99D1C"/>
<path d="M229.999 70.8991V67.7635C229.999 65.6823 229.404 64.0803 228.241 62.9849C227.187 61.999 225.794 61.5061 224.077 61.5061C222.36 61.5061 220.927 61.999 219.913 62.9849C218.724 64.1077 218.129 65.7097 218.129 67.7635V68.5303C218.129 70.9402 218.764 72.7612 220.035 73.9251C221.238 75.0342 222.441 75.8283 223.618 76.2802C224.483 76.6362 225.375 77.2523 226.281 78.115C227.119 78.9228 227.552 80.1825 227.552 81.853V83.7288C227.552 85.0981 227.214 86.0839 226.551 86.7001C225.97 87.2341 225.145 87.5079 224.077 87.5079C223.009 87.5079 222.117 87.2341 221.576 86.7001C220.914 86.0702 220.576 85.0707 220.576 83.7288V79.3062H218.129V83.7288C218.129 85.7827 218.724 87.3984 219.913 88.5075C220.941 89.4933 222.347 89.9863 224.091 89.9863C225.835 89.9863 227.2 89.4933 228.255 88.5075C229.417 87.4121 230.012 85.8101 230.012 83.7288V81.853C230.012 78.2245 228.187 75.5819 224.591 73.9936C224.023 73.7471 223.442 73.4596 222.888 73.1172C222.374 72.8023 221.86 72.2546 221.333 71.4742C220.833 70.7211 220.576 69.7352 220.576 68.5303V67.7635C220.576 66.4217 220.914 65.4221 221.59 64.7923C222.144 64.2583 222.982 63.9844 224.091 63.9844C225.199 63.9844 226.024 64.2583 226.565 64.806C227.227 65.4084 227.565 66.408 227.565 67.7635V70.8991H230.012H229.999Z" fill="#F99D1C"/>
</g>
<defs>
<clipPath id="clip0_22_6024">
<rect width="230" height="90" fill="white"/>
</clipPath>
</defs>
</svg>
