<?xml version="1.0" standalone="no"?>
<!DOCTYPE svg PUBLIC "-//W3C//DTD SVG 1.1//EN" "http://www.w3.org/Graphics/SVG/1.1/DTD/svg11.dtd" >
<svg xmlns="http://www.w3.org/2000/svg" xmlns:xlink="http://www.w3.org/1999/xlink" version="1.1">
<metadata>
Created by FontForge 20201107 at Tue Sep  3 15:11:16 2024
 By 
Copyright 2011 The Lora Project Authors (https://github.com/cyrealtype/Lora-Cyrillic), with Reserved Font Name "Lora".
</metadata>
<defs>
<font id="Lora-BoldItalic" horiz-adv-x="0" >
  <font-face 
    font-family="Lora"
    font-weight="700"
    font-style="italic"
    font-stretch="normal"
    units-per-em="2048"
    panose-1="0 0 0 0 0 0 0 0 0 0"
    ascent="1638"
    descent="-410"
    x-height="1047"
    cap-height="1434"
    bbox="-236 -602 2583.58 2224"
    underline-thickness="102"
    underline-position="-255"
    slope="-3"
    unicode-range="U+000D-FB02"
  />
<missing-glyph horiz-adv-x="1110" 
d="M113 1024h927l-53 -1024h-928zM338 147h387l39 730h-387z" />
    <glyph glyph-name="fi" unicode="fi" horiz-adv-x="1398" 
d="M-41 -555q-93 0 -144 39.5t-51 107.5q0 27 11 54.5t40.5 51t71.5 23.5q44 0 75.5 -30t31.5 -76q0 -13 -2 -21q12 -4 26 -4q22 0 40 16t31 50t21.5 66.5t15.5 84.5t10.5 84.5t8.5 85.5q11 132 36.5 475t31.5 425l-164 -3l19 150h163q67 532 551 532q63 0 131 -13.5
t136 -42t111.5 -81.5t43.5 -123q0 -20 -6.5 -42t-20 -43.5t-39.5 -35.5t-61 -14q-53 0 -90 34t-37 87q0 29 11 66q-35 38 -74.5 55.5t-108.5 17.5q-146 0 -207.5 -88t-85.5 -309h213l-12 -141l-209 -4q-33 -553 -74 -902q-62 -532 -444 -532zM1071 -23q-109 0 -153 58
t-44 174q0 84 33 308.5t33 285.5q0 53 -31 53q-52 0 -98 -162l-111 33q9 47 34 99.5t63 103.5t96 84t123 33q101 0 144.5 -61.5t43.5 -176.5q0 -72 -31.5 -310t-31.5 -278q0 -53 30 -53q55 0 101 162l110 -33q-9 -48 -33 -100t-61.5 -103t-94.5 -84t-122 -33z" />
    <glyph glyph-name="fl" unicode="fl" horiz-adv-x="1347" 
d="M-41 -555q-93 0 -144 39.5t-51 107.5q0 54 33 91.5t90 37.5q44 0 75.5 -30t31.5 -76q0 -13 -2 -21q12 -4 26 -4q22 0 40 16t31 50t21.5 66.5t15.5 84.5t10.5 84.5t8.5 85.5q11 132 36.5 475t31.5 425l-164 -3l19 150h163q34 269 156 400.5t352 131.5q64 0 160 -22.5
t129 -22.5q54 0 86 35h113q-125 -1069 -136 -1220q-4 -60 -4 -99q0 -59 31 -59q53 0 99 162l110 -33q-11 -45 -26 -86t-41.5 -85.5t-59.5 -76t-81 -52t-105 -20.5q-82 0 -134.5 48t-52.5 149q0 60 4 139t9 141t16 172.5t16.5 162t21 185.5t19.5 171q2 16 13 96t14 115
q-85 65 -197 65q-127 0 -180.5 -87.5t-77.5 -309.5h213l-12 -141l-209 -4q-33 -553 -74 -902q-62 -532 -444 -532z" />
    <glyph glyph-name=".notdef" horiz-adv-x="1110" 
d="M113 1024h927l-53 -1024h-928zM338 147h387l39 730h-387z" />
    <glyph glyph-name="uni0000" horiz-adv-x="538" 
 />
    <glyph glyph-name="uni0000" horiz-adv-x="538" 
 />
    <glyph glyph-name="nonmarkingreturn" horiz-adv-x="682" 
 />
    <glyph glyph-name="CR" unicode="&#xd;" horiz-adv-x="538" 
 />
    <glyph glyph-name="space" unicode=" " horiz-adv-x="538" 
 />
    <glyph glyph-name="exclam" unicode="!" horiz-adv-x="522" 
d="M305 1466q77 0 111 -56t24 -130l-118 -844h-138l-32 844q-3 71 39 128.5t114 57.5zM244 287q63 0 102 -46t37 -114q-4 -65 -51.5 -112.5t-106.5 -47.5q-60 0 -100 47t-37 113q3 65 50 112.5t106 47.5z" />
    <glyph glyph-name="quotedbl" unicode="&#x22;" horiz-adv-x="663" 
d="M629 1466l-41 -460h-162l8 460h195zM336 1466l-41 -460h-162l8 460h195z" />
    <glyph glyph-name="numbersign" unicode="#" horiz-adv-x="1724" 
d="M1464 1466l-106 -387h342v-2l-51 -174h-340l-117 -409h342l-53 -177h-336l-98 -350h-213l100 350h-348l-99 -350h-213l103 350h-340l51 177h336l123 409h-344l53 176h340l111 387h200l-108 -387h354l113 387h198zM1106 903h-354l-119 -409h348z" />
    <glyph glyph-name="dollar" unicode="$" horiz-adv-x="1167" 
d="M471 -315l12 288q-136 23 -254 95l2 -86h-157l24 479h133q18 -169 107.5 -256.5t234.5 -87.5q106 0 169.5 56t68.5 146q1 23 -4 43.5t-11.5 37t-23 34t-27 28.5t-37 26.5t-39.5 23t-47 22.5t-46.5 20t-51.5 21q-75 32 -133 64t-115 77t-93.5 95.5t-57 118t-16.5 145.5
q3 52 16 101.5t44.5 101t78 90.5t122 66t169.5 32l14 248h190l-16 -268q95 -26 164 -78l-2 84h158l-25 -477h-135q-19 175 -93.5 264t-213.5 88q-85 -1 -141.5 -54t-59.5 -130q-6 -92 55.5 -150.5t239.5 -140.5q53 -25 87 -41.5t83.5 -45t81 -54t67 -62.5t54.5 -75t31 -88
t9 -105q-9 -164 -117 -273t-296 -135l-17 -288h-186z" />
    <glyph glyph-name="percent" unicode="%" horiz-adv-x="1812" 
d="M457 666q-121 0 -207.5 56.5t-125 144.5t-34.5 192q5 99 53 189.5t141 152.5t210 65q73 1 134.5 -21t104 -60t72 -88.5t42 -106.5t9.5 -113q-8 -165 -124 -288t-275 -123zM342 -35l-127 125l1239 1376l143 -135zM465 805q40 0 70 28t45.5 72t22.5 87t7 83q0 49 -6.5 91
t-20 79.5t-39 59.5t-59.5 22q-44 0 -76 -29.5t-46.5 -76t-20.5 -86t-6 -74.5q0 -42 6 -83.5t19.5 -82t40.5 -65.5t63 -25zM1333 -33q-121 0 -207 56.5t-123.5 144.5t-31.5 192q4 74 33 145t78 129.5t124.5 95.5t163.5 38q91 2 164.5 -31.5t118 -90.5t66.5 -126t18 -141
q-9 -166 -124.5 -289t-279.5 -123zM1343 106q40 0 70.5 28.5t46.5 72.5t23.5 88t7.5 84q0 66 -11 119.5t-40.5 92t-73.5 38.5q-45 0 -77.5 -30t-47.5 -76t-21 -86t-6 -75q0 -42 6 -83.5t19.5 -82t40.5 -65.5t63 -25z" />
    <glyph glyph-name="ampersand" unicode="&#x26;" horiz-adv-x="1402" 
d="M588 -33q-116 0 -213 25t-171.5 74.5t-116.5 129.5t-42 183q0 147 105 258.5t274 153.5q-126 25 -199 97.5t-73 172.5q0 127 67 221t176 140t242 44q184 -1 294.5 -75t110.5 -185q0 -59 -37.5 -101t-97.5 -42q-57 0 -91.5 33t-37.5 90q0 21 7.5 49.5t19.5 42.5
q-49 49 -146 49q-81 -2 -141.5 -67.5t-66.5 -174.5q-1 -33 5 -65t23 -64t44 -56t71.5 -39t101.5 -15q8 0 28.5 1t41.5 1l-8 -143l-72 2q-142 3 -230.5 -77.5t-97.5 -211.5q-10 -144 74 -226.5t213 -82.5q95 0 168.5 29.5t118.5 82.5t71 114.5t37 135.5q-122 0 -241 -92
l-70 74q88 128 161 168.5t208 40.5q79 0 138.5 18.5t123.5 79.5l78 -68q-58 -102 -114.5 -150.5t-158.5 -62.5q-6 -71 -27 -138.5t-65.5 -137t-107 -120.5t-160 -83.5t-217.5 -32.5z" />
    <glyph glyph-name="quotesingle" unicode="'" horiz-adv-x="385" 
d="M350 1466l-43 -460h-172l6 460h209z" />
    <glyph glyph-name="parenleft" unicode="(" horiz-adv-x="606" 
d="M449 -555q-77 74 -149 179.5t-135 239.5t-97.5 298t-26.5 327q9 163 61 331t128.5 305.5t160.5 247.5t168 183l70 -71q-79 -99 -142 -245.5t-98.5 -292t-54.5 -261.5t-23 -197q-4 -80 3 -193t27 -253.5t68.5 -283.5t116.5 -242z" />
    <glyph glyph-name="parenright" unicode=")" horiz-adv-x="606" 
d="M143 1556q77 -74 149 -179.5t135 -239.5t97.5 -298t26.5 -327q-9 -163 -61 -331t-128.5 -305.5t-160.5 -247.5t-168 -183l-70 72q79 99 142 245t98.5 292t54.5 261.5t23 196.5q4 80 -3 193t-27 254t-68.5 284t-116.5 242z" />
    <glyph glyph-name="asterisk" unicode="*" horiz-adv-x="1048" 
d="M578 1466q41 0 64 -23t27.5 -52t2.5 -70q-3 -93 -68 -260q136 95 236 129q142 47 172 -51q28 -102 -115 -144q-107 -30 -266 -30q129 -98 184 -177q23 -35 33.5 -62.5t4 -61t-41.5 -58.5q-88 -60 -166 56q-56 88 -96 245q-68 -176 -123 -239q-92 -122 -174 -62
q-80 62 8 178q74 89 209 181q-163 0 -262 30q-139 47 -101 150q12 29 31.5 44.5t45 17t48 -2.5t52.5 -14q95 -32 223 -129q-43 148 -39 260q4 145 111 145z" />
    <glyph glyph-name="plus" unicode="+" horiz-adv-x="1085" 
d="M102 817h377l21 377h159l-20 -377h377l-8 -160h-377l-21 -376h-159l20 376h-377z" />
    <glyph glyph-name="comma" unicode="," horiz-adv-x="509" 
d="M211 281q91 1 136 -58.5t40 -156.5q-10 -213 -211 -449l-76 57q43 53 87.5 148.5t45.5 175.5q-20 -6 -43 -6q-60 0 -99 34t-36 101q3 63 47.5 108.5t108.5 45.5z" />
    <glyph glyph-name="hyphen" unicode="-" horiz-adv-x="968" 
d="M868 750l-12 -207l-754 -8l13 215h753z" />
    <glyph glyph-name="period" unicode="." horiz-adv-x="477" 
d="M215 287q62 0 102 -46.5t37 -113.5q-3 -68 -45.5 -114t-107.5 -46q-66 0 -106.5 46.5t-37.5 113.5q3 65 50 112.5t108 47.5z" />
    <glyph glyph-name="slash" unicode="/" horiz-adv-x="1361" 
d="M1212 1546l174 -119l-1282 -1982l-145 104z" />
    <glyph glyph-name="zero" unicode="0" horiz-adv-x="1280" 
d="M694 1466q115 0 207 -45t151 -118.5t97 -171.5t51.5 -201t7.5 -209q-5 -104 -31.5 -209t-78 -203.5t-120 -174t-165.5 -121.5t-207 -46q-120 0 -215 45t-154 118t-96.5 171.5t-50 200.5t-6.5 209q6 105 33.5 210.5t79.5 204t122 174t167.5 121t207.5 45.5zM682 1327
q-71 0 -125.5 -45.5t-88 -127.5t-52.5 -181t-25 -219q-32 -648 236 -648q247 0 274 572q4 101 4.5 195t-12.5 177t-36.5 144.5t-68 97t-106.5 35.5z" />
    <glyph glyph-name="one" unicode="1" horiz-adv-x="813" 
d="M641 1466l-59 -1130q-6 -107 -19 -184q65 6 154 6l-8 -158h-582l6 135q42 2 63.5 6.5t45 21.5t34 53.5t13.5 96.5l43 822l-232 -134l-65 123l481 342h125z" />
    <glyph glyph-name="two" unicode="2" horiz-adv-x="1069" 
d="M563 1466q68 0 131.5 -12.5t122.5 -41.5t101.5 -72.5t66 -110.5t19.5 -150q-4 -74 -43 -146.5t-145.5 -180.5t-295.5 -256q-107 -84 -168.5 -161t-75.5 -124l402 -10q75 -3 116.5 25t45.5 108h129l-33 -334h-897q3 59 16 115t29.5 98.5t47 89.5t53.5 77t65 72.5t66 64
t71 63.5q155 136 227 249.5t78 225.5q2 52 -5.5 97t-27.5 84.5t-59.5 62.5t-95.5 22q-53 0 -98 -25t-70 -61q19 -21 28 -53.5t7 -57.5q-4 -48 -42.5 -88t-107.5 -39q-61 1 -92.5 44t-28.5 106q2 48 35 102t89.5 103t146 81.5t192.5 32.5z" />
    <glyph glyph-name="three" unicode="3" horiz-adv-x="1118" 
d="M469 -33q-110 0 -196.5 27t-135.5 71t-73 96t-21 107q2 63 42.5 109t102.5 47q69 1 99 -40t28 -91q-4 -54 -36 -94q18 -37 69.5 -59.5t110.5 -22.5q124 0 195 75t77 195q3 56 -9 106.5t-42.5 96t-91 71.5t-144.5 25q-31 0 -106 -6l6 147q23 -2 62 -2q133 0 212 70t87 186
q8 112 -35 177t-144 65q-53 0 -99.5 -26t-66.5 -60q32 -39 27 -100q-2 -47 -39 -90.5t-104 -40.5q-61 1 -93.5 43t-29.5 104q2 48 32.5 101t83.5 101t140 79.5t190 31.5q99 0 177.5 -19.5t138.5 -61t90.5 -113t25.5 -168.5q-2 -44 -21 -90t-55 -92.5t-99 -84.5t-144 -55
q185 -35 273.5 -138.5t82.5 -242.5q-10 -206 -165 -320t-402 -114z" />
    <glyph glyph-name="four" unicode="4" horiz-adv-x="1091" 
d="M369 0l6 135q42 2 63.5 6.5t44.5 21.5t33.5 53t13.5 97l2 58h-532l10 192l744 903h125l-50 -911h201l-10 -184h-201l-4 -103q-2 -66 -14 -116l153 6l-8 -158h-577zM543 559l26 453h-2l-368 -451z" />
    <glyph glyph-name="five" unicode="5" horiz-adv-x="1083" 
d="M991 1567l-33 -332l-622 -12l-39 -365q48 21 120 35t132 14q123 0 217.5 -37.5t150.5 -102t82.5 -146t22.5 -175.5q-7 -115 -56.5 -208t-127.5 -151t-172.5 -89t-196.5 -31q-189 0 -302 87t-108 194q3 62 44 108t102 47q36 1 63 -11t41 -32.5t20 -43t5 -44.5
q-4 -47 -29 -84q11 -33 60 -54t96 -21q78 0 134.5 44t82.5 107.5t29 138.5q4 31 1.5 69t-6.5 77.5t-21 77t-41 66.5t-67 47t-98 18q-119 0 -250 -76l-84 68l49 684h510q78 0 118 26.5t44 106.5h129z" />
    <glyph glyph-name="six" unicode="6" horiz-adv-x="1146" 
d="M682 1466q93 0 165.5 -25t114 -65.5t62 -87.5t18.5 -96q-3 -59 -40 -102t-97 -43q-69 0 -100 39.5t-29 89.5q5 58 35 90q-16 27 -52.5 43.5t-84.5 13.5q-71 -4 -126 -54.5t-87.5 -130.5t-50.5 -164t-25 -175q36 40 115.5 75.5t152.5 38.5q110 3 192 -30.5t129.5 -98
t68.5 -150.5t16 -194q-7 -128 -75.5 -236t-186.5 -172.5t-260 -64.5q-108 0 -190 31.5t-135 89.5t-83.5 144.5t-40.5 191t-2 235.5q2 56 11.5 120t30.5 144t51 154t77.5 146t106 125t141 85.5t178.5 32.5zM586 750q-62 0 -120.5 -39t-90.5 -97q-4 -79 2 -160t24 -161.5
t57.5 -131t96.5 -50.5q51 0 89.5 23t60 64t33 87.5t14.5 103.5q18 361 -166 361z" />
    <glyph glyph-name="seven" unicode="7" horiz-adv-x="942" 
d="M375 -33q-59 0 -87 32.5t-28 80.5q0 44 27.5 117.5t124.5 277.5q23 47 84.5 175.5t132 274.5t145.5 302l-432 4q-74 2 -116 -31t-46 -115h-129l35 349h870l-10 -187q-37 -69 -71.5 -142t-60 -128.5t-56.5 -140t-47 -126.5t-48 -143t-42 -134.5t-46.5 -155.5t-46.5 -154
q-47 -156 -153 -156z" />
    <glyph glyph-name="eight" unicode="8" horiz-adv-x="1150" 
d="M535 -33q-61 0 -122 11t-122 37.5t-106.5 66t-72 102t-22.5 140.5q6 110 91.5 214.5t199.5 168.5q-124 81 -179 178.5t-50 189.5q4 78 35.5 143.5t80.5 110.5t111.5 76.5t127.5 46t130 14.5q109 0 201.5 -39t150.5 -120t53 -189q-6 -97 -83 -187t-179 -149
q36 -35 81.5 -76t68.5 -62t51.5 -50.5t41 -50.5t24.5 -51t15 -63t1 -77q-5 -96 -50.5 -171.5t-119.5 -121t-165 -69t-193 -23.5zM651 864q66 47 114 117.5t54 128.5q9 99 -41.5 156t-132.5 57q-87 0 -143.5 -55t-61.5 -135q-4 -78 58 -155.5t153 -113.5zM545 111
q96 -1 156 55t65 143q8 192 -250 324q-79 -60 -124 -141.5t-50 -147.5q-11 -97 47.5 -164.5t155.5 -68.5z" />
    <glyph glyph-name="nine" unicode="9" horiz-adv-x="1148" 
d="M616 1466q107 0 189.5 -34t136 -94.5t85.5 -148t43 -190t5 -225.5q-3 -72 -12 -141.5t-29 -151.5t-49 -153t-76 -139t-106 -116t-143 -77t-183 -29q-97 0 -169.5 22.5t-113.5 61t-59.5 85.5t-15.5 100q3 59 42 105t99 46q69 0 98 -39t27 -90q-5 -58 -35 -88
q16 -27 52.5 -43.5t84.5 -13.5q72 4 128.5 49.5t91 120t52.5 164.5t19 190q-38 -42 -115 -78t-149 -39q-110 -3 -193 31.5t-131.5 99.5t-70.5 152t-17 194q12 207 154 338t360 131zM606 1323q-87 0 -138 -82t-56 -197q0 -38 -1.5 -84.5t8.5 -95.5t26 -89t51.5 -65.5
t83.5 -25.5q62 0 119 38.5t87 96.5q8 98 1.5 189t-24.5 161t-58.5 112t-98.5 42z" />
    <glyph glyph-name="colon" unicode=":" horiz-adv-x="512" 
d="M270 1112q62 0 102.5 -46.5t37.5 -113.5t-46 -113t-108 -46q-66 0 -106 46t-37 113q3 66 50 113t107 47zM270 287q62 0 102.5 -46.5t37.5 -113.5t-46 -113.5t-108 -46.5q-66 0 -106 46.5t-37 113.5q3 66 50 113t107 47z" />
    <glyph glyph-name="semicolon" unicode=";" horiz-adv-x="552" 
d="M283 1112q62 0 102 -46.5t37 -113.5t-46 -113t-108 -46q-66 0 -106 46t-37 113q3 65 50 112.5t108 47.5zM252 281q91 1 136 -58.5t40 -156.5q-10 -213 -211 -449l-76 57q43 53 87.5 148.5t45.5 175.5q-20 -6 -43 -6q-60 0 -99 34t-36 101q3 63 47.5 108.5t108.5 45.5z
" />
    <glyph glyph-name="less" unicode="&#x3c;" horiz-adv-x="1085" 
d="M983 147l-899 402l8 182l944 410l-12 -205l-672 -291l643 -291z" />
    <glyph glyph-name="equal" unicode="=" horiz-adv-x="1085" 
d="M113 1010h913l-8 -160h-914zM92 645h914l-9 -160h-913z" />
    <glyph glyph-name="greater" unicode="&#x3e;" horiz-adv-x="1085" 
d="M117 1141l899 -402l-8 -182l-945 -410l13 205l672 291l-644 291z" />
    <glyph glyph-name="question" unicode="?" horiz-adv-x="993" 
d="M461 371q-74 0 -124 35t-46 106q3 52 38 101.5t142 150.5q90 84 135.5 157t50.5 179q11 223 -168 223q-48 0 -92.5 -20t-66.5 -46q19 -19 27 -52t5 -58q-5 -50 -44.5 -91.5t-104.5 -37.5q-61 3 -92.5 42.5t-28.5 102.5q3 54 39 108.5t94 97.5t140.5 70t171.5 27
q94 0 168 -18t121 -49t77.5 -73t41.5 -88t9 -97q-4 -68 -39 -133t-84.5 -113.5t-107.5 -96.5t-107 -84t-82.5 -73.5t-35.5 -67.5q-2 -28 18.5 -44.5t61.5 -16.5q28 0 61 8l27 -104q-90 -45 -205 -45zM461 -33q-60 0 -101 47t-38 113t50 113t107 47q62 0 102 -46.5t37 -113.5
q-3 -65 -50.5 -112.5t-106.5 -47.5z" />
    <glyph glyph-name="at" unicode="@" horiz-adv-x="1570" 
d="M864 1305q131 0 241.5 -38.5t186 -105t126 -154t70.5 -186t11 -200.5q-7 -97 -38.5 -179t-77.5 -137t-101.5 -93t-112 -54t-108.5 -13q-209 13 -174 265q-59 -130 -132 -192t-145 -62q-93 0 -149 74.5t-47 222.5q5 102 40 197t95.5 172.5t153.5 124t204 46.5
q105 0 238 -43q-92 -485 -98 -585q-4 -121 75 -121q57 0 103.5 41t73 104.5t41.5 127.5t18 122q7 137 -29 247.5t-105.5 182t-165 110t-208.5 38.5q-128 0 -243 -57t-196.5 -151t-132 -217.5t-57.5 -254.5q-8 -151 35 -274t125 -201.5t192 -121t238 -42.5q131 0 268.5 55.5
t237.5 159.5l43 -56q-120 -125 -269.5 -191t-312.5 -69q-182 -4 -324.5 54t-229 159.5t-128 233t-33.5 280.5q6 106 43 215t106.5 210.5t162 180.5t220 127t269.5 48zM856 891q-51 -4 -96.5 -47.5t-76 -108.5t-50 -140.5t-23.5 -148.5q-3 -71 14 -110t50 -39
q48 0 105.5 98.5t99 235.5t53.5 254q-27 10 -76 6z" />
    <glyph glyph-name="A" unicode="A" horiz-adv-x="1366" 
d="M786 1470l379 -1116q43 -149 47 -202l117 6l-6 -158h-549l8 135q42 0 66.5 13.5t32 39t4 56t-16.5 71.5l-34 113l-449 -8l-39 -96q-41 -109 -74 -166l152 6l-10 -164h-439l9 141q39 0 69.5 16.5t54 50.5t40.5 68t39 84l6 15l456 1095h137zM645 1110q-22 -85 -96 -270
l-105 -267h344l-79 256q-53 181 -64 281z" />
    <glyph glyph-name="B" unicode="B" horiz-adv-x="1349" 
d="M711 1438q251 2 384.5 -94t112.5 -279q-11 -96 -87.5 -174.5t-215.5 -114.5v-2q192 -31 285.5 -131t87.5 -235q-7 -130 -75.5 -223t-181 -139t-257.5 -46h-692l8 135q41 2 62 6.5t44 21.5t33.5 53.5t13.5 96.5l41 785q6 107 19 184q-17 -1 -77.5 -3t-76.5 -3l8 158
q94 1 282 2t282 2zM696 1294q-30 -1 -48.5 -6t-38 -21t-29.5 -52t-13 -93l-16 -317q17 0 52.5 1t53.5 1q123 3 181 77t63 197q4 58 -12.5 101.5t-47.5 67t-67.5 34.5t-77.5 10zM709 662q-87 0 -166 -3l-17 -333q-6 -111 -18 -181q135 0 201 2q120 6 183 77t69 190
q4 68 -16 117.5t-57 77t-81.5 40.5t-97.5 13z" />
    <glyph glyph-name="C" unicode="C" horiz-adv-x="1413" 
d="M836 1466q83 0 176 -26t170 -74h2l-2 86h157l-24 -477h-135q-19 171 -101.5 261.5t-224.5 90.5q-104 1 -189.5 -49.5t-141 -135t-88 -188.5t-38.5 -217q-9 -177 34.5 -314.5t139 -218t230.5 -81.5q131 -2 262.5 61.5t230.5 192.5l80 -82q-253 -328 -633 -328
q-155 0 -284 56.5t-214 154.5t-128.5 232t-36.5 286q6 114 40 223.5t98.5 208.5t152 174t208 119.5t259.5 44.5z" />
    <glyph glyph-name="D" unicode="D" horiz-adv-x="1546" 
d="M739 1436q157 1 286 -40t214.5 -109.5t142.5 -160t80.5 -191t18.5 -204.5q-4 -73 -21 -145.5t-51 -145.5t-81 -137t-114.5 -120t-148.5 -96.5t-186.5 -63.5t-225.5 -23h-581l8 135q41 2 62 6.5t44 21.5t33.5 53.5t13.5 96.5l41 785q6 107 19 184q-17 -1 -77.5 -3
t-76.5 -3l8 158zM727 1298q-41 2 -66.5 -3t-47.5 -23t-32.5 -54t-13.5 -94l-41 -788q-7 -132 -16 -184q29 2 57 1.5t74.5 -2t63.5 -1.5q108 0 194.5 45.5t140.5 122t84 171t35 199.5q17 304 -96.5 454t-335.5 156z" />
    <glyph glyph-name="E" unicode="E" horiz-adv-x="1275" 
d="M1167 1434l-10 -398h-133q3 64 -10.5 113t-36 77.5t-55.5 46t-65.5 23t-68.5 4.5l-73 -2q-37 -1 -59 -6.5t-43.5 -23t-32 -54t-13.5 -94.5l-14 -307h240v178h157l-24 -497h-135q2 50 -7 85t-25 54t-43.5 29t-53.5 11.5t-64 0.5l-53 -2l-19 -336q-7 -127 -16 -180h274
q48 0 91 15.5t81.5 48.5t63.5 92.5t29 138.5h135l-35 -451h-1077l8 135q41 2 62 6.5t44 21.5t33.5 53.5t13.5 96.5l41 785q6 107 19 184q-17 -1 -77.5 -3t-76.5 -3l8 158h1020z" />
    <glyph glyph-name="F" unicode="F" horiz-adv-x="1159" 
d="M1167 1434l-10 -398h-133q3 64 -10.5 113t-36 77.5t-55.5 46t-65.5 23t-68.5 4.5l-73 -2q-37 -1 -59 -6.5t-43.5 -23t-32 -54t-13.5 -94.5l-18 -356h213q-1 24 -1 55.5t0.5 68.5t0.5 52h158l-27 -498h-135q3 50 -6 85t-24.5 54t-43 29t-53.5 12t-64 1h-24l-17 -287
q-7 -132 -16 -184q64 6 180 6l-8 -158h-610l8 135q41 2 62 6.5t44 21.5t33.5 53.5t13.5 96.5l41 785q6 107 19 184q-17 -1 -77.5 -3t-76.5 -3l8 158h1020z" />
    <glyph glyph-name="G" unicode="G" horiz-adv-x="1548" 
d="M739 -33q-163 0 -293 56.5t-212 155t-122.5 231.5t-31.5 286q5 114 38.5 223.5t97 208.5t150 174t206.5 119.5t259 44.5q87 0 198.5 -27t184.5 -73v86h158l-24 -477h-136q-18 166 -115.5 254t-244.5 90q-84 0 -156 -32t-124 -87.5t-90.5 -130t-59 -158.5t-25.5 -174
q-9 -178 33 -314t137 -215t232 -79q67 0 155 14.5t142 40.5l10 191q7 132 16 184q-25 -2 -84 -3.5t-69 -2.5l8 158h539l-7 -136q-39 -2 -61 -8t-42 -24t-29.5 -53t-12.5 -93l-16 -327h-52q-81 0 -221 -45q-65 -19 -102.5 -28.5t-104 -19.5t-129.5 -10z" />
    <glyph glyph-name="H" unicode="H" horiz-adv-x="1642" 
d="M1585 1434l-6 -136q-42 -2 -63.5 -6.5t-45 -21.5t-34 -53.5t-13.5 -96.5l-41 -784q-6 -115 -18 -184q68 6 154 6l-9 -158h-581l6 135q42 2 63.5 6.5t45 21.5t34 53.5t13.5 96.5l18 332l-565 -6l-17 -303q-7 -132 -16 -184q64 6 154 6l-9 -158h-583l8 135q41 2 62 6.5
t44 21.5t33.5 53.5t13.5 96.5l41 785q6 107 19 184q-17 -1 -77.5 -3t-76.5 -3l8 158h582l-6 -136q-42 -2 -63.5 -6.5t-45 -21.5t-34 -53.5t-13.5 -96.5l-16 -319h563l16 297q7 132 19 184q-17 -1 -78 -3t-78 -3l8 158h584z" />
    <glyph glyph-name="I" unicode="I" horiz-adv-x="786" 
d="M729 1434l-6 -136q-42 -2 -63.5 -6.5t-45 -21.5t-34 -53.5t-13.5 -96.5l-41 -784q-7 -132 -16 -184q64 6 154 6l-9 -158h-583l8 135q41 2 62 6.5t44 21.5t33.5 53.5t13.5 96.5l41 785q6 107 19 184q-17 -1 -77.5 -3t-76.5 -3l8 158h582z" />
    <glyph glyph-name="J" unicode="J" horiz-adv-x="911" 
d="M901 1434l-6 -136q-42 -2 -63.5 -6.5t-45 -21.5t-34 -53.5t-13.5 -96.5l-30 -600q-17 -289 -129.5 -421t-323.5 -132q-122 0 -203.5 62.5t-75.5 156.5q3 68 43.5 117.5t106.5 52.5q71 4 105 -35t34 -98q0 -34 -20 -76q12 -32 59 -32q90 0 98 161l43 822q6 107 19 184
q-18 -1 -83 -3t-81 -3l8 158h592z" />
    <glyph glyph-name="K" unicode="K" horiz-adv-x="1456" 
d="M72 0l8 135q41 2 62 6.5t44 21.5t33.5 53.5t13.5 96.5l41 785q6 107 19 184q-17 -1 -77.5 -3t-76.5 -3l8 158h582l-6 -136q-42 -2 -63.5 -6.5t-45 -21.5t-34 -53.5t-13.5 -96.5l-16 -311h149l170 268q112 174 152 207q-25 -2 -75 -5t-54 -3l6 158h502l-6 -136
q-41 -2 -74 -9.5t-76.5 -27.5t-88.5 -63t-89 -108l-213 -316q77 -53 121 -121l192 -297q144 -216 258 -221l-8 -135h-311q-24 1 -86 71.5t-105 137.5l-186 295q-79 114 -113 141h-73l-17 -309q-7 -132 -16 -184q64 6 154 6l-9 -158h-583z" />
    <glyph glyph-name="L" unicode="L" horiz-adv-x="1241" 
d="M729 1434l-6 -136q-42 -2 -63.5 -6.5t-45 -21.5t-34 -53.5t-13.5 -96.5l-41 -784q-7 -127 -16 -180h274q123 2 195.5 87t81.5 249h135l-37 -492h-1087l8 135q41 2 62 6.5t44 21.5t33.5 53.5t13.5 96.5l41 785q6 107 19 184q-17 -1 -77.5 -3t-76.5 -3l8 158h582z" />
    <glyph glyph-name="M" unicode="M" horiz-adv-x="1986" 
d="M813 -20l-250 673q-25 67 -62.5 198.5t-58.5 244.5h-2q-9 -312 -14 -389l-23 -371q-6 -115 -18 -184q68 6 156 6l-9 -158h-466l8 135q33 1 51 4t38.5 12.5t31.5 28t19.5 51.5t12.5 82l54 785q12 150 18 184q-17 -1 -78.5 -3t-77.5 -3l11 158h438l280 -795
q20 -57 37.5 -114.5t35 -122.5t26.5 -95h2q19 45 56 140.5t56 140.5q60 141 178 422.5t177 423.5h477l-8 -136q-34 -1 -52.5 -4t-41 -13t-34 -28t-19.5 -51t-9 -82l-10 -784q0 -101 -19 -184q67 6 156 6l-8 -158h-574l9 135q42 2 63.5 6.5t45.5 21.5t33.5 53.5t10.5 96.5
l6 435q2 49 2 362h-2l-96 -233l-373 -897h-184z" />
    <glyph glyph-name="N" unicode="N" horiz-adv-x="1581" 
d="M1159 -20l-610 841q-53 72 -105 154h-2l-28 -639q-6 -107 -19 -184q67 6 156 6l-10 -158h-467l8 135q42 2 63 6.5t44.5 21.5t34 53t14.5 97l34 785q6 107 19 184q-17 -1 -78 -3t-78 -3l10 158h322l584 -793q39 -54 133 -197h2l33 654q6 115 18 184q-16 -1 -78 -3t-78 -3
l11 158h464l-6 -136q-28 -1 -44 -3t-36 -8t-30.5 -17.5t-21 -30.5t-16 -48.5t-7.5 -70.5l-62 -1140h-174z" />
    <glyph glyph-name="O" unicode="O" horiz-adv-x="1560" 
d="M831 1466q144 0 261 -45.5t193 -119.5t126 -172.5t69.5 -202t14.5 -209.5q-6 -104 -38 -208t-94.5 -202t-147.5 -173.5t-206 -121t-261 -45.5q-151 0 -270.5 44t-195 117t-124 171.5t-65.5 202.5t-11 215q5 105 37 210t94.5 202.5t148 172t207.5 119.5t262 45zM797 1327
q-81 -2 -148 -39.5t-111 -96.5t-75.5 -137t-46.5 -155.5t-19 -157.5q-4 -81 4 -164.5t34.5 -169.5t69 -152t112.5 -108t159 -41q82 1 149.5 37t112 93.5t76.5 134.5t47 154t19 157q9 192 -27 335.5t-127 228t-229 81.5z" />
    <glyph glyph-name="P" unicode="P" horiz-adv-x="1294" 
d="M725 1438q136 1 242.5 -26t181.5 -83t110 -146t25 -210q-7 -85 -47.5 -162.5t-112.5 -142t-185.5 -105.5t-254.5 -45q-83 -3 -147 0l-11 -180q-7 -134 -16 -186q64 6 172 6l-6 -158h-604l8 135q41 2 62 6.5t44 21.5t33.5 53.5t13.5 96.5l41 785q6 107 19 184
q-17 -1 -77.5 -3t-76.5 -3l8 158q97 1 289.5 2t288.5 2zM715 1294q-36 0 -59 -5.5t-43.5 -21.5t-31.5 -49t-14 -85l-22 -461q44 -6 92 -6q165 0 247 82t91 243q13 303 -260 303z" />
    <glyph glyph-name="Q" unicode="Q" horiz-adv-x="1564" 
d="M834 1466q121 0 223 -31.5t175 -87t127.5 -127.5t86 -157t45 -171.5t8.5 -174.5q-5 -104 -39 -209t-94 -201t-153 -174.5t-207 -120.5v-2q95 0 154 -21.5t130 -92.5q30 -29 67.5 -66t53 -52t38 -35.5t32.5 -27t27 -14t30 -9t33 -1.5l-8 -137h-84q-146 0 -207 18.5
t-142 91.5q-46 43 -107 110t-95 102t-87.5 63t-113.5 28q-146 0 -262 44.5t-189.5 118t-120.5 172t-64 202t-11 213.5q6 105 38.5 210t95.5 202.5t149.5 172t208.5 119.5t262 45zM799 1317q-82 -2 -149 -38.5t-111 -94t-75.5 -134t-47 -153t-19.5 -156.5q-3 -67 3 -135.5
t21 -140t45 -133.5t71.5 -111t102.5 -76.5t136 -27.5q82 1 150 36t112.5 91t76 131t46.5 151t19 156q10 192 -26 333t-126 223t-229 79z" />
    <glyph glyph-name="R" unicode="R" horiz-adv-x="1394" 
d="M725 1438q138 1 242 -22.5t179 -74.5t109.5 -137.5t24.5 -206.5q-9 -135 -106 -240t-273 -155q74 -35 135 -131l88 -143q66 -110 109.5 -150t109.5 -43l-8 -135h-331q-59 44 -142 193l-137 245q-43 76 -80 119h-106l-13 -219q-7 -134 -16 -186q64 6 172 6l-6 -158h-604
l8 135q41 2 62 6.5t44 21.5t33.5 53.5t13.5 96.5l41 785q6 107 19 184q-17 -1 -77.5 -3t-76.5 -3l8 158q97 1 289.5 2t288.5 2zM715 1294q-36 0 -59 -5.5t-43.5 -21.5t-31.5 -49t-14 -85l-20 -420q62 -8 98 -8q168 0 247 75t87 234q4 74 -15 129t-47 83t-69.5 44.5t-70.5 20
t-62 3.5z" />
    <glyph glyph-name="S" unicode="S" horiz-adv-x="1228" 
d="M596 -33q-83 0 -178 26.5t-170 74.5v-86h-158l25 479h135q18 -167 115.5 -256.5t244.5 -89.5q107 0 180 56.5t76 135.5q3 49 -17.5 87.5t-76 73t-86.5 49t-112 47.5l-21 9q-84 34 -147.5 67t-122.5 78t-95.5 95t-56.5 117t-16 145q3 54 20.5 106t55.5 104.5t93 92
t140.5 64t189.5 24.5q88 0 182.5 -25.5t155.5 -72.5v84h158l-25 -477h-135q-19 169 -106 257.5t-230 86.5q-90 0 -158 -50.5t-71 -125.5q-4 -92 68.5 -155t246.5 -134q51 -21 89 -38.5t88.5 -45t86.5 -54t73.5 -64t60.5 -76.5t36 -89.5t11 -105.5q-11 -184 -162 -299
t-387 -115z" />
    <glyph glyph-name="T" unicode="T" horiz-adv-x="1327" 
d="M1331 1434l-12 -463h-135q7 163 -55 245t-181 80h-98l-49 -960q-6 -107 -19 -184q64 6 164 6l-8 -158h-594l8 135q42 2 63.5 6.5t45 21.5t34 53.5t13.5 96.5l51 981h-94q-121 -2 -192 -82t-78 -241h-136l35 463h1237z" />
    <glyph glyph-name="U" unicode="U" horiz-adv-x="1546" 
d="M1548 1434l-8 -136q-41 -2 -62 -6.5t-44.5 -21.5t-34 -53.5t-13.5 -96.5l-26 -512q-10 -172 -59.5 -298t-132.5 -200t-186 -108.5t-230 -34.5q-135 0 -236 33t-163.5 89t-99 138.5t-48.5 173.5t-6 201l26 496q7 132 19 184q-17 -1 -78 -3t-78 -3l8 158h586l-8 -136
q-42 -2 -63.5 -6.5t-45 -21.5t-34 -53.5t-13.5 -96.5l-29 -563q-22 -422 304 -434q172 -6 270.5 104t110.5 334l28 537q7 132 19 184q-16 -1 -77 -3t-77 -3l6 158h475z" />
    <glyph glyph-name="V" unicode="V" horiz-adv-x="1437" 
d="M1487 1434l-8 -136q-71 -3 -124.5 -53t-103.5 -166q-78 -183 -233.5 -546t-233.5 -545h-159l-416 1099q-50 135 -47 195q-58 -3 -111 -6l8 158h596l-6 -136q-84 2 -120.5 -35t-6.5 -122l164 -463q20 -56 50.5 -149.5t49.5 -145.5h2q19 44 59 145.5t56 139.5q30 71 89 214
t89 214q63 150 95 188q-26 -2 -88 -4.5t-70 -3.5l6 158h463z" />
    <glyph glyph-name="W" unicode="W" horiz-adv-x="2068" 
d="M524 -12l-309 1104q-49 135 -47 190q-68 -3 -109 -6l9 158h598l-9 -136q-82 2 -115 -31t-14 -122l101 -467q4 -23 16 -81t20.5 -104.5t16.5 -105.5h2q45 148 137 420l223 627h185l192 -754q27 -102 58 -295h2q14 44 46 138.5t48 144.5q23 71 68 214t67 214q48 138 94 188
q-26 -2 -87.5 -4.5t-69.5 -3.5l8 158h461l-7 -136q-73 -3 -129 -53.5t-100 -165.5l-391 -1091h-178l-205 733q-28 97 -59 303h-3q-34 -159 -73 -268l-275 -768h-172z" />
    <glyph glyph-name="X" unicode="X" horiz-adv-x="1433" 
d="M43 0l8 135q59 14 122 66t142 153l256 318q-51 69 -154.5 208.5t-154.5 209.5q-78 103 -112 192q-25 -1 -50.5 -3.5t-31.5 -2.5l8 158h618l-8 -136q-196 0 -94 -139l168 -231l168 215q63 80 127 141q-25 -2 -86 -5t-68 -3l8 158h467l-8 -136q-71 -9 -142 -64t-159 -167
l-211 -268l361 -492q83 -110 102 -155q67 6 80 6l-8 -158h-609l9 135q54 0 83 10.5t32 30.5t-7.5 43t-34.5 55l-194 265l-193 -248q-72 -92 -121 -141q90 8 148 8l-8 -158h-453z" />
    <glyph glyph-name="Y" unicode="Y" horiz-adv-x="1361" 
d="M389 0l8 135q42 2 63.5 6.5t45 21.5t34 53.5t13.5 96.5l8 179l-346 595q-29 49 -49 105.5t-19 89.5q-22 -1 -100 -6l8 158h598l-6 -136q-94 6 -131.5 -33.5t2.5 -123.5q24 -43 72.5 -128t71.5 -128q3 -7 18 -36.5t27.5 -54t26.5 -56.5t20 -52h4q6 14 20 40.5t38.5 72.5
t45.5 88q20 35 60 104.5t59 104.5q71 132 117 186q-18 -1 -79.5 -3t-78.5 -3l8 158h453l-6 -136q-72 -11 -126 -59t-118 -160l-295 -512l-10 -231q-6 -107 -19 -184q65 6 164 6l-8 -158h-594z" />
    <glyph glyph-name="Z" unicode="Z" horiz-adv-x="1234" 
d="M51 0l8 154l664 933q86 127 154 203l-353 10q-120 3 -192.5 -70.5t-81.5 -232.5h-135l35 437h1038l-8 -154l-637 -893q-97 -137 -189 -242l373 -10q121 -2 193 70.5t81 232.5h136l-35 -438h-1051z" />
    <glyph glyph-name="bracketleft" unicode="[" horiz-adv-x="794" 
d="M831 1546l-8 -145l-395 -6l-100 -1766l407 -6l-8 -145h-661l110 2068h655z" />
    <glyph glyph-name="backslash" unicode="\" horiz-adv-x="1622" 
d="M1370 -555l-1280 1982l172 119l1254 -1997z" />
    <glyph glyph-name="bracketright" unicode="]" horiz-adv-x="794" 
d="M-51 -522l8 145l395 6l101 1766l-408 6l8 145h662l-111 -2068h-655z" />
    <glyph glyph-name="asciicircum" unicode="^" horiz-adv-x="1685" 
d="M1268 895l-426 422l-465 -414h-268l659 563h182l598 -571h-280z" />
    <glyph glyph-name="underscore" unicode="_" horiz-adv-x="1710" 
d="M168 -102l1257 -9v-198h-1257v207z" />
    <glyph glyph-name="grave" unicode="`" horiz-adv-x="567" 
d="M377 1157l-234 219q-27 28 -41 62.5t-8 72.5t37 66q54 36 103.5 20.5t80.5 -69.5l160 -287z" />
    <glyph glyph-name="a" unicode="a" horiz-adv-x="1124" 
d="M670 1047q115 0 295 -43q-3 -20 -20.5 -140.5t-26.5 -187t-22 -169t-19.5 -172t-6.5 -108.5q0 -59 29 -59q59 0 105 162l110 -33q-8 -39 -21 -78.5t-37.5 -84.5t-55 -78.5t-75.5 -56t-96 -22.5q-163 0 -163 187q0 72 8 119h-2q-70 -167 -157.5 -236.5t-190.5 -69.5
q-119 0 -196 95.5t-77 277.5q0 141 42 267t119.5 222t196 152t261.5 56zM594 911q-120 0 -191 -148t-71 -423q0 -85 20.5 -132.5t57.5 -47.5q54 0 102.5 71.5t82 183.5t55.5 238.5t28 245.5q-42 12 -84 12z" />
    <glyph glyph-name="b" unicode="b" horiz-adv-x="1050" 
d="M461 1546q-8 -60 -43 -418q0 -1 -13 -129t-24 -194h2q64 123 147 182.5t156 59.5q75 0 132.5 -32t92 -87.5t51.5 -124.5t17 -148q0 -114 -19 -212.5t-61.5 -185t-106 -148t-157.5 -97t-211 -35.5q-63 0 -160 14t-168 42q14 384 60 1114q4 102 16 188q-14 -1 -69 -3
t-72 -3l8 156q128 0 205.5 18.5t105.5 42.5h111zM604 858q-65 0 -122 -100t-91.5 -267.5t-38.5 -359.5q41 -18 101 -18q46 0 83.5 21t62.5 54.5t44 82t29 96.5t16 105.5t8 101.5t2 92q0 102 -27 147t-67 45z" />
    <glyph glyph-name="c" unicode="c" horiz-adv-x="956" 
d="M559 1047q144 0 238 -67.5t94 -178.5q0 -62 -35.5 -101.5t-95.5 -40.5q-63 -1 -95 38t-32 83q0 47 20 86q-9 19 -35.5 32t-62.5 13q-50 0 -89 -30t-62.5 -75t-39 -106t-21.5 -114.5t-7 -108.5q-3 -80 10.5 -141t39.5 -96t56 -53t64 -21q33 -3 65 4t71 27.5t76.5 66.5
t67.5 115l117 -57q-56 -129 -130.5 -207.5t-149.5 -107.5t-166 -30q-187 2 -294.5 114.5t-107.5 332.5q0 81 19 166t60.5 167.5t99 146.5t142 103.5t183.5 39.5z" />
    <glyph glyph-name="d" unicode="d" horiz-adv-x="1155" 
d="M360 -23q-149 0 -226 108.5t-77 283.5q0 148 34.5 270.5t102.5 214t178 142.5t253 51q48 0 98 -5q22 230 33 293q-17 -1 -49 -2t-57 -2t-38 -2l9 156q129 0 207 18.5t106 42.5h110q-12 -110 -37 -327.5t-38 -327.5q-9 -78 -29.5 -252t-29.5 -265t-9 -147q0 -59 31 -59
q52 0 98 162l113 -33q-9 -40 -21.5 -78.5t-36.5 -84t-53 -79t-73 -56t-95 -22.5q-164 0 -164 187q0 52 9 123h-2q-35 -87 -79.5 -150t-91 -96.5t-89.5 -48.5t-87 -15zM436 164q74 0 132 107.5t96 295.5q28 155 43 328q-13 6 -50 11t-59 5q-55 0 -99 -28t-71.5 -76.5
t-47 -104t-28.5 -120.5t-12.5 -114t-3.5 -97q0 -101 27 -154t73 -53z" />
    <glyph glyph-name="e" unicode="e" horiz-adv-x="962" 
d="M573 1047q142 0 225 -64.5t83 -194.5q0 -54 -23 -99.5t-65.5 -78.5t-92.5 -58.5t-115.5 -44.5t-123 -30.5t-125.5 -21.5q0 -83 16 -142.5t43.5 -90t58 -43.5t66.5 -13q30 0 60.5 7.5t69 26.5t74.5 60.5t62 101.5l115 -55q-42 -97 -94 -164t-109 -102t-112.5 -49.5
t-120.5 -14.5q-194 -2 -302 111t-108 336q0 82 19 166.5t60.5 167t100.5 146.5t146.5 103.5t191.5 39.5zM551 911q-50 0 -88.5 -28.5t-62.5 -77t-37.5 -102t-20.5 -115.5q157 28 229 88t70 141q-1 47 -28 70.5t-62 23.5z" />
    <glyph glyph-name="f" unicode="f" horiz-adv-x="722" 
d="M674 1556q90 0 141 -41.5t51 -109.5q0 -44 -32.5 -85t-94.5 -40q-47 2 -77 38t-23 89q-8 4 -27 4q-22 0 -40 -16t-31 -50t-21.5 -66.5t-15.5 -84.5t-10.5 -84.5t-8.5 -85.5h265l-15 -141l-258 -4q-33 -553 -74 -902q-62 -532 -444 -532q-93 0 -144 39.5t-51 107.5
q0 45 32.5 87.5t94.5 41.5q47 -2 77.5 -38t23.5 -89q12 -4 26 -4q22 0 40 16t31 50t21.5 66.5t15.5 84.5t10.5 84.5t8.5 85.5q11 132 36.5 475t31.5 425l-164 -3l19 150h163q59 532 443 532z" />
    <glyph glyph-name="g" unicode="g" horiz-adv-x="1064" 
d="M373 -555q-155 0 -244.5 55t-89.5 156q0 53 36 101t101 48q56 0 92.5 -35.5t36.5 -93.5q0 -34 -12 -61q8 -14 40 -24.5t58 -10.5q48 0 84 18t59.5 46.5t40 76.5t26 95.5t17.5 115.5q25 200 70 351h-2q-72 -169 -158.5 -237.5t-189.5 -68.5q-121 0 -202 96t-81 277
q0 116 21.5 218t68 190.5t114.5 152t168 100t222 36.5q137 0 314 -43q-26 -509 -66 -922q-11 -120 -34 -215.5t-64 -175.5t-99 -133.5t-140.5 -83t-186.5 -29.5zM422 160q53 0 102 72t83.5 183t57.5 238.5t29 245.5q-32 12 -94 12q-138 -1 -202 -145.5t-64 -425.5
q0 -83 25 -131.5t63 -48.5z" />
    <glyph glyph-name="h" unicode="h" horiz-adv-x="1175" 
d="M854 -23q-109 0 -152 58t-43 174q0 85 26 294.5t26 268.5q0 46 -13.5 66t-44.5 20q-60 0 -128 -117t-113 -285.5t-45 -308.5q0 -48 6 -147h-262q-7 66 -7 98q0 235 20 539t44 508q9 109 27 190l-144 -6l8 156q130 0 208 18.5t104 42.5h110q-42 -354 -51 -418
q-19 -213 -57 -391h2q34 88 77 151.5t90 96.5t91.5 47.5t91.5 14.5q127 0 188.5 -83t61.5 -233q0 -75 -25.5 -255t-25.5 -255q0 -53 30 -53q53 0 99 162l110 -33q-9 -48 -32.5 -100t-60.5 -103t-94 -84t-122 -33z" />
    <glyph glyph-name="i" unicode="i" horiz-adv-x="704" 
d="M391 1563q67 0 109 -49.5t39 -120.5q-3 -70 -48 -118t-112 -48q-70 0 -112.5 48t-39.5 118t52.5 120t111.5 50zM319 1047q191 0 191 -238q0 -72 -33 -310t-33 -278q0 -53 31 -53q54 0 100 162l111 -33q-9 -48 -33 -100t-61.5 -103t-94.5 -84t-122 -33q-109 0 -153 58
t-44 174q0 84 34 308.5t34 285.5q0 53 -33 53q-52 0 -98 -162l-111 33q7 37 23.5 78t44.5 85t63 78.5t83 56.5t101 22z" />
    <glyph glyph-name="j" unicode="j" horiz-adv-x="661" 
d="M401 1563q67 0 109 -49.5t39 -120.5q-3 -70 -48 -118t-112 -48q-69 0 -111.5 48t-39.5 118t52 120t111 50zM322 1047q195 0 198 -238q3 -237 -22 -535q-8 -86 -18.5 -159.5t-30 -161.5t-45 -157.5t-65.5 -137t-89.5 -113t-118.5 -73t-151 -27.5q-93 0 -147 42t-54 110
q0 19 7 40.5t21 42.5t40.5 34t60.5 12q47 -2 79 -42t21 -100q8 -4 31 -4q33 0 61.5 41t49 114.5t35.5 145t26 166t15.5 143t9.5 107.5q20 300 20 506q0 53 -31 53q-52 0 -98 -162l-113 33q8 38 23.5 78.5t42.5 84.5t60.5 78t81 56.5t100.5 22.5z" />
    <glyph glyph-name="k" unicode="k" horiz-adv-x="1060" 
d="M758 -23q-91 0 -148 57.5t-112 207.5q-4 10 -11 30.5t-10.5 30t-9.5 25t-10.5 24t-10.5 18.5t-12 16.5t-12 10.5q-18 14 -37 9q-25 -122 -25 -269q0 -72 7 -137h-267q-6 57 -6 100q0 96 23 420.5t61 624.5q10 85 31 190q-14 -1 -72.5 -3t-75.5 -3l9 156q129 0 207 18.5
t106 42.5h111q-7 -49 -20.5 -144t-24.5 -177t-19 -158q-8 -93 -41 -266h2q63 126 151.5 186t176.5 60q111 0 166 -57.5t55 -160.5q0 -50 -20.5 -103t-63 -107t-122 -98t-183.5 -66v-2q77 -3 116.5 -38.5t61.5 -90.5q19 -44 27.5 -61.5t22 -41.5t24.5 -32.5t24 -8.5
q46 0 88 142l111 -35q-17 -79 -50.5 -146.5t-91 -115.5t-126.5 -48zM399 537q149 0 222 74t73 210q0 90 -53 90q-59 0 -134.5 -103.5t-107.5 -270.5z" />
    <glyph glyph-name="l" unicode="l" horiz-adv-x="620" 
d="M498 1546q-5 -48 -19 -168.5t-20 -179.5q-61 -523 -80 -709t-19 -262q0 -59 29 -59q54 0 100 162l111 -33q-12 -46 -27.5 -86.5t-42 -85t-59.5 -76t-81 -52t-105 -20.5q-81 0 -133 48t-52 149q0 115 15 299.5t28.5 305t42.5 366.5q10 92 27 190q-14 -1 -70 -3t-73 -3
l8 156q128 0 204.5 18t104.5 43h111z" />
    <glyph glyph-name="m" unicode="m" horiz-adv-x="1798" 
d="M1477 -23q-108 0 -150.5 57.5t-42.5 174.5q0 85 25.5 294.5t25.5 268.5q0 47 -12.5 66.5t-44.5 19.5q-60 0 -125 -114.5t-107 -279.5t-42 -306q0 -82 6 -158h-265q-6 57 -6 137q0 130 23.5 357.5t23.5 277.5q0 46 -13 66t-44 20q-60 0 -128 -117t-112.5 -285.5
t-44.5 -308.5q0 -31 7 -147h-263q-6 57 -6 98q0 106 33 342q6 53 17.5 144t17.5 142.5t6 76.5q0 53 -29 53q-52 0 -98 -162l-113 33q9 40 21 78.5t35.5 84t52 79t72 56t94.5 22.5q75 0 123.5 -43.5t48.5 -143.5q0 -29 -12 -123h2q34 88 78.5 151.5t92.5 96.5t93 47.5
t92 14.5q98 0 149.5 -62t51.5 -174q0 -47 -4 -74h2q121 310 342 310q126 0 186.5 -83t60.5 -233q0 -75 -25.5 -255t-25.5 -255q0 -53 31 -53q52 0 98 162l113 -33q-10 -49 -33.5 -100.5t-60.5 -102.5t-94 -84t-123 -33z" />
    <glyph glyph-name="n" unicode="n" horiz-adv-x="1249" 
d="M928 -23q-108 0 -150.5 57.5t-42.5 174.5q0 85 25.5 294.5t25.5 268.5q0 46 -13 66t-44 20q-60 0 -127.5 -117t-111.5 -285t-44 -309q0 -31 7 -147h-265q-6 57 -6 98q0 99 35 365q5 41 13.5 106t13 102.5t8.5 75.5t4 56q0 53 -29 53q-52 0 -98 -162l-113 33q9 40 21 78.5
t35.5 84t52 79t72 56t94.5 22.5q75 0 123.5 -43.5t48.5 -143.5q0 -29 -12 -123h2q121 310 350 310q246 0 246 -316q0 -75 -26 -255t-26 -255q0 -53 31 -53q52 0 98 162l111 -33q-9 -48 -32.5 -100t-60.5 -103t-94 -84t-122 -33z" />
    <glyph glyph-name="o" unicode="o" horiz-adv-x="1054" 
d="M571 1047q178 0 295 -122.5t117 -334.5q0 -165 -61 -303.5t-180 -224t-273 -85.5q-133 0 -228 63.5t-139.5 167t-44.5 234.5q0 165 62 302t180.5 220t271.5 83zM541 911q-91 1 -148 -118t-57 -293q0 -68 8 -131t25.5 -123t51.5 -96.5t81 -36.5q50 0 89.5 40.5t61.5 105.5
t33.5 134t13.5 137q2 63 -4 123.5t-22 121.5t-50 98t-83 38z" />
    <glyph glyph-name="p" unicode="p" horiz-adv-x="1177" 
d="M57 -522v133q37 0 61.5 13t38 40.5t19.5 56t10 74.5q72 782 72 1002q0 59 -31 59q-52 0 -98 -162l-111 33q10 52 28 101t49.5 101.5t82.5 85t115 32.5q75 0 121.5 -43t46.5 -144q0 -60 -8 -123h2q34 88 79 151.5t92 96.5t91 47.5t88 14.5q144 0 223.5 -107t79.5 -285
q0 -148 -36 -270.5t-106 -214t-181.5 -142.5t-254.5 -51q-30 0 -65 3q-13 -258 -25 -353q65 6 135 6v-155h-518zM555 113q56 0 101 28t74 76.5t49.5 104.5t30.5 120t14.5 114.5t4.5 96.5q0 207 -100 207q-167 0 -233 -516q-18 -154 -23 -219q43 -12 82 -12z" />
    <glyph glyph-name="q" unicode="q" horiz-adv-x="1069" 
d="M643 1047q132 0 330 -35q-15 -201 -44.5 -601.5t-43.5 -600.5q-4 -88 -17 -183q68 6 140 6v-155h-519v133q82 0 104 53.5t35 228.5q4 56 7 87q13 150 27 237h-3q-38 -74 -79 -123.5t-82 -74t-76.5 -33.5t-75.5 -9q-93 0 -161 56.5t-99 143t-31 190.5q0 142 34.5 262.5
t104 215t184.5 148.5t265 54zM614 911q-64 0 -114 -31.5t-80.5 -82t-49.5 -122t-26.5 -143t-7.5 -153.5q0 -114 32 -164.5t72 -50.5q61 0 120.5 112.5t97 282.5t42.5 340q-24 12 -86 12z" />
    <glyph glyph-name="r" unicode="r" horiz-adv-x="940" 
d="M188 0q-6 57 -6 98q0 71 35 371q39 283 39 334q0 53 -29 53q-52 0 -98 -162l-113 33q9 40 21 78.5t35.5 84t52 79t72 56t94.5 22.5q75 0 123.5 -43.5t48.5 -143.5q0 -65 -21 -182h2q32 90 68 157.5t69 107t69.5 64t66.5 32.5t63 8q77 0 124.5 -43t47.5 -113
q0 -56 -38.5 -97.5t-98.5 -41.5q-47 0 -80.5 29.5t-32.5 76.5q-55 6 -115 -111t-98 -286.5t-38 -313.5q0 -48 6 -147h-269z" />
    <glyph glyph-name="s" unicode="s" horiz-adv-x="913" 
d="M410 -23q-153 0 -260 66t-107 172q0 62 37.5 102.5t93.5 40.5q55 0 90 -37t35 -90q0 -31 -12 -61q10 -21 53 -39t76 -18q83 0 122.5 36t39.5 91q0 12 -3 24t-11.5 23.5t-15.5 20.5t-22 21t-24.5 19t-30 19.5t-31 18.5l-35 20t-34.5 20q-79 45 -127.5 78t-86.5 72
t-53.5 81t-15.5 95q0 116 106 205.5t283 89.5q84 0 161.5 -26.5t130 -79.5t52.5 -120q0 -56 -35.5 -95.5t-93.5 -39.5q-54 0 -88.5 37t-34.5 88q0 30 13 59q-16 20 -48.5 30.5t-64.5 10.5q-48 0 -92.5 -29.5t-44.5 -76.5q0 -43 33 -73.5t157 -102.5q130 -75 176 -111
q129 -100 129 -225q0 -137 -119.5 -226.5t-297.5 -89.5z" />
    <glyph glyph-name="t" unicode="t" horiz-adv-x="808" 
d="M518 1333l-41 -309h256l-12 -141l-256 -4q-53 -418 -53 -570q0 -135 98 -135q15 0 34 4.5t46 17t55 40t49 67.5l105 -65q-68 -128 -167.5 -194.5t-217.5 -66.5q-81 0 -135.5 27t-81 76.5t-36 103.5t-7.5 125q12 267 47 568l-164 -3l18 150q147 0 221 75.5t105 233.5h137z
" />
    <glyph glyph-name="u" unicode="u" horiz-adv-x="1224" 
d="M432 -23q-246 0 -246 316q0 75 27 255t27 255q0 53 -33 53q-52 0 -98 -162l-111 33q9 48 32.5 100t60.5 103t94 84t122 33q109 0 152 -58t43 -174q0 -85 -26.5 -294.5t-26.5 -268.5q0 -46 13 -66t44 -20q55 0 120 117t108.5 285.5t43.5 308.5q0 97 -6 147h264
q6 -57 6 -98q0 -95 -36 -373q-5 -43 -17 -131t-17 -133t-5 -68q0 -53 28 -53q53 0 99 162l110 -33q-8 -40 -20 -78.5t-34.5 -84t-51 -79t-72 -56t-94.5 -22.5q-75 0 -123.5 43.5t-48.5 143.5q0 16 10 133h-2q-121 -320 -336 -320z" />
    <glyph glyph-name="v" unicode="v" horiz-adv-x="1071" 
d="M739 1047q127 0 198 -106.5t71 -266.5q0 -86 -23.5 -181t-71 -186.5t-111.5 -165.5t-153 -119t-188 -45q-260 0 -260 320q0 76 16 269t16 237q0 53 -32 53q-53 0 -99 -162l-110 33q9 48 32.5 100t60.5 103t94 84t122 33q57 0 97 -18.5t61 -53t30 -74.5t9 -92
q0 -95 -18.5 -300.5t-18.5 -260.5q0 -117 74 -117q55 1 112 43.5t103.5 111.5t76 167t29.5 202q0 46 -14.5 91t-36.5 67q-51 -37 -94 -37q-48 0 -87.5 32.5t-39.5 94.5q0 53 38 98.5t117 45.5z" />
    <glyph glyph-name="w" unicode="w" horiz-adv-x="1628" 
d="M1298 1047q127 0 198 -106.5t71 -266.5q0 -87 -27.5 -184t-80 -187.5t-121.5 -163.5t-160 -117.5t-187 -44.5q-85 0 -136.5 42t-66.5 107t-4 150q-21 -80 -58 -139.5t-83.5 -93.5t-96.5 -50t-104 -16q-249 0 -249 320q0 76 23.5 269t23.5 237q0 53 -33 53
q-55 0 -101 -162l-110 33q9 48 32.5 100t60.5 103t94 84t122 33q199 0 199 -238q0 -95 -24.5 -300.5t-24.5 -260.5q0 -117 57 -117t102.5 54.5t73 136.5t46 186.5t25.5 196t7 172.5q0 48 -6 147h264q4 -57 4 -98q0 -95 -23.5 -359t-23.5 -319q0 -42 20 -79.5t62 -37.5
q53 0 114.5 43t114.5 112.5t88 168.5t35 200q0 46 -14.5 91t-36.5 67q-51 -37 -94 -37q-48 0 -87.5 32.5t-39.5 94.5q0 53 38 98.5t117 45.5z" />
    <glyph glyph-name="x" unicode="x" horiz-adv-x="1112" 
d="M197 -23q-74 0 -119 39.5t-45 102.5q0 62 37.5 102.5t91.5 40.5q46 0 75 -22t39 -54q29 19 61.5 91.5t88.5 236.5q-16 44 -47 135.5t-51 136.5q-19 40 -34.5 54t-37.5 16q-70 4 -88 -154l-115 17q4 40 14.5 80.5t34 86t55.5 80.5t83 58t114 23q79 0 123.5 -45t77.5 -134
q26 -66 45 -139q33 84 67 145t62 93.5t58.5 51.5t51 23.5t46.5 4.5q71 0 107 -38.5t36 -101.5q0 -52 -38 -90.5t-91 -38.5q-64 0 -98 43q-28 -22 -58.5 -77t-83.5 -183q140 -393 215 -393q31 0 49.5 32.5t28.5 121.5l115 -17q-4 -42 -12.5 -80.5t-29.5 -85.5t-50 -81
t-78.5 -57.5t-112.5 -23.5q-35 0 -61 6t-50.5 24.5t-43 40.5t-43 67.5t-45 90.5t-54.5 124h-2q-37 -111 -74 -184t-74 -108.5t-69 -48t-71 -12.5z" />
    <glyph glyph-name="y" unicode="y" horiz-adv-x="1148" 
d="M252 -555q-92 0 -143.5 44t-51.5 116q0 63 40.5 103t90.5 40q109 0 125 -110q9 -3 21 -3q63 0 138.5 83t109.5 157q-47 303 -293 870q-15 32 -24.5 50t-30 39.5t-41.5 21.5q-76 0 -93 -154l-114 17q4 39 15 80t34.5 86.5t56.5 80.5t84.5 58t114.5 23q162 0 252 -213
q158 -386 209 -684h2q123 275 139 497q7 108 -25 144q-15 -3 -28 -3q-52 0 -88.5 34.5t-36.5 84.5q0 66 42.5 103t98.5 37q72 0 121 -44t68.5 -106t19.5 -137q0 -134 -63.5 -343.5t-167.5 -412.5q-61 -117 -127.5 -215t-141 -176.5t-155.5 -123t-158 -44.5z" />
    <glyph glyph-name="z" unicode="z" horiz-adv-x="1005" 
d="M125 -23l-88 82q143 209 399 506q61 71 109 119t109 101.5t89 80.5h-2q-133 -110 -243 -110q-44 0 -115 25.5t-109 25.5q-40 0 -62 -30t-22 -75q0 -32 13 -69l-103 -35q-24 64 -24 160q0 118 66.5 203.5t185.5 85.5q57 0 184 -31t186 -31q92 0 164 62l88 -82
q-51 -65 -152.5 -196t-152.5 -196q-77 -97 -158 -180.5t-123.5 -120.5t-114.5 -97l-18 -15h2q131 104 256 104q54 0 126 -25.5t108 -25.5q37 0 58.5 25t23.5 63q3 38 -17 86l105 35q29 -89 29 -156q0 -118 -66.5 -203.5t-185.5 -85.5q-57 0 -194.5 31t-196.5 31
q-82 0 -154 -62z" />
    <glyph glyph-name="braceleft" unicode="{" horiz-adv-x="706" 
d="M729 1556l-6 -135q-70 2 -120 -22t-78.5 -70.5t-42.5 -101.5t-19 -127q-1 -14 4.5 -148.5t3.5 -173.5q-3 -99 -58.5 -158t-158.5 -96v-2q95 -42 144 -105t46 -159q0 -25 -20.5 -178t-20.5 -207q0 -58 12.5 -108.5t38.5 -94t73 -67.5t110 -23l-8 -135h-101
q-358 0 -358 444q0 29 18 202t19 216q3 146 -119 146h-94l10 137h90q72 0 102 34t35 107q1 10 0 81t-2.5 156t-1.5 111q-3 477 400 477h102z" />
    <glyph glyph-name="bar" unicode="|" horiz-adv-x="479" 
d="M403 1556l-118 -2111h-215l104 2111h229z" />
    <glyph glyph-name="braceright" unicode="}" horiz-adv-x="706" 
d="M-39 -555l6 135q70 -2 120 22t78.5 71t42.5 102t19 127q1 14 -4.5 148t-3.5 173q3 99 58.5 158t158.5 96v2q-95 42 -144 105t-46 159q0 25 20.5 178t20.5 207q0 58 -12.5 108.5t-38.5 94t-73 67.5t-110 23l8 135h101q358 0 358 -444q0 -29 -18 -202t-19 -216
q-3 -145 119 -145h94l-10 -137h-90q-72 0 -102 -34.5t-35 -107.5q-1 -10 0 -81t2.5 -156t1.5 -111q3 -477 -400 -477h-102z" />
    <glyph glyph-name="asciitilde" unicode="~" horiz-adv-x="1085" 
d="M750 412q-57 0 -105 16t-81.5 38.5t-65.5 44.5t-71.5 38t-84.5 16q-52 0 -101 -15t-78.5 -32.5t-78.5 -50.5l12 242q73 57 132 82.5t134 25.5q59 0 106 -14.5t79 -36t60.5 -43.5t63.5 -39t74 -20q138 -11 267 96l-13 -242q-106 -106 -249 -106z" />
    <glyph glyph-name="uni00A0" unicode="&#xa0;" horiz-adv-x="538" 
 />
    <glyph glyph-name="exclamdown" unicode="&#xa1;" horiz-adv-x="481" 
d="M244 737q-63 0 -102.5 46.5t-37.5 113.5q4 65 51.5 112.5t106.5 47.5q60 0 100 -47t37 -113q-3 -65 -49.5 -112.5t-105.5 -47.5zM182 -442q-77 0 -111 56t-24 130l119 844h137l33 -844q3 -71 -39.5 -128.5t-114.5 -57.5z" />
    <glyph glyph-name="cent" unicode="&#xa2;" horiz-adv-x="999" 
d="M694 1280l-24 -242q106 -21 170.5 -83.5t64.5 -153.5q0 -62 -35.5 -101.5t-95.5 -40.5q-62 -1 -94.5 38t-32.5 83q0 46 21 86q-8 19 -35 32t-62 13q-50 0 -90 -30t-63 -75t-39 -106t-22 -114.5t-7 -108.5q-3 -80 10.5 -141t39.5 -96t56 -53t64 -21q33 -3 65.5 4
t71.5 27.5t77 66.5t69 115l117 -57q-73 -163 -166.5 -242.5t-206.5 -95.5l-29 -258h-196l26 268q-132 33 -205 141t-73 289q0 90 24.5 184t71 180.5t123.5 152.5t172 91l24 248h209z" />
    <glyph glyph-name="sterling" unicode="&#xa3;" horiz-adv-x="1126" 
d="M158 -33q-59 0 -85.5 33t-23.5 82q3 57 54.5 104t132.5 76q41 74 45.5 166.5t-17.5 183.5l-162 -2l11 158h114q-17 84 -14 205q12 227 146 360t313 133q90 0 159 -24.5t105.5 -64t53 -81.5t14.5 -84q-3 -63 -41.5 -106.5t-100.5 -44.5q-67 -3 -100 38t-31 87q4 66 43 108
q-25 33 -90 33q-52 0 -92.5 -25.5t-64 -67.5t-36 -88.5t-14.5 -96.5q-8 -143 12 -281h326l-8 -145l-301 -7q12 -104 -28.5 -206t-121.5 -156q97 41 176 41q62 0 138 -35q11 -6 41 -22.5t44 -23.5t37 -14t42 -7q27 0 52.5 30.5t31.5 85.5h126q-14 -156 -80.5 -249t-175.5 -93
q-32 0 -61.5 7t-64.5 25.5t-51 28.5t-58 38q-127 78 -215 81q-25 -76 -76 -128t-104 -52z" />
    <glyph glyph-name="currency" unicode="&#xa4;" horiz-adv-x="1132" 
d="M231 55l-141 117l125 133q-49 94 -43 215q6 120 72 221l-115 142l150 116l96 -129q94 58 205 58q110 0 198 -58l109 127l139 -120l-131 -142q55 -98 49 -215q-6 -120 -65 -215l110 -133l-151 -117l-93 123q-91 -51 -208 -51q-121 0 -203 51zM545 276q39 0 69.5 28
t47.5 72.5t26 88t12 86.5q2 32 -4 69.5t-19 75t-41 62t-65 24.5t-66.5 -24.5t-46 -62t-25.5 -74.5t-11 -70q-3 -43 1 -86.5t16 -88t39.5 -72.5t66.5 -28z" />
    <glyph glyph-name="yen" unicode="&#xa5;" horiz-adv-x="1445" 
d="M438 0l6 135q39 2 60 6t43.5 18.5t34.5 44.5t16 79h-217l8 157h217l6 103l-223 -2l10 159l107 -2l-244 389q-29 45 -49 103t-18 92q-37 -2 -99 -6l8 158h598l-8 -136q-94 6 -132 -34t3 -123q24 -43 72.5 -128t71.5 -128q70 -135 90 -187h12q85 161 217 398
q86 147 119 186q-17 -1 -79.5 -3t-78.5 -3l8 158h453l-8 -136q-72 -10 -125 -58t-119 -161q-37 -64 -109.5 -191.5t-109.5 -191.5h143l-8 -151l-211 -2l-6 -105l215 -2l-6 -149l-215 -2q-6 -84 -17 -133q68 6 164 6l-8 -158h-592z" />
    <glyph glyph-name="brokenbar" unicode="&#xa6;" horiz-adv-x="509" 
d="M416 1556l-49 -788h-213l36 788h226zM346 231l-49 -786h-211l35 786h225z" />
    <glyph glyph-name="section" unicode="&#xa7;" horiz-adv-x="1079" 
d="M465 -467q-162 0 -266 83.5t-99 188.5q3 61 39 105t94 47q65 1 97 -41t28 -84q0 -45 -26 -84q13 -32 52.5 -51t86.5 -19q90 0 143 49.5t56 116.5q2 40 -13.5 78t-40.5 66t-63.5 57.5t-71 49t-76 45t-65.5 40.5q-62 41 -106.5 79t-87.5 90.5t-63.5 117.5t-16.5 141
q5 83 52.5 175.5t123.5 160.5q-41 56 -55.5 106t-14.5 115q1 49 17 101t50 104.5t82 93.5t120.5 66.5t158.5 25.5q162 0 266 -84.5t99 -189.5q-3 -59 -39.5 -101.5t-94.5 -45.5q-65 -1 -96.5 38.5t-27.5 81.5q0 47 26 86q-13 32 -50 51t-83 19q-89 0 -141.5 -51.5
t-57.5 -118.5q-2 -52 19 -96.5t61 -80t79 -61.5t93.5 -59t83.5 -55q79 -59 124.5 -101t80.5 -92t48.5 -104.5t13.5 -128.5q0 -72 -51.5 -170.5t-125.5 -167.5q24 -39 36 -60.5t24.5 -66.5t9.5 -90q-2 -50 -16.5 -100t-47.5 -100.5t-80.5 -88.5t-122 -62t-165.5 -24zM731 240
q14 30 25.5 85t11.5 89q0 50 -22.5 95.5t-56.5 79.5t-82 68.5t-92 60t-93.5 56.5t-79.5 55q-16 -29 -27.5 -82.5t-11.5 -89.5q0 -59 30 -111.5t82 -94t104.5 -74.5t115 -71t96.5 -66z" />
    <glyph glyph-name="dieresis" unicode="&#xa8;" horiz-adv-x="849" 
d="M594 1229q-54 0 -89.5 40.5t-35.5 102.5q0 67 43 116.5t100 49.5q54 0 88.5 -41.5t34.5 -101.5q0 -70 -41 -118t-100 -48zM238 1229q-54 0 -89.5 40.5t-35.5 102.5q0 67 43 116.5t100 49.5q54 0 88.5 -41.5t34.5 -101.5q0 -69 -41 -117.5t-100 -48.5z" />
    <glyph glyph-name="copyright" unicode="&#xa9;" horiz-adv-x="1822" 
d="M877 -145q-185 0 -340 63.5t-259.5 175t-158.5 267t-45 335.5q9 173 82.5 329.5t191.5 271t280 182t341 67.5q180 0 333.5 -67.5t256 -183t156 -271.5t44.5 -330q-9 -171 -83 -326.5t-191.5 -268t-276.5 -178.5t-331 -66zM889 -29q154 0 288 58t227 156.5t149 230.5
t63 280q6 118 -20 227.5t-82 200.5t-136 159t-188 106t-232 38q-203 0 -370.5 -100.5t-263 -267t-105.5 -363.5q-7 -148 36 -280t127.5 -230.5t216 -156.5t290.5 -58zM907 193q-139 0 -248.5 66t-166.5 180t-50 253q4 74 27.5 147.5t67.5 142t103.5 120t143.5 80.5t179 26
q143 -7 231 -71v63h147l-18 -358h-127q-8 115 -73.5 172t-155.5 57q-111 0 -195.5 -102.5t-91.5 -253.5q-6 -144 74.5 -248t220.5 -107q75 -2 155.5 38t143.5 114l82 -84q-100 -126 -221 -180.5t-228 -54.5z" />
    <glyph glyph-name="ordfeminine" unicode="&#xaa;" horiz-adv-x="831" 
d="M498 1466q105 0 225 -26q-68 -452 -68 -527q0 -39 21 -39q17 0 36.5 25t35.5 80l67 -21q-6 -32 -20 -65t-37.5 -66t-60.5 -54t-81 -21q-60 0 -89 27.5t-29 92.5q0 36 8 76h-2q-47 -109 -99 -152.5t-118 -43.5q-77 0 -134 63t-57 178q0 211 107.5 342t294.5 131zM449 1364
q-131 -7 -144 -352q-2 -55 11.5 -86t39.5 -31q35 0 70.5 75.5t58 181.5t27.5 204q-29 11 -63 8z" />
    <glyph glyph-name="guillemotleft" unicode="&#xab;" horiz-adv-x="1001" 
d="M547 -27l-512 551l2 49l575 570l82 -90l-411 -506v-2l354 -488zM811 133l-328 397l2 48l373 407l82 -67l-229 -357v-2l188 -356z" />
    <glyph glyph-name="logicalnot" unicode="&#xac;" horiz-adv-x="1085" 
d="M813 305l8 240l-737 -4l12 200l920 -6l-23 -430h-180z" />
    <glyph glyph-name="uni00AD" unicode="&#xad;" horiz-adv-x="968" 
d="M868 758l-12 -201l-750 -6l11 207h751z" />
    <glyph glyph-name="registered" unicode="&#xae;" horiz-adv-x="1822" 
d="M969 1546q180 0 333.5 -67.5t256 -183t156 -271.5t44.5 -330q-9 -171 -83 -326.5t-191.5 -268t-276.5 -178.5t-331 -66q-185 0 -340 63.5t-259.5 175t-158.5 267t-45 335.5q9 173 82.5 329.5t191.5 271t280 182t341 67.5zM958 1427q-203 0 -370.5 -100.5t-263 -267
t-105.5 -363.5q-7 -148 36 -280t127.5 -230.5t216 -156.5t290.5 -58q154 0 288 58t227 156.5t149 230.5t63 280q6 118 -20 227.5t-82 200.5t-136 159t-188 106t-232 38zM500 332q28 2 42 5t30 14.5t23 36t9 65.5l27 518q3 72 12 125q-62 -4 -104 -4l6 106q63 0 191 1t192 1
q190 0 286 -70t82 -227q-18 -206 -237 -266q16 -7 31.5 -22t23 -27.5t23.5 -38.5q86 -152 100 -172q27 -36 61 -42q10 -2 25 -3l-4 -90h-211q-49 39 -96 129q-38 70 -65 120t-36 69t-15 30.5t-9 17.5h-78l-8 -139q-3 -62 -8 -125q14 1 59.5 2t54.5 2l-6 -106h-407zM813 731
q25 -6 57 -6q101 0 157.5 49.5t62.5 140.5q2 45 -10 78t-30 50t-45 27t-46 12.5t-41 2.5q-46 0 -67 -23t-24 -87z" />
    <glyph glyph-name="macron" unicode="&#xaf;" horiz-adv-x="774" 
d="M92 1288l8 191h582l-8 -185z" />
    <glyph glyph-name="degree" unicode="&#xb0;" horiz-adv-x="786" 
d="M449 1466q149 0 235 -92.5t80 -234.5q-7 -138 -112.5 -234t-243.5 -96q-148 0 -234 94t-80 236q7 138 112 232.5t243 94.5zM436 1327q-70 0 -120 -57.5t-50 -136.5q0 -80 41 -130.5t111 -50.5q75 0 124.5 57t49.5 138q0 82 -41.5 131t-114.5 49z" />
    <glyph glyph-name="plusminus" unicode="&#xb1;" horiz-adv-x="1085" 
d="M102 817h377l21 377h159l-20 -377h377l-8 -160h-377l-21 -376h-159l20 376h-377zM102 160h914l-8 -160h-914z" />
    <glyph glyph-name="uni00B2" unicode="&#xb2;" horiz-adv-x="770" 
d="M426 1466q52 0 97.5 -11t84 -34t60.5 -62t22 -91q0 -63 -31 -116.5t-69 -85.5t-108.5 -86.5t-112.5 -94.5q-59 -56 -80 -99l248 -4q30 -2 46 14t17 62h96l-22 -240h-572q4 68 22.5 123t53.5 101t66 76.5t84 74.5q143 123 143 252q0 53 -26 80t-68 27q-20 0 -42.5 -9.5
t-31.5 -21.5q25 -20 25 -66q0 -34 -27.5 -68t-79.5 -34q-43 0 -67.5 29t-24.5 73q0 73 82 142t215 69z" />
    <glyph glyph-name="uni00B3" unicode="&#xb3;" horiz-adv-x="747" 
d="M350 598q-122 0 -193.5 59.5t-68.5 139.5q3 46 34 80.5t75 35.5q52 1 74 -29t20 -73q0 -14 -9 -37t-24 -35q23 -34 88 -34q62 0 101.5 40t44.5 101q3 66 -41.5 106.5t-124.5 40.5q-10 0 -36 -1t-34 -1l6 111q50 -4 72 -4q70 0 107.5 43.5t39.5 97.5q3 55 -26 88t-80 33
q-43 0 -74 -25q14 -12 20.5 -33t4.5 -34q-2 -35 -28 -66.5t-77 -30.5q-46 1 -71.5 30t-22.5 75q2 68 78 129t209 61q123 0 196.5 -55t67.5 -160q-3 -60 -51.5 -112t-112.5 -70q184 -36 184 -203q-2 -117 -93 -192.5t-255 -75.5z" />
    <glyph glyph-name="acute" unicode="&#xb4;" horiz-adv-x="598" 
d="M182 1157l-90 84l182 287q35 54 92.5 70.5t102.5 -21.5q44 -46 32.5 -104.5t-59.5 -98.5z" />
    <glyph glyph-name="uni00B5" unicode="&#xb5;" horiz-adv-x="1222" 
d="M236 -555q-140 0 -130 213l72 1366h250l-29 -557q-16 -313 142 -313q94 0 168 84l41 786h249l-41 -733q0 -19 -1 -42t11 -43t36 -20q33 0 75 37l66 -86q-44 -57 -115 -102t-141 -45q-133 0 -158 131h-2q-99 -144 -217 -144q-121 0 -188 123h-2q0 -96 14 -205t27.5 -187
t11.5 -107q-3 -66 -37 -111t-102 -45z" />
    <glyph glyph-name="paragraph" unicode="&#xb6;" horiz-adv-x="1140" 
d="M264 -522l76 1343q-258 49 -246 303q4 76 34 137t76.5 98t102.5 56t117 19h592l-107 -1956h-225l98 1814l-192 -2l-98 -1812h-228z" />
    <glyph glyph-name="periodcentered" unicode="&#xb7;" horiz-adv-x="464" 
d="M246 858q62 0 102 -46.5t37 -113.5t-46 -113t-108 -46q-66 0 -106 46t-37 113q3 65 50.5 112.5t107.5 47.5z" />
    <glyph glyph-name="cedilla" unicode="&#xb8;" horiz-adv-x="675" 
d="M102 -530l-10 106q252 46 256 129q2 33 -25 44.5t-60.5 3.5t-55.5 -25l-76 32l78 260h156l-68 -161q27 13 70.5 22.5t72.5 9.5q67 -2 106.5 -37.5t35.5 -105.5q-3 -54 -39.5 -99.5t-87 -74t-120.5 -51.5t-122.5 -34t-110.5 -19z" />
    <glyph glyph-name="uni00B9" unicode="&#xb9;" horiz-adv-x="565" 
d="M139 616l4 78q44 2 64 20t24 83l25 471l-135 -76l-37 80l303 194h72l-35 -657q-2 -47 -8 -104q25 2 88 2l-6 -91h-359z" />
    <glyph glyph-name="ordmasculine" unicode="&#xba;" horiz-adv-x="753" 
d="M444 1466q120 0 200.5 -84t80.5 -227q0 -107 -41 -199.5t-121.5 -151.5t-183.5 -59q-135 0 -209 91.5t-74 228.5q0 166 97 283.5t251 117.5zM428 1364q-52 0 -84.5 -77.5t-32.5 -201.5q0 -231 84 -231q55 0 85 78t30 194q0 238 -82 238z" />
    <glyph glyph-name="guillemotright" unicode="&#xbb;" horiz-adv-x="1003" 
d="M446 1135l512 -551l-2 -49l-575 -570l-82 90l412 506v2l-355 488zM182 975l328 -397l-2 -48l-373 -407l-82 67l230 357v2l-189 356z" />
    <glyph glyph-name="onequarter" unicode="&#xbc;" horiz-adv-x="1626" 
d="M139 616l4 78q44 2 64 20t24 83l25 471l-135 -76l-37 80l303 194h72l-35 -657q-2 -47 -8 -104q25 2 88 2l-6 -91h-359zM1221 1466l131 -104l-983 -1395l-125 96zM1124 0l4 78q23 1 35.5 4t26 12.5t20.5 30.5t9 55v27l-310 2l4 119l465 522h70l-27 -531l121 -2l-6 -112
h-121l-10 -117l88 2l-6 -90h-363zM1229 322l22 245h-2l-198 -241z" />
    <glyph glyph-name="onehalf" unicode="&#xbd;" horiz-adv-x="1705" 
d="M139 616l4 78q44 2 64 20t24 83l25 471l-135 -76l-37 80l303 194h72l-35 -657q-2 -47 -8 -104q25 2 88 2l-6 -91h-359zM1221 1466l131 -104l-983 -1395l-125 96zM1350 848q111 0 187.5 -49.5t76.5 -149.5q0 -51 -17.5 -93t-52.5 -78t-71 -64.5t-89.5 -70.5t-91.5 -77
q-60 -57 -80 -98l248 -4q30 -2 46.5 14t17.5 62h96l-23 -240h-571q4 68 22.5 123t53 101t66 76.5t83.5 74.5q81 69 112.5 135.5t31.5 116.5q0 53 -26.5 79.5t-68.5 26.5q-20 0 -42 -9.5t-31 -21.5q24 -19 24 -65q0 -34 -27 -68t-79 -34q-43 0 -67.5 29t-24.5 73q0 73 82 142
t215 69z" />
    <glyph glyph-name="threequarters" unicode="&#xbe;" horiz-adv-x="1820" 
d="M350 598q-122 0 -193.5 59.5t-68.5 139.5q3 46 34 80.5t75 35.5q52 1 74 -29t20 -73q0 -14 -9 -37t-24 -35q23 -34 88 -34q62 0 101.5 40t44.5 101q3 66 -41.5 106.5t-124.5 40.5q-10 0 -36 -1t-34 -1l6 111q50 -4 72 -4q70 0 107.5 43.5t39.5 97.5q3 55 -26 88t-80 33
q-43 0 -74 -25q14 -12 20.5 -33t4.5 -34q-2 -35 -28 -66.5t-77 -30.5q-46 1 -71.5 30t-22.5 75q2 68 78 129t209 61q123 0 196.5 -55t67.5 -160q-3 -60 -51.5 -112t-112.5 -70q184 -36 184 -203q-2 -117 -93 -192.5t-255 -75.5zM1415 1466l131 -104l-983 -1395l-125 96z
M1319 0l4 78q23 1 35.5 4t26 12.5t20 30.5t8.5 55v27l-309 2l4 119l465 522h69l-26 -531l121 -2l-6 -112h-121l-11 -117l89 2l-7 -90h-362zM1423 322l23 245h-2l-199 -241z" />
    <glyph glyph-name="questiondown" unicode="&#xbf;" horiz-adv-x="978" 
d="M510 1057q60 0 101 -47t38 -113t-50 -113t-107 -47q-62 0 -102.5 46.5t-37.5 113.5q3 65 51 112.5t107 47.5zM510 653q74 0 124 -35t46 -106q-3 -52 -38 -101.5t-142 -150.5q-44 -41 -71.5 -71.5t-55.5 -72t-42.5 -89t-17.5 -103.5q-11 -223 168 -223q48 0 93 20t67 46
q-19 19 -27.5 52.5t-5.5 57.5q5 50 45 91.5t105 37.5q61 -3 92.5 -42.5t28.5 -102.5q-3 -54 -39 -108.5t-94 -97.5t-140.5 -70t-171.5 -27q-117 0 -202.5 27t-132 74.5t-66.5 103t-17 120.5q3 59 29.5 115.5t66.5 101t88 86.5t95 78t86.5 67.5t64.5 62.5t27 57
q2 28 -18.5 44.5t-61.5 16.5q-28 0 -61 -8l-27 104q90 45 205 45z" />
    <glyph glyph-name="Agrave" unicode="&#xc0;" horiz-adv-x="1366" 
d="M809 1577l-289 172q-32 21 -53 49.5t-24.5 63.5t24.5 69q25 33 62.5 39.5t72.5 -8.5t64 -45l223 -240zM786 1470l379 -1116q43 -149 47 -202l117 6l-6 -158h-549l8 135q42 0 66.5 13.5t32 39t4 56t-16.5 71.5l-34 113l-449 -8l-39 -96q-41 -109 -74 -166l152 6l-10 -164
h-439l9 141q39 0 69.5 16.5t54 50.5t40.5 68t39 84l6 15l456 1095h137zM645 1110q-22 -85 -96 -270l-105 -267h344l-79 256q-53 181 -64 281z" />
    <glyph glyph-name="Aacute" unicode="&#xc1;" horiz-adv-x="1366" 
d="M645 1577l-70 98l250 242q30 29 67 44t74 8.5t58 -38.5q24 -35 17.5 -70t-30 -63t-59.5 -49zM786 1470l379 -1116q43 -149 47 -202l117 6l-6 -158h-549l8 135q42 0 66.5 13.5t32 39t4 56t-16.5 71.5l-34 113l-449 -8l-39 -96q-41 -109 -74 -166l152 6l-10 -164h-439
l9 141q39 0 69.5 16.5t54 50.5t40.5 68t39 84l6 15l456 1095h137zM645 1110q-22 -85 -96 -270l-105 -267h344l-79 256q-53 181 -64 281z" />
    <glyph glyph-name="Acircumflex" unicode="&#xc2;" horiz-adv-x="1366" 
d="M1096 1595l-367 181l-395 -177l-39 82l434 308h39l385 -308zM786 1470l379 -1116q43 -149 47 -202l117 6l-6 -158h-549l8 135q42 0 66.5 13.5t32 39t4 56t-16.5 71.5l-34 113l-449 -8l-39 -96q-41 -109 -74 -166l152 6l-10 -164h-439l9 141q39 0 69.5 16.5t54 50.5
t40.5 68t39 84l6 15l456 1095h137zM645 1110q-22 -85 -96 -270l-105 -267h344l-79 256q-53 181 -64 281z" />
    <glyph glyph-name="Atilde" unicode="&#xc3;" horiz-adv-x="1366" 
d="M584 1737q-115 0 -183 -101l-104 66q43 107 120.5 162t157.5 55q45 0 89 -16t73.5 -35t67.5 -35t72 -16q43 0 95.5 35.5t80.5 91.5l106 -56q-89 -254 -272 -254q-42 0 -84.5 16t-72 35.5t-69 35.5t-77.5 16zM786 1470l379 -1116q43 -149 47 -202l117 6l-6 -158h-549
l8 135q42 0 66.5 13.5t32 39t4 56t-16.5 71.5l-34 113l-449 -8l-39 -96q-41 -109 -74 -166l152 6l-10 -164h-439l9 141q39 0 69.5 16.5t54 50.5t40.5 68t39 84l6 15l456 1095h137zM645 1110q-22 -85 -96 -270l-105 -267h344l-79 256q-53 181 -64 281z" />
    <glyph glyph-name="Adieresis" unicode="&#xc4;" horiz-adv-x="1366" 
d="M541 1632q-52 0 -87.5 42t-35.5 104q0 67 43 116.5t100 49.5q53 0 87 -42.5t34 -103.5q0 -67 -41 -116.5t-100 -49.5zM899 1632q-53 0 -88 42t-35 104q0 67 42.5 116.5t99.5 49.5q54 0 87 -42t33 -104q0 -68 -40.5 -117t-98.5 -49zM786 1470l379 -1116q43 -149 47 -202
l117 6l-6 -158h-549l8 135q42 0 66.5 13.5t32 39t4 56t-16.5 71.5l-34 113l-449 -8l-39 -96q-41 -109 -74 -166l152 6l-10 -164h-439l9 141q39 0 69.5 16.5t54 50.5t40.5 68t39 84l6 15l456 1095h137zM645 1110q-22 -85 -96 -270l-105 -267h344l-79 256q-53 181 -64 281z
" />
    <glyph glyph-name="Aring" unicode="&#xc5;" horiz-adv-x="1366" 
d="M729 1538q-51 0 -98.5 15.5t-87.5 46t-64 81.5t-24 115q0 113 84 188.5t188 75.5q108 0 191 -68t83 -192q0 -79 -41.5 -140.5t-103 -91.5t-127.5 -30zM735 1642q37 0 62.5 35.5t25.5 98.5q0 86 -25 134t-71 48q-48 0 -71 -44t-23 -102q0 -79 28 -124.5t74 -45.5z
M786 1470l379 -1116q43 -149 47 -202l117 6l-6 -158h-549l8 135q42 0 66.5 13.5t32 39t4 56t-16.5 71.5l-34 113l-449 -8l-39 -96q-41 -109 -74 -166l152 6l-10 -164h-439l9 141q39 0 69.5 16.5t54 50.5t40.5 68t39 84l6 15l456 1095h137zM645 1110q-22 -85 -96 -270
l-105 -267h344l-79 256q-53 181 -64 281z" />
    <glyph glyph-name="AE" unicode="&#xc6;" horiz-adv-x="1906" 
d="M-49 0l6 135q42 0 91 36t75 66t78 98l12 15l711 930q-94 0 -156 -4l8 158h1020l-8 -398h-135q4 80 -15.5 135.5t-56.5 82.5t-77 37.5t-87 8.5l-74 -2q-37 -1 -58.5 -6.5t-42.5 -23t-31 -53.5t-13 -95l-16 -307h241v178h158l-27 -497h-135q4 62 -8.5 100.5t-42.5 55
t-59.5 21t-79.5 3.5q-9 0 -27.5 -1t-27.5 -1l-17 -336q-7 -133 -18 -180h274q49 0 92.5 15.5t82 48.5t63 92.5t28.5 138.5h136l-37 -451h-1076l7 135q42 2 63.5 6.5t44.5 21.5t33.5 53t13.5 97l4 111q-61 -1 -197 -5t-202 -5l-78 -105q-90 -120 -137 -155v-2l164 6l-8 -158
h-459zM575 565h302l34 461h-2q-53 -88 -155 -223z" />
    <glyph glyph-name="Ccedilla" unicode="&#xc7;" horiz-adv-x="1413" 
d="M551 -563l-10 112q30 5 68.5 17.5t82 31t74 46.5t31.5 57q1 26 -13.5 38.5t-38.5 12.5q-49 0 -88 -31l-84 31l64 221q-177 24 -308 125t-195.5 256.5t-55.5 341.5q6 114 40 223.5t98.5 208.5t152 174t208 119.5t259.5 44.5q83 0 176 -26t170 -74h2l-2 86h157l-24 -477
h-135q-19 171 -101.5 261.5t-224.5 90.5q-104 1 -189.5 -49.5t-141 -135t-88 -188.5t-38.5 -217q-9 -177 34.5 -314.5t139 -218t230.5 -81.5q131 -2 262.5 61.5t230.5 192.5l80 -82q-236 -305 -581 -326l-45 -106q29 13 72.5 22.5t70.5 8.5q66 -2 108 -41.5t39 -108.5
q-4 -68 -56.5 -125t-133 -93t-154.5 -57.5t-143 -31.5z" />
    <glyph glyph-name="Egrave" unicode="&#xc8;" horiz-adv-x="1275" 
d="M803 1577l-289 172q-32 21 -53 49.5t-24.5 63.5t24.5 69q25 33 62 39.5t72 -8.5t64 -45l224 -240zM1167 1434l-10 -398h-133q3 64 -10.5 113t-36 77.5t-55.5 46t-65.5 23t-68.5 4.5l-73 -2q-37 -1 -59 -6.5t-43.5 -23t-32 -54t-13.5 -94.5l-14 -307h240v178h157l-24 -497
h-135q2 50 -7 85t-25 54t-43.5 29t-53.5 11.5t-64 0.5l-53 -2l-19 -336q-7 -127 -16 -180h274q48 0 91 15.5t81.5 48.5t63.5 92.5t29 138.5h135l-35 -451h-1077l8 135q41 2 62 6.5t44 21.5t33.5 53.5t13.5 96.5l41 785q6 107 19 184q-17 -1 -77.5 -3t-76.5 -3l8 158h1020z
" />
    <glyph glyph-name="Eacute" unicode="&#xc9;" horiz-adv-x="1275" 
d="M639 1577l-70 98l250 242q30 29 67 44t74 8.5t58 -38.5q24 -35 17.5 -70t-30 -63t-59.5 -49zM1167 1434l-10 -398h-133q3 64 -10.5 113t-36 77.5t-55.5 46t-65.5 23t-68.5 4.5l-73 -2q-37 -1 -59 -6.5t-43.5 -23t-32 -54t-13.5 -94.5l-14 -307h240v178h157l-24 -497h-135
q2 50 -7 85t-25 54t-43.5 29t-53.5 11.5t-64 0.5l-53 -2l-19 -336q-7 -127 -16 -180h274q48 0 91 15.5t81.5 48.5t63.5 92.5t29 138.5h135l-35 -451h-1077l8 135q41 2 62 6.5t44 21.5t33.5 53.5t13.5 96.5l41 785q6 107 19 184q-17 -1 -77.5 -3t-76.5 -3l8 158h1020z" />
    <glyph glyph-name="Ecircumflex" unicode="&#xca;" horiz-adv-x="1275" 
d="M1090 1595l-367 181l-395 -177l-39 82l434 308h39l385 -308zM1167 1434l-10 -398h-133q3 64 -10.5 113t-36 77.5t-55.5 46t-65.5 23t-68.5 4.5l-73 -2q-37 -1 -59 -6.5t-43.5 -23t-32 -54t-13.5 -94.5l-14 -307h240v178h157l-24 -497h-135q2 50 -7 85t-25 54t-43.5 29
t-53.5 11.5t-64 0.5l-53 -2l-19 -336q-7 -127 -16 -180h274q48 0 91 15.5t81.5 48.5t63.5 92.5t29 138.5h135l-35 -451h-1077l8 135q41 2 62 6.5t44 21.5t33.5 53.5t13.5 96.5l41 785q6 107 19 184q-17 -1 -77.5 -3t-76.5 -3l8 158h1020z" />
    <glyph glyph-name="Edieresis" unicode="&#xcb;" horiz-adv-x="1275" 
d="M535 1632q-52 0 -87.5 42t-35.5 104q0 67 43 116.5t100 49.5q53 0 87 -42.5t34 -103.5q0 -67 -41 -116.5t-100 -49.5zM893 1632q-53 0 -88 42t-35 104q0 67 42 116.5t99 49.5q54 0 87.5 -42t33.5 -104q0 -68 -40.5 -117t-98.5 -49zM1167 1434l-10 -398h-133
q3 64 -10.5 113t-36 77.5t-55.5 46t-65.5 23t-68.5 4.5l-73 -2q-37 -1 -59 -6.5t-43.5 -23t-32 -54t-13.5 -94.5l-14 -307h240v178h157l-24 -497h-135q2 50 -7 85t-25 54t-43.5 29t-53.5 11.5t-64 0.5l-53 -2l-19 -336q-7 -127 -16 -180h274q48 0 91 15.5t81.5 48.5
t63.5 92.5t29 138.5h135l-35 -451h-1077l8 135q41 2 62 6.5t44 21.5t33.5 53.5t13.5 96.5l41 785q6 107 19 184q-17 -1 -77.5 -3t-76.5 -3l8 158h1020z" />
    <glyph glyph-name="Igrave" unicode="&#xcc;" horiz-adv-x="786" 
d="M563 1577l-289 172q-32 21 -53 49.5t-24.5 63.5t24.5 69q25 33 62.5 39.5t72.5 -8.5t64 -45l223 -240zM729 1434l-6 -136q-42 -2 -63.5 -6.5t-45 -21.5t-34 -53.5t-13.5 -96.5l-41 -784q-7 -132 -16 -184q64 6 154 6l-9 -158h-583l8 135q41 2 62 6.5t44 21.5t33.5 53.5
t13.5 96.5l41 785q6 107 19 184q-17 -1 -77.5 -3t-76.5 -3l8 158h582z" />
    <glyph glyph-name="Iacute" unicode="&#xcd;" horiz-adv-x="786" 
d="M399 1577l-69 98l250 242q30 29 67 44t73.5 8.5t57.5 -38.5q24 -35 17.5 -70t-29.5 -63.5t-59 -48.5zM729 1434l-6 -136q-42 -2 -63.5 -6.5t-45 -21.5t-34 -53.5t-13.5 -96.5l-41 -784q-7 -132 -16 -184q64 6 154 6l-9 -158h-583l8 135q41 2 62 6.5t44 21.5t33.5 53.5
t13.5 96.5l41 785q6 107 19 184q-17 -1 -77.5 -3t-76.5 -3l8 158h582z" />
    <glyph glyph-name="Icircumflex" unicode="&#xce;" horiz-adv-x="786" 
d="M721 1573l-252 203l-285 -197l-73 96l358 314h31l309 -322zM729 1434l-6 -136q-42 -2 -63.5 -6.5t-45 -21.5t-34 -53.5t-13.5 -96.5l-41 -784q-7 -132 -16 -184q64 6 154 6l-9 -158h-583l8 135q41 2 62 6.5t44 21.5t33.5 53.5t13.5 96.5l41 785q6 107 19 184
q-17 -1 -77.5 -3t-76.5 -3l8 158h582z" />
    <glyph glyph-name="Idieresis" unicode="&#xcf;" horiz-adv-x="786" 
d="M295 1632q-52 0 -87.5 42t-35.5 104q0 67 43 116.5t100 49.5q53 0 87 -42.5t34 -103.5q0 -67 -41 -116.5t-100 -49.5zM653 1632q-53 0 -88 42t-35 104q0 67 42.5 116.5t99.5 49.5q54 0 87.5 -42t33.5 -104q0 -68 -41 -117t-99 -49zM729 1434l-6 -136q-42 -2 -63.5 -6.5
t-45 -21.5t-34 -53.5t-13.5 -96.5l-41 -784q-7 -132 -16 -184q64 6 154 6l-9 -158h-583l8 135q41 2 62 6.5t44 21.5t33.5 53.5t13.5 96.5l41 785q6 107 19 184q-17 -1 -77.5 -3t-76.5 -3l8 158h582z" />
    <glyph glyph-name="Eth" unicode="&#xd0;" horiz-adv-x="1548" 
d="M74 0l8 135q41 2 62 6.5t44.5 21.5t34 53.5t13.5 96.5l16 310l-203 -5l10 201h203l14 279q6 107 19 184q-17 -1 -77.5 -3t-76.5 -3l9 158l591 2q156 1 285 -40t214.5 -109.5t143 -160t81 -191.5t18.5 -204q-4 -73 -21 -145.5t-51 -145.5t-81 -137t-114.5 -120
t-148.5 -96.5t-186.5 -63.5t-225.5 -23h-581zM707 150q108 0 194.5 45.5t140.5 122t84 171t35 199.5q17 304 -96.5 454t-335.5 156q-41 2 -66.5 -3t-47.5 -23t-32.5 -54t-13.5 -94l-16 -305h209l-10 -186l-209 -4l-15 -293q-7 -132 -16 -184q29 2 57 1.5t74.5 -2t63.5 -1.5z
" />
    <glyph glyph-name="Ntilde" unicode="&#xd1;" horiz-adv-x="1581" 
d="M715 1737q-115 0 -183 -101l-104 66q43 107 120.5 162t158.5 55q45 0 89 -16t73 -35t67 -35t72 -16q43 0 95.5 35.5t80.5 91.5l106 -56q-89 -254 -272 -254q-42 0 -84.5 16t-72 35.5t-69 35.5t-77.5 16zM1159 -20l-610 841q-53 72 -105 154h-2l-28 -639q-6 -107 -19 -184
q67 6 156 6l-10 -158h-467l8 135q42 2 63 6.5t44.5 21.5t34 53t14.5 97l34 785q6 107 19 184q-17 -1 -78 -3t-78 -3l10 158h322l584 -793q39 -54 133 -197h2l33 654q6 115 18 184q-16 -1 -78 -3t-78 -3l11 158h464l-6 -136q-28 -1 -44 -3t-36 -8t-30.5 -17.5t-21 -30.5
t-16 -48.5t-7.5 -70.5l-62 -1140h-174z" />
    <glyph glyph-name="Ograve" unicode="&#xd2;" horiz-adv-x="1560" 
d="M918 1577l-289 172q-33 21 -53.5 49.5t-24.5 64t24 68.5q25 33 62.5 39.5t72.5 -8.5t64 -45l223 -240zM831 1466q144 0 261 -45.5t193 -119.5t126 -172.5t69.5 -202t14.5 -209.5q-6 -104 -38 -208t-94.5 -202t-147.5 -173.5t-206 -121t-261 -45.5q-151 0 -270.5 44
t-195 117t-124 171.5t-65.5 202.5t-11 215q5 105 37 210t94.5 202.5t148 172t207.5 119.5t262 45zM797 1327q-81 -2 -148 -39.5t-111 -96.5t-75.5 -137t-46.5 -155.5t-19 -157.5q-4 -81 4 -164.5t34.5 -169.5t69 -152t112.5 -108t159 -41q82 1 149.5 37t112 93.5t76.5 134.5
t47 154t19 157q9 192 -27 335.5t-127 228t-229 81.5z" />
    <glyph glyph-name="Oacute" unicode="&#xd3;" horiz-adv-x="1560" 
d="M754 1577l-70 98l250 242q30 29 67 44t74 8.5t58 -38.5q24 -35 17.5 -70t-30 -63t-59.5 -49zM831 1466q144 0 261 -45.5t193 -119.5t126 -172.5t69.5 -202t14.5 -209.5q-6 -104 -38 -208t-94.5 -202t-147.5 -173.5t-206 -121t-261 -45.5q-151 0 -270.5 44t-195 117
t-124 171.5t-65.5 202.5t-11 215q5 105 37 210t94.5 202.5t148 172t207.5 119.5t262 45zM797 1327q-81 -2 -148 -39.5t-111 -96.5t-75.5 -137t-46.5 -155.5t-19 -157.5q-4 -81 4 -164.5t34.5 -169.5t69 -152t112.5 -108t159 -41q82 1 149.5 37t112 93.5t76.5 134.5t47 154
t19 157q9 192 -27 335.5t-127 228t-229 81.5z" />
    <glyph glyph-name="Ocircumflex" unicode="&#xd4;" horiz-adv-x="1560" 
d="M1204 1595l-366 181l-396 -177l-39 82l435 308h39l385 -308zM831 1466q144 0 261 -45.5t193 -119.5t126 -172.5t69.5 -202t14.5 -209.5q-6 -104 -38 -208t-94.5 -202t-147.5 -173.5t-206 -121t-261 -45.5q-151 0 -270.5 44t-195 117t-124 171.5t-65.5 202.5t-11 215
q5 105 37 210t94.5 202.5t148 172t207.5 119.5t262 45zM797 1327q-81 -2 -148 -39.5t-111 -96.5t-75.5 -137t-46.5 -155.5t-19 -157.5q-4 -81 4 -164.5t34.5 -169.5t69 -152t112.5 -108t159 -41q82 1 149.5 37t112 93.5t76.5 134.5t47 154t19 157q9 192 -27 335.5t-127 228
t-229 81.5z" />
    <glyph glyph-name="Otilde" unicode="&#xd5;" horiz-adv-x="1560" 
d="M692 1737q-114 0 -182 -101l-104 66q43 107 120.5 162t157.5 55q45 0 89 -16t73 -35t67 -35t72 -16q43 0 95.5 35.5t80.5 91.5l107 -56q-89 -254 -273 -254q-42 0 -84.5 16t-72 35.5t-69 35.5t-77.5 16zM831 1466q144 0 261 -45.5t193 -119.5t126 -172.5t69.5 -202
t14.5 -209.5q-6 -104 -38 -208t-94.5 -202t-147.5 -173.5t-206 -121t-261 -45.5q-151 0 -270.5 44t-195 117t-124 171.5t-65.5 202.5t-11 215q5 105 37 210t94.5 202.5t148 172t207.5 119.5t262 45zM797 1327q-81 -2 -148 -39.5t-111 -96.5t-75.5 -137t-46.5 -155.5
t-19 -157.5q-4 -81 4 -164.5t34.5 -169.5t69 -152t112.5 -108t159 -41q82 1 149.5 37t112 93.5t76.5 134.5t47 154t19 157q9 192 -27 335.5t-127 228t-229 81.5z" />
    <glyph glyph-name="Odieresis" unicode="&#xd6;" horiz-adv-x="1560" 
d="M649 1632q-52 0 -87.5 42t-35.5 104q0 67 43.5 116.5t100.5 49.5q53 0 87 -42.5t34 -103.5q0 -67 -41.5 -116.5t-100.5 -49.5zM1008 1632q-53 0 -88 42t-35 104q0 67 42 116.5t99 49.5q54 0 87.5 -42t33.5 -104q0 -68 -40.5 -117t-98.5 -49zM831 1466q144 0 261 -45.5
t193 -119.5t126 -172.5t69.5 -202t14.5 -209.5q-6 -104 -38 -208t-94.5 -202t-147.5 -173.5t-206 -121t-261 -45.5q-151 0 -270.5 44t-195 117t-124 171.5t-65.5 202.5t-11 215q5 105 37 210t94.5 202.5t148 172t207.5 119.5t262 45zM797 1327q-81 -2 -148 -39.5t-111 -96.5
t-75.5 -137t-46.5 -155.5t-19 -157.5q-4 -81 4 -164.5t34.5 -169.5t69 -152t112.5 -108t159 -41q82 1 149.5 37t112 93.5t76.5 134.5t47 154t19 157q9 192 -27 335.5t-127 228t-229 81.5z" />
    <glyph glyph-name="multiply" unicode="&#xd7;" horiz-adv-x="1085" 
d="M309 1116l252 -268l283 268l104 -110l-280 -267l252 -268l-119 -113l-252 269l-283 -269l-104 111l280 266l-252 269z" />
    <glyph glyph-name="Oslash" unicode="&#xd8;" horiz-adv-x="1558" 
d="M326 -209l-148 103l133 208q-128 104 -183.5 268t-45.5 347q5 105 37 210t94.5 202.5t148 172t207.5 119.5t262 45q177 0 306 -63l129 201l155 -101l-131 -207q111 -107 162 -262t43 -317q-6 -104 -38 -208t-94.5 -202t-147.5 -173.5t-206 -121t-261 -45.5
q-161 0 -279 47zM461 338l573 901q-91 91 -237 88q-81 -2 -148 -39.5t-111 -96.5t-75.5 -137t-46.5 -155.5t-19 -157.5q-14 -225 64 -403zM776 106q82 1 149.5 37t112 93.5t76.5 134.5t47 154t19 157q12 221 -41 379l-566 -885q86 -70 203 -70z" />
    <glyph glyph-name="Ugrave" unicode="&#xd9;" horiz-adv-x="1546" 
d="M965 1577l-289 172q-32 21 -53 49.5t-24.5 63.5t24.5 69q25 33 62 39.5t72 -8.5t64 -45l223 -240zM1548 1434l-8 -136q-41 -2 -62 -6.5t-44.5 -21.5t-34 -53.5t-13.5 -96.5l-26 -512q-10 -172 -59.5 -298t-132.5 -200t-186 -108.5t-230 -34.5q-135 0 -236 33t-163.5 89
t-99 138.5t-48.5 173.5t-6 201l26 496q7 132 19 184q-17 -1 -78 -3t-78 -3l8 158h586l-8 -136q-42 -2 -63.5 -6.5t-45 -21.5t-34 -53.5t-13.5 -96.5l-29 -563q-22 -422 304 -434q172 -6 270.5 104t110.5 334l28 537q7 132 19 184q-16 -1 -77 -3t-77 -3l6 158h475z" />
    <glyph glyph-name="Uacute" unicode="&#xda;" horiz-adv-x="1546" 
d="M801 1577l-70 98l250 242q30 29 67 44t74 8.5t58 -38.5q24 -35 17.5 -70t-30 -63t-59.5 -49zM1548 1434l-8 -136q-41 -2 -62 -6.5t-44.5 -21.5t-34 -53.5t-13.5 -96.5l-26 -512q-10 -172 -59.5 -298t-132.5 -200t-186 -108.5t-230 -34.5q-135 0 -236 33t-163.5 89
t-99 138.5t-48.5 173.5t-6 201l26 496q7 132 19 184q-17 -1 -78 -3t-78 -3l8 158h586l-8 -136q-42 -2 -63.5 -6.5t-45 -21.5t-34 -53.5t-13.5 -96.5l-29 -563q-22 -422 304 -434q172 -6 270.5 104t110.5 334l28 537q7 132 19 184q-16 -1 -77 -3t-77 -3l6 158h475z" />
    <glyph glyph-name="Ucircumflex" unicode="&#xdb;" horiz-adv-x="1546" 
d="M1251 1595l-366 181l-396 -177l-38 82l434 308h39l385 -308zM1548 1434l-8 -136q-41 -2 -62 -6.5t-44.5 -21.5t-34 -53.5t-13.5 -96.5l-26 -512q-10 -172 -59.5 -298t-132.5 -200t-186 -108.5t-230 -34.5q-135 0 -236 33t-163.5 89t-99 138.5t-48.5 173.5t-6 201l26 496
q7 132 19 184q-17 -1 -78 -3t-78 -3l8 158h586l-8 -136q-42 -2 -63.5 -6.5t-45 -21.5t-34 -53.5t-13.5 -96.5l-29 -563q-22 -422 304 -434q172 -6 270.5 104t110.5 334l28 537q7 132 19 184q-16 -1 -77 -3t-77 -3l6 158h475z" />
    <glyph glyph-name="Udieresis" unicode="&#xdc;" horiz-adv-x="1546" 
d="M696 1632q-52 0 -87.5 42t-35.5 104q0 67 43.5 116.5t100.5 49.5q53 0 87 -42.5t34 -103.5q0 -67 -41.5 -116.5t-100.5 -49.5zM1055 1632q-53 0 -88 42t-35 104q0 67 42 116.5t99 49.5q54 0 87.5 -42t33.5 -104q0 -68 -40.5 -117t-98.5 -49zM1548 1434l-8 -136
q-41 -2 -62 -6.5t-44.5 -21.5t-34 -53.5t-13.5 -96.5l-26 -512q-10 -172 -59.5 -298t-132.5 -200t-186 -108.5t-230 -34.5q-135 0 -236 33t-163.5 89t-99 138.5t-48.5 173.5t-6 201l26 496q7 132 19 184q-17 -1 -78 -3t-78 -3l8 158h586l-8 -136q-42 -2 -63.5 -6.5
t-45 -21.5t-34 -53.5t-13.5 -96.5l-29 -563q-22 -422 304 -434q172 -6 270.5 104t110.5 334l28 537q7 132 19 184q-16 -1 -77 -3t-77 -3l6 158h475z" />
    <glyph glyph-name="Yacute" unicode="&#xdd;" horiz-adv-x="1361" 
d="M709 1577l-70 98l250 242q30 29 67 44t73.5 8.5t57.5 -38.5q24 -35 17.5 -70t-29.5 -63.5t-59 -48.5zM389 0l8 135q42 2 63.5 6.5t45 21.5t34 53.5t13.5 96.5l8 179l-346 595q-29 49 -49 105.5t-19 89.5q-22 -1 -100 -6l8 158h598l-6 -136q-94 6 -131.5 -33.5t2.5 -123.5
q24 -43 72.5 -128t71.5 -128q3 -7 18 -36.5t27.5 -54t26.5 -56.5t20 -52h4q6 14 20 40.5t38.5 72.5t45.5 88q20 35 60 104.5t59 104.5q71 132 117 186q-18 -1 -79.5 -3t-78.5 -3l8 158h453l-6 -136q-72 -11 -126 -59t-118 -160l-295 -512l-10 -231q-6 -107 -19 -184
q65 6 164 6l-8 -158h-594z" />
    <glyph glyph-name="Thorn" unicode="&#xde;" horiz-adv-x="1290" 
d="M72 0l8 135q41 2 62 6.5t44 21.5t33.5 53.5t13.5 96.5l41 785q6 107 19 184q-17 -1 -77.5 -3t-76.5 -3l8 158h582l-6 -136q-37 -2 -57 -6t-42.5 -16.5t-34.5 -39t-18 -69.5q21 0 62 1t61 1q139 2 244.5 -20.5t184 -72.5t115.5 -136t28 -205q-7 -84 -49 -157.5
t-116 -132.5t-188.5 -94.5t-255.5 -39.5q-77 -3 -133 0q-6 -95 -14 -159q64 6 154 6l-9 -158h-583zM532 461q50 -4 76 -4q168 0 251 73.5t91 223.5q3 54 -6.5 97.5t-25 71.5t-41.5 48t-48.5 30t-54 15.5t-49.5 6.5t-43 1h-119z" />
    <glyph glyph-name="germandbls" unicode="&#xdf;" horiz-adv-x="1374" 
d="M-41 -555q-93 0 -144 39.5t-51 107.5q0 45 32.5 87.5t94.5 41.5q47 -2 77.5 -38t23.5 -89q12 -4 26 -4q22 0 40 16t31 50t21.5 66.5t15.5 84.5t10.5 84.5t8.5 85.5q11 132 36.5 475t31.5 425l-164 -3l19 150h163q14 122 53 216.5t92 153t122 96t137.5 52t144.5 14.5
q60 0 116 -6t119.5 -25.5t110 -50t77 -84.5t30.5 -124q0 -46 -15 -87t-44 -75.5t-56.5 -59.5t-68.5 -55q-14 -10 -51.5 -36.5t-52.5 -38.5t-37.5 -32.5t-31 -38.5t-8.5 -38q0 -24 2.5 -36t17 -33.5t49.5 -46.5t95 -60q132 -76 184 -120q111 -96 111 -216q0 -138 -115 -227
t-292 -89q-151 0 -254 66t-103 172q0 62 37.5 102.5t93.5 40.5q55 0 90 -37t35 -90q0 -31 -12 -61q10 -21 48.5 -39t70.5 -18q151 0 151 127q0 35 -28 68t-61.5 54.5t-95.5 57.5q-7 4 -11 6q-140 79 -199 144.5t-59 140.5q0 51 19.5 95t55 80.5t70.5 64.5t82 63.5t74 60.5
q89 86 82 178q-7 86 -63 121t-134 35q-62 0 -112 -20t-84 -57.5t-58 -81t-38.5 -101.5t-22.5 -107.5t-13 -109.5q-14 -159 -39.5 -478t-38.5 -477q-62 -532 -444 -532z" />
    <glyph glyph-name="agrave" unicode="&#xe0;" horiz-adv-x="1124" 
d="M739 1157l-233 219q-27 28 -41 62.5t-8 72.5t37 66q54 36 103.5 20.5t80.5 -69.5l160 -287zM670 1047q115 0 295 -43q-3 -20 -20.5 -140.5t-26.5 -187t-22 -169t-19.5 -172t-6.5 -108.5q0 -59 29 -59q59 0 105 162l110 -33q-8 -39 -21 -78.5t-37.5 -84.5t-55 -78.5
t-75.5 -56t-96 -22.5q-163 0 -163 187q0 72 8 119h-2q-70 -167 -157.5 -236.5t-190.5 -69.5q-119 0 -196 95.5t-77 277.5q0 141 42 267t119.5 222t196 152t261.5 56zM594 911q-120 0 -191 -148t-71 -423q0 -85 20.5 -132.5t57.5 -47.5q54 0 102.5 71.5t82 183.5t55.5 238.5
t28 245.5q-42 12 -84 12z" />
    <glyph glyph-name="aacute" unicode="&#xe1;" horiz-adv-x="1124" 
d="M547 1157l-90 84l182 287q35 54 92.5 70.5t102.5 -21.5q44 -46 32.5 -104.5t-59.5 -98.5zM670 1047q115 0 295 -43q-3 -20 -20.5 -140.5t-26.5 -187t-22 -169t-19.5 -172t-6.5 -108.5q0 -59 29 -59q59 0 105 162l110 -33q-8 -39 -21 -78.5t-37.5 -84.5t-55 -78.5
t-75.5 -56t-96 -22.5q-163 0 -163 187q0 72 8 119h-2q-70 -167 -157.5 -236.5t-190.5 -69.5q-119 0 -196 95.5t-77 277.5q0 141 42 267t119.5 222t196 152t261.5 56zM594 911q-120 0 -191 -148t-71 -423q0 -85 20.5 -132.5t57.5 -47.5q54 0 102.5 71.5t82 183.5t55.5 238.5
t28 245.5q-42 12 -84 12z" />
    <glyph glyph-name="acircumflex" unicode="&#xe2;" horiz-adv-x="1124" 
d="M924 1161l-256 213h-2l-279 -205l-72 97l367 338h20l312 -349zM670 1047q115 0 295 -43q-3 -20 -20.5 -140.5t-26.5 -187t-22 -169t-19.5 -172t-6.5 -108.5q0 -59 29 -59q59 0 105 162l110 -33q-8 -39 -21 -78.5t-37.5 -84.5t-55 -78.5t-75.5 -56t-96 -22.5
q-163 0 -163 187q0 72 8 119h-2q-70 -167 -157.5 -236.5t-190.5 -69.5q-119 0 -196 95.5t-77 277.5q0 141 42 267t119.5 222t196 152t261.5 56zM594 911q-120 0 -191 -148t-71 -423q0 -85 20.5 -132.5t57.5 -47.5q54 0 102.5 71.5t82 183.5t55.5 238.5t28 245.5
q-42 12 -84 12z" />
    <glyph glyph-name="atilde" unicode="&#xe3;" horiz-adv-x="1124" 
d="M410 1241l-109 70q31 90 98.5 145t137.5 55q54 0 95.5 -19.5t77.5 -38.5t76 -19q74 0 132 104l108 -57q-38 -120 -104.5 -177t-135.5 -57q-46 0 -90.5 19.5t-83 39t-71.5 19.5q-31 0 -67 -19.5t-64 -64.5zM670 1047q115 0 295 -43q-3 -20 -20.5 -140.5t-26.5 -187
t-22 -169t-19.5 -172t-6.5 -108.5q0 -59 29 -59q59 0 105 162l110 -33q-8 -39 -21 -78.5t-37.5 -84.5t-55 -78.5t-75.5 -56t-96 -22.5q-163 0 -163 187q0 72 8 119h-2q-70 -167 -157.5 -236.5t-190.5 -69.5q-119 0 -196 95.5t-77 277.5q0 141 42 267t119.5 222t196 152
t261.5 56zM594 911q-120 0 -191 -148t-71 -423q0 -85 20.5 -132.5t57.5 -47.5q54 0 102.5 71.5t82 183.5t55.5 238.5t28 245.5q-42 12 -84 12z" />
    <glyph glyph-name="adieresis" unicode="&#xe4;" horiz-adv-x="1124" 
d="M834 1229q-54 0 -89.5 40.5t-35.5 102.5q0 67 43 116.5t100 49.5q54 0 88.5 -41.5t34.5 -101.5q0 -70 -41 -118t-100 -48zM477 1229q-54 0 -89.5 40.5t-35.5 102.5q0 67 43.5 116.5t100.5 49.5q54 0 88 -41.5t34 -101.5q0 -69 -41 -117.5t-100 -48.5zM670 1047
q115 0 295 -43q-3 -20 -20.5 -140.5t-26.5 -187t-22 -169t-19.5 -172t-6.5 -108.5q0 -59 29 -59q59 0 105 162l110 -33q-8 -39 -21 -78.5t-37.5 -84.5t-55 -78.5t-75.5 -56t-96 -22.5q-163 0 -163 187q0 72 8 119h-2q-70 -167 -157.5 -236.5t-190.5 -69.5q-119 0 -196 95.5
t-77 277.5q0 141 42 267t119.5 222t196 152t261.5 56zM594 911q-120 0 -191 -148t-71 -423q0 -85 20.5 -132.5t57.5 -47.5q54 0 102.5 71.5t82 183.5t55.5 238.5t28 245.5q-42 12 -84 12z" />
    <glyph glyph-name="aring" unicode="&#xe5;" horiz-adv-x="1124" 
d="M651 1153q-91 0 -161.5 62t-69.5 165q1 104 78 176t176 72q95 0 163.5 -58.5t67.5 -166.5q-3 -110 -81 -180t-173 -70zM668 1276q28 2 50 28.5t25 71.5q3 65 -18.5 98t-56.5 33q-31 -2 -54 -27t-26 -73q-3 -63 19.5 -97t60.5 -34zM670 1047q115 0 295 -43
q-3 -20 -20.5 -140.5t-26.5 -187t-22 -169t-19.5 -172t-6.5 -108.5q0 -59 29 -59q59 0 105 162l110 -33q-8 -39 -21 -78.5t-37.5 -84.5t-55 -78.5t-75.5 -56t-96 -22.5q-163 0 -163 187q0 72 8 119h-2q-70 -167 -157.5 -236.5t-190.5 -69.5q-119 0 -196 95.5t-77 277.5
q0 141 42 267t119.5 222t196 152t261.5 56zM594 911q-120 0 -191 -148t-71 -423q0 -85 20.5 -132.5t57.5 -47.5q54 0 102.5 71.5t82 183.5t55.5 238.5t28 245.5q-42 12 -84 12z" />
    <glyph glyph-name="ae" unicode="&#xe6;" horiz-adv-x="1497" 
d="M1102 1047q142 0 226.5 -64.5t84.5 -194.5q0 -46 -18.5 -86t-48 -69t-75.5 -54t-91 -41.5t-105 -31t-107.5 -22.5t-107.5 -17q0 -83 16.5 -144.5t45 -94t60 -47.5t67.5 -15q30 0 61.5 8t70.5 27.5t76 61.5t64 102l115 -58q-42 -97 -95 -164t-111.5 -102t-115 -49.5
t-121.5 -14.5q-100 -1 -166.5 35.5t-124.5 112.5q-149 -144 -376 -148q-143 0 -218 76t-69 197q4 75 40 133t90 93.5t131.5 59.5t152.5 34t165 14q1 23 3.5 66.5t3.5 66.5q5 86 -27 136.5t-106 47.5q-88 -3 -138 -53q21 -29 21 -82q-3 -50 -41.5 -90t-104.5 -39
q-58 1 -89.5 41t-28.5 98q6 115 124.5 193t296.5 78q105 0 171.5 -33.5t91.5 -116.5q58 71 137.5 110.5t169.5 39.5zM1079 911q-50 0 -89 -26.5t-63 -73t-38.5 -99t-20.5 -114.5q161 30 235.5 85.5t72.5 133.5q-1 47 -31 70.5t-66 23.5zM610 459q-298 -31 -303 -174
q-1 -53 35.5 -84t83.5 -31q51 0 110 19t91 51q-19 135 -17 219z" />
    <glyph glyph-name="ccedilla" unicode="&#xe7;" horiz-adv-x="956" 
d="M233 -530l-10 106q252 46 256 129q2 33 -25 44.5t-60.5 3.5t-55.5 -25l-76 32l70 234q-131 33 -204 141t-73 289q0 81 19 166t60.5 167.5t99 146.5t142 103.5t183.5 39.5q144 0 238 -67.5t94 -178.5q0 -62 -35.5 -101.5t-95.5 -40.5q-63 -1 -95 38t-32 83q0 47 20 86
q-9 19 -35.5 32t-62.5 13q-50 0 -89 -30t-62.5 -75t-39 -106t-21.5 -114.5t-7 -108.5q-3 -80 10.5 -141t39.5 -96t56 -53t64 -21q33 -3 65 4t71 27.5t76.5 66.5t67.5 115l117 -57q-80 -182 -186.5 -260t-239.5 -85l-49 -118q27 13 70.5 22.5t72.5 9.5q67 -2 106.5 -37.5
t35.5 -105.5q-3 -54 -39.5 -99.5t-87 -74t-120.5 -51.5t-122.5 -34t-110.5 -19z" />
    <glyph glyph-name="egrave" unicode="&#xe8;" horiz-adv-x="962" 
d="M614 1157l-233 219q-27 28 -41 62.5t-8 72.5t37 66q54 36 103.5 20.5t80.5 -69.5l160 -287zM573 1047q142 0 225 -64.5t83 -194.5q0 -54 -23 -99.5t-65.5 -78.5t-92.5 -58.5t-115.5 -44.5t-123 -30.5t-125.5 -21.5q0 -83 16 -142.5t43.5 -90t58 -43.5t66.5 -13
q30 0 60.5 7.5t69 26.5t74.5 60.5t62 101.5l115 -55q-42 -97 -94 -164t-109 -102t-112.5 -49.5t-120.5 -14.5q-194 -2 -302 111t-108 336q0 82 19 166.5t60.5 167t100.5 146.5t146.5 103.5t191.5 39.5zM551 911q-50 0 -88.5 -28.5t-62.5 -77t-37.5 -102t-20.5 -115.5
q157 28 229 88t70 141q-1 47 -28 70.5t-62 23.5z" />
    <glyph glyph-name="eacute" unicode="&#xe9;" horiz-adv-x="962" 
d="M422 1157l-90 84l182 287q35 54 92.5 70.5t102.5 -21.5q44 -46 32.5 -104.5t-59.5 -98.5zM573 1047q142 0 225 -64.5t83 -194.5q0 -54 -23 -99.5t-65.5 -78.5t-92.5 -58.5t-115.5 -44.5t-123 -30.5t-125.5 -21.5q0 -83 16 -142.5t43.5 -90t58 -43.5t66.5 -13
q30 0 60.5 7.5t69 26.5t74.5 60.5t62 101.5l115 -55q-42 -97 -94 -164t-109 -102t-112.5 -49.5t-120.5 -14.5q-194 -2 -302 111t-108 336q0 82 19 166.5t60.5 167t100.5 146.5t146.5 103.5t191.5 39.5zM551 911q-50 0 -88.5 -28.5t-62.5 -77t-37.5 -102t-20.5 -115.5
q157 28 229 88t70 141q-1 47 -28 70.5t-62 23.5z" />
    <glyph glyph-name="ecircumflex" unicode="&#xea;" horiz-adv-x="962" 
d="M799 1161l-256 213h-2l-279 -205l-72 97l367 338h21l311 -349zM573 1047q142 0 225 -64.5t83 -194.5q0 -54 -23 -99.5t-65.5 -78.5t-92.5 -58.5t-115.5 -44.5t-123 -30.5t-125.5 -21.5q0 -83 16 -142.5t43.5 -90t58 -43.5t66.5 -13q30 0 60.5 7.5t69 26.5t74.5 60.5
t62 101.5l115 -55q-42 -97 -94 -164t-109 -102t-112.5 -49.5t-120.5 -14.5q-194 -2 -302 111t-108 336q0 82 19 166.5t60.5 167t100.5 146.5t146.5 103.5t191.5 39.5zM551 911q-50 0 -88.5 -28.5t-62.5 -77t-37.5 -102t-20.5 -115.5q157 28 229 88t70 141q-1 47 -28 70.5
t-62 23.5z" />
    <glyph glyph-name="edieresis" unicode="&#xeb;" horiz-adv-x="962" 
d="M709 1229q-54 0 -89.5 40.5t-35.5 102.5q0 67 43 116.5t100 49.5q54 0 88.5 -41.5t34.5 -101.5q0 -70 -41 -118t-100 -48zM352 1229q-54 0 -89.5 40.5t-35.5 102.5q0 67 43.5 116.5t100.5 49.5q54 0 88.5 -41.5t34.5 -101.5q0 -69 -41.5 -117.5t-100.5 -48.5zM573 1047
q142 0 225 -64.5t83 -194.5q0 -54 -23 -99.5t-65.5 -78.5t-92.5 -58.5t-115.5 -44.5t-123 -30.5t-125.5 -21.5q0 -83 16 -142.5t43.5 -90t58 -43.5t66.5 -13q30 0 60.5 7.5t69 26.5t74.5 60.5t62 101.5l115 -55q-42 -97 -94 -164t-109 -102t-112.5 -49.5t-120.5 -14.5
q-194 -2 -302 111t-108 336q0 82 19 166.5t60.5 167t100.5 146.5t146.5 103.5t191.5 39.5zM551 911q-50 0 -88.5 -28.5t-62.5 -77t-37.5 -102t-20.5 -115.5q157 28 229 88t70 141q-1 47 -28 70.5t-62 23.5z" />
    <glyph glyph-name="igrave" unicode="&#xec;" horiz-adv-x="704" 
d="M455 1157l-234 219q-27 28 -41 62.5t-8 72.5t37 66q54 36 103.5 20.5t80.5 -69.5l160 -287zM319 1047q191 0 191 -238q0 -72 -33 -310t-33 -278q0 -53 31 -53q54 0 100 162l111 -33q-9 -48 -33 -100t-61.5 -103t-94.5 -84t-122 -33q-109 0 -153 58t-44 174q0 84 34 308.5
t34 285.5q0 53 -33 53q-52 0 -98 -162l-111 33q7 37 23.5 78t44.5 85t63 78.5t83 56.5t101 22z" />
    <glyph glyph-name="iacute" unicode="&#xed;" horiz-adv-x="704" 
d="M262 1157l-90 84l182 287q35 54 92.5 70.5t102.5 -21.5q44 -46 32.5 -104.5t-59.5 -98.5zM319 1047q191 0 191 -238q0 -72 -33 -310t-33 -278q0 -53 31 -53q54 0 100 162l111 -33q-9 -48 -33 -100t-61.5 -103t-94.5 -84t-122 -33q-109 0 -153 58t-44 174q0 84 34 308.5
t34 285.5q0 53 -33 53q-52 0 -98 -162l-111 33q7 37 23.5 78t44.5 85t63 78.5t83 56.5t101 22z" />
    <glyph glyph-name="icircumflex" unicode="&#xee;" horiz-adv-x="704" 
d="M410 1604l280 -349l-90 -94l-231 213h-2l-252 -205l-72 97l346 338h21zM319 1047q191 0 191 -238q0 -72 -33 -310t-33 -278q0 -53 31 -53q54 0 100 162l111 -33q-9 -48 -33 -100t-61.5 -103t-94.5 -84t-122 -33q-109 0 -153 58t-44 174q0 84 34 308.5t34 285.5
q0 53 -33 53q-52 0 -98 -162l-111 33q7 37 23.5 78t44.5 85t63 78.5t83 56.5t101 22z" />
    <glyph glyph-name="idieresis" unicode="&#xef;" horiz-adv-x="704" 
d="M549 1229q-54 0 -89.5 40.5t-35.5 102.5q0 67 43 116.5t100 49.5q54 0 88.5 -41.5t34.5 -101.5q0 -70 -41 -118t-100 -48zM193 1229q-54 0 -89.5 40.5t-35.5 102.5q0 67 43 116.5t100 49.5q54 0 88.5 -41.5t34.5 -101.5q0 -69 -41 -117.5t-100 -48.5zM319 1047
q191 0 191 -238q0 -72 -33 -310t-33 -278q0 -53 31 -53q54 0 100 162l111 -33q-9 -48 -33 -100t-61.5 -103t-94.5 -84t-122 -33q-109 0 -153 58t-44 174q0 84 34 308.5t34 285.5q0 53 -33 53q-52 0 -98 -162l-111 33q7 37 23.5 78t44.5 85t63 78.5t83 56.5t101 22z" />
    <glyph glyph-name="eth" unicode="&#xf0;" horiz-adv-x="1069" 
d="M594 1618l113 -107l-111 -102q175 -125 276 -322t101 -448q0 -134 -31 -251t-91 -210t-158 -147t-224 -54q-84 0 -155.5 26t-129.5 80.5t-91.5 149t-33.5 220.5q0 74 16 150.5t52 152.5t87.5 135t130.5 96t173 37q70 0 115 -25t84 -67q-9 83 -79.5 187t-141.5 145
l-127 -146l-117 109l104 116q-79 49 -180 68l35 145q153 -15 270 -75zM551 891q-57 0 -101 -37.5t-68 -100.5t-36 -135.5t-12 -152.5t8 -141.5t26 -110t51 -74.5t79 -26q56 0 98.5 40.5t65 106t33 134.5t10.5 138q0 79 -6.5 138.5t-22.5 112t-47.5 80.5t-77.5 28z" />
    <glyph glyph-name="ntilde" unicode="&#xf1;" horiz-adv-x="1249" 
d="M444 1241l-108 70q31 90 98 145t137 55q43 0 79 -12t57 -26.5t51.5 -26.5t62.5 -12q73 0 131 104l109 -57q-38 -120 -104.5 -177t-135.5 -57q-46 0 -90.5 19.5t-83.5 39t-72 19.5q-31 0 -67 -19.5t-64 -64.5zM928 -23q-108 0 -150.5 57.5t-42.5 174.5q0 85 25.5 294.5
t25.5 268.5q0 46 -13 66t-44 20q-60 0 -127.5 -117t-111.5 -285t-44 -309q0 -31 7 -147h-265q-6 57 -6 98q0 99 35 365q5 41 13.5 106t13 102.5t8.5 75.5t4 56q0 53 -29 53q-52 0 -98 -162l-113 33q9 40 21 78.5t35.5 84t52 79t72 56t94.5 22.5q75 0 123.5 -43.5
t48.5 -143.5q0 -29 -12 -123h2q121 310 350 310q246 0 246 -316q0 -75 -26 -255t-26 -255q0 -53 31 -53q52 0 98 162l111 -33q-9 -48 -32.5 -100t-60.5 -103t-94 -84t-122 -33z" />
    <glyph glyph-name="ograve" unicode="&#xf2;" horiz-adv-x="1054" 
d="M635 1157l-234 219q-27 28 -41 62.5t-8 72.5t37 66q54 36 103.5 20.5t80.5 -69.5l160 -287zM571 1047q178 0 295 -122.5t117 -334.5q0 -165 -61 -303.5t-180 -224t-273 -85.5q-133 0 -228 63.5t-139.5 167t-44.5 234.5q0 165 62 302t180.5 220t271.5 83zM541 911
q-91 1 -148 -118t-57 -293q0 -68 8 -131t25.5 -123t51.5 -96.5t81 -36.5q50 0 89.5 40.5t61.5 105.5t33.5 134t13.5 137q2 63 -4 123.5t-22 121.5t-50 98t-83 38z" />
    <glyph glyph-name="oacute" unicode="&#xf3;" horiz-adv-x="1054" 
d="M442 1157l-90 84l183 287q35 54 92 70.5t102 -21.5q44 -46 32.5 -104.5t-59.5 -98.5zM571 1047q178 0 295 -122.5t117 -334.5q0 -165 -61 -303.5t-180 -224t-273 -85.5q-133 0 -228 63.5t-139.5 167t-44.5 234.5q0 165 62 302t180.5 220t271.5 83zM541 911
q-91 1 -148 -118t-57 -293q0 -68 8 -131t25.5 -123t51.5 -96.5t81 -36.5q50 0 89.5 40.5t61.5 105.5t33.5 134t13.5 137q2 63 -4 123.5t-22 121.5t-50 98t-83 38z" />
    <glyph glyph-name="ocircumflex" unicode="&#xf4;" horiz-adv-x="1054" 
d="M819 1161l-256 213h-2l-278 -205l-72 97l367 338h20l311 -349zM571 1047q178 0 295 -122.5t117 -334.5q0 -165 -61 -303.5t-180 -224t-273 -85.5q-133 0 -228 63.5t-139.5 167t-44.5 234.5q0 165 62 302t180.5 220t271.5 83zM541 911q-91 1 -148 -118t-57 -293
q0 -68 8 -131t25.5 -123t51.5 -96.5t81 -36.5q50 0 89.5 40.5t61.5 105.5t33.5 134t13.5 137q2 63 -4 123.5t-22 121.5t-50 98t-83 38z" />
    <glyph glyph-name="otilde" unicode="&#xf5;" horiz-adv-x="1054" 
d="M305 1241l-108 70q31 90 98 145t137 55q43 0 79 -12t57 -26.5t51.5 -26.5t62.5 -12q73 0 131 104l109 -57q-38 -120 -104.5 -177t-135.5 -57q-46 0 -90.5 19.5t-83.5 39t-72 19.5q-31 0 -67 -19.5t-64 -64.5zM571 1047q178 0 295 -122.5t117 -334.5q0 -165 -61 -303.5
t-180 -224t-273 -85.5q-133 0 -228 63.5t-139.5 167t-44.5 234.5q0 165 62 302t180.5 220t271.5 83zM541 911q-91 1 -148 -118t-57 -293q0 -68 8 -131t25.5 -123t51.5 -96.5t81 -36.5q50 0 89.5 40.5t61.5 105.5t33.5 134t13.5 137q2 63 -4 123.5t-22 121.5t-50 98t-83 38z
" />
    <glyph glyph-name="odieresis" unicode="&#xf6;" horiz-adv-x="1054" 
d="M729 1229q-54 0 -89.5 40.5t-35.5 102.5q0 67 43.5 116.5t100.5 49.5q54 0 88 -41.5t34 -101.5q0 -70 -41 -118t-100 -48zM373 1229q-54 0 -89.5 40.5t-35.5 102.5q0 67 43 116.5t100 49.5q54 0 88.5 -41.5t34.5 -101.5q0 -69 -41 -117.5t-100 -48.5zM571 1047
q178 0 295 -122.5t117 -334.5q0 -165 -61 -303.5t-180 -224t-273 -85.5q-133 0 -228 63.5t-139.5 167t-44.5 234.5q0 165 62 302t180.5 220t271.5 83zM541 911q-91 1 -148 -118t-57 -293q0 -68 8 -131t25.5 -123t51.5 -96.5t81 -36.5q50 0 89.5 40.5t61.5 105.5t33.5 134
t13.5 137q2 63 -4 123.5t-22 121.5t-50 98t-83 38z" />
    <glyph glyph-name="divide" unicode="&#xf7;" horiz-adv-x="1085" 
d="M584 1233q62 0 102 -46.5t37 -113.5t-46 -113.5t-108 -46.5q-66 0 -106 46.5t-37 113.5q3 65 50.5 112.5t107.5 47.5zM102 817h914l-8 -160h-914zM549 571q62 0 102 -46t37 -113q-3 -68 -45.5 -114t-107.5 -46q-66 0 -106.5 46.5t-37.5 113.5q3 65 50 112t108 47z" />
    <glyph glyph-name="oslash" unicode="&#xf8;" horiz-adv-x="1054" 
d="M891 1167l131 -100l-129 -174q90 -123 90 -303q0 -165 -61 -303.5t-180 -224t-273 -85.5q-116 0 -201 48l-133 -183l-108 90l131 185q-101 125 -101 325q0 165 62 302t180.5 220t271.5 83q113 0 199 -50zM541 911q-101 0 -166.5 -119.5t-65.5 -291.5q0 -72 17 -162
l342 491q-49 82 -127 82zM719 668l-340 -473q52 -82 127 -82q55 0 99 40.5t69 105.5t38 134t15 137q0 75 -8 138z" />
    <glyph glyph-name="ugrave" unicode="&#xf9;" horiz-adv-x="1224" 
d="M721 1157l-234 219q-27 28 -41 62.5t-8 72.5t37 66q54 36 103.5 20.5t80.5 -69.5l160 -287zM432 -23q-246 0 -246 316q0 75 27 255t27 255q0 53 -33 53q-52 0 -98 -162l-111 33q9 48 32.5 100t60.5 103t94 84t122 33q109 0 152 -58t43 -174q0 -85 -26.5 -294.5
t-26.5 -268.5q0 -46 13 -66t44 -20q55 0 120 117t108.5 285.5t43.5 308.5q0 97 -6 147h264q6 -57 6 -98q0 -95 -36 -373q-5 -43 -17 -131t-17 -133t-5 -68q0 -53 28 -53q53 0 99 162l110 -33q-8 -40 -20 -78.5t-34.5 -84t-51 -79t-72 -56t-94.5 -22.5q-75 0 -123.5 43.5
t-48.5 143.5q0 16 10 133h-2q-121 -320 -336 -320z" />
    <glyph glyph-name="uacute" unicode="&#xfa;" horiz-adv-x="1224" 
d="M528 1157l-90 84l183 287q35 54 92 70.5t102 -21.5q44 -46 32.5 -104.5t-59.5 -98.5zM432 -23q-246 0 -246 316q0 75 27 255t27 255q0 53 -33 53q-52 0 -98 -162l-111 33q9 48 32.5 100t60.5 103t94 84t122 33q109 0 152 -58t43 -174q0 -85 -26.5 -294.5t-26.5 -268.5
q0 -46 13 -66t44 -20q55 0 120 117t108.5 285.5t43.5 308.5q0 97 -6 147h264q6 -57 6 -98q0 -95 -36 -373q-5 -43 -17 -131t-17 -133t-5 -68q0 -53 28 -53q53 0 99 162l110 -33q-8 -40 -20 -78.5t-34.5 -84t-51 -79t-72 -56t-94.5 -22.5q-75 0 -123.5 43.5t-48.5 143.5
q0 16 10 133h-2q-121 -320 -336 -320z" />
    <glyph glyph-name="ucircumflex" unicode="&#xfb;" horiz-adv-x="1224" 
d="M905 1161l-256 213h-2l-278 -205l-72 97l367 338h20l311 -349zM432 -23q-246 0 -246 316q0 75 27 255t27 255q0 53 -33 53q-52 0 -98 -162l-111 33q9 48 32.5 100t60.5 103t94 84t122 33q109 0 152 -58t43 -174q0 -85 -26.5 -294.5t-26.5 -268.5q0 -46 13 -66t44 -20
q55 0 120 117t108.5 285.5t43.5 308.5q0 97 -6 147h264q6 -57 6 -98q0 -95 -36 -373q-5 -43 -17 -131t-17 -133t-5 -68q0 -53 28 -53q53 0 99 162l110 -33q-8 -40 -20 -78.5t-34.5 -84t-51 -79t-72 -56t-94.5 -22.5q-75 0 -123.5 43.5t-48.5 143.5q0 16 10 133h-2
q-121 -320 -336 -320z" />
    <glyph glyph-name="udieresis" unicode="&#xfc;" horiz-adv-x="1224" 
d="M815 1229q-54 0 -89.5 40.5t-35.5 102.5q0 67 43.5 116.5t100.5 49.5q54 0 88 -41.5t34 -101.5q0 -70 -41 -118t-100 -48zM459 1229q-54 0 -89.5 40.5t-35.5 102.5q0 67 43 116.5t100 49.5q54 0 88.5 -41.5t34.5 -101.5q0 -69 -41 -117.5t-100 -48.5zM432 -23
q-246 0 -246 316q0 75 27 255t27 255q0 53 -33 53q-52 0 -98 -162l-111 33q9 48 32.5 100t60.5 103t94 84t122 33q109 0 152 -58t43 -174q0 -85 -26.5 -294.5t-26.5 -268.5q0 -46 13 -66t44 -20q55 0 120 117t108.5 285.5t43.5 308.5q0 97 -6 147h264q6 -57 6 -98
q0 -95 -36 -373q-5 -43 -17 -131t-17 -133t-5 -68q0 -53 28 -53q53 0 99 162l110 -33q-8 -40 -20 -78.5t-34.5 -84t-51 -79t-72 -56t-94.5 -22.5q-75 0 -123.5 43.5t-48.5 143.5q0 16 10 133h-2q-121 -320 -336 -320z" />
    <glyph glyph-name="yacute" unicode="&#xfd;" horiz-adv-x="1148" 
d="M457 1157l-90 84l182 287q35 54 92 70.5t102 -21.5q44 -46 33 -104.5t-59 -98.5zM252 -555q-92 0 -143.5 44t-51.5 116q0 63 40.5 103t90.5 40q109 0 125 -110q9 -3 21 -3q63 0 138.5 83t109.5 157q-47 303 -293 870q-15 32 -24.5 50t-30 39.5t-41.5 21.5q-76 0 -93 -154
l-114 17q4 39 15 80t34.5 86.5t56.5 80.5t84.5 58t114.5 23q162 0 252 -213q158 -386 209 -684h2q123 275 139 497q7 108 -25 144q-15 -3 -28 -3q-52 0 -88.5 34.5t-36.5 84.5q0 66 42.5 103t98.5 37q72 0 121 -44t68.5 -106t19.5 -137q0 -134 -63.5 -343.5t-167.5 -412.5
q-61 -117 -127.5 -215t-141 -176.5t-155.5 -123t-158 -44.5z" />
    <glyph glyph-name="thorn" unicode="&#xfe;" horiz-adv-x="1064" 
d="M461 1546q-7 -69 -20.5 -208.5t-20.5 -209.5q-8 -87 -37 -329h2q128 248 315 248q99 0 166 -54t96 -139t29 -197q0 -149 -33.5 -271t-100 -214.5t-175.5 -143.5t-252 -51q-36 0 -74 3l-8 -168q-5 -103 -16 -185q68 6 137 6v-155h-520v133q37 0 62 13t38.5 40t20 57
t8.5 74q19 305 46.5 781t33.5 571q1 8 5 80.5t9 107.5q-14 -1 -69 -3t-72 -3l8 156q128 0 205.5 18.5t105.5 42.5h111zM602 860q-94 0 -156.5 -183t-83.5 -550q54 -14 95 -14q48 0 87 22t65 56.5t45.5 84t30.5 97.5t17.5 104t8.5 96.5t2 81.5q0 106 -31 155.5t-80 49.5z" />
    <glyph glyph-name="ydieresis" unicode="&#xff;" horiz-adv-x="1148" 
d="M743 1229q-54 0 -89.5 40.5t-35.5 102.5q0 67 43.5 116.5t100.5 49.5q54 0 88.5 -41.5t34.5 -101.5q0 -70 -41.5 -118t-100.5 -48zM387 1229q-54 0 -89.5 40.5t-35.5 102.5q0 67 43.5 116.5t100.5 49.5q54 0 88 -41.5t34 -101.5q0 -69 -41 -117.5t-100 -48.5zM252 -555
q-92 0 -143.5 44t-51.5 116q0 63 40.5 103t90.5 40q109 0 125 -110q9 -3 21 -3q63 0 138.5 83t109.5 157q-47 303 -293 870q-15 32 -24.5 50t-30 39.5t-41.5 21.5q-76 0 -93 -154l-114 17q4 39 15 80t34.5 86.5t56.5 80.5t84.5 58t114.5 23q162 0 252 -213
q158 -386 209 -684h2q123 275 139 497q7 108 -25 144q-15 -3 -28 -3q-52 0 -88.5 34.5t-36.5 84.5q0 66 42.5 103t98.5 37q72 0 121 -44t68.5 -106t19.5 -137q0 -134 -63.5 -343.5t-167.5 -412.5q-61 -117 -127.5 -215t-141 -176.5t-155.5 -123t-158 -44.5z" />
    <glyph glyph-name="Amacron" unicode="&#x100;" horiz-adv-x="1366" 
d="M414 1698l8 190h582l-9 -184zM786 1470l379 -1116q43 -149 47 -202l117 6l-6 -158h-549l8 135q42 0 66.5 13.5t32 39t4 56t-16.5 71.5l-34 113l-449 -8l-39 -96q-41 -109 -74 -166l152 6l-10 -164h-439l9 141q39 0 69.5 16.5t54 50.5t40.5 68t39 84l6 15l456 1095h137z
M645 1110q-22 -85 -96 -270l-105 -267h344l-79 256q-53 181 -64 281z" />
    <glyph glyph-name="amacron" unicode="&#x101;" horiz-adv-x="1124" 
d="M369 1288l8 191h581l-8 -185zM670 1047q115 0 295 -43q-3 -20 -20.5 -140.5t-26.5 -187t-22 -169t-19.5 -172t-6.5 -108.5q0 -59 29 -59q59 0 105 162l110 -33q-8 -39 -21 -78.5t-37.5 -84.5t-55 -78.5t-75.5 -56t-96 -22.5q-163 0 -163 187q0 72 8 119h-2
q-70 -167 -157.5 -236.5t-190.5 -69.5q-119 0 -196 95.5t-77 277.5q0 141 42 267t119.5 222t196 152t261.5 56zM594 911q-120 0 -191 -148t-71 -423q0 -85 20.5 -132.5t57.5 -47.5q54 0 102.5 71.5t82 183.5t55.5 238.5t28 245.5q-42 12 -84 12z" />
    <glyph glyph-name="Abreve" unicode="&#x102;" horiz-adv-x="1366" 
d="M723 1612q-114 0 -209 52.5t-135 166.5l123 82q90 -113 233 -113q141 0 250 113l111 -82q-38 -78 -103 -129t-131.5 -70.5t-138.5 -19.5zM786 1470l379 -1116q43 -149 47 -202l117 6l-6 -158h-549l8 135q42 0 66.5 13.5t32 39t4 56t-16.5 71.5l-34 113l-449 -8l-39 -96
q-41 -109 -74 -166l152 6l-10 -164h-439l9 141q39 0 69.5 16.5t54 50.5t40.5 68t39 84l6 15l456 1095h137zM645 1110q-22 -85 -96 -270l-105 -267h344l-79 256q-53 181 -64 281z" />
    <glyph glyph-name="abreve" unicode="&#x103;" horiz-adv-x="1124" 
d="M659 1231q-61 0 -117.5 26.5t-109 90t-82.5 157.5l119 58q85 -150 199 -150q116 0 194 152l113 -49q-103 -285 -316 -285zM670 1047q115 0 295 -43q-3 -20 -20.5 -140.5t-26.5 -187t-22 -169t-19.5 -172t-6.5 -108.5q0 -59 29 -59q59 0 105 162l110 -33q-8 -39 -21 -78.5
t-37.5 -84.5t-55 -78.5t-75.5 -56t-96 -22.5q-163 0 -163 187q0 72 8 119h-2q-70 -167 -157.5 -236.5t-190.5 -69.5q-119 0 -196 95.5t-77 277.5q0 141 42 267t119.5 222t196 152t261.5 56zM594 911q-120 0 -191 -148t-71 -423q0 -85 20.5 -132.5t57.5 -47.5
q54 0 102.5 71.5t82 183.5t55.5 238.5t28 245.5q-42 12 -84 12z" />
    <glyph glyph-name="Aogonek" unicode="&#x104;" horiz-adv-x="1366" 
d="M961 -543q-97 0 -154 55t-51 156q4 91 64 177t159 155h-205l8 135q42 0 66.5 13.5t32 39t4 56t-16.5 71.5l-34 113l-449 -8l-39 -96q-41 -109 -74 -166l152 6l-10 -164h-439l9 141q39 0 69.5 16.5t54 50.5t40.5 68t39 84l6 15l456 1095h137l379 -1116q43 -149 47 -202
l117 6l-6 -158h-94q-110 -44 -191 -118.5t-82 -155.5q-2 -37 20.5 -59.5t63.5 -22.5q63 0 131 59l68 -88q-60 -72 -134 -115t-144 -43zM645 1110q-22 -85 -96 -270l-105 -267h344l-79 256q-53 181 -64 281z" />
    <glyph glyph-name="aogonek" unicode="&#x105;" horiz-adv-x="1124" 
d="M678 -532q-97 0 -154 54.5t-51 155.5q4 94 68.5 182.5t169.5 159.5q-45 48 -45 144q0 72 8 119h-2q-70 -167 -157.5 -236.5t-190.5 -69.5q-119 0 -196 95.5t-77 277.5q0 141 42 267t119.5 222t196 152t261.5 56q115 0 295 -43q-3 -20 -20.5 -140.5t-26.5 -187t-22 -169
t-19.5 -172t-6.5 -108.5q0 -59 29 -59q59 0 105 162l110 -33q-15 -80 -57.5 -162t-110.5 -125h-2q-23 -16 -49 -22q-93 -46 -156.5 -113.5t-64.5 -138.5q-2 -37 20.5 -59.5t63.5 -22.5q63 0 131 59l67 -88q-60 -72 -133.5 -114.5t-144.5 -42.5zM594 911q-120 0 -191 -148
t-71 -423q0 -85 20.5 -132.5t57.5 -47.5q54 0 102.5 71.5t82 183.5t55.5 238.5t28 245.5q-42 12 -84 12z" />
    <glyph glyph-name="Cacute" unicode="&#x106;" horiz-adv-x="1413" 
d="M750 1567l-91 84l183 286q35 55 91.5 71.5t102.5 -21.5q44 -46 33 -104.5t-59 -98.5zM836 1466q83 0 176 -26t170 -74h2l-2 86h157l-24 -477h-135q-19 171 -101.5 261.5t-224.5 90.5q-104 1 -189.5 -49.5t-141 -135t-88 -188.5t-38.5 -217q-9 -177 34.5 -314.5t139 -218
t230.5 -81.5q131 -2 262.5 61.5t230.5 192.5l80 -82q-253 -328 -633 -328q-155 0 -284 56.5t-214 154.5t-128.5 232t-36.5 286q6 114 40 223.5t98.5 208.5t152 174t208 119.5t259.5 44.5z" />
    <glyph glyph-name="cacute" unicode="&#x107;" horiz-adv-x="956" 
d="M465 1157l-90 84l182 287q35 54 92.5 70.5t102.5 -21.5q44 -46 32.5 -104.5t-59.5 -98.5zM559 1047q144 0 238 -67.5t94 -178.5q0 -62 -35.5 -101.5t-95.5 -40.5q-63 -1 -95 38t-32 83q0 47 20 86q-9 19 -35.5 32t-62.5 13q-50 0 -89 -30t-62.5 -75t-39 -106
t-21.5 -114.5t-7 -108.5q-3 -80 10.5 -141t39.5 -96t56 -53t64 -21q33 -3 65 4t71 27.5t76.5 66.5t67.5 115l117 -57q-56 -129 -130.5 -207.5t-149.5 -107.5t-166 -30q-187 2 -294.5 114.5t-107.5 332.5q0 81 19 166t60.5 167.5t99 146.5t142 103.5t183.5 39.5z" />
    <glyph glyph-name="Ccircumflex" unicode="&#x108;" horiz-adv-x="1413" 
d="M1253 1595l-366 181l-395 -177l-39 82l434 308h39l385 -308zM836 1466q83 0 176 -26t170 -74h2l-2 86h157l-24 -477h-135q-19 171 -101.5 261.5t-224.5 90.5q-104 1 -189.5 -49.5t-141 -135t-88 -188.5t-38.5 -217q-9 -177 34.5 -314.5t139 -218t230.5 -81.5
q131 -2 262.5 61.5t230.5 192.5l80 -82q-253 -328 -633 -328q-155 0 -284 56.5t-214 154.5t-128.5 232t-36.5 286q6 114 40 223.5t98.5 208.5t152 174t208 119.5t259.5 44.5z" />
    <glyph glyph-name="ccircumflex" unicode="&#x109;" horiz-adv-x="956" 
d="M842 1161l-256 213h-2l-279 -205l-72 97l367 338h21l311 -349zM559 1047q144 0 238 -67.5t94 -178.5q0 -62 -35.5 -101.5t-95.5 -40.5q-63 -1 -95 38t-32 83q0 47 20 86q-9 19 -35.5 32t-62.5 13q-50 0 -89 -30t-62.5 -75t-39 -106t-21.5 -114.5t-7 -108.5
q-3 -80 10.5 -141t39.5 -96t56 -53t64 -21q33 -3 65 4t71 27.5t76.5 66.5t67.5 115l117 -57q-56 -129 -130.5 -207.5t-149.5 -107.5t-166 -30q-187 2 -294.5 114.5t-107.5 332.5q0 81 19 166t60.5 167.5t99 146.5t142 103.5t183.5 39.5z" />
    <glyph glyph-name="Cdotaccent" unicode="&#x10a;" horiz-adv-x="1413" 
d="M877 1952q58 0 95 -43t34 -105q-3 -61 -43.5 -104t-100.5 -43t-97 43t-34 104t46.5 104.5t99.5 43.5zM836 1466q83 0 176 -26t170 -74h2l-2 86h157l-24 -477h-135q-19 171 -101.5 261.5t-224.5 90.5q-104 1 -189.5 -49.5t-141 -135t-88 -188.5t-38.5 -217
q-9 -177 34.5 -314.5t139 -218t230.5 -81.5q131 -2 262.5 61.5t230.5 192.5l80 -82q-253 -328 -633 -328q-155 0 -284 56.5t-214 154.5t-128.5 232t-36.5 286q6 114 40 223.5t98.5 208.5t152 174t208 119.5t259.5 44.5z" />
    <glyph glyph-name="cdotaccent" unicode="&#x10b;" horiz-adv-x="956" 
d="M592 1542q58 0 95 -42.5t34 -104.5t-43 -105t-100 -43t-97.5 43.5t-34.5 104.5t46.5 104t99.5 43zM559 1047q144 0 238 -67.5t94 -178.5q0 -62 -35.5 -101.5t-95.5 -40.5q-63 -1 -95 38t-32 83q0 47 20 86q-9 19 -35.5 32t-62.5 13q-50 0 -89 -30t-62.5 -75t-39 -106
t-21.5 -114.5t-7 -108.5q-3 -80 10.5 -141t39.5 -96t56 -53t64 -21q33 -3 65 4t71 27.5t76.5 66.5t67.5 115l117 -57q-56 -129 -130.5 -207.5t-149.5 -107.5t-166 -30q-187 2 -294.5 114.5t-107.5 332.5q0 81 19 166t60.5 167.5t99 146.5t142 103.5t183.5 39.5z" />
    <glyph glyph-name="Ccaron" unicode="&#x10c;" horiz-adv-x="1413" 
d="M879 1577h-41l-383 309l57 84l369 -178l391 178l41 -82zM836 1466q83 0 176 -26t170 -74h2l-2 86h157l-24 -477h-135q-19 171 -101.5 261.5t-224.5 90.5q-104 1 -189.5 -49.5t-141 -135t-88 -188.5t-38.5 -217q-9 -177 34.5 -314.5t139 -218t230.5 -81.5
q131 -2 262.5 61.5t230.5 192.5l80 -82q-253 -328 -633 -328q-155 0 -284 56.5t-214 154.5t-128.5 232t-36.5 286q6 114 40 223.5t98.5 208.5t152 174t208 119.5t259.5 44.5z" />
    <glyph glyph-name="ccaron" unicode="&#x10d;" horiz-adv-x="956" 
d="M553 1167l-315 346l86 97l260 -215h2l266 219l74 -92l-353 -355h-20zM559 1047q144 0 238 -67.5t94 -178.5q0 -62 -35.5 -101.5t-95.5 -40.5q-63 -1 -95 38t-32 83q0 47 20 86q-9 19 -35.5 32t-62.5 13q-50 0 -89 -30t-62.5 -75t-39 -106t-21.5 -114.5t-7 -108.5
q-3 -80 10.5 -141t39.5 -96t56 -53t64 -21q33 -3 65 4t71 27.5t76.5 66.5t67.5 115l117 -57q-56 -129 -130.5 -207.5t-149.5 -107.5t-166 -30q-187 2 -294.5 114.5t-107.5 332.5q0 81 19 166t60.5 167.5t99 146.5t142 103.5t183.5 39.5z" />
    <glyph glyph-name="Dcaron" unicode="&#x10e;" horiz-adv-x="1546" 
d="M825 1577h-41l-383 309l58 84l368 -178l392 178l41 -82zM739 1436q157 1 286 -40t214.5 -109.5t142.5 -160t80.5 -191t18.5 -204.5q-4 -73 -21 -145.5t-51 -145.5t-81 -137t-114.5 -120t-148.5 -96.5t-186.5 -63.5t-225.5 -23h-581l8 135q41 2 62 6.5t44 21.5t33.5 53.5
t13.5 96.5l41 785q6 107 19 184q-17 -1 -77.5 -3t-76.5 -3l8 158zM727 1298q-41 2 -66.5 -3t-47.5 -23t-32.5 -54t-13.5 -94l-41 -788q-7 -132 -16 -184q29 2 57 1.5t74.5 -2t63.5 -1.5q108 0 194.5 45.5t140.5 122t84 171t35 199.5q17 304 -96.5 454t-335.5 156z" />
    <glyph glyph-name="dcaron" unicode="&#x10f;" horiz-adv-x="1337" 
d="M1221 1112l-80 59q48 88 66 167.5t13.5 137.5t-24.5 132l182 -35q20 -40 26 -68.5t1 -68.5q-14 -157 -184 -324zM360 -23q-149 0 -226 108.5t-77 283.5q0 148 34.5 270.5t102.5 214t178 142.5t253 51q48 0 98 -5q22 230 33 293q-17 -1 -49 -2t-57 -2t-38 -2l9 156
q129 0 207 18.5t106 42.5h110q-12 -110 -37 -327.5t-38 -327.5q-9 -78 -29.5 -252t-29.5 -265t-9 -147q0 -59 31 -59q52 0 98 162l113 -33q-9 -40 -21.5 -78.5t-36.5 -84t-53 -79t-73 -56t-95 -22.5q-164 0 -164 187q0 52 9 123h-2q-35 -87 -79.5 -150t-91 -96.5
t-89.5 -48.5t-87 -15zM436 164q74 0 132 107.5t96 295.5q28 155 43 328q-13 6 -50 11t-59 5q-55 0 -99 -28t-71.5 -76.5t-47 -104t-28.5 -120.5t-12.5 -114t-3.5 -97q0 -101 27 -154t73 -53z" />
    <glyph glyph-name="Dcroat" unicode="&#x110;" horiz-adv-x="1548" 
d="M74 0l8 135q41 2 62 6.5t44.5 21.5t34 53.5t13.5 96.5l16 310l-203 -5l10 201h203l14 279q6 107 19 184q-17 -1 -77.5 -3t-76.5 -3l9 158l591 2q156 1 285 -40t214.5 -109.5t143 -160t81 -191.5t18.5 -204q-4 -73 -21 -145.5t-51 -145.5t-81 -137t-114.5 -120
t-148.5 -96.5t-186.5 -63.5t-225.5 -23h-581zM707 150q108 0 194.5 45.5t140.5 122t84 171t35 199.5q17 304 -96.5 454t-335.5 156q-41 2 -66.5 -3t-47.5 -23t-32.5 -54t-13.5 -94l-16 -305h209l-10 -186l-209 -4l-15 -293q-7 -132 -16 -184q29 2 57 1.5t74.5 -2t63.5 -1.5z
" />
    <glyph glyph-name="dcroat" unicode="&#x111;" horiz-adv-x="1155" 
d="M360 -23q-149 0 -226 108.5t-77 283.5q0 148 34.5 270.5t102.5 214t178 142.5t253 51q48 0 98 -5q1 16 4 42.5t4 37.5l-338 -4l10 148h342q6 46 11 69q-17 -1 -49 -2t-57 -2t-38 -2l9 156q129 0 207 18.5t106 42.5h110q-19 -176 -32 -280h143l-8 -140l-152 -2
q-4 -39 -13 -116.5t-13 -116.5q-9 -78 -29.5 -252t-29.5 -265t-9 -147q0 -59 31 -59q52 0 98 162l113 -33q-9 -40 -21.5 -78.5t-36.5 -84t-53 -79t-73 -56t-95 -22.5q-164 0 -164 187q0 52 9 123h-2q-35 -87 -79.5 -150t-91 -96.5t-89.5 -48.5t-87 -15zM436 164
q74 0 132 107.5t96 295.5q28 155 43 328q-13 6 -50 11t-59 5q-55 0 -99 -28t-71.5 -76.5t-47 -104t-28.5 -120.5t-12.5 -114t-3.5 -97q0 -101 27 -154t73 -53z" />
    <glyph glyph-name="Emacron" unicode="&#x112;" horiz-adv-x="1275" 
d="M408 1698l8 190h581l-8 -184zM1167 1434l-10 -398h-133q3 64 -10.5 113t-36 77.5t-55.5 46t-65.5 23t-68.5 4.5l-73 -2q-37 -1 -59 -6.5t-43.5 -23t-32 -54t-13.5 -94.5l-14 -307h240v178h157l-24 -497h-135q2 50 -7 85t-25 54t-43.5 29t-53.5 11.5t-64 0.5l-53 -2
l-19 -336q-7 -127 -16 -180h274q48 0 91 15.5t81.5 48.5t63.5 92.5t29 138.5h135l-35 -451h-1077l8 135q41 2 62 6.5t44 21.5t33.5 53.5t13.5 96.5l41 785q6 107 19 184q-17 -1 -77.5 -3t-76.5 -3l8 158h1020z" />
    <glyph glyph-name="emacron" unicode="&#x113;" horiz-adv-x="962" 
d="M244 1288l8 191h582l-9 -185zM573 1047q142 0 225 -64.5t83 -194.5q0 -54 -23 -99.5t-65.5 -78.5t-92.5 -58.5t-115.5 -44.5t-123 -30.5t-125.5 -21.5q0 -83 16 -142.5t43.5 -90t58 -43.5t66.5 -13q30 0 60.5 7.5t69 26.5t74.5 60.5t62 101.5l115 -55q-42 -97 -94 -164
t-109 -102t-112.5 -49.5t-120.5 -14.5q-194 -2 -302 111t-108 336q0 82 19 166.5t60.5 167t100.5 146.5t146.5 103.5t191.5 39.5zM551 911q-50 0 -88.5 -28.5t-62.5 -77t-37.5 -102t-20.5 -115.5q157 28 229 88t70 141q-1 47 -28 70.5t-62 23.5z" />
    <glyph glyph-name="Ebreve" unicode="&#x114;" horiz-adv-x="1275" 
d="M717 1612q-114 0 -209 52.5t-135 166.5l123 82q90 -113 233 -113q141 0 250 113l111 -82q-38 -78 -103 -129t-131.5 -70.5t-138.5 -19.5zM1167 1434l-10 -398h-133q3 64 -10.5 113t-36 77.5t-55.5 46t-65.5 23t-68.5 4.5l-73 -2q-37 -1 -59 -6.5t-43.5 -23t-32 -54
t-13.5 -94.5l-14 -307h240v178h157l-24 -497h-135q2 50 -7 85t-25 54t-43.5 29t-53.5 11.5t-64 0.5l-53 -2l-19 -336q-7 -127 -16 -180h274q48 0 91 15.5t81.5 48.5t63.5 92.5t29 138.5h135l-35 -451h-1077l8 135q41 2 62 6.5t44 21.5t33.5 53.5t13.5 96.5l41 785
q6 107 19 184q-17 -1 -77.5 -3t-76.5 -3l8 158h1020z" />
    <glyph glyph-name="ebreve" unicode="&#x115;" horiz-adv-x="962" 
d="M549 1145q-60 0 -116 21.5t-108.5 74t-82.5 129.5l100 49q96 -125 215 -125q120 0 211 125l94 -41q-102 -233 -313 -233zM573 1047q142 0 225 -64.5t83 -194.5q0 -54 -23 -99.5t-65.5 -78.5t-92.5 -58.5t-115.5 -44.5t-123 -30.5t-125.5 -21.5q0 -83 16 -142.5t43.5 -90
t58 -43.5t66.5 -13q30 0 60.5 7.5t69 26.5t74.5 60.5t62 101.5l115 -55q-42 -97 -94 -164t-109 -102t-112.5 -49.5t-120.5 -14.5q-194 -2 -302 111t-108 336q0 82 19 166.5t60.5 167t100.5 146.5t146.5 103.5t191.5 39.5zM551 911q-50 0 -88.5 -28.5t-62.5 -77t-37.5 -102
t-20.5 -115.5q157 28 229 88t70 141q-1 47 -28 70.5t-62 23.5z" />
    <glyph glyph-name="Edotaccent" unicode="&#x116;" horiz-adv-x="1275" 
d="M713 1952q58 0 95 -43t34 -105q-3 -61 -43.5 -104t-100.5 -43t-97 43t-34 104t46.5 104.5t99.5 43.5zM1167 1434l-10 -398h-133q3 64 -10.5 113t-36 77.5t-55.5 46t-65.5 23t-68.5 4.5l-73 -2q-37 -1 -59 -6.5t-43.5 -23t-32 -54t-13.5 -94.5l-14 -307h240v178h157
l-24 -497h-135q2 50 -7 85t-25 54t-43.5 29t-53.5 11.5t-64 0.5l-53 -2l-19 -336q-7 -127 -16 -180h274q48 0 91 15.5t81.5 48.5t63.5 92.5t29 138.5h135l-35 -451h-1077l8 135q41 2 62 6.5t44 21.5t33.5 53.5t13.5 96.5l41 785q6 107 19 184q-17 -1 -77.5 -3t-76.5 -3
l8 158h1020z" />
    <glyph glyph-name="edotaccent" unicode="&#x117;" horiz-adv-x="962" 
d="M549 1542q58 0 95 -42.5t34 -104.5t-43 -105t-100 -43t-97.5 43.5t-34.5 104.5t46.5 104t99.5 43zM573 1047q142 0 225 -64.5t83 -194.5q0 -54 -23 -99.5t-65.5 -78.5t-92.5 -58.5t-115.5 -44.5t-123 -30.5t-125.5 -21.5q0 -83 16 -142.5t43.5 -90t58 -43.5t66.5 -13
q30 0 60.5 7.5t69 26.5t74.5 60.5t62 101.5l115 -55q-42 -97 -94 -164t-109 -102t-112.5 -49.5t-120.5 -14.5q-194 -2 -302 111t-108 336q0 82 19 166.5t60.5 167t100.5 146.5t146.5 103.5t191.5 39.5zM551 911q-50 0 -88.5 -28.5t-62.5 -77t-37.5 -102t-20.5 -115.5
q157 28 229 88t70 141q-1 47 -28 70.5t-62 23.5z" />
    <glyph glyph-name="Eogonek" unicode="&#x118;" horiz-adv-x="1275" 
d="M881 -532q-97 0 -154 54.5t-51 155.5q8 171 209 322h-813l8 135q41 2 62 6.5t44 21.5t33.5 53.5t13.5 96.5l41 785q6 107 19 184q-17 -1 -77.5 -3t-76.5 -3l8 158h1020l-10 -398h-133q3 64 -10.5 113t-36 77.5t-55.5 46t-65.5 23t-68.5 4.5l-73 -2q-37 -1 -59 -6.5
t-43.5 -23t-32 -54t-13.5 -94.5l-14 -307h240v178h157l-24 -497h-135q2 50 -7 85t-25 54t-43.5 29t-53.5 11.5t-64 0.5l-53 -2l-19 -336q-7 -127 -16 -180h274q48 0 91 15.5t81.5 48.5t63.5 92.5t29 138.5h135l-35 -451h-25q-102 -45 -174 -116t-73 -148q-2 -37 20.5 -59.5
t63.5 -22.5q63 0 131 59l67 -88q-60 -72 -133.5 -114.5t-144.5 -42.5z" />
    <glyph glyph-name="eogonek" unicode="&#x119;" horiz-adv-x="962" 
d="M373 -532q-97 0 -154 54.5t-51 155.5q9 169 192 308q-146 28 -225.5 138.5t-79.5 299.5q0 82 19 166.5t60.5 167t100.5 146.5t146.5 103.5t191.5 39.5q142 0 225 -64.5t83 -194.5q0 -54 -23 -99.5t-65.5 -78.5t-92.5 -58.5t-115.5 -44.5t-123 -30.5t-125.5 -21.5
q0 -83 16 -142.5t43.5 -90t58 -43.5t66.5 -13q30 0 60.5 7.5t69 26.5t74.5 60.5t62 101.5l115 -55q-101 -229 -260 -297q-110 -44 -190.5 -118.5t-81.5 -155.5q-2 -37 20.5 -59.5t63.5 -22.5q63 0 131 59l67 -88q-60 -72 -133.5 -114.5t-144.5 -42.5zM551 911
q-50 0 -88.5 -28.5t-62.5 -77t-37.5 -102t-20.5 -115.5q157 28 229 88t70 141q-1 47 -28 70.5t-62 23.5z" />
    <glyph glyph-name="Ecaron" unicode="&#x11a;" horiz-adv-x="1275" 
d="M715 1577h-41l-383 309l57 84l369 -178l391 178l41 -82zM1167 1434l-10 -398h-133q3 64 -10.5 113t-36 77.5t-55.5 46t-65.5 23t-68.5 4.5l-73 -2q-37 -1 -59 -6.5t-43.5 -23t-32 -54t-13.5 -94.5l-14 -307h240v178h157l-24 -497h-135q2 50 -7 85t-25 54t-43.5 29
t-53.5 11.5t-64 0.5l-53 -2l-19 -336q-7 -127 -16 -180h274q48 0 91 15.5t81.5 48.5t63.5 92.5t29 138.5h135l-35 -451h-1077l8 135q41 2 62 6.5t44 21.5t33.5 53.5t13.5 96.5l41 785q6 107 19 184q-17 -1 -77.5 -3t-76.5 -3l8 158h1020z" />
    <glyph glyph-name="ecaron" unicode="&#x11b;" horiz-adv-x="962" 
d="M510 1167l-315 346l86 97l260 -215h2l266 219l74 -92l-353 -355h-20zM573 1047q142 0 225 -64.5t83 -194.5q0 -54 -23 -99.5t-65.5 -78.5t-92.5 -58.5t-115.5 -44.5t-123 -30.5t-125.5 -21.5q0 -83 16 -142.5t43.5 -90t58 -43.5t66.5 -13q30 0 60.5 7.5t69 26.5
t74.5 60.5t62 101.5l115 -55q-42 -97 -94 -164t-109 -102t-112.5 -49.5t-120.5 -14.5q-194 -2 -302 111t-108 336q0 82 19 166.5t60.5 167t100.5 146.5t146.5 103.5t191.5 39.5zM551 911q-50 0 -88.5 -28.5t-62.5 -77t-37.5 -102t-20.5 -115.5q157 28 229 88t70 141
q-1 47 -28 70.5t-62 23.5z" />
    <glyph glyph-name="Gcircumflex" unicode="&#x11c;" horiz-adv-x="1548" 
d="M1262 1595l-367 181l-395 -177l-39 82l434 308h39l385 -308zM739 -33q-163 0 -293 56.5t-212 155t-122.5 231.5t-31.5 286q5 114 38.5 223.5t97 208.5t150 174t206.5 119.5t259 44.5q87 0 198.5 -27t184.5 -73v86h158l-24 -477h-136q-18 166 -115.5 254t-244.5 90
q-84 0 -156 -32t-124 -87.5t-90.5 -130t-59 -158.5t-25.5 -174q-9 -178 33 -314t137 -215t232 -79q67 0 155 14.5t142 40.5l10 191q7 132 16 184q-25 -2 -84 -3.5t-69 -2.5l8 158h539l-7 -136q-39 -2 -61 -8t-42 -24t-29.5 -53t-12.5 -93l-16 -327h-52q-81 0 -221 -45
q-65 -19 -102.5 -28.5t-104 -19.5t-129.5 -10z" />
    <glyph glyph-name="gcircumflex" unicode="&#x11d;" horiz-adv-x="1064" 
d="M877 1161l-256 213h-3l-278 -205l-72 97l367 338h20l312 -349zM373 -555q-155 0 -244.5 55t-89.5 156q0 53 36 101t101 48q56 0 92.5 -35.5t36.5 -93.5q0 -34 -12 -61q8 -14 40 -24.5t58 -10.5q48 0 84 18t59.5 46.5t40 76.5t26 95.5t17.5 115.5q25 200 70 351h-2
q-72 -169 -158.5 -237.5t-189.5 -68.5q-121 0 -202 96t-81 277q0 116 21.5 218t68 190.5t114.5 152t168 100t222 36.5q137 0 314 -43q-26 -509 -66 -922q-11 -120 -34 -215.5t-64 -175.5t-99 -133.5t-140.5 -83t-186.5 -29.5zM422 160q53 0 102 72t83.5 183t57.5 238.5
t29 245.5q-32 12 -94 12q-138 -1 -202 -145.5t-64 -425.5q0 -83 25 -131.5t63 -48.5z" />
    <glyph glyph-name="Gbreve" unicode="&#x11e;" horiz-adv-x="1548" 
d="M889 1612q-114 0 -209 52.5t-135 166.5l123 82q90 -113 233 -113q141 0 250 113l111 -82q-38 -78 -103 -129t-131.5 -70.5t-138.5 -19.5zM739 -33q-163 0 -293 56.5t-212 155t-122.5 231.5t-31.5 286q5 114 38.5 223.5t97 208.5t150 174t206.5 119.5t259 44.5
q87 0 198.5 -27t184.5 -73v86h158l-24 -477h-136q-18 166 -115.5 254t-244.5 90q-84 0 -156 -32t-124 -87.5t-90.5 -130t-59 -158.5t-25.5 -174q-9 -178 33 -314t137 -215t232 -79q67 0 155 14.5t142 40.5l10 191q7 132 16 184q-25 -2 -84 -3.5t-69 -2.5l8 158h539l-7 -136
q-39 -2 -61 -8t-42 -24t-29.5 -53t-12.5 -93l-16 -327h-52q-81 0 -221 -45q-65 -19 -102.5 -28.5t-104 -19.5t-129.5 -10z" />
    <glyph glyph-name="gbreve" unicode="&#x11f;" horiz-adv-x="1064" 
d="M612 1231q-61 0 -117.5 26.5t-109 90t-82.5 157.5l119 58q85 -150 199 -150q116 0 194 152l113 -49q-103 -285 -316 -285zM373 -555q-155 0 -244.5 55t-89.5 156q0 53 36 101t101 48q56 0 92.5 -35.5t36.5 -93.5q0 -34 -12 -61q8 -14 40 -24.5t58 -10.5q48 0 84 18
t59.5 46.5t40 76.5t26 95.5t17.5 115.5q25 200 70 351h-2q-72 -169 -158.5 -237.5t-189.5 -68.5q-121 0 -202 96t-81 277q0 116 21.5 218t68 190.5t114.5 152t168 100t222 36.5q137 0 314 -43q-26 -509 -66 -922q-11 -120 -34 -215.5t-64 -175.5t-99 -133.5t-140.5 -83
t-186.5 -29.5zM422 160q53 0 102 72t83.5 183t57.5 238.5t29 245.5q-32 12 -94 12q-138 -1 -202 -145.5t-64 -425.5q0 -83 25 -131.5t63 -48.5z" />
    <glyph glyph-name="Gdot" unicode="&#x120;" horiz-adv-x="1548" 
d="M885 1952q58 0 95 -43t34 -105q-3 -61 -43.5 -104t-100.5 -43t-97 43t-34 104t46.5 104.5t99.5 43.5zM739 -33q-163 0 -293 56.5t-212 155t-122.5 231.5t-31.5 286q5 114 38.5 223.5t97 208.5t150 174t206.5 119.5t259 44.5q87 0 198.5 -27t184.5 -73v86h158l-24 -477
h-136q-18 166 -115.5 254t-244.5 90q-84 0 -156 -32t-124 -87.5t-90.5 -130t-59 -158.5t-25.5 -174q-9 -178 33 -314t137 -215t232 -79q67 0 155 14.5t142 40.5l10 191q7 132 16 184q-25 -2 -84 -3.5t-69 -2.5l8 158h539l-7 -136q-39 -2 -61 -8t-42 -24t-29.5 -53t-12.5 -93
l-16 -327h-52q-81 0 -221 -45q-65 -19 -102.5 -28.5t-104 -19.5t-129.5 -10z" />
    <glyph glyph-name="gdot" unicode="&#x121;" horiz-adv-x="1064" 
d="M627 1542q58 0 95 -42.5t34 -104.5t-43.5 -105t-100.5 -43t-97 43.5t-34 104.5t46.5 104t99.5 43zM373 -555q-155 0 -244.5 55t-89.5 156q0 53 36 101t101 48q56 0 92.5 -35.5t36.5 -93.5q0 -34 -12 -61q8 -14 40 -24.5t58 -10.5q48 0 84 18t59.5 46.5t40 76.5t26 95.5
t17.5 115.5q25 200 70 351h-2q-72 -169 -158.5 -237.5t-189.5 -68.5q-121 0 -202 96t-81 277q0 116 21.5 218t68 190.5t114.5 152t168 100t222 36.5q137 0 314 -43q-26 -509 -66 -922q-11 -120 -34 -215.5t-64 -175.5t-99 -133.5t-140.5 -83t-186.5 -29.5zM422 160
q53 0 102 72t83.5 183t57.5 238.5t29 245.5q-32 12 -94 12q-138 -1 -202 -145.5t-64 -425.5q0 -83 25 -131.5t63 -48.5z" />
    <glyph glyph-name="uni0122" unicode="&#x122;" horiz-adv-x="1548" 
d="M739 -33q-163 0 -293 56.5t-212 155t-122.5 231.5t-31.5 286q5 114 38.5 223.5t97 208.5t150 174t206.5 119.5t259 44.5q87 0 198.5 -27t184.5 -73v86h158l-24 -477h-136q-18 166 -115.5 254t-244.5 90q-84 0 -156 -32t-124 -87.5t-90.5 -130t-59 -158.5t-25.5 -174
q-9 -178 33 -314t137 -215t232 -79q67 0 155 14.5t142 40.5l10 191q7 132 16 184q-25 -2 -84 -3.5t-69 -2.5l8 158h539l-7 -136q-39 -2 -61 -8t-42 -24t-29.5 -53t-12.5 -93l-16 -327h-52q-81 0 -221 -45q-65 -19 -102.5 -28.5t-104 -19.5t-129.5 -10zM590 -602l-107 84
q58 88 83.5 151t27.5 119t-6 125l221 49q37 -70 31 -147q-4 -85 -75 -187.5t-175 -193.5z" />
    <glyph glyph-name="uni0123" unicode="&#x123;" horiz-adv-x="1064" 
d="M713 1696l106 -84q-58 -88 -83.5 -151t-27 -118.5t6.5 -125.5l-221 -50q-37 70 -31 148q4 85 75 187.5t175 193.5zM373 -555q-155 0 -244.5 55t-89.5 156q0 53 36 101t101 48q56 0 92.5 -35.5t36.5 -93.5q0 -34 -12 -61q8 -14 40 -24.5t58 -10.5q48 0 84 18t59.5 46.5
t40 76.5t26 95.5t17.5 115.5q25 200 70 351h-2q-72 -169 -158.5 -237.5t-189.5 -68.5q-121 0 -202 96t-81 277q0 116 21.5 218t68 190.5t114.5 152t168 100t222 36.5q137 0 314 -43q-26 -509 -66 -922q-11 -120 -34 -215.5t-64 -175.5t-99 -133.5t-140.5 -83t-186.5 -29.5z
M422 160q53 0 102 72t83.5 183t57.5 238.5t29 245.5q-32 12 -94 12q-138 -1 -202 -145.5t-64 -425.5q0 -83 25 -131.5t63 -48.5z" />
    <glyph glyph-name="Hcircumflex" unicode="&#x124;" horiz-adv-x="1642" 
d="M1266 1595l-367 181l-395 -177l-39 82l434 308h39l385 -308zM1585 1434l-6 -136q-42 -2 -63.5 -6.5t-45 -21.5t-34 -53.5t-13.5 -96.5l-41 -784q-6 -115 -18 -184q68 6 154 6l-9 -158h-581l6 135q42 2 63.5 6.5t45 21.5t34 53.5t13.5 96.5l18 332l-565 -6l-17 -303
q-7 -132 -16 -184q64 6 154 6l-9 -158h-583l8 135q41 2 62 6.5t44 21.5t33.5 53.5t13.5 96.5l41 785q6 107 19 184q-17 -1 -77.5 -3t-76.5 -3l8 158h582l-6 -136q-42 -2 -63.5 -6.5t-45 -21.5t-34 -53.5t-13.5 -96.5l-16 -319h563l16 297q7 132 19 184q-17 -1 -78 -3t-78 -3
l8 158h584z" />
    <glyph glyph-name="hcircumflex" unicode="&#x125;" horiz-adv-x="1175" 
d="M618 1581l-256 213h-2l-278 -205l-72 97l367 337h20l312 -348zM854 -23q-109 0 -152 58t-43 174q0 85 26 294.5t26 268.5q0 46 -13.5 66t-44.5 20q-60 0 -128 -117t-113 -285.5t-45 -308.5q0 -48 6 -147h-262q-7 66 -7 98q0 235 20 539t44 508q9 109 27 190l-144 -6
l8 156q130 0 208 18.5t104 42.5h110q-42 -354 -51 -418q-19 -213 -57 -391h2q34 88 77 151.5t90 96.5t91.5 47.5t91.5 14.5q127 0 188.5 -83t61.5 -233q0 -75 -25.5 -255t-25.5 -255q0 -53 30 -53q53 0 99 162l110 -33q-9 -48 -32.5 -100t-60.5 -103t-94 -84t-122 -33z" />
    <glyph glyph-name="Hbar" unicode="&#x126;" horiz-adv-x="1652" 
d="M1550 1102l-4 -101h-129l-35 -665q-6 -115 -18 -184q68 6 154 6l-9 -158h-581l6 135q42 2 63.5 6.5t45 21.5t34 53.5t13.5 96.5l18 332l-565 -6l-17 -303q-7 -132 -16 -184q64 6 154 6l-9 -158h-583l8 135q41 2 62 6.5t44 21.5t33.5 53.5t13.5 96.5l35 680h-166l4 109
h168q6 102 19 180q-17 -1 -77.5 -3t-76.5 -3l8 158h582l-6 -136q-42 -2 -63.5 -6.5t-45 -21.5t-34 -53.5t-13.5 -96.5v-18h563q7 128 19 180q-17 -1 -78 -3t-78 -3l8 158h584l-6 -136q-42 -2 -63.5 -6.5t-45 -21.5t-34 -53.5t-13.5 -96.5v-18h127zM551 801h563l10 198
l-563 -4z" />
    <glyph glyph-name="hbar" unicode="&#x127;" horiz-adv-x="1175" 
d="M854 -23q-109 0 -152 58t-43 174q0 85 26 294.5t26 268.5q0 46 -13.5 66t-44.5 20q-60 0 -128 -117t-113 -285.5t-45 -308.5q0 -48 6 -147h-262q-7 66 -7 98q0 235 20 539t44 502l-125 -2l4 108h133q7 56 15 90l-144 -6l8 156q130 0 208 18.5t104 42.5h110
q-7 -56 -37 -301h289l-4 -100l-297 -4q0 -2 -1 -6.5t-1 -6.5q-19 -213 -57 -391h2q34 88 77 151.5t90 96.5t91.5 47.5t91.5 14.5q127 0 188.5 -83t61.5 -233q0 -75 -25.5 -255t-25.5 -255q0 -53 30 -53q53 0 99 162l110 -33q-9 -48 -32.5 -100t-60.5 -103t-94 -84t-122 -33z
" />
    <glyph glyph-name="Itilde" unicode="&#x128;" horiz-adv-x="786" 
d="M227 1651l-108 69q31 90 98.5 145.5t136.5 55.5q54 0 95.5 -19.5t78 -39t76.5 -19.5q73 0 131 105l109 -58q-38 -120 -104.5 -176.5t-135.5 -56.5q-46 0 -90.5 19.5t-83.5 39t-72 19.5q-31 0 -67 -19.5t-64 -64.5zM729 1434l-6 -136q-42 -2 -63.5 -6.5t-45 -21.5
t-34 -53.5t-13.5 -96.5l-41 -784q-7 -132 -16 -184q64 6 154 6l-9 -158h-583l8 135q41 2 62 6.5t44 21.5t33.5 53.5t13.5 96.5l41 785q6 107 19 184q-17 -1 -77.5 -3t-76.5 -3l8 158h582z" />
    <glyph glyph-name="itilde" unicode="&#x129;" horiz-adv-x="704" 
d="M143 1241l-108 70q31 90 98 145t137 55q43 0 79 -12t57 -26.5t51.5 -26.5t62.5 -12q73 0 131 104l109 -57q-38 -120 -104.5 -177t-135.5 -57q-46 0 -90.5 19.5t-83.5 39t-72 19.5q-31 0 -67 -19.5t-64 -64.5zM319 1047q191 0 191 -238q0 -72 -33 -310t-33 -278
q0 -53 31 -53q54 0 100 162l111 -33q-9 -48 -33 -100t-61.5 -103t-94.5 -84t-122 -33q-109 0 -153 58t-44 174q0 84 34 308.5t34 285.5q0 53 -33 53q-52 0 -98 -162l-111 33q7 37 23.5 78t44.5 85t63 78.5t83 56.5t101 22z" />
    <glyph glyph-name="Imacron" unicode="&#x12a;" horiz-adv-x="786" 
d="M168 1698l8 190h582l-8 -184zM729 1434l-6 -136q-42 -2 -63.5 -6.5t-45 -21.5t-34 -53.5t-13.5 -96.5l-41 -784q-7 -132 -16 -184q64 6 154 6l-9 -158h-583l8 135q41 2 62 6.5t44 21.5t33.5 53.5t13.5 96.5l41 785q6 107 19 184q-17 -1 -77.5 -3t-76.5 -3l8 158h582z" />
    <glyph glyph-name="imacron" unicode="&#x12b;" horiz-adv-x="704" 
d="M84 1288l8 191h582l-8 -185zM319 1047q191 0 191 -238q0 -72 -33 -310t-33 -278q0 -53 31 -53q54 0 100 162l111 -33q-9 -48 -33 -100t-61.5 -103t-94.5 -84t-122 -33q-109 0 -153 58t-44 174q0 84 34 308.5t34 285.5q0 53 -33 53q-52 0 -98 -162l-111 33q7 37 23.5 78
t44.5 85t63 78.5t83 56.5t101 22z" />
    <glyph glyph-name="Ibreve" unicode="&#x12c;" horiz-adv-x="786" 
d="M477 1612q-114 0 -209 52.5t-135 166.5l123 82q90 -113 233 -113q141 0 250 113l111 -82q-38 -78 -103 -129t-131.5 -70.5t-138.5 -19.5zM729 1434l-6 -136q-42 -2 -63.5 -6.5t-45 -21.5t-34 -53.5t-13.5 -96.5l-41 -784q-7 -132 -16 -184q64 6 154 6l-9 -158h-583l8 135
q41 2 62 6.5t44 21.5t33.5 53.5t13.5 96.5l41 785q6 107 19 184q-17 -1 -77.5 -3t-76.5 -3l8 158h582z" />
    <glyph glyph-name="ibreve" unicode="&#x12d;" horiz-adv-x="704" 
d="M389 1145q-60 0 -116 21.5t-108.5 74t-82.5 129.5l100 49q96 -125 215 -125q120 0 211 125l94 -41q-102 -233 -313 -233zM319 1047q191 0 191 -238q0 -72 -33 -310t-33 -278q0 -53 31 -53q54 0 100 162l111 -33q-9 -48 -33 -100t-61.5 -103t-94.5 -84t-122 -33
q-109 0 -153 58t-44 174q0 84 34 308.5t34 285.5q0 53 -33 53q-52 0 -98 -162l-111 33q7 37 23.5 78t44.5 85t63 78.5t83 56.5t101 22z" />
    <glyph glyph-name="Iogonek" unicode="&#x12e;" horiz-adv-x="786" 
d="M383 -543q-97 0 -154 55t-51 156q4 91 64 177t159 155h-329l8 135q41 2 62 6.5t44 21.5t33.5 53.5t13.5 96.5l41 785q6 107 19 184q-17 -1 -77.5 -3t-76.5 -3l8 158h582l-6 -136q-42 -2 -63.5 -6.5t-45 -21.5t-34 -53.5t-13.5 -96.5l-41 -784q-7 -132 -16 -184
q64 6 154 6l-9 -158h-4q-110 -44 -190.5 -118.5t-81.5 -155.5q-2 -37 20.5 -59.5t63.5 -22.5q63 0 131 59l68 -88q-60 -72 -134 -115t-145 -43z" />
    <glyph glyph-name="iogonek" unicode="&#x12f;" horiz-adv-x="704" 
d="M389 1542q58 0 95 -42.5t34 -104.5t-43 -105t-100 -43t-97 43.5t-34 104.5t46 104t99 43zM238 -526q-97 0 -154 55t-51 156q8 175 215 325q-70 51 -70 199q0 84 34 308.5t34 285.5q0 53 -33 53q-52 0 -98 -162l-111 33q7 37 23.5 78t44.5 85t63 78.5t83 56.5t101 22
q191 0 191 -238q0 -72 -33 -310t-33 -278q0 -53 31 -53q54 0 100 162l111 -33q-11 -57 -39.5 -116.5t-83 -116.5t-121.5 -76q-90 -48 -149 -113t-60 -133q-2 -37 20.5 -59.5t63.5 -22.5q64 0 132 59l67 -88q-60 -72 -133.5 -114.5t-144.5 -42.5z" />
    <glyph glyph-name="Idotaccent" unicode="&#x130;" horiz-adv-x="786" 
d="M473 1952q58 0 95 -43t34 -105t-43 -104.5t-100 -42.5t-97 43t-34 104t46 104.5t99 43.5zM729 1434l-6 -136q-42 -2 -63.5 -6.5t-45 -21.5t-34 -53.5t-13.5 -96.5l-41 -784q-7 -132 -16 -184q64 6 154 6l-9 -158h-583l8 135q41 2 62 6.5t44 21.5t33.5 53.5t13.5 96.5
l41 785q6 107 19 184q-17 -1 -77.5 -3t-76.5 -3l8 158h582z" />
    <glyph glyph-name="dotlessi" unicode="&#x131;" horiz-adv-x="704" 
d="M319 1047q191 0 191 -238q0 -72 -33 -310t-33 -278q0 -53 31 -53q54 0 100 162l111 -33q-9 -48 -33 -100t-61.5 -103t-94.5 -84t-122 -33q-109 0 -153 58t-44 174q0 84 34 308.5t34 285.5q0 53 -33 53q-52 0 -98 -162l-111 33q7 37 23.5 78t44.5 85t63 78.5t83 56.5
t101 22z" />
    <glyph glyph-name="Jcircumflex" unicode="&#x134;" horiz-adv-x="911" 
d="M893 1573l-252 203l-285 -197l-73 96l358 314h31l309 -322zM901 1434l-6 -136q-42 -2 -63.5 -6.5t-45 -21.5t-34 -53.5t-13.5 -96.5l-30 -600q-17 -289 -129.5 -421t-323.5 -132q-122 0 -203.5 62.5t-75.5 156.5q3 68 43.5 117.5t106.5 52.5q71 4 105 -35t34 -98
q0 -34 -20 -76q12 -32 59 -32q90 0 98 161l43 822q6 107 19 184q-18 -1 -83 -3t-81 -3l8 158h592z" />
    <glyph glyph-name="jcircumflex" unicode="&#x135;" horiz-adv-x="665" 
d="M410 1604l280 -349l-90 -94l-231 213h-2l-252 -205l-72 97l346 338h21zM322 1047q195 0 198 -238q3 -237 -22 -535q-8 -86 -18.5 -159.5t-30 -161.5t-45 -157.5t-65.5 -137t-89.5 -113t-118.5 -73t-151 -27.5q-93 0 -147 42t-54 110q0 19 7 40.5t21 42.5t40.5 34t60.5 12
q47 -2 79 -42t21 -100q8 -4 31 -4q33 0 61.5 41t49 114.5t35.5 145t26 166t15.5 143t9.5 107.5q20 300 20 506q0 53 -31 53q-52 0 -98 -162l-113 33q8 38 23.5 78.5t42.5 84.5t60.5 78t81 56.5t100.5 22.5z" />
    <glyph glyph-name="uni0136" unicode="&#x136;" horiz-adv-x="1456" 
d="M72 0l8 135q41 2 62 6.5t44 21.5t33.5 53.5t13.5 96.5l41 785q6 107 19 184q-17 -1 -77.5 -3t-76.5 -3l8 158h582l-6 -136q-42 -2 -63.5 -6.5t-45 -21.5t-34 -53.5t-13.5 -96.5l-16 -311h149l170 268q112 174 152 207q-25 -2 -75 -5t-54 -3l6 158h502l-6 -136
q-41 -2 -74 -9.5t-76.5 -27.5t-88.5 -63t-89 -108l-213 -316q77 -53 121 -121l192 -297q144 -216 258 -221l-8 -135h-311q-24 1 -86 71.5t-105 137.5l-186 295q-79 114 -113 141h-73l-17 -309q-7 -132 -16 -184q64 6 154 6l-9 -158h-583zM563 -602l-106 84q58 88 83.5 151
t27 118.5t-6.5 125.5l221 49q37 -70 31 -147q-4 -85 -75 -187.5t-175 -193.5z" />
    <glyph glyph-name="uni0137" unicode="&#x137;" horiz-adv-x="1060" 
d="M758 -23q-91 0 -148 57.5t-112 207.5q-4 10 -11 30.5t-10.5 30t-9.5 25t-10.5 24t-10.5 18.5t-12 16.5t-12 10.5q-18 14 -37 9q-25 -122 -25 -269q0 -72 7 -137h-267q-6 57 -6 100q0 96 23 420.5t61 624.5q10 85 31 190q-14 -1 -72.5 -3t-75.5 -3l9 156q129 0 207 18.5
t106 42.5h111q-7 -49 -20.5 -144t-24.5 -177t-19 -158q-8 -93 -41 -266h2q63 126 151.5 186t176.5 60q111 0 166 -57.5t55 -160.5q0 -50 -20.5 -103t-63 -107t-122 -98t-183.5 -66v-2q77 -3 116.5 -38.5t61.5 -90.5q19 -44 27.5 -61.5t22 -41.5t24.5 -32.5t24 -8.5
q46 0 88 142l111 -35q-17 -79 -50.5 -146.5t-91 -115.5t-126.5 -48zM399 537q149 0 222 74t73 210q0 90 -53 90q-59 0 -134.5 -103.5t-107.5 -270.5zM377 -602l-107 84q58 88 83.5 151t27.5 119t-6 125l221 49q37 -70 31 -147q-4 -85 -75 -187.5t-175 -193.5z" />
    <glyph glyph-name="Lacute" unicode="&#x139;" horiz-adv-x="1241" 
d="M369 1577l-70 98l250 242q30 29 67 44t74 8.5t58 -38.5q24 -35 17.5 -70t-30 -63t-59.5 -49zM729 1434l-6 -136q-42 -2 -63.5 -6.5t-45 -21.5t-34 -53.5t-13.5 -96.5l-41 -784q-7 -127 -16 -180h274q123 2 195.5 87t81.5 249h135l-37 -492h-1087l8 135q41 2 62 6.5
t44 21.5t33.5 53.5t13.5 96.5l41 785q6 107 19 184q-17 -1 -77.5 -3t-76.5 -3l8 158h582z" />
    <glyph glyph-name="lacute" unicode="&#x13a;" horiz-adv-x="620" 
d="M195 1569l-91 84l183 286q35 55 91.5 71.5t102.5 -21.5q44 -46 33 -104.5t-59 -98.5zM498 1546q-5 -48 -19 -168.5t-20 -179.5q-61 -523 -80 -709t-19 -262q0 -59 29 -59q54 0 100 162l111 -33q-12 -46 -27.5 -86.5t-42 -85t-59.5 -76t-81 -52t-105 -20.5q-81 0 -133 48
t-52 149q0 115 15 299.5t28.5 305t42.5 366.5q10 92 27 190q-14 -1 -70 -3t-73 -3l8 156q128 0 204.5 18t104.5 43h111z" />
    <glyph glyph-name="uni013B" unicode="&#x13b;" horiz-adv-x="1241" 
d="M729 1434l-6 -136q-42 -2 -63.5 -6.5t-45 -21.5t-34 -53.5t-13.5 -96.5l-41 -784q-7 -127 -16 -180h274q123 2 195.5 87t81.5 249h135l-37 -492h-1087l8 135q41 2 62 6.5t44 21.5t33.5 53.5t13.5 96.5l41 785q6 107 19 184q-17 -1 -77.5 -3t-76.5 -3l8 158h582zM457 -602
l-107 84q58 88 83.5 151t27.5 119t-6 125l221 49q37 -70 31 -147q-4 -85 -75 -187.5t-175 -193.5z" />
    <glyph glyph-name="uni013C" unicode="&#x13c;" horiz-adv-x="620" 
d="M498 1546q-5 -48 -19 -168.5t-20 -179.5q-61 -523 -80 -709t-19 -262q0 -59 29 -59q54 0 100 162l111 -33q-12 -46 -27.5 -86.5t-42 -85t-59.5 -76t-81 -52t-105 -20.5q-81 0 -133 48t-52 149q0 115 15 299.5t28.5 305t42.5 366.5q10 92 27 190q-14 -1 -70 -3t-73 -3
l8 156q128 0 204.5 18t104.5 43h111zM190 -602l-106 84q58 88 83.5 151t27 118.5t-6.5 125.5l222 49q36 -68 30 -147q-4 -85 -75 -187.5t-175 -193.5z" />
    <glyph glyph-name="Lcaron" unicode="&#x13d;" horiz-adv-x="1241" 
d="M952 973l-80 59q48 88 66 167t14 137.5t-24 131.5l182 -34q20 -40 26 -69t1 -69q-7 -81 -58 -165t-127 -158zM729 1434l-6 -136q-42 -2 -63.5 -6.5t-45 -21.5t-34 -53.5t-13.5 -96.5l-41 -784q-7 -127 -16 -180h274q123 2 195.5 87t81.5 249h135l-37 -492h-1087l8 135
q41 2 62 6.5t44 21.5t33.5 53.5t13.5 96.5l41 785q6 107 19 184q-17 -1 -77.5 -3t-76.5 -3l8 158h582z" />
    <glyph glyph-name="lcaron" unicode="&#x13e;" horiz-adv-x="620" 
d="M647 1112l-80 59q48 88 66 167.5t14 138t-24 131.5l182 -35q20 -39 25.5 -68t0.5 -69q-14 -157 -184 -324zM498 1546q-5 -48 -19 -168.5t-20 -179.5q-61 -523 -80 -709t-19 -262q0 -59 29 -59q54 0 100 162l111 -33q-12 -46 -27.5 -86.5t-42 -85t-59.5 -76t-81 -52
t-105 -20.5q-81 0 -133 48t-52 149q0 115 15 299.5t28.5 305t42.5 366.5q10 92 27 190q-14 -1 -70 -3t-73 -3l8 156q128 0 204.5 18t104.5 43h111z" />
    <glyph glyph-name="Ldot" unicode="&#x13f;" horiz-adv-x="1241" 
d="M729 1434l-6 -136q-42 -2 -63.5 -6.5t-45 -21.5t-34 -53.5t-13.5 -96.5l-41 -784q-7 -127 -16 -180h274q123 2 195.5 87t81.5 249h135l-37 -492h-1087l8 135q41 2 62 6.5t44 21.5t33.5 53.5t13.5 96.5l41 785q6 107 19 184q-17 -1 -77.5 -3t-76.5 -3l8 158h582zM834 858
q62 0 102 -46.5t37 -113.5t-46 -113t-108 -46q-66 0 -106 46t-37 113q3 65 50.5 112.5t107.5 47.5z" />
    <glyph glyph-name="ldot" unicode="&#x140;" horiz-adv-x="919" 
d="M498 1546q-5 -48 -19 -168.5t-20 -179.5q-61 -523 -80 -709t-19 -262q0 -59 29 -59q54 0 100 162l111 -33q-12 -46 -27.5 -86.5t-42 -85t-59.5 -76t-81 -52t-105 -20.5q-81 0 -133 48t-52 149q0 115 15 299.5t28.5 305t42.5 366.5q10 92 27 190q-14 -1 -70 -3t-73 -3
l8 156q128 0 204.5 18t104.5 43h111zM688 858q62 0 102 -46.5t37 -113.5t-45.5 -113t-107.5 -46q-66 0 -106.5 46t-37.5 113q3 65 50.5 112.5t107.5 47.5z" />
    <glyph glyph-name="Lslash" unicode="&#x141;" horiz-adv-x="1241" 
d="M731 1434l-6 -136q-42 -2 -63.5 -6.5t-45 -21.5t-34 -53.5t-13.5 -96.5l-10 -190l359 262l-13 -227l-356 -260l-21 -369q-7 -127 -16 -180h274q123 2 195.5 87t81.5 249h135l-37 -492h-1087l8 135q41 2 62 6.5t44.5 21.5t34 53.5t13.5 96.5l10 172l-162 -116l10 229
l162 117l20 383q6 107 19 184q-17 -1 -77.5 -3t-76.5 -3l9 158h581z" />
    <glyph glyph-name="lslash" unicode="&#x142;" horiz-adv-x="704" 
d="M541 1546l-72 -639l215 146l-12 -207l-230 -168q-39 -352 -39 -451q0 -59 29 -59q54 0 100 162l111 -33q-12 -46 -27.5 -86.5t-42 -85t-59.5 -76t-81 -52t-105 -20.5q-81 0 -133 48t-52 149q0 138 15 307l-152 -102l12 223l160 111q56 486 78 622l-143 -6l8 156
q128 0 204.5 18t104.5 43h111z" />
    <glyph glyph-name="Nacute" unicode="&#x143;" horiz-adv-x="1581" 
d="M723 1567l-90 84l182 286q35 55 92 71.5t103 -21.5q44 -46 32.5 -104.5t-59.5 -98.5zM1159 -20l-610 841q-53 72 -105 154h-2l-28 -639q-6 -107 -19 -184q67 6 156 6l-10 -158h-467l8 135q42 2 63 6.5t44.5 21.5t34 53t14.5 97l34 785q6 107 19 184q-17 -1 -78 -3t-78 -3
l10 158h322l584 -793q39 -54 133 -197h2l33 654q6 115 18 184q-16 -1 -78 -3t-78 -3l11 158h464l-6 -136q-28 -1 -44 -3t-36 -8t-30.5 -17.5t-21 -30.5t-16 -48.5t-7.5 -70.5l-62 -1140h-174z" />
    <glyph glyph-name="nacute" unicode="&#x144;" horiz-adv-x="1249" 
d="M582 1157l-90 84l182 287q35 54 92 70.5t102 -21.5q44 -46 33 -104.5t-59 -98.5zM928 -23q-108 0 -150.5 57.5t-42.5 174.5q0 85 25.5 294.5t25.5 268.5q0 46 -13 66t-44 20q-60 0 -127.5 -117t-111.5 -285t-44 -309q0 -31 7 -147h-265q-6 57 -6 98q0 99 35 365
q5 41 13.5 106t13 102.5t8.5 75.5t4 56q0 53 -29 53q-52 0 -98 -162l-113 33q9 40 21 78.5t35.5 84t52 79t72 56t94.5 22.5q75 0 123.5 -43.5t48.5 -143.5q0 -29 -12 -123h2q121 310 350 310q246 0 246 -316q0 -75 -26 -255t-26 -255q0 -53 31 -53q52 0 98 162l111 -33
q-9 -48 -32.5 -100t-60.5 -103t-94 -84t-122 -33z" />
    <glyph glyph-name="uni0145" unicode="&#x145;" horiz-adv-x="1581" 
d="M1159 -20l-610 841q-53 72 -105 154h-2l-28 -639q-6 -107 -19 -184q67 6 156 6l-10 -158h-467l8 135q42 2 63 6.5t44.5 21.5t34 53t14.5 97l34 785q6 107 19 184q-17 -1 -78 -3t-78 -3l10 158h322l584 -793q39 -54 133 -197h2l33 654q6 115 18 184q-16 -1 -78 -3t-78 -3
l11 158h464l-6 -136q-28 -1 -44 -3t-36 -8t-30.5 -17.5t-21 -30.5t-16 -48.5t-7.5 -70.5l-62 -1140h-174zM627 -602l-107 84q58 88 83.5 151t27.5 119t-6 125l221 49q37 -70 31 -147q-4 -85 -75 -187.5t-175 -193.5z" />
    <glyph glyph-name="uni0146" unicode="&#x146;" horiz-adv-x="1249" 
d="M928 -23q-108 0 -150.5 57.5t-42.5 174.5q0 85 25.5 294.5t25.5 268.5q0 46 -13 66t-44 20q-60 0 -127.5 -117t-111.5 -285t-44 -309q0 -31 7 -147h-265q-6 57 -6 98q0 99 35 365q5 41 13.5 106t13 102.5t8.5 75.5t4 56q0 53 -29 53q-52 0 -98 -162l-113 33q9 40 21 78.5
t35.5 84t52 79t72 56t94.5 22.5q75 0 123.5 -43.5t48.5 -143.5q0 -29 -12 -123h2q121 310 350 310q246 0 246 -316q0 -75 -26 -255t-26 -255q0 -53 31 -53q52 0 98 162l111 -33q-9 -48 -32.5 -100t-60.5 -103t-94 -84t-122 -33zM506 -602l-107 84q58 88 83.5 151t27.5 119
t-6 125l221 49q37 -70 31 -147q-4 -85 -75 -187.5t-175 -193.5z" />
    <glyph glyph-name="Ncaron" unicode="&#x147;" horiz-adv-x="1581" 
d="M852 1577h-41l-383 309l57 84l369 -178l391 178l41 -82zM1159 -20l-610 841q-53 72 -105 154h-2l-28 -639q-6 -107 -19 -184q67 6 156 6l-10 -158h-467l8 135q42 2 63 6.5t44.5 21.5t34 53t14.5 97l34 785q6 107 19 184q-17 -1 -78 -3t-78 -3l10 158h322l584 -793
q39 -54 133 -197h2l33 654q6 115 18 184q-16 -1 -78 -3t-78 -3l11 158h464l-6 -136q-28 -1 -44 -3t-36 -8t-30.5 -17.5t-21 -30.5t-16 -48.5t-7.5 -70.5l-62 -1140h-174z" />
    <glyph glyph-name="ncaron" unicode="&#x148;" horiz-adv-x="1249" 
d="M670 1167l-316 346l86 97l260 -215h2l267 219l73 -92l-352 -355h-20zM928 -23q-108 0 -150.5 57.5t-42.5 174.5q0 85 25.5 294.5t25.5 268.5q0 46 -13 66t-44 20q-60 0 -127.5 -117t-111.5 -285t-44 -309q0 -31 7 -147h-265q-6 57 -6 98q0 99 35 365q5 41 13.5 106
t13 102.5t8.5 75.5t4 56q0 53 -29 53q-52 0 -98 -162l-113 33q9 40 21 78.5t35.5 84t52 79t72 56t94.5 22.5q75 0 123.5 -43.5t48.5 -143.5q0 -29 -12 -123h2q121 310 350 310q246 0 246 -316q0 -75 -26 -255t-26 -255q0 -53 31 -53q52 0 98 162l111 -33q-9 -48 -32.5 -100
t-60.5 -103t-94 -84t-122 -33z" />
    <glyph glyph-name="napostrophe" unicode="&#x149;" horiz-adv-x="1249" 
d="M334 1831q91 1 136 -58.5t40 -156.5q-10 -213 -211 -449l-76 58q43 53 87.5 148t45.5 175q-20 -6 -43 -6q-60 0 -99 34t-36 101q3 63 47.5 108.5t108.5 45.5zM928 -23q-108 0 -150.5 57.5t-42.5 174.5q0 85 25.5 294.5t25.5 268.5q0 46 -13 66t-44 20q-60 0 -127.5 -117
t-111.5 -285t-44 -309q0 -31 7 -147h-265q-6 57 -6 98q0 99 35 365q5 41 13.5 106t13 102.5t8.5 75.5t4 56q0 53 -29 53q-52 0 -98 -162l-113 33q9 40 21 78.5t35.5 84t52 79t72 56t94.5 22.5q75 0 123.5 -43.5t48.5 -143.5q0 -29 -12 -123h2q121 310 350 310
q246 0 246 -316q0 -75 -26 -255t-26 -255q0 -53 31 -53q52 0 98 162l111 -33q-9 -48 -32.5 -100t-60.5 -103t-94 -84t-122 -33z" />
    <glyph glyph-name="Eng" unicode="&#x14a;" horiz-adv-x="1581" 
d="M1159 -20l-610 841q-53 72 -105 154h-2l-28 -639q-6 -107 -19 -184q67 6 156 6l-10 -158h-467l8 135q42 2 63 6.5t44.5 21.5t34 53t14.5 97l34 785q6 107 19 184q-17 -1 -78 -3t-78 -3l10 158h322l584 -793q39 -54 133 -197h2l33 654q6 115 18 184q-16 -1 -78 -3t-78 -3
l11 158h464l-6 -136q-28 -1 -44 -3t-36 -8t-30.5 -17.5t-21 -30.5t-16 -48.5t-7.5 -70.5l-56 -1032l-4 -80q-12 -288 -110 -420.5t-283 -132.5q-127 0 -210.5 69.5t-78.5 166.5q3 67 38 108t102 45q71 4 105 -35t34 -98q0 -32 -21 -76q7 -32 80 -32q74 0 113.5 38t46.5 123
l10 216h-2z" />
    <glyph glyph-name="eng" unicode="&#x14b;" horiz-adv-x="1261" 
d="M539 -526q-155 0 -244.5 55t-89.5 156q0 53 36 101t101 48q56 0 92.5 -35.5t36.5 -93.5q0 -40 -18 -67q31 -35 82 -35q104 0 186 164t115 450q4 43 14 134.5t14.5 134t8.5 97t4 87.5q0 46 -3.5 76t-14 58t-32.5 41t-57 13q-79 0 -156 -118t-122.5 -283.5t-45.5 -309.5
q0 -31 7 -147h-265q-6 57 -6 98q0 69 35 373q39 279 39 332t-29 53q-52 0 -98 -162l-113 33q9 40 21 78.5t35.5 84t52 79t72 56t94.5 22.5q75 0 123.5 -43.5t48.5 -143.5q0 -29 -12 -123h2q34 88 80.5 151.5t97 96.5t97.5 47.5t95 14.5q316 0 316 -418q0 -40 -4.5 -94.5
t-10 -96t-15 -113.5t-13.5 -108q-26 -180 -70 -314t-110.5 -232t-161 -147.5t-215.5 -49.5z" />
    <glyph glyph-name="Omacron" unicode="&#x14c;" horiz-adv-x="1560" 
d="M522 1698l8 190h582l-8 -184zM831 1466q144 0 261 -45.5t193 -119.5t126 -172.5t69.5 -202t14.5 -209.5q-6 -104 -38 -208t-94.5 -202t-147.5 -173.5t-206 -121t-261 -45.5q-151 0 -270.5 44t-195 117t-124 171.5t-65.5 202.5t-11 215q5 105 37 210t94.5 202.5t148 172
t207.5 119.5t262 45zM797 1327q-81 -2 -148 -39.5t-111 -96.5t-75.5 -137t-46.5 -155.5t-19 -157.5q-4 -81 4 -164.5t34.5 -169.5t69 -152t112.5 -108t159 -41q82 1 149.5 37t112 93.5t76.5 134.5t47 154t19 157q9 192 -27 335.5t-127 228t-229 81.5z" />
    <glyph glyph-name="omacron" unicode="&#x14d;" horiz-adv-x="1054" 
d="M264 1288l8 191h582l-8 -185zM571 1047q178 0 295 -122.5t117 -334.5q0 -165 -61 -303.5t-180 -224t-273 -85.5q-133 0 -228 63.5t-139.5 167t-44.5 234.5q0 165 62 302t180.5 220t271.5 83zM541 911q-91 1 -148 -118t-57 -293q0 -68 8 -131t25.5 -123t51.5 -96.5
t81 -36.5q50 0 89.5 40.5t61.5 105.5t33.5 134t13.5 137q2 63 -4 123.5t-22 121.5t-50 98t-83 38z" />
    <glyph glyph-name="Obreve" unicode="&#x14e;" horiz-adv-x="1560" 
d="M831 1612q-114 0 -209 52.5t-135 166.5l123 82q90 -113 234 -113q141 0 250 113l110 -82q-38 -78 -103 -129t-131.5 -70.5t-138.5 -19.5zM831 1466q144 0 261 -45.5t193 -119.5t126 -172.5t69.5 -202t14.5 -209.5q-6 -104 -38 -208t-94.5 -202t-147.5 -173.5t-206 -121
t-261 -45.5q-151 0 -270.5 44t-195 117t-124 171.5t-65.5 202.5t-11 215q5 105 37 210t94.5 202.5t148 172t207.5 119.5t262 45zM797 1327q-81 -2 -148 -39.5t-111 -96.5t-75.5 -137t-46.5 -155.5t-19 -157.5q-4 -81 4 -164.5t34.5 -169.5t69 -152t112.5 -108t159 -41
q82 1 149.5 37t112 93.5t76.5 134.5t47 154t19 157q9 192 -27 335.5t-127 228t-229 81.5z" />
    <glyph glyph-name="obreve" unicode="&#x14f;" horiz-adv-x="1054" 
d="M569 1145q-60 0 -116 21.5t-108.5 74t-82.5 129.5l100 49q96 -125 216 -125q119 0 210 125l95 -41q-102 -233 -314 -233zM571 1047q178 0 295 -122.5t117 -334.5q0 -165 -61 -303.5t-180 -224t-273 -85.5q-133 0 -228 63.5t-139.5 167t-44.5 234.5q0 165 62 302
t180.5 220t271.5 83zM541 911q-91 1 -148 -118t-57 -293q0 -68 8 -131t25.5 -123t51.5 -96.5t81 -36.5q50 0 89.5 40.5t61.5 105.5t33.5 134t13.5 137q2 63 -4 123.5t-22 121.5t-50 98t-83 38z" />
    <glyph glyph-name="Ohungarumlaut" unicode="&#x150;" horiz-adv-x="1560" 
d="M520 1597l-88 84l182 256q29 38 63 64t69 32.5t63 -16.5q31 -26 28.5 -62t-21.5 -69.5t-50 -62.5zM834 1599l-74 97l215 231q56 61 114.5 80t96.5 -20q27 -32 17 -69t-34 -67t-59 -55zM831 1466q144 0 261 -45.5t193 -119.5t126 -172.5t69.5 -202t14.5 -209.5
q-6 -104 -38 -208t-94.5 -202t-147.5 -173.5t-206 -121t-261 -45.5q-151 0 -270.5 44t-195 117t-124 171.5t-65.5 202.5t-11 215q5 105 37 210t94.5 202.5t148 172t207.5 119.5t262 45zM797 1327q-81 -2 -148 -39.5t-111 -96.5t-75.5 -137t-46.5 -155.5t-19 -157.5
q-4 -81 4 -164.5t34.5 -169.5t69 -152t112.5 -108t159 -41q82 1 149.5 37t112 93.5t76.5 134.5t47 154t19 157q9 192 -27 335.5t-127 228t-229 81.5z" />
    <glyph glyph-name="ohungarumlaut" unicode="&#x151;" horiz-adv-x="1054" 
d="M262 1188l-88 84l182 256q29 38 63 64t69 32.5t63 -16.5q31 -26 28.5 -62.5t-21.5 -70t-50 -62.5zM575 1190l-73 96l215 232q56 61 114.5 79.5t96.5 -20.5q27 -32 17 -69t-34 -67t-59 -55zM571 1047q178 0 295 -122.5t117 -334.5q0 -165 -61 -303.5t-180 -224t-273 -85.5
q-133 0 -228 63.5t-139.5 167t-44.5 234.5q0 165 62 302t180.5 220t271.5 83zM541 911q-91 1 -148 -118t-57 -293q0 -68 8 -131t25.5 -123t51.5 -96.5t81 -36.5q50 0 89.5 40.5t61.5 105.5t33.5 134t13.5 137q2 63 -4 123.5t-22 121.5t-50 98t-83 38z" />
    <glyph glyph-name="OE" unicode="&#x152;" horiz-adv-x="2078" 
d="M741 -33q-206 3 -361.5 98.5t-233 259t-66.5 365.5q6 116 36.5 225t93 210t150 176t214.5 120t278 45q143 0 260 -32h856l-8 -398h-135q4 80 -15.5 135.5t-56.5 82.5t-77 37.5t-87 8.5l-73 -2q-37 -1 -59 -6.5t-42.5 -23t-31 -54t-13.5 -94.5l-16 -307h241v178h158
l-27 -497h-135q4 62 -8.5 100.5t-42.5 55t-59.5 21t-79.5 3.5q-9 0 -27.5 -1t-27.5 -1l-17 -336q-7 -133 -18 -180h274q48 0 91.5 15.5t82 48.5t63.5 92.5t29 138.5h136l-37 -451h-912q-127 -37 -297 -33zM801 131q122 -9 227 29l49 938q3 82 15 162q-103 65 -250 59
q-87 -4 -159 -36t-122.5 -85t-86.5 -125t-54.5 -153t-22.5 -172q-14 -268 93 -434t311 -183z" />
    <glyph glyph-name="oe" unicode="&#x153;" horiz-adv-x="1605" 
d="M1214 1047q143 0 225.5 -64.5t82.5 -194.5q0 -54 -23 -99.5t-65.5 -78.5t-92.5 -58.5t-115.5 -44.5t-122.5 -30.5t-124 -21.5q0 -84 15.5 -143t43 -89.5t57.5 -43.5t66 -13q176 0 262 199l121 -58q-43 -97 -94.5 -164t-109 -102t-112.5 -49.5t-120 -14.5q-36 0 -74.5 9
t-82 29t-84 60.5t-68.5 96.5h-2q-113 -195 -330 -195q-102 0 -181.5 36.5t-128.5 100.5t-74.5 147t-25.5 181q0 166 58.5 302t174 219.5t267.5 83.5q90 0 171.5 -46.5t131.5 -152.5h2q134 199 352 199zM537 911q-91 1 -145 -117.5t-54 -293.5q0 -69 7 -131t23.5 -123
t49.5 -97t80 -36q50 0 88.5 40.5t59.5 106t31.5 133.5t12.5 137q2 65 -3.5 124t-20 120.5t-47.5 98.5t-82 38zM1192 911q-50 0 -88.5 -28t-61.5 -77t-36.5 -102.5t-20.5 -115.5q157 28 228.5 88.5t68.5 140.5q-1 47 -28 70.5t-62 23.5z" />
    <glyph glyph-name="Racute" unicode="&#x154;" horiz-adv-x="1394" 
d="M606 1575l-90 84l182 287q35 54 92.5 70.5t102.5 -21.5q44 -46 32.5 -104.5t-59.5 -98.5zM725 1438q138 1 242 -22.5t179 -74.5t109.5 -137.5t24.5 -206.5q-9 -135 -106 -240t-273 -155q74 -35 135 -131l88 -143q66 -110 109.5 -150t109.5 -43l-8 -135h-331
q-59 44 -142 193l-137 245q-43 76 -80 119h-106l-13 -219q-7 -134 -16 -186q64 6 172 6l-6 -158h-604l8 135q41 2 62 6.5t44 21.5t33.5 53.5t13.5 96.5l41 785q6 107 19 184q-17 -1 -77.5 -3t-76.5 -3l8 158q97 1 289.5 2t288.5 2zM715 1294q-36 0 -59 -5.5t-43.5 -21.5
t-31.5 -49t-14 -85l-20 -420q62 -8 98 -8q168 0 247 75t87 234q4 74 -15 129t-47 83t-69.5 44.5t-70.5 20t-62 3.5z" />
    <glyph glyph-name="racute" unicode="&#x155;" horiz-adv-x="940" 
d="M395 1157l-90 84l182 287q35 54 92.5 70.5t102.5 -21.5q44 -46 32.5 -104.5t-59.5 -98.5zM188 0q-6 57 -6 98q0 71 35 371q39 283 39 334q0 53 -29 53q-52 0 -98 -162l-113 33q9 40 21 78.5t35.5 84t52 79t72 56t94.5 22.5q75 0 123.5 -43.5t48.5 -143.5q0 -65 -21 -182
h2q32 90 68 157.5t69 107t69.5 64t66.5 32.5t63 8q77 0 124.5 -43t47.5 -113q0 -56 -38.5 -97.5t-98.5 -41.5q-47 0 -80.5 29.5t-32.5 76.5q-55 6 -115 -111t-98 -286.5t-38 -313.5q0 -48 6 -147h-269z" />
    <glyph glyph-name="uni0156" unicode="&#x156;" horiz-adv-x="1394" 
d="M725 1438q138 1 242 -22.5t179 -74.5t109.5 -137.5t24.5 -206.5q-9 -135 -106 -240t-273 -155q74 -35 135 -131l88 -143q66 -110 109.5 -150t109.5 -43l-8 -135h-331q-59 44 -142 193l-137 245q-43 76 -80 119h-106l-13 -219q-7 -134 -16 -186q64 6 172 6l-6 -158h-604
l8 135q41 2 62 6.5t44 21.5t33.5 53.5t13.5 96.5l41 785q6 107 19 184q-17 -1 -77.5 -3t-76.5 -3l8 158q97 1 289.5 2t288.5 2zM715 1294q-36 0 -59 -5.5t-43.5 -21.5t-31.5 -49t-14 -85l-20 -420q62 -8 98 -8q168 0 247 75t87 234q4 74 -15 129t-47 83t-69.5 44.5t-70.5 20
t-62 3.5zM532 -602l-106 84q58 88 83.5 151t27 118.5t-6.5 125.5l222 49q36 -68 30 -147q-4 -85 -75 -187.5t-175 -193.5z" />
    <glyph glyph-name="uni0157" unicode="&#x157;" horiz-adv-x="940" 
d="M188 0q-6 57 -6 98q0 71 35 371q39 283 39 334q0 53 -29 53q-52 0 -98 -162l-113 33q9 40 21 78.5t35.5 84t52 79t72 56t94.5 22.5q75 0 123.5 -43.5t48.5 -143.5q0 -65 -21 -182h2q32 90 68 157.5t69 107t69.5 64t66.5 32.5t63 8q77 0 124.5 -43t47.5 -113
q0 -56 -38.5 -97.5t-98.5 -41.5q-47 0 -80.5 29.5t-32.5 76.5q-55 6 -115 -111t-98 -286.5t-38 -313.5q0 -48 6 -147h-269zM252 -602l-107 84q58 88 83.5 151t27.5 119t-6 125l221 49q37 -70 31 -147q-4 -85 -75 -187.5t-175 -193.5z" />
    <glyph glyph-name="Rcaron" unicode="&#x158;" horiz-adv-x="1394" 
d="M735 1585h-41l-383 309l58 84l368 -178l391 178l41 -82zM725 1438q138 1 242 -22.5t179 -74.5t109.5 -137.5t24.5 -206.5q-9 -135 -106 -240t-273 -155q74 -35 135 -131l88 -143q66 -110 109.5 -150t109.5 -43l-8 -135h-331q-59 44 -142 193l-137 245q-43 76 -80 119
h-106l-13 -219q-7 -134 -16 -186q64 6 172 6l-6 -158h-604l8 135q41 2 62 6.5t44 21.5t33.5 53.5t13.5 96.5l41 785q6 107 19 184q-17 -1 -77.5 -3t-76.5 -3l8 158q97 1 289.5 2t288.5 2zM715 1294q-36 0 -59 -5.5t-43.5 -21.5t-31.5 -49t-14 -85l-20 -420q62 -8 98 -8
q168 0 247 75t87 234q4 74 -15 129t-47 83t-69.5 44.5t-70.5 20t-62 3.5z" />
    <glyph glyph-name="rcaron" unicode="&#x159;" horiz-adv-x="940" 
d="M483 1167l-315 346l86 97l260 -215h2l266 219l74 -92l-352 -355h-21zM188 0q-6 57 -6 98q0 71 35 371q39 283 39 334q0 53 -29 53q-52 0 -98 -162l-113 33q9 40 21 78.5t35.5 84t52 79t72 56t94.5 22.5q75 0 123.5 -43.5t48.5 -143.5q0 -65 -21 -182h2q32 90 68 157.5
t69 107t69.5 64t66.5 32.5t63 8q77 0 124.5 -43t47.5 -113q0 -56 -38.5 -97.5t-98.5 -41.5q-47 0 -80.5 29.5t-32.5 76.5q-55 6 -115 -111t-98 -286.5t-38 -313.5q0 -48 6 -147h-269z" />
    <glyph glyph-name="Sacute" unicode="&#x15a;" horiz-adv-x="1228" 
d="M561 1567l-90 84l182 286q35 55 92 71.5t103 -21.5q44 -46 32.5 -104.5t-59.5 -98.5zM596 -33q-83 0 -178 26.5t-170 74.5v-86h-158l25 479h135q18 -167 115.5 -256.5t244.5 -89.5q107 0 180 56.5t76 135.5q3 49 -17.5 87.5t-76 73t-86.5 49t-112 47.5l-21 9
q-84 34 -147.5 67t-122.5 78t-95.5 95t-56.5 117t-16 145q3 54 20.5 106t55.5 104.5t93 92t140.5 64t189.5 24.5q88 0 182.5 -25.5t155.5 -72.5v84h158l-25 -477h-135q-19 169 -106 257.5t-230 86.5q-90 0 -158 -50.5t-71 -125.5q-4 -92 68.5 -155t246.5 -134
q51 -21 89 -38.5t88.5 -45t86.5 -54t73.5 -64t60.5 -76.5t36 -89.5t11 -105.5q-11 -184 -162 -299t-387 -115z" />
    <glyph glyph-name="sacute" unicode="&#x15b;" horiz-adv-x="913" 
d="M369 1157l-90 84l182 287q35 54 92 70.5t102 -21.5q44 -46 33 -104.5t-59 -98.5zM410 -23q-153 0 -260 66t-107 172q0 62 37.5 102.5t93.5 40.5q55 0 90 -37t35 -90q0 -31 -12 -61q10 -21 53 -39t76 -18q83 0 122.5 36t39.5 91q0 12 -3 24t-11.5 23.5t-15.5 20.5t-22 21
t-24.5 19t-30 19.5t-31 18.5l-35 20t-34.5 20q-79 45 -127.5 78t-86.5 72t-53.5 81t-15.5 95q0 116 106 205.5t283 89.5q84 0 161.5 -26.5t130 -79.5t52.5 -120q0 -56 -35.5 -95.5t-93.5 -39.5q-54 0 -88.5 37t-34.5 88q0 30 13 59q-16 20 -48.5 30.5t-64.5 10.5
q-48 0 -92.5 -29.5t-44.5 -76.5q0 -43 33 -73.5t157 -102.5q130 -75 176 -111q129 -100 129 -225q0 -137 -119.5 -226.5t-297.5 -89.5z" />
    <glyph glyph-name="Scircumflex" unicode="&#x15c;" horiz-adv-x="1228" 
d="M1065 1595l-367 181l-395 -177l-39 82l434 308h39l385 -308zM596 -33q-83 0 -178 26.5t-170 74.5v-86h-158l25 479h135q18 -167 115.5 -256.5t244.5 -89.5q107 0 180 56.5t76 135.5q3 49 -17.5 87.5t-76 73t-86.5 49t-112 47.5l-21 9q-84 34 -147.5 67t-122.5 78
t-95.5 95t-56.5 117t-16 145q3 54 20.5 106t55.5 104.5t93 92t140.5 64t189.5 24.5q88 0 182.5 -25.5t155.5 -72.5v84h158l-25 -477h-135q-19 169 -106 257.5t-230 86.5q-90 0 -158 -50.5t-71 -125.5q-4 -92 68.5 -155t246.5 -134q51 -21 89 -38.5t88.5 -45t86.5 -54
t73.5 -64t60.5 -76.5t36 -89.5t11 -105.5q-11 -184 -162 -299t-387 -115z" />
    <glyph glyph-name="scircumflex" unicode="&#x15d;" horiz-adv-x="913" 
d="M745 1161l-256 213h-2l-278 -205l-72 97l367 338h20l312 -349zM410 -23q-153 0 -260 66t-107 172q0 62 37.5 102.5t93.5 40.5q55 0 90 -37t35 -90q0 -31 -12 -61q10 -21 53 -39t76 -18q83 0 122.5 36t39.5 91q0 12 -3 24t-11.5 23.5t-15.5 20.5t-22 21t-24.5 19t-30 19.5
t-31 18.5l-35 20t-34.5 20q-79 45 -127.5 78t-86.5 72t-53.5 81t-15.5 95q0 116 106 205.5t283 89.5q84 0 161.5 -26.5t130 -79.5t52.5 -120q0 -56 -35.5 -95.5t-93.5 -39.5q-54 0 -88.5 37t-34.5 88q0 30 13 59q-16 20 -48.5 30.5t-64.5 10.5q-48 0 -92.5 -29.5
t-44.5 -76.5q0 -43 33 -73.5t157 -102.5q130 -75 176 -111q129 -100 129 -225q0 -137 -119.5 -226.5t-297.5 -89.5z" />
    <glyph glyph-name="Scedilla" unicode="&#x15e;" horiz-adv-x="1228" 
d="M444 -530l-10 106q252 46 256 129q2 33 -25 44.5t-60.5 3.5t-55.5 -25l-76 32l64 211q-158 16 -289 97v-86h-158l25 479h135q18 -167 115.5 -256.5t244.5 -89.5q107 0 180 56.5t76 135.5q3 49 -17.5 87.5t-76 73t-86.5 49t-112 47.5l-21 9q-84 34 -147.5 67t-122.5 78
t-95.5 95t-56.5 117t-16 145q3 54 20.5 106t55.5 104.5t93 92t140.5 64t189.5 24.5q88 0 182.5 -25.5t155.5 -72.5v84h158l-25 -477h-135q-19 169 -106 257.5t-230 86.5q-90 0 -158 -50.5t-71 -125.5q-4 -92 68.5 -155t246.5 -134q51 -21 89 -38.5t88.5 -45t86.5 -54
t73.5 -64t60.5 -76.5t36 -89.5t11 -105.5q-9 -164 -133.5 -275.5t-325.5 -134.5l-47 -112q27 13 70.5 22.5t72.5 9.5q67 -2 106.5 -37.5t35.5 -105.5q-3 -54 -39.5 -99.5t-87 -74t-120.5 -51.5t-122.5 -34t-110.5 -19z" />
    <glyph glyph-name="scedilla" unicode="&#x15f;" horiz-adv-x="913" 
d="M223 -530l-10 106q252 46 256 129q2 33 -25 44.5t-60.5 3.5t-55.5 -25l-76 32l67 224q-122 20 -199 81t-77 150q0 62 37.5 102.5t93.5 40.5q55 0 90 -37t35 -90q0 -31 -12 -61q10 -21 53 -39t76 -18q83 0 122.5 36t39.5 91q0 12 -3 24t-11.5 23.5t-15.5 20.5t-22 21
t-24.5 19t-30 19.5t-31 18.5l-35 20t-34.5 20q-79 45 -127.5 78t-86.5 72t-53.5 81t-15.5 95q0 116 106 205.5t283 89.5q84 0 161.5 -26.5t130 -79.5t52.5 -120q0 -56 -35.5 -95.5t-93.5 -39.5q-54 0 -88.5 37t-34.5 88q0 30 13 59q-16 20 -48.5 30.5t-64.5 10.5
q-48 0 -92.5 -29.5t-44.5 -76.5q0 -43 33 -73.5t157 -102.5q130 -75 176 -111q129 -100 129 -225t-100.5 -211.5t-257.5 -101.5l-51 -121q27 13 70.5 22.5t72.5 9.5q67 -2 106 -37.5t35 -105.5q-3 -54 -39.5 -99.5t-86.5 -74t-120 -51.5t-122.5 -34t-110.5 -19z" />
    <glyph glyph-name="Scaron" unicode="&#x160;" horiz-adv-x="1228" 
d="M690 1577h-41l-383 309l58 84l368 -178l391 178l41 -82zM596 -33q-83 0 -178 26.5t-170 74.5v-86h-158l25 479h135q18 -167 115.5 -256.5t244.5 -89.5q107 0 180 56.5t76 135.5q3 49 -17.5 87.5t-76 73t-86.5 49t-112 47.5l-21 9q-84 34 -147.5 67t-122.5 78t-95.5 95
t-56.5 117t-16 145q3 54 20.5 106t55.5 104.5t93 92t140.5 64t189.5 24.5q88 0 182.5 -25.5t155.5 -72.5v84h158l-25 -477h-135q-19 169 -106 257.5t-230 86.5q-90 0 -158 -50.5t-71 -125.5q-4 -92 68.5 -155t246.5 -134q51 -21 89 -38.5t88.5 -45t86.5 -54t73.5 -64
t60.5 -76.5t36 -89.5t11 -105.5q-11 -184 -162 -299t-387 -115z" />
    <glyph glyph-name="scaron" unicode="&#x161;" horiz-adv-x="913" 
d="M457 1167l-316 346l86 97l260 -215h2l267 219l73 -92l-352 -355h-20zM410 -23q-153 0 -260 66t-107 172q0 62 37.5 102.5t93.5 40.5q55 0 90 -37t35 -90q0 -31 -12 -61q10 -21 53 -39t76 -18q83 0 122.5 36t39.5 91q0 12 -3 24t-11.5 23.5t-15.5 20.5t-22 21t-24.5 19
t-30 19.5t-31 18.5l-35 20t-34.5 20q-79 45 -127.5 78t-86.5 72t-53.5 81t-15.5 95q0 116 106 205.5t283 89.5q84 0 161.5 -26.5t130 -79.5t52.5 -120q0 -56 -35.5 -95.5t-93.5 -39.5q-54 0 -88.5 37t-34.5 88q0 30 13 59q-16 20 -48.5 30.5t-64.5 10.5q-48 0 -92.5 -29.5
t-44.5 -76.5q0 -43 33 -73.5t157 -102.5q130 -75 176 -111q129 -100 129 -225q0 -137 -119.5 -226.5t-297.5 -89.5z" />
    <glyph glyph-name="uni0162" unicode="&#x162;" horiz-adv-x="1327" 
d="M465 -530l-10 106q252 46 256 129q1 25 -15 38t-39 13t-47.5 -7.5t-40.5 -20.5l-75 32l71 240h-221l8 135q42 2 63.5 6.5t45 21.5t34 53.5t13.5 96.5l51 981h-94q-121 -2 -192 -82t-78 -241h-136l35 463h1237l-12 -463h-135q7 163 -55 245t-181 80h-98l-49 -960
q-6 -107 -19 -184q64 6 164 6l-8 -158h-219l-60 -141q27 13 71 22.5t73 9.5q67 -2 106 -37.5t35 -105.5q-3 -54 -39.5 -99.5t-86.5 -74t-120 -51.5t-122.5 -34t-110.5 -19z" />
    <glyph glyph-name="uni0163" unicode="&#x163;" horiz-adv-x="808" 
d="M211 -530l-10 106q252 46 256 129q1 25 -15 38t-39 13t-47.5 -7.5t-40.5 -20.5l-75 32l69 232q-163 55 -155 317q12 267 47 568l-164 -3l18 150q147 0 221 75.5t105 233.5h137l-41 -309h256l-12 -141l-256 -4q-53 -418 -53 -570q0 -135 98 -135q15 0 34 4.5t46 17t55 40
t49 67.5l105 -65q-62 -116 -150.5 -181.5t-191.5 -76.5l-51 -121q27 13 70.5 22.5t72.5 9.5q67 -2 106 -37.5t35 -105.5q-3 -54 -39.5 -99.5t-86.5 -74t-120 -51.5t-122.5 -34t-110.5 -19z" />
    <glyph glyph-name="Tcaron" unicode="&#x164;" horiz-adv-x="1327" 
d="M729 1577h-41l-383 309l57 84l369 -178l391 178l41 -82zM1331 1434l-12 -463h-135q7 163 -55 245t-181 80h-98l-49 -960q-6 -107 -19 -184q64 6 164 6l-8 -158h-594l8 135q42 2 63.5 6.5t45 21.5t34 53.5t13.5 96.5l51 981h-94q-121 -2 -192 -82t-78 -241h-136l35 463
h1237z" />
    <glyph glyph-name="tcaron" unicode="&#x165;" horiz-adv-x="808" 
d="M709 1200l-80 60q48 88 66 167t13.5 137t-24.5 132l182 -35q20 -40 26 -68.5t1 -68.5q-14 -157 -184 -324zM518 1333l-41 -309h256l-12 -141l-256 -4q-53 -418 -53 -570q0 -135 98 -135q15 0 34 4.5t46 17t55 40t49 67.5l105 -65q-68 -128 -167.5 -194.5t-217.5 -66.5
q-81 0 -135.5 27t-81 76.5t-36 103.5t-7.5 125q12 267 47 568l-164 -3l18 150q147 0 221 75.5t105 233.5h137z" />
    <glyph glyph-name="Tbar" unicode="&#x166;" horiz-adv-x="1327" 
d="M311 649l8 135h213l27 510h-94q-121 -2 -192 -82t-78 -241h-136l35 463h1237l-12 -463h-135q7 163 -55 245t-181 80h-98l-27 -512h193l-8 -129l-191 -2l-16 -317q-6 -107 -19 -184q64 6 164 6l-8 -158h-594l8 135q42 2 63.5 6.5t45 21.5t34 53.5t13.5 96.5l18 338z" />
    <glyph glyph-name="tbar" unicode="&#x167;" horiz-adv-x="808" 
d="M12 526l8 136h158q4 51 23 215l-164 -3l18 150q147 0 221 75.5t105 233.5h137l-41 -309h256l-12 -141l-256 -4q-16 -135 -25 -217h277l-8 -130l-283 -2q-14 -168 -14 -221q0 -135 98 -135q15 0 34 4.5t46 17t55 40t49 67.5l105 -65q-68 -128 -167.5 -194.5t-217.5 -66.5
q-81 0 -135.5 27t-81 76.5t-36 103.5t-7.5 125q1 44 14 219z" />
    <glyph glyph-name="Utilde" unicode="&#x168;" horiz-adv-x="1546" 
d="M629 1651l-109 69q31 90 98.5 145.5t137.5 55.5q54 0 95.5 -19.5t78 -39t76.5 -19.5q73 0 131 105l108 -58q-38 -120 -104 -176.5t-135 -56.5q-46 0 -90.5 19.5t-83.5 39t-72 19.5q-31 0 -67 -19.5t-64 -64.5zM1548 1434l-8 -136q-41 -2 -62 -6.5t-44.5 -21.5t-34 -53.5
t-13.5 -96.5l-26 -512q-10 -172 -59.5 -298t-132.5 -200t-186 -108.5t-230 -34.5q-135 0 -236 33t-163.5 89t-99 138.5t-48.5 173.5t-6 201l26 496q7 132 19 184q-17 -1 -78 -3t-78 -3l8 158h586l-8 -136q-42 -2 -63.5 -6.5t-45 -21.5t-34 -53.5t-13.5 -96.5l-29 -563
q-22 -422 304 -434q172 -6 270.5 104t110.5 334l28 537q7 132 19 184q-16 -1 -77 -3t-77 -3l6 158h475z" />
    <glyph glyph-name="utilde" unicode="&#x169;" horiz-adv-x="1224" 
d="M410 1241l-109 70q31 90 98.5 145t137.5 55q54 0 95.5 -19.5t77.5 -38.5t76 -19q74 0 132 104l108 -57q-38 -120 -104.5 -177t-135.5 -57q-46 0 -90.5 19.5t-83 39t-71.5 19.5q-31 0 -67 -19.5t-64 -64.5zM432 -23q-246 0 -246 316q0 75 27 255t27 255q0 53 -33 53
q-52 0 -98 -162l-111 33q9 48 32.5 100t60.5 103t94 84t122 33q109 0 152 -58t43 -174q0 -85 -26.5 -294.5t-26.5 -268.5q0 -46 13 -66t44 -20q55 0 120 117t108.5 285.5t43.5 308.5q0 97 -6 147h264q6 -57 6 -98q0 -95 -36 -373q-5 -43 -17 -131t-17 -133t-5 -68
q0 -53 28 -53q53 0 99 162l110 -33q-8 -40 -20 -78.5t-34.5 -84t-51 -79t-72 -56t-94.5 -22.5q-75 0 -123.5 43.5t-48.5 143.5q0 16 10 133h-2q-121 -320 -336 -320z" />
    <glyph glyph-name="Umacron" unicode="&#x16a;" horiz-adv-x="1546" 
d="M569 1698l9 190h581l-8 -184zM1548 1434l-8 -136q-41 -2 -62 -6.5t-44.5 -21.5t-34 -53.5t-13.5 -96.5l-26 -512q-10 -172 -59.5 -298t-132.5 -200t-186 -108.5t-230 -34.5q-135 0 -236 33t-163.5 89t-99 138.5t-48.5 173.5t-6 201l26 496q7 132 19 184q-17 -1 -78 -3
t-78 -3l8 158h586l-8 -136q-42 -2 -63.5 -6.5t-45 -21.5t-34 -53.5t-13.5 -96.5l-29 -563q-22 -422 304 -434q172 -6 270.5 104t110.5 334l28 537q7 132 19 184q-16 -1 -77 -3t-77 -3l6 158h475z" />
    <glyph glyph-name="umacron" unicode="&#x16b;" horiz-adv-x="1224" 
d="M350 1288l8 191h582l-8 -185zM432 -23q-246 0 -246 316q0 75 27 255t27 255q0 53 -33 53q-52 0 -98 -162l-111 33q9 48 32.5 100t60.5 103t94 84t122 33q109 0 152 -58t43 -174q0 -85 -26.5 -294.5t-26.5 -268.5q0 -46 13 -66t44 -20q55 0 120 117t108.5 285.5
t43.5 308.5q0 97 -6 147h264q6 -57 6 -98q0 -95 -36 -373q-5 -43 -17 -131t-17 -133t-5 -68q0 -53 28 -53q53 0 99 162l110 -33q-8 -40 -20 -78.5t-34.5 -84t-51 -79t-72 -56t-94.5 -22.5q-75 0 -123.5 43.5t-48.5 143.5q0 16 10 133h-2q-121 -320 -336 -320z" />
    <glyph glyph-name="Ubreve" unicode="&#x16c;" horiz-adv-x="1546" 
d="M879 1612q-114 0 -209 52.5t-135 166.5l122 82q90 -113 234 -113q141 0 250 113l110 -82q-38 -78 -103 -129t-131 -70.5t-138 -19.5zM1548 1434l-8 -136q-41 -2 -62 -6.5t-44.5 -21.5t-34 -53.5t-13.5 -96.5l-26 -512q-10 -172 -59.5 -298t-132.5 -200t-186 -108.5
t-230 -34.5q-135 0 -236 33t-163.5 89t-99 138.5t-48.5 173.5t-6 201l26 496q7 132 19 184q-17 -1 -78 -3t-78 -3l8 158h586l-8 -136q-42 -2 -63.5 -6.5t-45 -21.5t-34 -53.5t-13.5 -96.5l-29 -563q-22 -422 304 -434q172 -6 270.5 104t110.5 334l28 537q7 132 19 184
q-16 -1 -77 -3t-77 -3l6 158h475z" />
    <glyph glyph-name="ubreve" unicode="&#x16d;" horiz-adv-x="1224" 
d="M641 1231q-61 0 -117.5 26.5t-109 90t-82.5 157.5l119 58q85 -150 198 -150q117 0 195 152l112 -49q-103 -285 -315 -285zM432 -23q-246 0 -246 316q0 75 27 255t27 255q0 53 -33 53q-52 0 -98 -162l-111 33q9 48 32.5 100t60.5 103t94 84t122 33q109 0 152 -58t43 -174
q0 -85 -26.5 -294.5t-26.5 -268.5q0 -46 13 -66t44 -20q55 0 120 117t108.5 285.5t43.5 308.5q0 97 -6 147h264q6 -57 6 -98q0 -95 -36 -373q-5 -43 -17 -131t-17 -133t-5 -68q0 -53 28 -53q53 0 99 162l110 -33q-8 -40 -20 -78.5t-34.5 -84t-51 -79t-72 -56t-94.5 -22.5
q-75 0 -123.5 43.5t-48.5 143.5q0 16 10 133h-2q-121 -320 -336 -320z" />
    <glyph glyph-name="Uring" unicode="&#x16e;" horiz-adv-x="1546" 
d="M852 1563q-91 0 -161.5 62t-69.5 165q1 104 77.5 176t175.5 72q95 0 164 -59t68 -167q-3 -110 -81 -179.5t-173 -69.5zM868 1686q28 2 50.5 28.5t25.5 71.5q3 65 -19 98t-57 33q-31 -2 -54 -27t-26 -73q-3 -63 19.5 -97t60.5 -34zM1548 1434l-8 -136q-41 -2 -62 -6.5
t-44.5 -21.5t-34 -53.5t-13.5 -96.5l-26 -512q-10 -172 -59.5 -298t-132.5 -200t-186 -108.5t-230 -34.5q-135 0 -236 33t-163.5 89t-99 138.5t-48.5 173.5t-6 201l26 496q7 132 19 184q-17 -1 -78 -3t-78 -3l8 158h586l-8 -136q-42 -2 -63.5 -6.5t-45 -21.5t-34 -53.5
t-13.5 -96.5l-29 -563q-22 -422 304 -434q172 -6 270.5 104t110.5 334l28 537q7 132 19 184q-16 -1 -77 -3t-77 -3l6 158h475z" />
    <glyph glyph-name="uring" unicode="&#x16f;" horiz-adv-x="1224" 
d="M633 1153q-92 0 -162.5 62t-69.5 165q1 104 78 176t176 72q95 0 164 -58.5t68 -166.5q-3 -110 -81 -180t-173 -70zM649 1276q28 2 50.5 28.5t25.5 71.5q3 65 -19 98t-57 33q-31 -2 -54 -27t-26 -73q-3 -63 19.5 -97t60.5 -34zM432 -23q-246 0 -246 316q0 75 27 255
t27 255q0 53 -33 53q-52 0 -98 -162l-111 33q9 48 32.5 100t60.5 103t94 84t122 33q109 0 152 -58t43 -174q0 -85 -26.5 -294.5t-26.5 -268.5q0 -46 13 -66t44 -20q55 0 120 117t108.5 285.5t43.5 308.5q0 97 -6 147h264q6 -57 6 -98q0 -95 -36 -373q-5 -43 -17 -131
t-17 -133t-5 -68q0 -53 28 -53q53 0 99 162l110 -33q-8 -40 -20 -78.5t-34.5 -84t-51 -79t-72 -56t-94.5 -22.5q-75 0 -123.5 43.5t-48.5 143.5q0 16 10 133h-2q-121 -320 -336 -320z" />
    <glyph glyph-name="Uhungarumlaut" unicode="&#x170;" horiz-adv-x="1546" 
d="M567 1597l-88 84l183 256q29 38 62.5 64t69 33t62.5 -17q31 -26 28.5 -62t-21.5 -69.5t-50 -62.5zM881 1599l-74 97l215 231q56 61 114.5 80t96.5 -20q27 -32 17 -69t-34 -67t-59 -55zM1548 1434l-8 -136q-41 -2 -62 -6.5t-44.5 -21.5t-34 -53.5t-13.5 -96.5l-26 -512
q-10 -172 -59.5 -298t-132.5 -200t-186 -108.5t-230 -34.5q-135 0 -236 33t-163.5 89t-99 138.5t-48.5 173.5t-6 201l26 496q7 132 19 184q-17 -1 -78 -3t-78 -3l8 158h586l-8 -136q-42 -2 -63.5 -6.5t-45 -21.5t-34 -53.5t-13.5 -96.5l-29 -563q-22 -422 304 -434
q172 -6 270.5 104t110.5 334l28 537q7 132 19 184q-16 -1 -77 -3t-77 -3l6 158h475z" />
    <glyph glyph-name="uhungarumlaut" unicode="&#x171;" horiz-adv-x="1224" 
d="M348 1188l-88 84l182 256q29 38 63 64t69 32.5t63 -16.5q31 -26 28.5 -62.5t-21.5 -70t-50 -62.5zM662 1190l-74 96l215 232q56 61 114.5 79.5t96.5 -20.5q27 -32 17 -69t-34 -67t-59 -55zM432 -23q-246 0 -246 316q0 75 27 255t27 255q0 53 -33 53q-52 0 -98 -162
l-111 33q9 48 32.5 100t60.5 103t94 84t122 33q109 0 152 -58t43 -174q0 -85 -26.5 -294.5t-26.5 -268.5q0 -46 13 -66t44 -20q55 0 120 117t108.5 285.5t43.5 308.5q0 97 -6 147h264q6 -57 6 -98q0 -95 -36 -373q-5 -43 -17 -131t-17 -133t-5 -68q0 -53 28 -53q53 0 99 162
l110 -33q-8 -40 -20 -78.5t-34.5 -84t-51 -79t-72 -56t-94.5 -22.5q-75 0 -123.5 43.5t-48.5 143.5q0 16 10 133h-2q-121 -320 -336 -320z" />
    <glyph glyph-name="Uogonek" unicode="&#x172;" horiz-adv-x="1546" 
d="M739 -532q-97 0 -153.5 54.5t-50.5 155.5q9 156 170 291q-123 5 -216 40.5t-150 92t-91 137.5t-44.5 169t-4.5 194l26 496q7 132 19 184q-17 -1 -78 -3t-78 -3l8 158h586l-8 -136q-42 -2 -63.5 -6.5t-45 -21.5t-34 -53.5t-13.5 -96.5l-29 -563q-22 -422 304 -434
q172 -6 270.5 104t110.5 334l28 537q7 132 19 184q-16 -1 -77 -3t-77 -3l6 158h475l-8 -136q-41 -2 -62 -6.5t-44.5 -21.5t-34 -53.5t-13.5 -96.5l-26 -512q-25 -472 -352 -598q-110 -44 -191 -118.5t-82 -155.5q-2 -37 20.5 -59.5t63.5 -22.5q63 0 131 59l68 -88
q-60 -72 -134 -114.5t-145 -42.5z" />
    <glyph glyph-name="uogonek" unicode="&#x173;" horiz-adv-x="1224" 
d="M432 -23q-246 0 -246 316q0 75 27 255t27 255q0 53 -33 53q-52 0 -98 -162l-111 33q9 48 32.5 100t60.5 103t94 84t122 33q109 0 152 -58t43 -174q0 -85 -26.5 -294.5t-26.5 -268.5q0 -46 13 -66t44 -20q55 0 120 117t108.5 285.5t43.5 308.5q0 97 -6 147h264
q6 -57 6 -98q0 -95 -36 -373q-5 -43 -17 -131t-17 -133t-5 -68q0 -53 28 -53q53 0 99 162l110 -33q-9 -51 -26 -100t-51.5 -103.5t-79.5 -83.5l-5 -2q-22 -13 -47 -22q-94 -46 -157 -112.5t-64 -137.5q-2 -37 20.5 -59.5t63.5 -22.5q63 0 131 59l68 -88q-60 -72 -134 -114.5
t-145 -42.5q-97 0 -154 54.5t-51 155.5q4 94 68 182t168 158q-49 49 -49 146q0 16 10 133h-2q-121 -320 -336 -320z" />
    <glyph glyph-name="Ydieresis" unicode="&#x178;" horiz-adv-x="1361" 
d="M604 1632q-52 0 -87.5 42t-35.5 104q0 67 43.5 116.5t100.5 49.5q53 0 86.5 -42.5t33.5 -103.5q0 -67 -41 -116.5t-100 -49.5zM963 1632q-53 0 -88 42t-35 104q0 67 42 116.5t99 49.5q54 0 87.5 -42t33.5 -104q0 -68 -40.5 -117t-98.5 -49zM389 0l8 135q42 2 63.5 6.5
t45 21.5t34 53.5t13.5 96.5l8 179l-346 595q-29 49 -49 105.5t-19 89.5q-22 -1 -100 -6l8 158h598l-6 -136q-94 6 -131.5 -33.5t2.5 -123.5q24 -43 72.5 -128t71.5 -128q3 -7 18 -36.5t27.5 -54t26.5 -56.5t20 -52h4q6 14 20 40.5t38.5 72.5t45.5 88q20 35 60 104.5
t59 104.5q71 132 117 186q-18 -1 -79.5 -3t-78.5 -3l8 158h453l-6 -136q-72 -11 -126 -59t-118 -160l-295 -512l-10 -231q-6 -107 -19 -184q65 6 164 6l-8 -158h-594z" />
    <glyph glyph-name="Zacute" unicode="&#x179;" horiz-adv-x="1234" 
d="M559 1567l-90 84l182 286q35 55 92 71.5t103 -21.5q44 -46 32.5 -104.5t-59.5 -98.5zM51 0l8 154l664 933q86 127 154 203l-353 10q-120 3 -192.5 -70.5t-81.5 -232.5h-135l35 437h1038l-8 -154l-637 -893q-97 -137 -189 -242l373 -10q121 -2 193 70.5t81 232.5h136
l-35 -438h-1051z" />
    <glyph glyph-name="zacute" unicode="&#x17a;" horiz-adv-x="1005" 
d="M412 1157l-90 84l182 287q35 54 92 70.5t102 -21.5q44 -46 33 -104.5t-59 -98.5zM125 -23l-88 82q143 209 399 506q61 71 109 119t109 101.5t89 80.5h-2q-133 -110 -243 -110q-44 0 -115 25.5t-109 25.5q-40 0 -62 -30t-22 -75q0 -32 13 -69l-103 -35q-24 64 -24 160
q0 118 66.5 203.5t185.5 85.5q57 0 184 -31t186 -31q92 0 164 62l88 -82q-51 -65 -152.5 -196t-152.5 -196q-77 -97 -158 -180.5t-123.5 -120.5t-114.5 -97l-18 -15h2q131 104 256 104q54 0 126 -25.5t108 -25.5q37 0 58.5 25t23.5 63q3 38 -17 86l105 35q29 -89 29 -156
q0 -118 -66.5 -203.5t-185.5 -85.5q-57 0 -194.5 31t-196.5 31q-82 0 -154 -62z" />
    <glyph glyph-name="Zdotaccent" unicode="&#x17b;" horiz-adv-x="1234" 
d="M686 1952q58 0 95 -43t34 -105t-43 -104.5t-100 -42.5t-97 43t-34 104t46 104.5t99 43.5zM51 0l8 154l664 933q86 127 154 203l-353 10q-120 3 -192.5 -70.5t-81.5 -232.5h-135l35 437h1038l-8 -154l-637 -893q-97 -137 -189 -242l373 -10q121 -2 193 70.5t81 232.5h136
l-35 -438h-1051z" />
    <glyph glyph-name="zdotaccent" unicode="&#x17c;" horiz-adv-x="1005" 
d="M539 1542q58 0 95 -42.5t34 -104.5t-43.5 -105t-100.5 -43t-97 43.5t-34 104.5t46.5 104t99.5 43zM125 -23l-88 82q143 209 399 506q61 71 109 119t109 101.5t89 80.5h-2q-133 -110 -243 -110q-44 0 -115 25.5t-109 25.5q-40 0 -62 -30t-22 -75q0 -32 13 -69l-103 -35
q-24 64 -24 160q0 118 66.5 203.5t185.5 85.5q57 0 184 -31t186 -31q92 0 164 62l88 -82q-51 -65 -152.5 -196t-152.5 -196q-77 -97 -158 -180.5t-123.5 -120.5t-114.5 -97l-18 -15h2q131 104 256 104q54 0 126 -25.5t108 -25.5q37 0 58.5 25t23.5 63q3 38 -17 86l105 35
q29 -89 29 -156q0 -118 -66.5 -203.5t-185.5 -85.5q-57 0 -194.5 31t-196.5 31q-82 0 -154 -62z" />
    <glyph glyph-name="Zcaron" unicode="&#x17d;" horiz-adv-x="1234" 
d="M688 1577h-41l-383 309l58 84l368 -178l391 178l41 -82zM51 0l8 154l664 933q86 127 154 203l-353 10q-120 3 -192.5 -70.5t-81.5 -232.5h-135l35 437h1038l-8 -154l-637 -893q-97 -137 -189 -242l373 -10q121 -2 193 70.5t81 232.5h136l-35 -438h-1051z" />
    <glyph glyph-name="zcaron" unicode="&#x17e;" horiz-adv-x="1005" 
d="M500 1167l-316 346l86 97l260 -215h2l267 219l73 -92l-352 -355h-20zM125 -23l-88 82q143 209 399 506q61 71 109 119t109 101.5t89 80.5h-2q-133 -110 -243 -110q-44 0 -115 25.5t-109 25.5q-40 0 -62 -30t-22 -75q0 -32 13 -69l-103 -35q-24 64 -24 160
q0 118 66.5 203.5t185.5 85.5q57 0 184 -31t186 -31q92 0 164 62l88 -82q-51 -65 -152.5 -196t-152.5 -196q-77 -97 -158 -180.5t-123.5 -120.5t-114.5 -97l-18 -15h2q131 104 256 104q54 0 126 -25.5t108 -25.5q37 0 58.5 25t23.5 63q3 38 -17 86l105 35q29 -89 29 -156
q0 -118 -66.5 -203.5t-185.5 -85.5q-57 0 -194.5 31t-196.5 31q-82 0 -154 -62z" />
    <glyph glyph-name="longs" unicode="&#x17f;" horiz-adv-x="722" 
d="M674 1556q90 0 141 -41.5t51 -109.5q0 -44 -32.5 -85t-94.5 -40q-47 2 -77 38t-23 89q-8 4 -27 4q-63 0 -90 -98t-37 -289q-43 -714 -82 -1047q-62 -532 -444 -532q-93 0 -144 39.5t-51 107.5q0 45 32.5 87.5t94.5 41.5q47 -2 77.5 -38t23.5 -89q12 -4 26 -4q22 0 40 16
t31 50t21.5 66.5t15.5 84.5t10.5 84.5t8.5 85.5q11 132 36.5 475t31.5 425l-164 -3l19 150h163q59 532 443 532z" />
    <glyph glyph-name="uni018F" unicode="&#x18f;" horiz-adv-x="1556" 
d="M743 -33q-113 0 -208 27.5t-161.5 75t-116.5 112.5t-78.5 139t-42 156t-12 162t16.5 158l1030 6q-4 77 -18 147t-45 140t-76 120t-115.5 81t-158.5 30q-150 -2 -258 -83.5t-142 -233.5h-135l23 448h157l-10 -86q80 46 207 73t217 27q156 0 278 -44t198 -116.5
t123.5 -171.5t64 -202t10.5 -215q-7 -144 -57.5 -276t-140.5 -239t-232.5 -171t-317.5 -64zM797 106q71 2 130 35t99.5 85t70.5 122.5t46.5 143t23.5 151.5h-725q-5 -151 31.5 -271.5t120 -194.5t203.5 -71z" />
    <glyph glyph-name="florin" unicode="&#x192;" horiz-adv-x="722" 
d="M674 1556q90 0 141 -41.5t51 -109.5q0 -44 -32.5 -85t-94.5 -40q-47 2 -77 38t-23 89q-8 4 -27 4q-22 0 -40 -16t-31 -50t-21.5 -66.5t-15.5 -84.5t-10.5 -84.5t-8.5 -85.5h265l-15 -141l-258 -4q-33 -553 -74 -902q-62 -532 -444 -532q-93 0 -144 39.5t-51 107.5
q0 45 32.5 87.5t94.5 41.5q47 -2 77.5 -38t23.5 -89q12 -4 26 -4q22 0 40 16t31 50t21.5 66.5t15.5 84.5t10.5 84.5t8.5 85.5q11 132 36.5 475t31.5 425l-164 -3l19 150h163q59 532 443 532z" />
    <glyph glyph-name="Ohorn" unicode="&#x1a0;" horiz-adv-x="1560" 
d="M831 1466q132 0 244 -39q102 18 127 154h213q-35 -173 -178 -240q138 -104 202 -273t56 -351q-6 -104 -38 -208t-94.5 -202t-147.5 -173.5t-206 -121t-261 -45.5q-151 0 -270.5 44t-195 117t-124 171.5t-65.5 202.5t-11 215q5 105 37 210t94.5 202.5t148 172t207.5 119.5
t262 45zM797 1327q-81 -2 -148 -39.5t-111 -96.5t-75.5 -137t-46.5 -155.5t-19 -157.5q-4 -81 4 -164.5t34.5 -169.5t69 -152t112.5 -108t159 -41q82 1 149.5 37t112 93.5t76.5 134.5t47 154t19 157q9 192 -27 335.5t-127 228t-229 81.5z" />
    <glyph glyph-name="ohorn" unicode="&#x1a1;" horiz-adv-x="1054" 
d="M571 1047q80 0 156 -29q56 8 87 51.5t42 101.5h213q-35 -185 -201 -249q115 -121 115 -332q0 -165 -61 -303.5t-180 -224t-273 -85.5q-133 0 -228 63.5t-139.5 167t-44.5 234.5q0 165 62 302t180.5 220t271.5 83zM541 911q-91 1 -148 -118t-57 -293q0 -68 8 -131
t25.5 -123t51.5 -96.5t81 -36.5q50 0 89.5 40.5t61.5 105.5t33.5 134t13.5 137q2 63 -4 123.5t-22 121.5t-50 98t-83 38z" />
    <glyph glyph-name="Uhorn" unicode="&#x1af;" horiz-adv-x="1546" 
d="M1360 608q-10 -172 -59.5 -298t-132.5 -200t-186 -108.5t-230 -34.5q-135 0 -236 33t-163.5 89t-99 138.5t-48.5 173.5t-6 201l26 496q7 132 19 184q-17 -1 -78 -3t-78 -3l8 158h586l-8 -136q-42 -2 -63.5 -6.5t-45 -21.5t-34 -53.5t-13.5 -96.5l-29 -563
q-22 -422 304 -434q172 -6 270.5 104t110.5 334l28 537q7 132 19 184q-16 -1 -77 -3t-77 -3l6 158h324q55 8 85.5 51.5t41.5 101.5h213q-52 -257 -340 -278z" />
    <glyph glyph-name="uhorn" unicode="&#x1b0;" horiz-adv-x="1224" 
d="M432 -23q-246 0 -246 316q0 75 27 255t27 255q0 53 -33 53q-52 0 -98 -162l-111 33q9 48 32.5 100t60.5 103t94 84t122 33q109 0 152 -58t43 -174q0 -85 -26.5 -294.5t-26.5 -268.5q0 -46 13 -66t44 -20q55 0 120 117t108.5 285.5t43.5 308.5q0 97 -6 147h213
q80 29 105 147h213q-20 -106 -86.5 -173.5t-174.5 -92.5q-2 -76 -36 -352q-5 -43 -17 -131t-17 -133t-5 -68q0 -53 28 -53q53 0 99 162l110 -33q-8 -40 -20 -78.5t-34.5 -84t-51 -79t-72 -56t-94.5 -22.5q-75 0 -123.5 43.5t-48.5 143.5q0 16 10 133h-2q-121 -320 -336 -320
z" />
    <glyph glyph-name="uni01B7" unicode="&#x1b7;" horiz-adv-x="1292" 
d="M659 -33q-189 0 -357 83t-275 245l104 92q96 -121 206.5 -187.5t256.5 -66.5q48 0 91 7t89 26t81 49t61 81t34 118q10 88 -13.5 158t-92 115.5t-176.5 45.5h-138l7 72l251 282q124 141 213 203l-389 10q-118 3 -186 -69.5t-78 -233.5h-135l35 437h1038l-16 -154
l-406 -428q111 -1 196.5 -41.5t133 -105.5t68 -143t10.5 -161q-13 -104 -68.5 -188t-140 -137t-188 -81t-216.5 -28z" />
    <glyph glyph-name="uni01CD" unicode="&#x1cd;" horiz-adv-x="1366" 
d="M721 1577h-41l-383 309l57 84l369 -178l391 178l41 -82zM786 1470l379 -1116q43 -149 47 -202l117 6l-6 -158h-549l8 135q42 0 66.5 13.5t32 39t4 56t-16.5 71.5l-34 113l-449 -8l-39 -96q-41 -109 -74 -166l152 6l-10 -164h-439l9 141q39 0 69.5 16.5t54 50.5t40.5 68
t39 84l6 15l456 1095h137zM645 1110q-22 -85 -96 -270l-105 -267h344l-79 256q-53 181 -64 281z" />
    <glyph glyph-name="uni01CE" unicode="&#x1ce;" horiz-adv-x="1124" 
d="M635 1167l-316 346l87 97l260 -215h2l266 219l74 -92l-353 -355h-20zM670 1047q115 0 295 -43q-3 -20 -20.5 -140.5t-26.5 -187t-22 -169t-19.5 -172t-6.5 -108.5q0 -59 29 -59q59 0 105 162l110 -33q-8 -39 -21 -78.5t-37.5 -84.5t-55 -78.5t-75.5 -56t-96 -22.5
q-163 0 -163 187q0 72 8 119h-2q-70 -167 -157.5 -236.5t-190.5 -69.5q-119 0 -196 95.5t-77 277.5q0 141 42 267t119.5 222t196 152t261.5 56zM594 911q-120 0 -191 -148t-71 -423q0 -85 20.5 -132.5t57.5 -47.5q54 0 102.5 71.5t82 183.5t55.5 238.5t28 245.5
q-42 12 -84 12z" />
    <glyph glyph-name="uni01D3" unicode="&#x1d3;" horiz-adv-x="1546" 
d="M877 1577h-41l-383 309l57 84l369 -178l391 178l41 -82zM1548 1434l-8 -136q-41 -2 -62 -6.5t-44.5 -21.5t-34 -53.5t-13.5 -96.5l-26 -512q-10 -172 -59.5 -298t-132.5 -200t-186 -108.5t-230 -34.5q-135 0 -236 33t-163.5 89t-99 138.5t-48.5 173.5t-6 201l26 496
q7 132 19 184q-17 -1 -78 -3t-78 -3l8 158h586l-8 -136q-42 -2 -63.5 -6.5t-45 -21.5t-34 -53.5t-13.5 -96.5l-29 -563q-22 -422 304 -434q172 -6 270.5 104t110.5 334l28 537q7 132 19 184q-16 -1 -77 -3t-77 -3l6 158h475z" />
    <glyph glyph-name="uni01D4" unicode="&#x1d4;" horiz-adv-x="1224" 
d="M616 1167l-315 346l86 97l260 -215h2l266 219l74 -92l-352 -355h-21zM432 -23q-246 0 -246 316q0 75 27 255t27 255q0 53 -33 53q-52 0 -98 -162l-111 33q9 48 32.5 100t60.5 103t94 84t122 33q109 0 152 -58t43 -174q0 -85 -26.5 -294.5t-26.5 -268.5q0 -46 13 -66
t44 -20q55 0 120 117t108.5 285.5t43.5 308.5q0 97 -6 147h264q6 -57 6 -98q0 -95 -36 -373q-5 -43 -17 -131t-17 -133t-5 -68q0 -53 28 -53q53 0 99 162l110 -33q-8 -40 -20 -78.5t-34.5 -84t-51 -79t-72 -56t-94.5 -22.5q-75 0 -123.5 43.5t-48.5 143.5q0 16 10 133h-2
q-121 -320 -336 -320z" />
    <glyph glyph-name="uni01E4" unicode="&#x1e4;" horiz-adv-x="1548" 
d="M739 -33q-163 0 -293 56.5t-212 155t-122.5 231.5t-31.5 286q5 114 38.5 223.5t97 208.5t150 174t206.5 119.5t259 44.5q87 0 198.5 -27t184.5 -73v86h158l-24 -477h-136q-18 166 -115.5 254t-244.5 90q-84 0 -156 -32t-124 -87.5t-90.5 -130t-59 -158.5t-25.5 -174
q-9 -178 33 -314t137 -215t232 -79q67 0 155 14.5t142 40.5l10 191v6l-193 -2l5 88h194q9 86 10 92q-25 -2 -84 -3.5t-69 -2.5l8 158h539l-7 -136q-64 -3 -95 -23.5t-42 -84.5h170l-4 -80l-174 -2l-16 -315h-52q-81 0 -221 -45q-65 -19 -102.5 -28.5t-104 -19.5t-129.5 -10z
" />
    <glyph glyph-name="uni01E5" unicode="&#x1e5;" horiz-adv-x="1064" 
d="M373 -555q-155 0 -244.5 55t-89.5 156q0 53 36 101t101 48q56 0 92.5 -35.5t36.5 -93.5q0 -34 -12 -61q8 -14 40 -24.5t58 -10.5q82 0 128 48t71 139l-232 -3l4 109h248q4 17 8 59q25 200 70 351h-2q-72 -169 -158.5 -237.5t-189.5 -68.5q-121 0 -202 96t-81 277
q0 116 21.5 218t68 190.5t114.5 152t168 100t222 36.5q137 0 314 -43q-26 -509 -66 -922q-9 -115 -33 -209h123l-4 -100l-149 -2q-118 -326 -461 -326zM422 160q53 0 102 72t83.5 183t57.5 238.5t29 245.5q-32 12 -94 12q-138 -1 -202 -145.5t-64 -425.5q0 -83 25 -131.5
t63 -48.5z" />
    <glyph glyph-name="Gcaron" unicode="&#x1e6;" horiz-adv-x="1548" 
d="M887 1577h-41l-383 309l57 84l369 -178l391 178l41 -82zM739 -33q-163 0 -293 56.5t-212 155t-122.5 231.5t-31.5 286q5 114 38.5 223.5t97 208.5t150 174t206.5 119.5t259 44.5q87 0 198.5 -27t184.5 -73v86h158l-24 -477h-136q-18 166 -115.5 254t-244.5 90
q-84 0 -156 -32t-124 -87.5t-90.5 -130t-59 -158.5t-25.5 -174q-9 -178 33 -314t137 -215t232 -79q67 0 155 14.5t142 40.5l10 191q7 132 16 184q-25 -2 -84 -3.5t-69 -2.5l8 158h539l-7 -136q-39 -2 -61 -8t-42 -24t-29.5 -53t-12.5 -93l-16 -327h-52q-81 0 -221 -45
q-65 -19 -102.5 -28.5t-104 -19.5t-129.5 -10z" />
    <glyph glyph-name="gcaron" unicode="&#x1e7;" horiz-adv-x="1064" 
d="M588 1167l-316 346l86 97l260 -215h3l266 219l74 -92l-353 -355h-20zM373 -555q-155 0 -244.5 55t-89.5 156q0 53 36 101t101 48q56 0 92.5 -35.5t36.5 -93.5q0 -34 -12 -61q8 -14 40 -24.5t58 -10.5q48 0 84 18t59.5 46.5t40 76.5t26 95.5t17.5 115.5q25 200 70 351h-2
q-72 -169 -158.5 -237.5t-189.5 -68.5q-121 0 -202 96t-81 277q0 116 21.5 218t68 190.5t114.5 152t168 100t222 36.5q137 0 314 -43q-26 -509 -66 -922q-11 -120 -34 -215.5t-64 -175.5t-99 -133.5t-140.5 -83t-186.5 -29.5zM422 160q53 0 102 72t83.5 183t57.5 238.5
t29 245.5q-32 12 -94 12q-138 -1 -202 -145.5t-64 -425.5q0 -83 25 -131.5t63 -48.5z" />
    <glyph glyph-name="uni01E8" unicode="&#x1e8;" horiz-adv-x="1456" 
d="M817 1577h-41l-383 309l58 84l368 -178l391 178l41 -82zM72 0l8 135q41 2 62 6.5t44 21.5t33.5 53.5t13.5 96.5l41 785q6 107 19 184q-17 -1 -77.5 -3t-76.5 -3l8 158h582l-6 -136q-42 -2 -63.5 -6.5t-45 -21.5t-34 -53.5t-13.5 -96.5l-16 -311h149l170 268
q112 174 152 207q-25 -2 -75 -5t-54 -3l6 158h502l-6 -136q-41 -2 -74 -9.5t-76.5 -27.5t-88.5 -63t-89 -108l-213 -316q77 -53 121 -121l192 -297q144 -216 258 -221l-8 -135h-311q-24 1 -86 71.5t-105 137.5l-186 295q-79 114 -113 141h-73l-17 -309q-7 -132 -16 -184
q64 6 154 6l-9 -158h-583z" />
    <glyph glyph-name="uni01E9" unicode="&#x1e9;" horiz-adv-x="1060" 
d="M412 1587l-316 346l86 97l260 -215h2l267 219l73 -92l-352 -355h-20zM758 -23q-91 0 -148 57.5t-112 207.5q-4 10 -11 30.5t-10.5 30t-9.5 25t-10.5 24t-10.5 18.5t-12 16.5t-12 10.5q-18 14 -37 9q-25 -122 -25 -269q0 -72 7 -137h-267q-6 57 -6 100q0 96 23 420.5
t61 624.5q10 85 31 190q-14 -1 -72.5 -3t-75.5 -3l9 156q129 0 207 18.5t106 42.5h111q-7 -49 -20.5 -144t-24.5 -177t-19 -158q-8 -93 -41 -266h2q63 126 151.5 186t176.5 60q111 0 166 -57.5t55 -160.5q0 -50 -20.5 -103t-63 -107t-122 -98t-183.5 -66v-2
q77 -3 116.5 -38.5t61.5 -90.5q19 -44 27.5 -61.5t22 -41.5t24.5 -32.5t24 -8.5q46 0 88 142l111 -35q-17 -79 -50.5 -146.5t-91 -115.5t-126.5 -48zM399 537q149 0 222 74t73 210q0 90 -53 90q-59 0 -134.5 -103.5t-107.5 -270.5z" />
    <glyph glyph-name="uni01EE" unicode="&#x1ee;" horiz-adv-x="1292" 
d="M709 1577h-41l-383 309l57 84l369 -178l391 178l41 -82zM659 -33q-189 0 -357 83t-275 245l104 92q96 -121 206.5 -187.5t256.5 -66.5q48 0 91 7t89 26t81 49t61 81t34 118q10 88 -13.5 158t-92 115.5t-176.5 45.5h-138l7 72l251 282q124 141 213 203l-389 10
q-118 3 -186 -69.5t-78 -233.5h-135l35 437h1038l-16 -154l-406 -428q111 -1 196.5 -41.5t133 -105.5t68 -143t10.5 -161q-13 -104 -68.5 -188t-140 -137t-188 -81t-216.5 -28z" />
    <glyph glyph-name="uni01EF" unicode="&#x1ef;" horiz-adv-x="978" 
d="M549 1167l-316 346l86 97l261 -215h2l266 219l74 -92l-353 -355h-20zM424 -555q-97 0 -175.5 27t-126 71t-71.5 96.5t-20 106.5q5 63 46.5 109t102.5 47q71 1 101.5 -41t23.5 -90q-6 -43 -45 -88q42 -103 131 -103q118 0 181.5 94t66.5 254q4 334 -225 334q-27 0 -50.5 1
t-23.5 -1l6 144q64 77 135 159q61 71 109 119t109 101.5t89 80.5h-2q-133 -110 -243 -110q-44 0 -115 25.5t-109 25.5q-40 0 -61.5 -30t-21.5 -75q0 -34 12 -69l-103 -35q-24 64 -24 160q0 118 66.5 203.5t185.5 85.5q57 0 184 -31t186 -31q92 0 164 62l88 -82l-305 -392
q-88 -112 -182 -206q103 1 184 -35t131 -97.5t75.5 -139t23.5 -165.5q-2 -133 -64.5 -243t-176.5 -176t-257 -66z" />
    <glyph glyph-name="Oslashacute" unicode="&#x1fe;" horiz-adv-x="1558" 
d="M766 1577l-70 98l250 242q30 29 67 44t74 8.5t58 -38.5q24 -35 17.5 -70t-30 -63t-59.5 -49zM326 -209l-148 103l133 208q-128 104 -183.5 268t-45.5 347q5 105 37 210t94.5 202.5t148 172t207.5 119.5t262 45q177 0 306 -63l129 201l155 -101l-131 -207
q111 -107 162 -262t43 -317q-6 -104 -38 -208t-94.5 -202t-147.5 -173.5t-206 -121t-261 -45.5q-161 0 -279 47zM461 338l573 901q-91 91 -237 88q-81 -2 -148 -39.5t-111 -96.5t-75.5 -137t-46.5 -155.5t-19 -157.5q-14 -225 64 -403zM776 106q82 1 149.5 37t112 93.5
t76.5 134.5t47 154t19 157q12 221 -41 379l-566 -885q86 -70 203 -70z" />
    <glyph glyph-name="oslashacute" unicode="&#x1ff;" horiz-adv-x="1054" 
d="M457 1157l-90 84l182 287q35 54 92 70.5t102 -21.5q44 -46 33 -104.5t-59 -98.5zM891 1167l131 -100l-129 -174q90 -123 90 -303q0 -165 -61 -303.5t-180 -224t-273 -85.5q-116 0 -201 48l-133 -183l-108 90l131 185q-101 125 -101 325q0 165 62 302t180.5 220t271.5 83
q113 0 199 -50zM541 911q-101 0 -166.5 -119.5t-65.5 -291.5q0 -72 17 -162l342 491q-49 82 -127 82zM719 668l-340 -473q52 -82 127 -82q55 0 99 40.5t69 105.5t38 134t15 137q0 75 -8 138z" />
    <glyph glyph-name="uni0218" unicode="&#x218;" horiz-adv-x="1228" 
d="M596 -33q-83 0 -178 26.5t-170 74.5v-86h-158l25 479h135q18 -167 115.5 -256.5t244.5 -89.5q107 0 180 56.5t76 135.5q3 49 -17.5 87.5t-76 73t-86.5 49t-112 47.5l-21 9q-84 34 -147.5 67t-122.5 78t-95.5 95t-56.5 117t-16 145q3 54 20.5 106t55.5 104.5t93 92
t140.5 64t189.5 24.5q88 0 182.5 -25.5t155.5 -72.5v84h158l-25 -477h-135q-19 169 -106 257.5t-230 86.5q-90 0 -158 -50.5t-71 -125.5q-4 -92 68.5 -155t246.5 -134q51 -21 89 -38.5t88.5 -45t86.5 -54t73.5 -64t60.5 -76.5t36 -89.5t11 -105.5q-11 -184 -162 -299
t-387 -115zM516 -602l-106 84q58 88 83.5 151t27 118.5t-6.5 125.5l221 49q37 -70 31 -147q-4 -85 -75 -187.5t-175 -193.5z" />
    <glyph glyph-name="uni0219" unicode="&#x219;" horiz-adv-x="913" 
d="M410 -23q-153 0 -260 66t-107 172q0 62 37.5 102.5t93.5 40.5q55 0 90 -37t35 -90q0 -31 -12 -61q10 -21 53 -39t76 -18q83 0 122.5 36t39.5 91q0 12 -3 24t-11.5 23.5t-15.5 20.5t-22 21t-24.5 19t-30 19.5t-31 18.5l-35 20t-34.5 20q-79 45 -127.5 78t-86.5 72
t-53.5 81t-15.5 95q0 116 106 205.5t283 89.5q84 0 161.5 -26.5t130 -79.5t52.5 -120q0 -56 -35.5 -95.5t-93.5 -39.5q-54 0 -88.5 37t-34.5 88q0 30 13 59q-16 20 -48.5 30.5t-64.5 10.5q-48 0 -92.5 -29.5t-44.5 -76.5q0 -43 33 -73.5t157 -102.5q130 -75 176 -111
q129 -100 129 -225q0 -137 -119.5 -226.5t-297.5 -89.5zM295 -602l-107 84q58 88 83.5 151t27.5 119t-6 125l221 49q37 -70 31 -147q-4 -85 -75 -187.5t-175 -193.5z" />
    <glyph glyph-name="uni021A" unicode="&#x21a;" horiz-adv-x="1327" 
d="M1331 1434l-12 -463h-135q7 163 -55 245t-181 80h-98l-49 -960q-6 -107 -19 -184q64 6 164 6l-8 -158h-594l8 135q42 2 63.5 6.5t45 21.5t34 53.5t13.5 96.5l51 981h-94q-121 -2 -192 -82t-78 -241h-136l35 463h1237zM537 -602l-107 84q58 88 83.5 151t27.5 119t-6 125
l221 49q36 -68 30 -147q-4 -86 -74.5 -188t-174.5 -193z" />
    <glyph glyph-name="uni021B" unicode="&#x21b;" horiz-adv-x="808" 
d="M518 1333l-41 -309h256l-12 -141l-256 -4q-53 -418 -53 -570q0 -135 98 -135q15 0 34 4.5t46 17t55 40t49 67.5l105 -65q-68 -128 -167.5 -194.5t-217.5 -66.5q-81 0 -135.5 27t-81 76.5t-36 103.5t-7.5 125q12 267 47 568l-164 -3l18 150q147 0 221 75.5t105 233.5h137z
M283 -602l-107 84q58 88 83.5 151t27.5 119t-6 125l221 49q36 -68 30 -147q-4 -86 -74.5 -188t-174.5 -193z" />
    <glyph glyph-name="uni021E" unicode="&#x21e;" horiz-adv-x="1642" 
d="M891 1577h-41l-383 309l57 84l369 -178l391 178l41 -82zM1585 1434l-6 -136q-42 -2 -63.5 -6.5t-45 -21.5t-34 -53.5t-13.5 -96.5l-41 -784q-6 -115 -18 -184q68 6 154 6l-9 -158h-581l6 135q42 2 63.5 6.5t45 21.5t34 53.5t13.5 96.5l18 332l-565 -6l-17 -303
q-7 -132 -16 -184q64 6 154 6l-9 -158h-583l8 135q41 2 62 6.5t44 21.5t33.5 53.5t13.5 96.5l41 785q6 107 19 184q-17 -1 -77.5 -3t-76.5 -3l8 158h582l-6 -136q-42 -2 -63.5 -6.5t-45 -21.5t-34 -53.5t-13.5 -96.5l-16 -319h563l16 297q7 132 19 184q-17 -1 -78 -3t-78 -3
l8 158h584z" />
    <glyph glyph-name="uni021F" unicode="&#x21f;" horiz-adv-x="1175" 
d="M330 1587l-316 346l86 97l260 -215h2l267 219l73 -92l-352 -355h-20zM854 -23q-109 0 -152 58t-43 174q0 85 26 294.5t26 268.5q0 46 -13.5 66t-44.5 20q-60 0 -128 -117t-113 -285.5t-45 -308.5q0 -48 6 -147h-262q-7 66 -7 98q0 235 20 539t44 508q9 109 27 190
l-144 -6l8 156q130 0 208 18.5t104 42.5h110q-42 -354 -51 -418q-19 -213 -57 -391h2q34 88 77 151.5t90 96.5t91.5 47.5t91.5 14.5q127 0 188.5 -83t61.5 -233q0 -75 -25.5 -255t-25.5 -255q0 -53 30 -53q53 0 99 162l110 -33q-9 -48 -32.5 -100t-60.5 -103t-94 -84
t-122 -33z" />
    <glyph glyph-name="uni0237" unicode="&#x237;" horiz-adv-x="661" 
d="M322 1047q195 0 198 -238q3 -237 -22 -535q-8 -86 -18.5 -159.5t-30 -161.5t-45 -157.5t-65.5 -137t-89.5 -113t-118.5 -73t-151 -27.5q-93 0 -147 42t-54 110q0 19 7 40.5t21 42.5t40.5 34t60.5 12q47 -2 79 -42t21 -100q8 -4 31 -4q33 0 61.5 41t49 114.5t35.5 145
t26 166t15.5 143t9.5 107.5q20 300 20 506q0 53 -31 53q-52 0 -98 -162l-113 33q8 38 23.5 78.5t42.5 84.5t60.5 78t81 56.5t100.5 22.5z" />
    <glyph glyph-name="uni0259" unicode="&#x259;" horiz-adv-x="985" 
d="M397 -23q-147 0 -247.5 73t-100.5 202q0 60 24.5 110.5t70 86t99 62.5t124.5 46.5t131.5 31t134.5 21.5q-8 129 -63 188.5t-136 59.5q-57 0 -120 -23t-101 -71l-115 55q135 228 396 228q198 0 309.5 -117.5t111.5 -329.5q0 -83 -17 -166.5t-56.5 -166.5t-97 -147
t-147.5 -103.5t-200 -39.5zM289 248q1 -67 41 -101t90 -34q181 0 211 362q-189 -29 -266.5 -81.5t-75.5 -145.5z" />
    <glyph glyph-name="uni0292" unicode="&#x292;" horiz-adv-x="978" 
d="M424 -555q-97 0 -175.5 27t-126 71t-71.5 96.5t-20 106.5q5 63 46.5 109t102.5 47q71 1 101.5 -41t23.5 -90q-6 -43 -45 -88q42 -103 131 -103q118 0 181.5 94t66.5 254q4 334 -225 334q-27 0 -50.5 1t-23.5 -1l6 144q64 77 135 159q61 71 109 119t109 101.5t89 80.5h-2
q-133 -110 -243 -110q-44 0 -115 25.5t-109 25.5q-40 0 -61.5 -30t-21.5 -75q0 -34 12 -69l-103 -35q-24 64 -24 160q0 118 66.5 203.5t185.5 85.5q57 0 184 -31t186 -31q92 0 164 62l88 -82l-305 -392q-88 -112 -182 -206q103 1 184 -35t131 -97.5t75.5 -139t23.5 -165.5
q-2 -133 -64.5 -243t-176.5 -176t-257 -66z" />
    <glyph glyph-name="uni02BB" unicode="&#x2bb;" horiz-adv-x="512" 
d="M317 1116q-91 -1 -136 58.5t-40 156.5q10 213 211 449l76 -58q-43 -53 -87.5 -148t-45.5 -175q20 6 43 6q60 0 99 -34t36 -101q-3 -63 -47.5 -108.5t-108.5 -45.5z" />
    <glyph glyph-name="uni02BC" unicode="&#x2bc;" horiz-adv-x="284" 
d="M150 1511q91 1 136 -58.5t40 -156.5q-10 -212 -211 -448l-76 57q43 53 87.5 148.5t45.5 175.5q-20 -6 -43 -6q-60 0 -99 34t-36 101q3 63 47 108t109 45z" />
    <glyph glyph-name="circumflex" unicode="&#x2c6;" horiz-adv-x="878" 
d="M698 1161l-256 213h-2l-278 -205l-72 97l367 338h20l311 -349z" />
    <glyph glyph-name="caron" unicode="&#x2c7;" horiz-adv-x="872" 
d="M408 1167l-316 346l86 97l260 -215h2l267 219l73 -92l-352 -355h-20z" />
    <glyph glyph-name="uni02C9" unicode="&#x2c9;" horiz-adv-x="774" 
d="M68 1214l8 191h581l-8 -184z" />
    <glyph glyph-name="breve" unicode="&#x2d8;" horiz-adv-x="808" 
d="M401 1231q-61 0 -117.5 26.5t-109 90t-82.5 157.5l119 58q85 -150 199 -150q116 0 194 152l113 -49q-103 -285 -316 -285z" />
    <glyph glyph-name="dotaccent" unicode="&#x2d9;" horiz-adv-x="466" 
d="M242 1542q58 0 95 -42.5t34 -104.5t-43.5 -105t-100.5 -43t-97 43.5t-34 104.5t46.5 104t99.5 43z" />
    <glyph glyph-name="ring" unicode="&#x2da;" horiz-adv-x="673" 
d="M326 1153q-92 0 -162.5 62t-69.5 165q1 104 78 176t176 72q95 0 164 -58.5t68 -166.5q-3 -110 -81 -180t-173 -70zM342 1276q28 2 50.5 28.5t25.5 71.5q3 65 -19 98t-57 33q-31 -2 -54 -27t-26 -73q-3 -63 19.5 -97t60.5 -34z" />
    <glyph glyph-name="ogonek" unicode="&#x2db;" horiz-adv-x="669" 
d="M299 -543q-97 0 -154 55t-51 156q4 74 45.5 146.5t109 131t151 105t175.5 76.5l-8 -127q-110 -44 -190.5 -118.5t-81.5 -155.5q-2 -37 20.5 -59.5t63.5 -22.5q63 0 131 59l68 -88q-60 -72 -134 -115t-145 -43z" />
    <glyph glyph-name="tilde" unicode="&#x2dc;" horiz-adv-x="909" 
d="M201 1241l-109 70q31 90 98.5 145t137.5 55q43 0 79 -12t57 -26.5t51.5 -26.5t62.5 -12q73 0 131 104l108 -57q-38 -120 -104 -177t-135 -57q-46 0 -90.5 19.5t-83.5 39t-72 19.5q-31 0 -67 -19.5t-64 -64.5z" />
    <glyph glyph-name="hungarumlaut" unicode="&#x2dd;" horiz-adv-x="958" 
d="M180 1188l-88 84l182 256q29 38 63 64t69 32.5t63 -16.5q31 -26 28.5 -62.5t-21.5 -70t-50 -62.5zM494 1190l-74 96l215 232q56 61 114.5 79.5t96.5 -20.5q27 -32 17 -69t-34 -67t-59 -55z" />
    <glyph glyph-name="gravecomb" unicode="&#x300;" 
d="M377 1157l-234 219q-27 28 -41 62.5t-8 72.5t37 66q54 36 103.5 20.5t80.5 -69.5l160 -287z" />
    <glyph glyph-name="acutecomb" unicode="&#x301;" 
d="M182 1157l-90 84l182 287q35 54 92.5 70.5t102.5 -21.5q44 -46 32.5 -104.5t-59.5 -98.5z" />
    <glyph glyph-name="uni0302" unicode="&#x302;" 
d="M725 1147l-250 123l-268 -121l-57 94l325 217h27l295 -207z" />
    <glyph glyph-name="tildecomb" unicode="&#x303;" 
d="M256 1241l-109 70q31 90 98.5 145t137.5 55q43 0 79 -12t57 -26.5t51.5 -26.5t62.5 -12q73 0 131 104l108 -57q-38 -120 -104 -177t-135 -57q-46 0 -90.5 19.5t-83.5 39t-72 19.5q-31 0 -67 -19.5t-64 -64.5z" />
    <glyph glyph-name="uni0304" unicode="&#x304;" 
d="M92 1288l8 191h582l-8 -185z" />
    <glyph glyph-name="uni0306" unicode="&#x306;" 
d="M352 1145q-60 0 -116 21.5t-108.5 74t-82.5 129.5l100 49q96 -125 215 -125q120 0 211 125l95 -41q-102 -233 -314 -233z" />
    <glyph glyph-name="uni0307" unicode="&#x307;" 
d="M242 1542q58 0 95 -42.5t34 -104.5t-43.5 -105t-100.5 -43t-97 43.5t-34 104.5t46.5 104t99.5 43z" />
    <glyph glyph-name="uni0308" unicode="&#x308;" 
d="M594 1229q-54 0 -89.5 40.5t-35.5 102.5q0 67 43 116.5t100 49.5q54 0 88.5 -41.5t34.5 -101.5q0 -70 -41 -118t-100 -48zM238 1229q-54 0 -89.5 40.5t-35.5 102.5q0 67 43 116.5t100 49.5q54 0 88.5 -41.5t34.5 -101.5q0 -69 -41 -117.5t-100 -48.5z" />
    <glyph glyph-name="hookabovecomb" unicode="&#x309;" 
d="M377 1145q1 26 12.5 44.5t39 42t34.5 30.5q37 41 39 79q3 41 -25.5 63.5t-73.5 22.5q-52 0 -81 -18.5t-33 -36.5q29 0 44 -16t13 -39q-2 -26 -21.5 -45t-52.5 -19q-47 0 -76 31t-26 74q5 75 71 133.5t169 58.5q121 0 185.5 -51t59.5 -139q-1 -15 -4 -28.5t-9.5 -25.5
t-11 -19.5t-16 -18t-16 -14.5t-18.5 -15t-17 -14q-59 -46 -59 -80h-127z" />
    <glyph glyph-name="uni030A" unicode="&#x30a;" 
d="M326 1153q-92 0 -162.5 62t-69.5 165q1 104 78 176t176 72q95 0 164 -58.5t68 -166.5q-3 -110 -81 -180t-173 -70zM342 1276q28 2 50.5 28.5t25.5 71.5q3 65 -19 98t-57 33q-31 -2 -54 -27t-26 -73q-3 -63 19.5 -97t60.5 -34z" />
    <glyph glyph-name="uni030B" unicode="&#x30b;" 
d="M180 1188l-88 84l182 256q29 38 63 64t69 32.5t63 -16.5q31 -26 28.5 -62.5t-21.5 -70t-50 -62.5zM494 1190l-74 96l215 232q56 61 114.5 79.5t96.5 -20.5q27 -32 17 -69t-34 -67t-59 -55z" />
    <glyph glyph-name="uni030C" unicode="&#x30c;" 
d="M408 1167l-316 346l86 97l260 -215h2l267 219l73 -92l-352 -355h-20z" />
    <glyph glyph-name="uni031B" unicode="&#x31b;" 
d="M190 891l25 125q67 0 104 45.5t50 109.5h213q-27 -135 -126 -207.5t-266 -72.5z" />
    <glyph glyph-name="dotbelowcomb" unicode="&#x323;" 
d="M197 -141q52 0 84.5 -38.5t29.5 -94.5t-38 -94t-89 -38q-55 0 -88 38.5t-30 93.5t42 94t89 39z" />
    <glyph glyph-name="uni0326" unicode="&#x326;" 
d="M178 -602l-106 84q58 88 83.5 151t27 118.5t-6.5 125.5l221 49q37 -70 31 -147q-4 -85 -75 -187.5t-175 -193.5z" />
    <glyph glyph-name="uni0327" unicode="&#x327;" 
d="M102 -530l-10 106q252 46 256 129q2 33 -25 44.5t-60.5 3.5t-55.5 -25l-76 32l78 260h156l-68 -161q27 13 70.5 22.5t72.5 9.5q67 -2 106.5 -37.5t35.5 -105.5q-3 -54 -39.5 -99.5t-87 -74t-120.5 -51.5t-122.5 -34t-110.5 -19z" />
    <glyph glyph-name="uni0328" unicode="&#x328;" 
d="M299 -543q-97 0 -154 55t-51 156q4 74 45.5 146.5t109 131t151 105t175.5 76.5l-8 -127q-110 -44 -190.5 -118.5t-81.5 -155.5q-2 -37 20.5 -59.5t63.5 -22.5q63 0 131 59l68 -88q-60 -72 -134 -115t-145 -43z" />
    <glyph glyph-name="uni0335" unicode="&#x335;" 
d="M209 573l8 136h696l-8 -129z" />
    <glyph glyph-name="uni0336" unicode="&#x336;" 
d="M1475 750l-11 -207l-1362 -8l11 215h1362z" />
    <glyph glyph-name="Gamma" unicode="&#x393;" horiz-adv-x="1159" 
d="M72 0l8 135q41 2 62 6.5t44 21.5t33.5 53.5t13.5 96.5l41 785q6 107 19 184q-17 -1 -77.5 -3t-76.5 -3l8 158h1020l-10 -398h-133q3 64 -10.5 113t-36 77.5t-55.5 46t-65.5 23t-68.5 4.5l-73 -2q-37 -1 -59 -6.5t-43.5 -23t-32 -54t-13.5 -94.5l-41 -784
q-7 -132 -16 -184q64 6 180 6l-8 -158h-610z" />
    <glyph glyph-name="uni0394" unicode="&#x394;" horiz-adv-x="1398" 
d="M10 0l635 1466h152l516 -1466h-1303zM1006 143l-349 1006l-415 -1004z" />
    <glyph glyph-name="Pi" unicode="&#x3a0;" horiz-adv-x="1615" 
d="M72 0l8 135q41 2 62 6.5t44 21.5t33.5 53.5t13.5 96.5l41 785q6 107 19 184q-17 -1 -77.5 -3t-76.5 -3l8 158h1414l-9 -136q-28 -1 -43.5 -3t-35 -8t-30 -17.5t-21 -30.5t-16 -48.5t-7.5 -70.5l-41 -784q-6 -107 -19 -184q64 6 154 6l-8 -158h-584l8 135q42 2 63.5 6.5
t45 21.5t34 53.5t13.5 96.5l35 756q9 159 18 211l-422 -6q-59 0 -90 -32.5t-39 -123.5l-41 -782q-7 -132 -16 -184q64 6 154 6l-9 -158h-583z" />
    <glyph glyph-name="uni03A9" unicode="&#x3a9;" horiz-adv-x="1574" 
d="M74 0v328h131q0 -78 31 -105.5t116 -27.5l213 4v2q-206 49 -331 203.5t-125 355.5q0 101 31 201.5t92.5 191.5t146 161t199.5 111t245 41q127 0 234 -34.5t182 -94t127.5 -139t77 -168.5t24.5 -184q0 -139 -63 -272t-176 -232.5t-254 -140.5v-2l219 -4q72 0 110 27.5
t42 105.5h129l-33 -328h-643l12 217q153 32 262 197t109 401q0 102 -19 190t-59 163t-112 118t-169 43q-89 0 -163.5 -36.5t-124.5 -96.5t-84.5 -139t-50 -162t-15.5 -168q0 -108 30.5 -203t79.5 -158.5t108.5 -102.5t119.5 -46l-12 -217h-637z" />
    <glyph glyph-name="uni03BC" unicode="&#x3bc;" horiz-adv-x="1222" 
d="M236 -555q-140 0 -130 213l72 1366h250l-29 -557q-16 -313 142 -313q94 0 168 84l41 786h249l-41 -733q0 -19 -1 -42t11 -43t36 -20q33 0 75 37l66 -86q-44 -57 -115 -102t-141 -45q-133 0 -158 131h-2q-99 -144 -217 -144q-121 0 -188 123h-2q0 -96 14 -205t27.5 -187
t11.5 -107q-3 -66 -37 -111t-102 -45z" />
    <glyph glyph-name="pi" unicode="&#x3c0;" horiz-adv-x="1243" 
d="M152 -33q-58 0 -97.5 37t-36.5 96q3 62 45 96.5t91 34.5q44 0 86 -22q64 78 90 620q-121 -9 -209 -51l-60 94q65 75 150.5 125t179.5 50q100 0 262.5 -17.5t278.5 -17.5q103 0 213 55l69 -92q-30 -41 -82 -83.5t-104 -66.5q-4 -88 -14.5 -273t-14.5 -273q-5 -109 60 -109
q23 0 59 18l58 -90q-112 -131 -252 -131q-62 0 -104.5 22t-60.5 56t-28 76t-7.5 83t1.5 75q3 61 15.5 261t15.5 261q-255 20 -289 24q-24 -523 -82 -665q-37 -95 -96.5 -144t-136.5 -49z" />
    <glyph glyph-name="uni0400" unicode="&#x400;" horiz-adv-x="1275" 
d="M778 1567l-233 219q-27 28 -41 62t-8.5 72.5t36.5 66.5q54 36 104 20t81 -70l160 -286zM1167 1434l-10 -398h-133q3 64 -10.5 113t-36 77.5t-55.5 46t-65.5 23t-68.5 4.5l-73 -2q-37 -1 -59 -6.5t-43.5 -23t-32 -54t-13.5 -94.5l-14 -307h240v178h157l-24 -497h-135
q2 50 -7 85t-25 54t-43.5 29t-53.5 11.5t-64 0.5l-53 -2l-19 -336q-7 -127 -16 -180h274q48 0 91 15.5t81.5 48.5t63.5 92.5t29 138.5h135l-35 -451h-1077l8 135q41 2 62 6.5t44 21.5t33.5 53.5t13.5 96.5l41 785q6 107 19 184q-17 -1 -77.5 -3t-76.5 -3l8 158h1020z" />
    <glyph glyph-name="uni0401" unicode="&#x401;" horiz-adv-x="1275" 
d="M535 1632q-52 0 -87.5 42t-35.5 104q0 67 43 116.5t100 49.5q53 0 87 -42.5t34 -103.5q0 -67 -41 -116.5t-100 -49.5zM893 1632q-53 0 -88 42t-35 104q0 67 42 116.5t99 49.5q54 0 87.5 -42t33.5 -104q0 -68 -40.5 -117t-98.5 -49zM1167 1434l-10 -398h-133
q3 64 -10.5 113t-36 77.5t-55.5 46t-65.5 23t-68.5 4.5l-73 -2q-37 -1 -59 -6.5t-43.5 -23t-32 -54t-13.5 -94.5l-14 -307h240v178h157l-24 -497h-135q2 50 -7 85t-25 54t-43.5 29t-53.5 11.5t-64 0.5l-53 -2l-19 -336q-7 -127 -16 -180h274q48 0 91 15.5t81.5 48.5
t63.5 92.5t29 138.5h135l-35 -451h-1077l8 135q41 2 62 6.5t44 21.5t33.5 53.5t13.5 96.5l41 785q6 107 19 184q-17 -1 -77.5 -3t-76.5 -3l8 158h1020z" />
    <glyph glyph-name="uni0402" unicode="&#x402;" horiz-adv-x="1644" 
d="M1165 866q218 0 320 -113.5t94 -301.5q-4 -99 -29.5 -183.5t-73.5 -152.5t-126.5 -107t-180.5 -39q-157 0 -268 43l43 133q70 -26 137 -26q77 0 121.5 86.5t52.5 234.5q9 147 -42 207t-156 60q-129 0 -236 -43l-16 -328q-7 -132 -19 -184l-8 -152h-434l8 135
q42 2 63.5 6.5t45 21.5t34 53.5t13.5 96.5l51 981h-94q-121 -2 -191 -82t-79 -241h-136l35 463h1241l-8 -410h-135q7 135 -56.5 204.5t-183.5 67.5h-98l-25 -481q71 24 166.5 37.5t169.5 13.5z" />
    <glyph glyph-name="uni0403" unicode="&#x403;" horiz-adv-x="1159" 
d="M565 1577l-69 98l249 242q30 29 67 44t74 8.5t58 -38.5q24 -35 17.5 -70t-30 -63t-59.5 -49zM72 0l8 135q41 2 62 6.5t44 21.5t33.5 53.5t13.5 96.5l41 785q6 107 19 184q-17 -1 -77.5 -3t-76.5 -3l8 158h1020l-10 -398h-133q3 64 -10.5 113t-36 77.5t-55.5 46t-65.5 23
t-68.5 4.5l-73 -2q-37 -1 -59 -6.5t-43.5 -23t-32 -54t-13.5 -94.5l-41 -784q-7 -132 -16 -184q64 6 180 6l-8 -158h-610z" />
    <glyph glyph-name="uni0404" unicode="&#x404;" horiz-adv-x="1417" 
d="M745 -33q-155 0 -284 56.5t-214 154.5t-128.5 232t-36.5 286q6 114 40 223.5t98.5 208.5t152 174t208 119.5t259.5 44.5q83 0 176 -26t170 -74h2l-2 86h157l-24 -477h-135q-19 171 -101.5 261.5t-224.5 90.5q-95 1 -177.5 -41.5t-140.5 -114.5t-96.5 -164t-52.5 -194h516
q-1 25 -1 56.5t0.5 68.5t0.5 53h158l-27 -497h-135q3 50 -6 84.5t-23.5 53t-43.5 28.5t-53 12t-64 2l-332 -2q2 -159 53.5 -283t147.5 -194.5t223 -71.5q131 -2 262.5 61.5t230.5 192.5l80 -82q-253 -328 -633 -328z" />
    <glyph glyph-name="uni0405" unicode="&#x405;" horiz-adv-x="1228" 
d="M596 -33q-83 0 -178 26.5t-170 74.5v-86h-158l25 479h135q18 -167 115.5 -256.5t244.5 -89.5q107 0 180 56.5t76 135.5q3 49 -17.5 87.5t-76 73t-86.5 49t-112 47.5l-21 9q-84 34 -147.5 67t-122.5 78t-95.5 95t-56.5 117t-16 145q3 54 20.5 106t55.5 104.5t93 92
t140.5 64t189.5 24.5q88 0 182.5 -25.5t155.5 -72.5v84h158l-25 -477h-135q-19 169 -106 257.5t-230 86.5q-90 0 -158 -50.5t-71 -125.5q-4 -92 68.5 -155t246.5 -134q51 -21 89 -38.5t88.5 -45t86.5 -54t73.5 -64t60.5 -76.5t36 -89.5t11 -105.5q-11 -184 -162 -299
t-387 -115z" />
    <glyph glyph-name="uni0406" unicode="&#x406;" horiz-adv-x="786" 
d="M729 1434l-6 -136q-42 -2 -63.5 -6.5t-45 -21.5t-34 -53.5t-13.5 -96.5l-41 -784q-7 -132 -16 -184q64 6 154 6l-9 -158h-583l8 135q41 2 62 6.5t44 21.5t33.5 53.5t13.5 96.5l41 785q6 107 19 184q-17 -1 -77.5 -3t-76.5 -3l8 158h582z" />
    <glyph glyph-name="uni0407" unicode="&#x407;" horiz-adv-x="786" 
d="M633 1638q-54 0 -89.5 41t-35.5 103q0 67 43 116.5t100 49.5q54 0 88.5 -42t34.5 -102q0 -70 -41 -118t-100 -48zM276 1638q-54 0 -89 41t-35 103q0 67 43 116.5t100 49.5q54 0 88.5 -42t34.5 -102q0 -69 -41.5 -117.5t-100.5 -48.5zM729 1434l-6 -136q-42 -2 -63.5 -6.5
t-45 -21.5t-34 -53.5t-13.5 -96.5l-41 -784q-7 -132 -16 -184q64 6 154 6l-9 -158h-583l8 135q41 2 62 6.5t44 21.5t33.5 53.5t13.5 96.5l41 785q6 107 19 184q-17 -1 -77.5 -3t-76.5 -3l8 158h582z" />
    <glyph glyph-name="uni0408" unicode="&#x408;" horiz-adv-x="911" 
d="M901 1434l-6 -136q-42 -2 -63.5 -6.5t-45 -21.5t-34 -53.5t-13.5 -96.5l-30 -600q-17 -289 -129.5 -421t-323.5 -132q-122 0 -203.5 62.5t-75.5 156.5q3 68 43.5 117.5t106.5 52.5q71 4 105 -35t34 -98q0 -34 -20 -76q12 -32 59 -32q90 0 98 161l43 822q6 107 19 184
q-18 -1 -83 -3t-81 -3l8 158h592z" />
    <glyph glyph-name="uni0409" unicode="&#x409;" horiz-adv-x="2127" 
d="M231 -23q-90 0 -152.5 48t-62.5 125q0 78 41 129t117 51q61 0 101 -35.5t40 -87.5q0 -27 -10 -47q9 -6 31 -6q75 0 137 147t101.5 399.5t56.5 581.5l-240 -6l8 158h1135l-8 -136q-41 -2 -62 -6.5t-44.5 -21.5t-34 -53.5t-13.5 -96.5l-16 -286l74 4q119 4 215.5 -10.5
t162 -45t113 -71t73 -91.5t36.5 -103t8 -109q-10 -194 -154 -301t-366 -107h-648l9 135q42 2 63.5 6.5t44.5 21.5t33.5 53t13.5 97l43 824q4 86 17 135l-168 2q-71 2 -106 -26.5t-38 -94.5q-11 -254 -46.5 -455.5t-86.5 -335t-119 -221.5t-141.5 -126t-157.5 -38zM1313 145
q100 0 149 2q121 6 183.5 78.5t70.5 198.5q7 144 -60 206.5t-190 59.5q-20 0 -58 -1t-58 -1l-21 -362q-7 -128 -16 -181z" />
    <glyph glyph-name="uni040A" unicode="&#x40a;" horiz-adv-x="2179" 
d="M72 0l8 135q41 2 62 6.5t44 21.5t33.5 53.5t13.5 96.5l41 785q6 107 19 184l-154 -6l8 158h582l-6 -136q-42 -2 -63 -6.5t-44.5 -21.5t-34 -53t-14.5 -97l-16 -297h561l14 275q7 132 19 184q-16 -1 -78 -3t-78 -3l8 158h588l-6 -136q-42 -2 -63.5 -6.5t-45 -21.5
t-34 -53.5t-13.5 -96.5l-16 -286l74 4q119 4 215.5 -10.5t162 -45t113 -71t73 -91.5t36.5 -103t8 -109q-10 -194 -154 -301t-366 -107h-647l8 135q42 2 63 6.5t44 21.5t33.5 53t14.5 97l19 355l-561 -6l-17 -326q-3 -108 -16 -184l154 6l-9 -158h-583zM1364 145q100 0 149 2
q122 6 184 78t70 199q7 144 -59.5 206.5t-189.5 59.5q-20 0 -59 -1t-58 -1l-19 -362q-6 -111 -18 -181z" />
    <glyph glyph-name="uni040B" unicode="&#x40b;" horiz-adv-x="1816" 
d="M1147 0l6 135q28 1 43.5 3t35 8t30 17.5t21.5 30.5t17 48.5t9 70.5l10 129q3 125 -52.5 184.5t-176.5 59.5q-80 0 -157 -21t-118 -51l-14 -278q-6 -107 -19 -184q64 6 164 6l-8 -158h-594l8 135q42 2 63.5 6.5t45 21.5t34 53.5t13.5 96.5l51 981h-94q-121 -2 -192 -82
t-78 -241h-136l35 463h1237l-12 -463h-135q7 163 -55 245t-181 80h-98l-27 -532q193 113 408 113q397 0 377 -439q-11 -213 -25 -286l156 6l-10 -158h-582z" />
    <glyph glyph-name="uni040C" unicode="&#x40c;" horiz-adv-x="1456" 
d="M715 1577l-70 98l250 242q30 29 67 44t74 8.5t58 -38.5q24 -35 17.5 -70t-30 -63t-59.5 -49zM72 0l8 135q41 2 62 6.5t44 21.5t33.5 53.5t13.5 96.5l41 785q6 107 19 184q-17 -1 -77.5 -3t-76.5 -3l8 158h582l-6 -136q-42 -2 -63.5 -6.5t-45 -21.5t-34 -53.5t-13.5 -96.5
l-16 -311h149l170 268q112 174 152 207q-25 -2 -75 -5t-54 -3l6 158h502l-6 -136q-41 -2 -74 -9.5t-76.5 -27.5t-88.5 -63t-89 -108l-213 -316q77 -53 121 -121l192 -297q144 -216 258 -221l-8 -135h-311q-24 1 -86 71.5t-105 137.5l-186 295q-79 114 -113 141h-73l-17 -309
q-7 -132 -16 -184q64 6 154 6l-9 -158h-583z" />
    <glyph glyph-name="uni040D" unicode="&#x40d;" horiz-adv-x="1581" 
d="M1001 1577l-288 172q-33 21 -53.5 49.5t-24.5 64t24 68.5q25 33 62.5 39.5t72.5 -8.5t64 -45l223 -240zM72 0l8 135q42 2 63 6.5t44.5 21.5t34 53t14.5 97l40 785q7 132 19 184l-156 -6l8 158h580l-6 -136q-42 -2 -63.5 -6.5t-45 -21.5t-34 -53.5t-13.5 -96.5l-33 -624
l627 692q6 66 12 94l-155 -6l8 158h586l-8 -136q-42 -2 -63.5 -6.5t-45 -21.5t-34 -53.5t-13.5 -96.5l-41 -784q-7 -132 -19 -184l156 6l-8 -158h-586l8 135q42 2 63.5 6.5t45 21.5t34 53.5t13.5 96.5l35 658l-627 -703q-5 -58 -14 -116l156 6l-11 -158h-579z" />
    <glyph glyph-name="uni040E" unicode="&#x40e;" horiz-adv-x="1308" 
d="M731 1552q-114 0 -197 53t-75 144q6 56 43 86.5t84 32.5q60 1 87 -34.5t27 -74.5q-5 -40 -28 -69q36 -29 102 -29q65 0 115 29q19 13 38 36t31 42t37 63l109 -78q-74 -99 -170 -150t-203 -51zM334 -33q-99 0 -159 56.5t-56 146.5q3 70 44.5 120t119.5 50q66 0 102 -36.5
t33 -90.5q-3 -47 -37 -90q7 -14 29 -14q43 0 92 57.5t123 193.5l-404 727q-28 51 -48 107.5t-19 87.5l-99 -6l8 158h592l-6 -136q-94 6 -130.5 -32.5t1.5 -124.5l146 -291q69 -141 86 -221h8l207 467q38 93 116 188l-157 -8l8 158h452l-6 -136q-77 -11 -134.5 -59.5
t-110.5 -159.5l-357 -731q-101 -206 -215 -293.5t-229 -87.5z" />
    <glyph glyph-name="uni040F" unicode="&#x40f;" horiz-adv-x="1615" 
d="M713 -324q11 166 -15.5 245t-103.5 79h-522l8 135q28 1 43.5 3t35 8t30 17.5t21 30.5t16 48.5t7.5 70.5l41 785q6 107 19 184q-65 -6 -154 -6l8 158h584l-8 -136q-42 -2 -63.5 -6.5t-45 -21.5t-34 -53.5t-13.5 -96.5l-35 -755q-9 -159 -18 -211l348 4l25 2h49q59 0 90 32
t39 123l41 783q7 132 16 184q-65 -6 -153 -6l8 158h584l-9 -136q-41 -2 -62 -6.5t-44 -21.5t-33.5 -53.5t-13.5 -96.5l-41 -784q-6 -107 -19 -184q17 1 77.5 3t76.5 3l-8 -158h-606l-19 -324h-147z" />
    <glyph glyph-name="uni0410" unicode="&#x410;" horiz-adv-x="1366" 
d="M786 1470l379 -1116q43 -149 47 -202l117 6l-6 -158h-549l8 135q42 0 66.5 13.5t32 39t4 56t-16.5 71.5l-34 113l-449 -8l-39 -96q-41 -109 -74 -166l152 6l-10 -164h-439l9 141q39 0 69.5 16.5t54 50.5t40.5 68t39 84l6 15l456 1095h137zM645 1110q-22 -85 -96 -270
l-105 -267h344l-79 256q-53 181 -64 281z" />
    <glyph glyph-name="uni0411" unicode="&#x411;" horiz-adv-x="1349" 
d="M72 0l6 135q42 2 63.5 6.5t44.5 21.5t33.5 53t13.5 97l41 785q6 107 19 184q-17 -1 -78 -3t-78 -3l10 158h1082l-10 -398h-136q4 79 -15 134.5t-56 82.5t-76 37.5t-86 9.5l-135 -2q-36 0 -58.5 -5.5t-43.5 -23t-31.5 -54t-14.5 -95.5l-14 -286l123 4q149 4 259 -16.5
t177.5 -57t107.5 -94t53.5 -120t10.5 -142.5q-5 -130 -75.5 -223.5t-184.5 -139t-260 -45.5h-692zM709 147q125 6 185.5 71t66.5 196q4 81 -14 136.5t-54.5 85t-80 41.5t-101.5 13q-101 3 -166 -2l-19 -362q-7 -128 -16 -181q136 0 199 2z" />
    <glyph glyph-name="uni0412" unicode="&#x412;" horiz-adv-x="1349" 
d="M711 1438q251 2 384.5 -94t112.5 -279q-11 -96 -87.5 -174.5t-215.5 -114.5v-2q192 -31 285.5 -131t87.5 -235q-7 -130 -75.5 -223t-181 -139t-257.5 -46h-692l8 135q41 2 62 6.5t44 21.5t33.5 53.5t13.5 96.5l41 785q6 107 19 184q-17 -1 -77.5 -3t-76.5 -3l8 158
q94 1 282 2t282 2zM696 1294q-30 -1 -48.5 -6t-38 -21t-29.5 -52t-13 -93l-16 -317q17 0 52.5 1t53.5 1q123 3 181 77t63 197q4 58 -12.5 101.5t-47.5 67t-67.5 34.5t-77.5 10zM709 662q-87 0 -166 -3l-17 -333q-6 -111 -18 -181q135 0 201 2q120 6 183 77t69 190
q4 68 -16 117.5t-57 77t-81.5 40.5t-97.5 13z" />
    <glyph glyph-name="uni0413" unicode="&#x413;" horiz-adv-x="1159" 
d="M72 0l8 135q41 2 62 6.5t44 21.5t33.5 53.5t13.5 96.5l41 785q6 107 19 184q-17 -1 -77.5 -3t-76.5 -3l8 158h1020l-10 -398h-133q3 64 -10.5 113t-36 77.5t-55.5 46t-65.5 23t-68.5 4.5l-73 -2q-37 -1 -59 -6.5t-43.5 -23t-32 -54t-13.5 -94.5l-41 -784
q-7 -132 -16 -184q64 6 180 6l-8 -158h-610z" />
    <glyph glyph-name="uni0414" unicode="&#x414;" horiz-adv-x="1415" 
d="M1206 1120l-41 -784q-6 -109 -18 -184l205 6l-25 -520h-149q7 80 2 146.5t-20.5 114.5t-50.5 74.5t-89 26.5h-701q-203 0 -213 -362h-149l25 514h63q111 0 191 124q86 132 131.5 364t72.5 642l-219 -6l8 158h1139l-6 -136q-42 -2 -63.5 -6.5t-45 -21.5t-34 -53.5
t-13.5 -96.5zM297 152h416q34 2 51.5 5t39.5 13t33 28t20 51t11 81l43 819q4 85 19 131l-193 -6q-79 -3 -113 -27.5t-40 -93.5q-54 -727 -287 -1001z" />
    <glyph glyph-name="uni0415" unicode="&#x415;" horiz-adv-x="1275" 
d="M1167 1434l-10 -398h-133q3 64 -10.5 113t-36 77.5t-55.5 46t-65.5 23t-68.5 4.5l-73 -2q-37 -1 -59 -6.5t-43.5 -23t-32 -54t-13.5 -94.5l-14 -307h240v178h157l-24 -497h-135q2 50 -7 85t-25 54t-43.5 29t-53.5 11.5t-64 0.5l-53 -2l-19 -336q-7 -127 -16 -180h274
q48 0 91 15.5t81.5 48.5t63.5 92.5t29 138.5h135l-35 -451h-1077l8 135q41 2 62 6.5t44 21.5t33.5 53.5t13.5 96.5l41 785q6 107 19 184q-17 -1 -77.5 -3t-76.5 -3l8 158h1020z" />
    <glyph glyph-name="uni0416" unicode="&#x416;" horiz-adv-x="2142" 
d="M-16 0l8 135q114 5 280 221l228 297q51 70 133 119l-230 318q-87 117 -158 161t-147 47l6 136h474l-9 -158q-13 1 -34.5 2t-51 2t-43.5 2q35 -29 162 -205l193 -268h143l16 289q7 132 19 184q-16 -1 -78 -3t-78 -3l8 158h588l-6 -136q-42 -2 -63.5 -6.5t-45 -21.5
t-34 -53.5t-13.5 -96.5l-16 -311h151l222 268q129 158 156 183q12 12 26 22q-15 -1 -44.5 -2t-51.5 -2t-35 -2l8 158h467l-6 -136q-78 -3 -155 -47t-175 -161l-262 -316q73 -48 123 -121l194 -297q144 -216 258 -221l-8 -135h-315q-23 1 -85 72t-104 137l-186 295
q-5 6 -27 37.5t-31.5 44t-26 31.5t-28.5 28h-73l-17 -309q-6 -115 -18 -184q68 6 156 6l-11 -158h-587l8 135q42 2 63 6.5t44 21.5t33.5 53t14.5 97l17 332h-74q-41 -28 -127 -141l-217 -295q-49 -66 -118.5 -137t-94.5 -72h-315z" />
    <glyph glyph-name="uni0417" unicode="&#x417;" horiz-adv-x="1351" 
d="M674 -33q-401 4 -621 328l105 90q95 -120 214 -186t249 -66q64 0 121.5 16.5t105 49t77 88t33.5 127.5q6 118 -57 183t-153 65h-261l9 145h192q124 0 182.5 68.5t63.5 183.5q6 128 -55 193t-168 67q-129 -2 -230.5 -91t-136.5 -253h-133l27 477h157l-12 -86
q186 100 408 100q215 6 336 -90.5t112 -265.5q-13 -260 -297 -344v-6q174 -28 259 -128t79 -239q-7 -135 -91 -234t-217.5 -146.5t-297.5 -45.5z" />
    <glyph glyph-name="uni0418" unicode="&#x418;" horiz-adv-x="1581" 
d="M72 0l8 135q42 2 63 6.5t44.5 21.5t34 53t14.5 97l40 785q7 132 19 184l-156 -6l8 158h580l-6 -136q-42 -2 -63.5 -6.5t-45 -21.5t-34 -53.5t-13.5 -96.5l-33 -624l627 692q6 66 12 94l-155 -6l8 158h586l-8 -136q-42 -2 -63.5 -6.5t-45 -21.5t-34 -53.5t-13.5 -96.5
l-41 -784q-7 -132 -19 -184l156 6l-8 -158h-586l8 135q42 2 63.5 6.5t45 21.5t34 53.5t13.5 96.5l35 658l-627 -703q-5 -58 -14 -116l156 6l-11 -158h-579z" />
    <glyph glyph-name="uni0419" unicode="&#x419;" horiz-adv-x="1581" 
d="M866 1552q-114 0 -197 53t-75 144q6 56 43 86.5t84 32.5q60 1 87.5 -34.5t27.5 -74.5q-5 -39 -29 -69q36 -29 102 -29q65 0 115 29q19 13 38 36t31 42t37 63l109 -78q-74 -99 -170 -150t-203 -51zM72 0l8 135q42 2 63 6.5t44.5 21.5t34 53t14.5 97l40 785q7 132 19 184
l-156 -6l8 158h580l-6 -136q-42 -2 -63.5 -6.5t-45 -21.5t-34 -53.5t-13.5 -96.5l-33 -624l627 692q6 66 12 94l-155 -6l8 158h586l-8 -136q-42 -2 -63.5 -6.5t-45 -21.5t-34 -53.5t-13.5 -96.5l-41 -784q-7 -132 -19 -184l156 6l-8 -158h-586l8 135q42 2 63.5 6.5t45 21.5
t34 53.5t13.5 96.5l35 658l-627 -703q-5 -58 -14 -116l156 6l-11 -158h-579z" />
    <glyph glyph-name="uni041A" unicode="&#x41a;" horiz-adv-x="1456" 
d="M72 0l8 135q41 2 62 6.5t44 21.5t33.5 53.5t13.5 96.5l41 785q6 107 19 184q-17 -1 -77.5 -3t-76.5 -3l8 158h582l-6 -136q-42 -2 -63.5 -6.5t-45 -21.5t-34 -53.5t-13.5 -96.5l-16 -311h149l170 268q112 174 152 207q-25 -2 -75 -5t-54 -3l6 158h502l-6 -136
q-41 -2 -74 -9.5t-76.5 -27.5t-88.5 -63t-89 -108l-213 -316q77 -53 121 -121l192 -297q144 -216 258 -221l-8 -135h-311q-24 1 -86 71.5t-105 137.5l-186 295q-79 114 -113 141h-73l-17 -309q-7 -132 -16 -184q64 6 154 6l-9 -158h-583z" />
    </font>
</defs>
</svg>
