<svg width="40" height="24" viewBox="0 0 40 24" fill="none" xmlns="http://www.w3.org/2000/svg">
<path d="M14.2 3.92054e-06L14.6725 0.307129C12.2227 1.77421 10.8403 3.95736 10.5256 6.85724C15.1967 8.20487 17.533 10.9252 17.533 15.019C17.533 17.5436 16.6756 19.6721 14.9607 21.4028C13.2458 23.1346 11.1463 24 8.66137 24C6.14164 24 4.06785 23.1302 2.44071 21.3903C0.813567 19.6503 -1.32279e-06 17.4248 -1.86857e-06 14.7119C-2.55492e-06 11.3002 1.35107 8.16177 4.05497 5.29616C6.75886 2.43055 10.1406 0.665164 14.2 3.92054e-06ZM36.667 5.06474e-07L37.1394 0.307126C34.6897 1.77421 33.3073 3.95735 32.9926 6.85724C37.6637 8.20486 40 10.9252 40 15.019C40 17.5436 39.1426 19.6721 37.4277 21.4028C35.7128 23.1346 33.6133 24 31.1284 24C28.6086 24 26.5348 23.1302 24.9077 21.3903C23.2806 19.6503 22.467 17.4248 22.467 14.7119C22.467 11.3002 23.8181 8.16177 26.522 5.29615C29.2259 2.43054 32.6075 0.66516 36.667 5.06474e-07Z" fill="#0F1E42"/>
</svg>
