<svg width="20" height="20" viewBox="0 0 20 20" fill="none" xmlns="http://www.w3.org/2000/svg">
<path d="M19.0933 3.89681H4.02874C3.99941 3.89681 3.97299 3.90783 3.94525 3.91391L3.33251 1.87938C3.32561 1.8574 3.31091 1.84111 3.30115 1.82078C3.28443 1.61153 3.11388 1.4458 2.90052 1.4458C2.90014 1.4458 2.89931 1.4458 2.89887 1.4458L0.905516 1.45429C0.680364 1.45556 0.499179 1.63877 0.500003 1.86348C0.500826 2.0878 0.682835 2.26899 0.907163 2.26899C0.907543 2.26899 0.908366 2.26899 0.90881 2.26899L2.59725 2.26164L6.49489 15.1972C6.10769 15.551 5.86055 16.055 5.86055 16.6206C5.86055 17.6886 6.72612 18.5545 7.79448 18.5545C8.86246 18.5545 9.72841 17.6885 9.72841 16.6206C9.72841 16.3421 9.66734 16.079 9.56148 15.8401H15.1883C15.0824 16.0791 15.0214 16.3421 15.0214 16.6206C15.0214 17.6886 15.8869 18.5545 16.9553 18.5545C18.0233 18.5545 18.8892 17.6885 18.8892 16.6206C18.8892 15.5527 18.0232 14.6866 16.9553 14.6866C16.5498 14.6866 16.174 14.8125 15.8629 15.0258H8.88647C8.57542 14.8125 8.2 14.6866 7.79448 14.6866C7.59296 14.6866 7.4024 14.7261 7.21957 14.7831L6.63813 12.8541L16.8959 12.8459C17.0754 12.8459 17.2232 12.7274 17.277 12.5658C17.2909 12.5401 17.3059 12.5153 17.3141 12.4859L19.4854 4.47894C19.4992 4.42807 19.5008 4.37714 19.4951 4.32791C19.4955 4.31936 19.5 4.31246 19.5 4.30428C19.5004 4.0792 19.3181 3.89681 19.0933 3.89681ZM16.9557 15.5006C17.5734 15.5006 18.0754 16.0026 18.0754 16.6203C18.0754 17.2379 17.5734 17.7399 16.9557 17.7399C16.3381 17.7399 15.8361 17.2379 15.8361 16.6203C15.8361 16.0026 16.3381 15.5006 16.9557 15.5006ZM7.79493 15.5006C8.4126 15.5006 8.9146 16.0026 8.9146 16.6203C8.9146 17.2379 8.4126 17.7399 7.79493 17.7399C7.17725 17.7399 6.67525 17.2379 6.67525 16.6203C6.67525 16.0026 7.17725 15.5006 7.79493 15.5006ZM16.5938 12.032L6.39353 12.0402L4.18554 4.71151H18.5791L16.5938 12.032Z" fill="white" stroke="white" stroke-width="0.3"/>
</svg>
