<svg width="24" height="24" viewBox="0 0 24 24" fill="none" xmlns="http://www.w3.org/2000/svg">
<path d="M22.602 10.0041C22.5603 9.77347 22.4389 9.56485 22.2591 9.41461C22.0792 9.26437 21.8523 9.18207 21.618 9.18206H12.2C11.9348 9.18206 11.6804 9.28742 11.4929 9.47496C11.3053 9.66249 11.2 9.91685 11.2 10.1821V14.0501C11.2 14.3153 11.3053 14.5696 11.4929 14.7572C11.6804 14.9447 11.9348 15.0501 12.2 15.0501H16.162C15.8799 15.5264 15.4931 15.9323 15.031 16.2371C14.1857 16.7729 13.2005 17.0461 12.2 17.0221C11.1626 17.0102 10.1553 16.6718 9.32126 16.0548C8.48721 15.4378 7.86883 14.5736 7.55398 13.5851V13.5831C7.20342 12.5565 7.20342 11.4426 7.55398 10.4161V10.4141C7.86967 9.42612 8.4883 8.5626 9.32218 7.94589C10.1561 7.32918 11.1629 6.99058 12.2 6.97806C12.7763 6.96491 13.3495 7.06563 13.8868 7.27447C14.4241 7.48331 14.9149 7.79616 15.331 8.19506C15.5198 8.376 15.772 8.47576 16.0335 8.47295C16.2951 8.47015 16.5451 8.36501 16.73 8.18006L19.598 5.31206C19.693 5.21713 19.7679 5.10402 19.8183 4.97949C19.8686 4.85496 19.8934 4.72156 19.8911 4.58726C19.8887 4.45295 19.8594 4.32049 19.8047 4.19779C19.7501 4.07508 19.6712 3.96464 19.573 3.87306C17.5772 2.00136 14.936 0.97218 12.2 1.00006C10.1599 0.994101 8.15864 1.5582 6.42197 2.62876C4.68529 3.69931 3.28223 5.23375 2.37098 7.05906L2.36998 7.06106C1.59676 8.59239 1.19589 10.2846 1.19998 12.0001C1.20313 13.715 1.60361 15.4059 2.36998 16.9401L2.37098 16.9411C3.28223 18.7664 4.68529 20.3008 6.42197 21.3714C8.15864 22.4419 10.1599 23.006 12.2 23.0001C14.8854 23.0677 17.4951 22.1064 19.495 20.3131L19.496 20.3121C20.5792 19.2689 21.4326 18.011 22.0015 16.6189C22.5705 15.2269 22.8424 13.7313 22.8 12.2281C22.8005 11.4823 22.7342 10.738 22.602 10.0041ZM12.2 3.00006C14.071 2.98306 15.8977 3.56975 17.409 4.67306L15.955 6.12606C14.8527 5.36305 13.5404 4.96185 12.2 4.97806C10.9762 4.98452 9.7763 5.3168 8.72354 5.94072C7.67078 6.56464 6.80319 7.4577 6.20998 8.52806L5.14198 7.70006L4.55698 7.24606C5.36151 5.9438 6.4866 4.86964 7.82472 4.12626C9.16283 3.38288 10.6692 2.99513 12.2 3.00006ZM3.67998 14.9031C3.04084 13.0205 3.04084 10.9796 3.67998 9.09706L5.46198 10.4791C5.23398 11.4802 5.23398 12.5199 5.46198 13.5211L3.67998 14.9031ZM12.2 21.0001C10.6691 21.0052 9.16246 20.6175 7.82415 19.8741C6.48585 19.1307 5.3606 18.0565 4.55598 16.7541L4.93498 16.4601L6.21098 15.4701C6.80385 16.5407 7.67117 17.434 8.72376 18.0583C9.77635 18.6826 10.9762 19.0152 12.2 19.0221C13.3456 19.0349 14.4781 18.778 15.506 18.2721L17.197 19.5851C15.709 20.543 13.9693 21.0357 12.2 21.0001ZM18.726 18.2401L18.543 18.0971L17.166 17.0281C17.8887 16.2479 18.3743 15.2781 18.566 14.2321C18.5927 14.0877 18.5873 13.9393 18.5502 13.7972C18.5131 13.6552 18.4451 13.5231 18.3512 13.4103C18.2573 13.2974 18.1397 13.2067 18.0067 13.1444C17.8738 13.0822 17.7288 13.05 17.582 13.0501H13.2V11.1821H20.749C20.783 11.5274 20.8 11.8761 20.8 12.2281C20.8585 14.4166 20.1216 16.5532 18.726 18.2401Z" fill="#081F45"/>
</svg>
