<svg width="32" height="32" viewBox="0 0 32 32" fill="none" xmlns="http://www.w3.org/2000/svg">
<g clip-path="url(#clip0_677_2040)">
<path d="M28 0H4C1.79086 0 0 1.79086 0 4V28C0 30.2091 1.79086 32 4 32H28C30.2091 32 32 30.2091 32 28V4C32 1.79086 30.2091 0 28 0Z" fill="url(#paint0_linear_677_2040)"/>
<path d="M9.2023 6.91355C11.9538 8.96637 14.9133 13.1288 16 15.3623C17.0867 13.1288 20.0462 8.96637 22.7977 6.91355C24.7831 5.43231 28 4.28623 28 7.93316C28 8.66152 27.5798 14.0517 27.3333 14.9268C26.4766 17.9691 23.3549 18.7451 20.578 18.2755C25.4319 19.0964 26.6666 21.8157 24 24.535C18.9355 29.6994 16.7209 23.2392 16.1534 21.5839C16.0494 21.2804 16.0007 21.1384 16 21.2592C15.9993 21.1384 15.9506 21.2804 15.8466 21.5839C15.2791 23.2392 13.0645 29.6994 8.00001 24.535C5.33335 21.8157 6.56809 19.0964 11.422 18.2755C8.64506 18.7451 5.52337 17.9691 4.66668 14.9268C4.42021 14.0517 4 8.66152 4 7.93316C4 4.28623 7.21693 5.43231 9.2023 6.91355Z" fill="white"/>
</g>
<defs>
<linearGradient id="paint0_linear_677_2040" x1="16" y1="0" x2="16" y2="32" gradientUnits="userSpaceOnUse">
<stop stop-color="#0C7CFF"/>
<stop offset="1" stop-color="#55B6FF"/>
</linearGradient>
<clipPath id="clip0_677_2040">
<rect width="32" height="32" fill="white"/>
</clipPath>
</defs>
</svg>
