<svg width="180" height="70" viewBox="0 0 180 70" fill="none" xmlns="http://www.w3.org/2000/svg">
<g clip-path="url(#clip0_1_26)">
<path d="M18.8538 36.8904H0V42.5027H18.8538V36.8904Z" fill="#00B48D"/>
<path d="M29.2334 0H23.6683V42.5027H40.6177V36.8903H29.2334V0Z" fill="#0F1E42"/>
<path d="M51.4191 0L42.553 42.5027H48.2557L49.9273 33.8019H58.2116L59.8198 42.5027H65.533L56.7198 0H51.4191ZM57.1642 28.1896H50.9854L54.0748 11.7572L57.1642 28.1896Z" fill="#0F1E42"/>
<path d="M63.7663 5.66518H70.7386V42.5022H76.3143V5.66518H83.3501V0.0634766H63.7663V5.66518Z" fill="#0F1E42"/>
<path d="M91.5075 0H85.9318V42.5027H91.5075V0Z" fill="#0F1E42"/>
<path d="M94.1636 5.66518H101.136V42.5022H106.701V5.66518H113.737V0.0634766H94.1636V5.66518Z" fill="#0F1E42"/>
<path d="M130.03 32.886C130.03 34.4515 129.702 35.6124 129.057 36.3472C128.411 37.0714 127.364 37.4334 125.935 37.4334C124.507 37.4334 123.449 37.0714 122.783 36.3472C122.116 35.623 121.777 34.4622 121.777 32.886V0H116.202V32.886C116.202 36.23 117.196 38.8285 119.143 40.6283C120.857 42.2258 123.132 43.0351 125.935 43.0351C127.269 43.0351 128.528 42.8328 129.681 42.4175C130.845 42.0128 131.839 41.4058 132.654 40.6283C134.611 38.8285 135.595 36.2194 135.595 32.886V0H130.019V32.886H130.03Z" fill="#0F1E42"/>
<path d="M149.476 0H139.753V42.5027H149.476C152.227 42.5027 154.491 41.7572 156.205 40.2769C158.162 38.4771 159.146 35.8892 159.146 32.5879V10.1491C159.146 6.84771 158.152 4.2492 156.205 2.40682C154.491 0.809372 152.238 0 149.476 0ZM153.571 10.1491V32.5879C153.571 34.2279 153.2 35.3887 152.46 36.0596C151.878 36.6134 150.873 36.8903 149.476 36.8903H145.318V5.61235H149.476C150.904 5.61235 151.952 5.97444 152.597 6.69862C153.243 7.42279 153.571 8.59425 153.571 10.1597V10.1491Z" fill="#0F1E42"/>
<path d="M163.051 42.5027H180.001V36.8903H168.617V23.5463H176.541V17.934H168.617V5.61235H180.001V0H163.051V42.5027Z" fill="#0F1E42"/>
<path d="M113.377 69.7334H121.608V67.8058H115.292V59.6269H119.746V57.6993H115.292V50.0422H121.608V48.104H113.377V69.7334Z" fill="#00B48D"/>
<path d="M128.898 65.0795L125.28 48.4341L125.216 48.104H123.248L127.999 69.7334H129.787L134.537 48.104H132.569L128.898 65.0795Z" fill="#00B48D"/>
<path d="M136.537 69.7334H144.768V67.8058H138.452V59.6269H142.906V57.6993H138.452V50.0422H144.768V48.104H136.537V69.7334Z" fill="#00B48D"/>
<path d="M155.094 63.3969L148.704 48.104H147.424V69.7334H149.339V54.4405L155.74 69.7334H157.009V48.104H155.094V63.3969Z" fill="#00B48D"/>
<path d="M159.231 50.0422H163.125V69.7334H165.04V50.0422H168.965V48.104H159.231V50.0422Z" fill="#00B48D"/>
<path d="M179.999 55.1433V52.7045C179.999 51.0858 179.534 49.8398 178.624 48.9878C177.799 48.221 176.709 47.8376 175.365 47.8376C174.022 47.8376 172.9 48.221 172.107 48.9878C171.176 49.8611 170.71 51.1071 170.71 52.7045V53.3009C170.71 55.1752 171.207 56.5916 172.202 57.4969C173.144 58.3595 174.085 58.9772 175.006 59.3286C175.683 59.6055 176.381 60.0847 177.09 60.7556C177.746 61.384 178.084 62.3637 178.084 63.663V65.122C178.084 66.187 177.82 66.9537 177.302 67.433C176.857 67.8483 176.201 68.0613 175.365 68.0613C174.53 68.0613 173.842 67.8483 173.408 67.433C172.89 66.9431 172.625 66.1657 172.625 65.122V61.6822H170.71V65.122C170.71 66.7194 171.176 67.9761 172.107 68.8387C172.911 69.6055 174.011 69.9889 175.376 69.9889C176.741 69.9889 177.809 69.6055 178.635 68.8387C179.544 67.9867 180.01 66.7407 180.01 65.122V63.663C180.01 60.8408 178.582 58.7855 175.767 57.5501C175.312 57.3584 174.868 57.1348 174.434 56.8685C174.032 56.6236 173.63 56.1976 173.218 55.5906C172.826 55.0048 172.625 54.2381 172.625 53.3009V52.7045C172.625 51.6609 172.89 50.8834 173.419 50.3936C173.852 49.9782 174.508 49.7652 175.376 49.7652C176.243 49.7652 176.889 49.9782 177.312 50.4042C177.831 50.8728 178.095 51.6502 178.095 52.7152V55.1539H180.01L179.999 55.1433Z" fill="#00B48D"/>
</g>
<defs>
<clipPath id="clip0_1_26">
<rect width="180" height="70" fill="white"/>
</clipPath>
</defs>
</svg>
