<svg width="80" height="80" viewBox="0 0 80 80" fill="none" xmlns="http://www.w3.org/2000/svg">
<path d="M68.5492 55.2599V40.4899C68.5492 24.7199 55.7692 11.9399 39.9992 11.9399C24.2292 11.9399 11.4492 24.7199 11.4492 40.4899V55.2599" stroke="#C6168D" stroke-width="5" stroke-linecap="round" stroke-linejoin="round"/>
<path d="M11.4492 53.1C11.4492 47.23 16.2092 42.47 22.0792 42.47C25.9892 42.47 29.1692 45.64 29.1692 49.56V60.98C29.1692 64.89 25.9992 68.07 22.0792 68.07C16.2092 68.07 11.4492 63.31 11.4492 57.44V53.11V53.1Z" stroke="#C6168D" stroke-width="5" stroke-linecap="round" stroke-linejoin="round"/>
<path d="M50.8281 49.55C50.8281 45.64 53.9981 42.46 57.9181 42.46C63.7881 42.46 68.5481 47.22 68.5481 53.09V57.42C68.5481 63.29 63.7881 68.05 57.9181 68.05C54.0081 68.05 50.8281 64.88 50.8281 60.96V49.54V49.55Z" stroke="#C6168D" stroke-width="5" stroke-linecap="round" stroke-linejoin="round"/>
</svg>
