<svg width="80" height="80" viewBox="0 0 80 80" fill="none" xmlns="http://www.w3.org/2000/svg">
<path fill-rule="evenodd" clip-rule="evenodd" d="M70.6401 18.94L60.7801 9.12C59.7401 8.31 58.2101 8.41 57.2501 9.36L22.1401 44.48L21.8801 44.77C21.5501 45.21 21.3501 45.8 21.3501 46.38L21.3701 56.31C21.5201 57.63 22.6701 58.65 24.0401 58.65L34.0001 58.63C34.5601 58.55 35.1101 58.28 35.5201 57.87L70.6401 22.75L70.8801 22.47C71.6901 21.43 71.6001 19.9 70.6401 18.94ZM32.5001 53.27H26.7301V47.5L59.1601 15.08L64.9301 20.85L32.5001 53.27ZM68.7401 66.04H11.2701C9.79008 66.04 8.58008 67.25 8.58008 68.73C8.58008 70.21 9.79008 71.42 11.2701 71.42H68.7401C70.2201 71.42 71.4301 70.22 71.4301 68.73C71.4301 67.24 70.2201 66.04 68.7401 66.04Z" fill="#C6168D"/>
</svg>
