<svg width="32" height="32" viewBox="0 0 32 32" fill="none" xmlns="http://www.w3.org/2000/svg">
<g clip-path="url(#clip0_55_11716)">
<path d="M31.5616 9.8731C31.5616 9.49611 31.5616 9.11912 31.5595 8.74214C31.5577 8.42477 31.5538 8.10696 31.5454 7.78959C31.5266 7.0983 31.4858 6.40044 31.3631 5.71704C31.2381 5.02269 31.0347 4.37655 30.7134 3.74575C30.3978 3.12592 29.9858 2.55912 29.4944 2.06773C29.0025 1.57589 28.4357 1.16384 27.8159 0.848219C27.1855 0.527342 26.5394 0.323507 25.8455 0.199014C25.1616 0.0758356 24.4638 0.0355068 23.7721 0.0166575C23.4547 0.00789041 23.1373 0.00438356 22.8195 0.00263014C22.4425 0 22.0655 0 21.6885 0H9.8731C9.49611 0 9.11912 0 8.74214 0.00219178C8.42477 0.00394521 8.10696 0.00789041 7.78959 0.0162192C7.09786 0.0350685 6.4 0.0758356 5.71616 0.198575C5.02225 0.323507 4.37655 0.526904 3.74575 0.847781C3.12592 1.1634 2.55912 1.57545 2.06729 2.06729C1.57589 2.55912 1.1634 3.12592 0.848219 3.74531C0.526904 4.37611 0.323507 5.02225 0.198575 5.7166C0.0758356 6.40044 0.0350685 7.09786 0.0162192 7.78915C0.00745206 8.10652 0.00394521 8.42389 0.00219178 8.7417C0 9.11912 0 9.49611 0 9.8731V21.689C0 22.066 0 22.443 0.00219178 22.8199C0.00394521 23.1373 0.00789041 23.4551 0.0162192 23.7725C0.0350685 24.4638 0.0758356 25.1616 0.198575 25.845C0.323507 26.5394 0.526904 27.1855 0.848219 27.8163C1.16384 28.4362 1.57589 29.003 2.06729 29.4944C2.55912 29.9862 3.12592 30.3982 3.74575 30.7139C4.37611 31.0347 5.02225 31.2386 5.71616 31.3631C6.4 31.4862 7.09786 31.5266 7.78959 31.5454C8.10696 31.5542 8.42433 31.5577 8.74214 31.5595C9.11912 31.5616 9.49611 31.5616 9.8731 31.5616H21.689C22.066 31.5616 22.443 31.5616 22.8199 31.5595C23.1373 31.5577 23.4551 31.5538 23.7725 31.5454C24.4642 31.5266 25.1621 31.4858 25.8459 31.3631C26.5398 31.2381 27.1855 31.0347 27.8163 30.7139C28.4362 30.3982 29.003 29.9862 29.4948 29.4944C29.9866 29.0025 30.3987 28.4357 30.7139 27.8163C31.0352 27.1855 31.2386 26.5394 31.3635 25.845C31.4862 25.1612 31.527 24.4638 31.5459 23.7725C31.5546 23.4551 31.5581 23.1378 31.5599 22.8199C31.5616 22.4425 31.5616 22.0655 31.5616 21.6885V9.8731Z" fill="url(#paint0_linear_55_11716)"/>
<path d="M15.7709 11.4778C17.0755 11.4778 18.1328 12.5347 18.1328 13.8388C18.1328 15.1429 17.0755 16.1998 15.7709 16.1998C14.4664 16.1998 13.409 15.1429 13.409 13.8388C13.4095 12.5347 14.4668 11.4778 15.7709 11.4778ZM22.5694 14.6665C22.5694 16.9963 21.3902 19.0562 19.5973 20.2809C19.5061 20.3432 19.3821 20.2726 19.3891 20.1626C19.4141 19.7483 19.422 19.3814 19.4005 19.004C19.3935 18.8799 19.4421 18.7589 19.5329 18.6739C20.602 17.6705 21.271 16.2454 21.271 14.6669C21.271 11.5633 18.6851 9.05199 15.5539 9.17297C12.673 9.28475 10.3493 11.6378 10.2735 14.5192C10.2305 16.1564 10.9073 17.6394 12.0098 18.6743C12.1005 18.7594 12.1488 18.8804 12.1422 19.004C12.1211 19.3814 12.1286 19.7483 12.154 20.163C12.1606 20.273 12.037 20.344 11.9458 20.2818C10.1297 19.0417 8.94351 16.945 8.97375 14.5783C9.01978 10.9803 11.9055 8.01527 15.5026 7.87588C19.3724 7.72596 22.5694 10.83 22.5694 14.6665ZM15.7415 4.52201C21.3507 4.50623 25.9188 9.06294 25.9188 14.6669C25.9188 19.0846 23.0796 22.851 19.1296 24.2397C19.0327 24.2739 18.9345 24.1932 18.9499 24.092C19.002 23.7448 19.0516 23.3963 19.0967 23.0531C19.1125 22.9321 19.1896 22.8269 19.3014 22.7782C22.4291 21.4128 24.6204 18.2912 24.6204 14.6669C24.6204 9.76475 20.6112 5.78097 15.6981 5.82042C10.8924 5.859 6.96827 9.77571 6.92181 14.5797C6.8863 18.2404 9.08773 21.4009 12.2399 22.7774C12.3522 22.8265 12.4293 22.9308 12.4455 23.0522C12.4907 23.3954 12.5402 23.7444 12.5924 24.0915C12.6077 24.1932 12.5095 24.2735 12.4127 24.2393C8.42449 22.837 5.5686 19.011 5.62383 14.5385C5.69222 9.01736 10.2182 4.53779 15.7415 4.52201ZM15.7709 17.1537C16.6687 17.1537 17.4296 17.4465 17.8623 17.9033C18.0885 18.1417 18.2077 18.3859 18.2454 18.734C18.3182 19.4082 18.2774 19.9885 18.1985 20.9161C18.1231 21.8003 17.9807 22.9794 17.7939 24.1801C17.6611 25.0349 17.5533 25.496 17.4551 25.8261C17.2959 26.3614 16.7011 26.8295 15.7709 26.8295C14.8407 26.8295 14.2459 26.3614 14.0867 25.8261C13.9885 25.496 13.8807 25.0345 13.7479 24.1801C13.5616 22.9794 13.4187 21.8003 13.3433 20.9161C13.2644 19.9881 13.2232 19.4077 13.2964 18.734C13.3341 18.3859 13.4533 18.1417 13.6795 17.9033C14.1126 17.4465 14.8731 17.1537 15.7709 17.1537Z" fill="white"/>
</g>
<defs>
<linearGradient id="paint0_linear_55_11716" x1="15.7808" y1="0" x2="15.7808" y2="31.5616" gradientUnits="userSpaceOnUse">
<stop stop-color="#D56EFC"/>
<stop offset="1" stop-color="#832BC1"/>
</linearGradient>
<clipPath id="clip0_55_11716">
<rect width="32" height="32" fill="white"/>
</clipPath>
</defs>
</svg>
