<svg width="80" height="80" viewBox="0 0 80 80" fill="none" xmlns="http://www.w3.org/2000/svg">
<path fill-rule="evenodd" clip-rule="evenodd" d="M55.5506 52.95H23.7806C15.7106 53.31 9.39062 59.91 9.39062 68C9.39062 69.44 10.5606 70.61 12.0006 70.61C13.4406 70.61 14.6106 69.44 14.6106 68C14.6106 62.58 19.0206 58.17 24.4406 58.17H56.1206C61.1106 58.47 65.0806 62.45 65.3706 67.42L65.4106 68.34C65.5606 69.62 66.6706 70.61 68.0006 70.61C69.4406 70.61 70.6106 69.44 70.6106 68C70.6106 59.7 63.8506 52.95 55.5506 52.95ZM40.0006 9.39001C29.9806 9.39001 21.8306 17.54 21.8306 27.56C21.8306 37.58 29.9806 45.72 40.0006 45.72C50.0206 45.72 58.1606 37.58 58.1606 27.56C58.1606 17.54 50.0106 9.39001 40.0006 9.39001ZM40.0006 40.5C32.8606 40.5 27.0506 34.7 27.0506 27.56C27.0506 20.42 32.8606 14.62 40.0006 14.62C47.1406 14.62 52.9406 20.42 52.9406 27.56C52.9406 34.7 47.1406 40.5 40.0006 40.5Z" fill="#C6168D"/>
</svg>
