<svg width="24" height="24" viewBox="0 0 24 24" fill="none" xmlns="http://www.w3.org/2000/svg">
<g clip-path="url(#clip0_1_124)">
<path d="M19.0863 5.66934V2.79434C19.0856 2.63279 19.0208 2.47813 18.9062 2.36428C18.7916 2.25043 18.6365 2.18669 18.4749 2.18704H5.52351C5.44316 2.18631 5.36345 2.20147 5.28897 2.23163C5.21449 2.2618 5.1467 2.30638 5.0895 2.36282C5.0323 2.41926 4.98681 2.48645 4.95565 2.56051C4.92449 2.63458 4.90826 2.71408 4.90791 2.79444V5.62844L13.2984 2.57644C13.4485 2.52997 13.6109 2.54487 13.75 2.61788C13.8891 2.69088 13.9936 2.81604 14.0406 2.96594L14.5854 4.46404L19.0863 5.66934ZM23.582 7.34294L14.7788 4.97464L15.5306 7.04064H21.1143C21.2767 7.04101 21.4324 7.10569 21.5472 7.22053C21.6621 7.33537 21.7267 7.49103 21.7271 7.65344V16.4484L23.9741 8.08244C24.02 7.93238 24.0045 7.77023 23.931 7.63158C23.8575 7.49294 23.732 7.38913 23.582 7.34294ZM2.27001 7.65344C2.27075 7.4911 2.33557 7.33563 2.45038 7.22087C2.56519 7.1061 2.72068 7.04132 2.88301 7.04064H15.0376L13.7683 3.55014C13.7196 3.40139 13.6143 3.27782 13.4751 3.20619C13.3359 3.13456 13.1742 3.12064 13.0248 3.16744L0.36741 7.77474C0.221878 7.83475 0.106135 7.95011 0.0456225 8.09543C-0.0148897 8.24076 -0.0152179 8.40417 0.04471 8.54974L2.27001 14.6617V7.65344ZM2.27001 7.65344C2.27075 7.4911 2.33557 7.33563 2.45038 7.22087C2.56519 7.1061 2.72068 7.04132 2.88301 7.04064H15.0376L13.7683 3.55014C13.7196 3.40139 13.6143 3.27782 13.4751 3.20619C13.3359 3.13456 13.1742 3.12064 13.0248 3.16744L0.36741 7.77474C0.221878 7.83475 0.106135 7.95011 0.0456225 8.09543C-0.0148897 8.24076 -0.0152179 8.40417 0.04471 8.54974L2.27001 14.6617V7.65344ZM21.2668 21.1999C21.2665 21.3624 21.2018 21.5181 21.0869 21.6329C20.972 21.7478 20.8164 21.8125 20.6539 21.8128H3.34451C3.18206 21.8125 3.02637 21.7478 2.9115 21.6329C2.79664 21.5181 2.73195 21.3624 2.73161 21.1999V8.11524C2.73195 7.95279 2.79664 7.7971 2.9115 7.68223C3.02637 7.56736 3.18206 7.50268 3.34451 7.50234H20.6538C20.8163 7.50268 20.972 7.56736 21.0868 7.68223C21.2017 7.7971 21.2664 7.95279 21.2667 8.11524L21.2668 21.1999ZM18.2353 17.7803V16.5845C18.2353 16.5632 18.2268 16.5428 18.2117 16.5278C18.1966 16.5127 18.1762 16.5042 18.1549 16.5042H12.7823V17.8661H18.1549C18.1659 17.866 18.1767 17.8636 18.1867 17.8592C18.1968 17.8547 18.2058 17.8483 18.2133 17.8403C18.2208 17.8323 18.2266 17.8229 18.2304 17.8126C18.2342 17.8023 18.2359 17.7913 18.2353 17.7803ZM19.0523 15.1927V13.9915C19.0525 13.9809 19.0505 13.9703 19.0466 13.9604C19.0426 13.9505 19.0367 13.9415 19.0293 13.9339C19.0218 13.9263 19.0129 13.9202 19.003 13.9161C18.9932 13.912 18.9827 13.9098 18.972 13.9098H12.7823V15.2717H18.972C18.9827 15.2719 18.9934 15.2699 19.0033 15.2659C19.0132 15.2618 19.0222 15.2558 19.0298 15.2482C19.0373 15.2405 19.0432 15.2314 19.0471 15.2214C19.051 15.2114 19.0528 15.2008 19.0524 15.19L19.0523 15.1927ZM18.2353 12.6052V11.3985C18.2353 11.3772 18.2268 11.3568 18.2117 11.3418C18.1966 11.3267 18.1762 11.3182 18.1549 11.3182H12.7823V12.6801H18.1549C18.1759 12.6798 18.1959 12.6714 18.2109 12.6567C18.2259 12.642 18.2346 12.6221 18.2353 12.6011V12.6052ZM8.14931 14.0447V15.2703H9.91971C9.77401 16.0193 9.11481 16.5628 8.14931 16.5628C7.63773 16.5446 7.15319 16.3286 6.79771 15.9603C6.44224 15.5919 6.24358 15.1 6.24358 14.5881C6.24358 14.0762 6.44224 13.5843 6.79771 13.2159C7.15319 12.8476 7.63773 12.6315 8.14931 12.6133C8.61519 12.6055 9.06537 12.7817 9.40221 13.1036L10.3364 12.1707C9.74498 11.6146 8.96113 11.309 8.14931 11.3182C7.28245 11.3182 6.45109 11.6626 5.83813 12.2756C5.22517 12.8885 4.88081 13.7199 4.88081 14.5867C4.88081 15.4536 5.22517 16.285 5.83813 16.8979C6.45109 17.5109 7.28245 17.8552 8.14931 17.8552C10.0382 17.8552 11.2816 16.5273 11.2816 14.6575C11.2806 14.4504 11.2632 14.2437 11.2298 14.0392L8.14931 14.0447Z" fill="#0F1E42"/>
</g>
<defs>
<clipPath id="clip0_1_124">
<rect width="24" height="24" fill="white"/>
</clipPath>
</defs>
</svg>
