<svg width="430" height="200" viewBox="0 0 430 200" fill="none" xmlns="http://www.w3.org/2000/svg">
<g clip-path="url(#clip0_37_5943)">
<path d="M105.119 102.917H76V111.576H105.119V102.917Z" fill="#00B48D"/>
<path d="M121.15 46H112.555V111.576H138.732V102.916H121.15V46Z" fill="#0F1E42"/>
<path d="M155.414 46L141.721 111.576H150.528L153.11 98.1515H165.905L168.388 111.576H177.212L163.601 46H155.414ZM164.287 89.4925H154.744L159.515 64.1397L164.287 89.4925Z" fill="#0F1E42"/>
<path d="M174.484 54.7408H185.253V111.575H193.864V54.7408H204.731V46.0981H174.484V54.7408Z" fill="#0F1E42"/>
<path d="M217.328 46H208.717V111.576H217.328V46Z" fill="#0F1E42"/>
<path d="M221.43 54.7408H232.198V111.575H240.793V54.7408H251.66V46.0981H221.43V54.7408Z" fill="#0F1E42"/>
<path d="M276.824 96.7385C276.824 99.1538 276.317 100.945 275.32 102.079C274.324 103.196 272.706 103.754 270.5 103.754C268.294 103.754 266.66 103.196 265.631 102.079C264.601 100.961 264.078 99.1702 264.078 96.7385V46H255.467V96.7385C255.467 101.898 257.003 105.907 260.009 108.684C262.657 111.148 266.17 112.397 270.5 112.397C272.559 112.397 274.503 112.085 276.285 111.444C278.082 110.82 279.618 109.883 280.876 108.684C283.899 105.907 285.419 101.881 285.419 96.7385V46H276.807V96.7385H276.824Z" fill="#0F1E42"/>
<path d="M306.857 46H291.84V111.576H306.857C311.105 111.576 314.602 110.425 317.249 108.141C320.272 105.365 321.792 101.372 321.792 96.2784V61.6586C321.792 56.565 320.256 52.5559 317.249 49.7134C314.602 47.2487 311.122 46 306.857 46ZM313.18 61.6586V96.2784C313.18 98.8088 312.609 100.6 311.465 101.635C310.566 102.489 309.014 102.916 306.857 102.916H300.435V54.6591H306.857C309.063 54.6591 310.68 55.2177 311.677 56.335C312.674 57.4523 313.18 59.2597 313.18 61.675V61.6586Z" fill="#0F1E42"/>
<path d="M327.824 111.576H354.002V102.916H336.419V82.3286H348.658V73.6696H336.419V54.6591H354.002V46H327.824V111.576Z" fill="#0F1E42"/>
<path d="M251.105 153.589H263.818V150.615H254.063V137.996H260.942V135.022H254.063V123.208H263.818V120.218H251.105V153.589Z" fill="#00B48D"/>
<path d="M275.075 146.408L269.487 120.727L269.389 120.218H266.35L273.686 153.589H276.448L283.785 120.218H280.746L275.075 146.408Z" fill="#00B48D"/>
<path d="M286.873 153.589H299.586V150.615H289.831V137.996H296.71V135.022H289.831V123.208H299.586V120.218H286.873V153.589Z" fill="#00B48D"/>
<path d="M315.534 143.812L305.665 120.218H303.688V153.589H306.645V129.994L316.531 153.589H318.492V120.218H315.534V143.812Z" fill="#00B48D"/>
<path d="M321.924 123.208H327.937V153.589H330.895V123.208H336.957V120.218H321.924V123.208Z" fill="#00B48D"/>
<path d="M353.999 131.078V127.316C353.999 124.818 353.28 122.896 351.875 121.581C350.6 120.398 348.917 119.807 346.842 119.807C344.767 119.807 343.035 120.398 341.809 121.581C340.371 122.929 339.652 124.851 339.652 127.316V128.236C339.652 131.127 340.42 133.313 341.956 134.709C343.411 136.04 344.865 136.993 346.287 137.536C347.332 137.963 348.411 138.702 349.506 139.737C350.519 140.707 351.042 142.218 351.042 144.223V146.474C351.042 148.117 350.633 149.3 349.832 150.039C349.146 150.68 348.133 151.009 346.842 151.009C345.551 151.009 344.489 150.68 343.819 150.039C343.018 149.284 342.61 148.084 342.61 146.474V141.167H339.652V146.474C339.652 148.939 340.371 150.877 341.809 152.208C343.051 153.391 344.751 153.983 346.858 153.983C348.966 153.983 350.617 153.391 351.891 152.208C353.297 150.894 354.016 148.971 354.016 146.474V144.223C354.016 139.869 351.81 136.698 347.463 134.792C346.76 134.496 346.074 134.151 345.404 133.74C344.783 133.362 344.162 132.705 343.525 131.768C342.92 130.865 342.61 129.682 342.61 128.236V127.316C342.61 125.705 343.018 124.506 343.835 123.75C344.505 123.109 345.519 122.781 346.858 122.781C348.198 122.781 349.195 123.109 349.849 123.766C350.649 124.489 351.058 125.689 351.058 127.332V131.095H354.016L353.999 131.078Z" fill="#00B48D"/>
</g>
<defs>
<clipPath id="clip0_37_5943">
<rect width="278" height="108" fill="white" transform="translate(76 46)"/>
</clipPath>
</defs>
</svg>
