<svg width="380" height="53" viewBox="0 0 380 53" fill="none" xmlns="http://www.w3.org/2000/svg">
<path d="M24.971 45.4253H0V52.3325H24.971V45.4253Z" fill="#C5168C"/>
<path d="M38.7218 0H31.3409V52.3323H53.7978V45.4252H38.7218V0Z" fill="#0F1E42"/>
<path d="M68.1069 0L56.3604 52.3323H63.9196L66.1279 41.6258H77.0931L79.2249 52.3323H86.7842L75.1226 0H68.1069ZM75.7086 34.7186H67.5209L71.6147 14.4899L75.7086 34.7186Z" fill="#0F1E42"/>
<path d="M84.4609 6.97894H93.7019V52.3326H101.083V6.97894H110.392V0.0717773H84.4609V6.97894Z" fill="#0F1E42"/>
<path d="M121.206 0H113.825V52.3323H121.206V0Z" fill="#0F1E42"/>
<path d="M124.712 6.97894H133.953V52.3326H141.334V6.97894H150.643V0.0717773H124.712V6.97894Z" fill="#0F1E42"/>
<path d="M172.231 40.4972C172.231 42.4286 171.798 43.8593 170.931 44.7575C170.082 45.6398 168.689 46.0928 166.804 46.0928C164.918 46.0928 163.508 45.6398 162.633 44.7575C161.75 43.8593 161.3 42.4286 161.3 40.5051V0H153.919V40.4972C153.919 44.6065 155.227 47.8176 157.817 50.0352C160.085 52.0065 163.109 53 166.804 53C168.57 53 170.235 52.7457 171.772 52.2449C173.31 51.7442 174.635 50.997 175.713 50.0352C178.295 47.8176 179.612 44.6065 179.612 40.4972V0H172.231V40.4972Z" fill="#0F1E42"/>
<path d="M197.982 0H185.097V52.3323H197.982C201.626 52.3323 204.624 51.4103 206.892 49.5901C209.474 47.3725 210.79 44.1852 210.79 40.1236V12.5028C210.79 8.44121 209.482 5.23005 206.892 2.96476C204.624 0.993551 201.626 0 197.982 0ZM203.409 12.5028V40.1315C203.409 42.1425 202.917 43.5811 201.94 44.4078C201.167 45.0834 199.834 45.4331 197.982 45.4331H192.478V6.90717H197.982C199.876 6.90717 201.261 7.36023 202.11 8.2425C202.968 9.14067 203.409 10.5714 203.409 12.5028Z" fill="#0F1E42"/>
<path d="M215.956 52.3323H238.413V45.4252H223.337V28.9958H233.835V22.0886H223.337V6.90717H238.413V0H215.956V52.3323Z" fill="#0F1E42"/>
<path d="M268.151 37.8821L253.389 0H251.24V52.3323H254.833V12.5982L267.047 44.209H269.179L281.392 12.5982V52.3323H284.985V0H282.836L268.151 37.8821Z" fill="#0F1E42"/>
<path d="M290.623 52.3323H311.109V48.9701H294.216V27.2233H306.141V23.8611H294.216V3.36218H311.109V0H290.623V52.3323Z" fill="#0F1E42"/>
<path d="M327.427 0H315.808V52.3323H327.427C330.807 52.3323 333.542 51.5136 335.547 49.8842C337.874 47.913 339.054 44.9959 339.054 41.2284V11.398C339.054 7.58278 337.899 4.64982 335.632 2.67066C333.576 0.89817 330.816 0 327.427 0ZM335.453 11.398V41.2363C335.453 46.4425 332.829 48.9701 327.427 48.9701H319.4V3.36218H327.427C329.856 3.36218 331.801 3.95831 333.194 5.12672C334.697 6.43821 335.453 8.54454 335.453 11.398Z" fill="#0F1E42"/>
<path d="M347.547 0H343.954V52.3323H347.547V0Z" fill="#0F1E42"/>
<path d="M367.591 0.246401L367.532 0H364.075L351.606 52.3323H355.301L358.461 38.7405H373.155L376.314 52.3323H380L367.591 0.246401ZM372.297 35.3784H359.319L365.842 7.47945L372.297 35.3784Z" fill="#0F1E42"/>
<path d="M24.971 45.4253H0V52.3325H24.971V45.4253Z" fill="#C5168C"/>
</svg>
